<?xml version="1.0" encoding="utf-8"?>
<!-- Generator: Adobe Illustrator 21.1.0, SVG Export Plug-In . SVG Version: 6.00 Build 0)  -->
<svg version="1.1" id="Layer_1" xmlns="http://www.w3.org/2000/svg" xmlns:xlink="http://www.w3.org/1999/xlink" x="0px" y="0px"
	 viewBox="0 0 1274 690" style="enable-background:new 0 0 1274 690;" xml:space="preserve">
<g>
	<g>
		<path d="M853.4,265.3c5-6.7,9.6-13.3,14.5-19.5c6.8-8.4,16-12.8,26.5-13.1c5.3-0.2,10.5,2.3,14,6.8c1.5,2,1.9,4.7,2.5,7.1
			c1.4,5.3,0.3,10.5-0.2,15.7c0,0.4-0.1,0.8-0.1,1.4c1.2-0.3,1.5-1.3,2-2c4.1-6,8.3-11.9,13.7-16.9c6.3-5.8,13.8-9.5,22.1-11.3
			c5.4-1.1,10.8-0.8,16,1.6c4.7,2.2,7.6,8.4,6.2,14.2c-1.7,6.7-2.8,13.7-5.6,20c-4.4,10.1-8.4,20.4-13.4,30.3
			c-3.3,6.5-5.5,13.5-8.8,20c-5.3,10.6-9.1,21.7-13.9,32.4c-2.5,5.6-3.5,11.8-5.6,17.6c-3.5,9.9-4.5,20.3-6.1,30.6
			c-0.8,5-0.4,5.5,4.5,5.3c7.5-0.3,14.9-1.2,22-4.1c2.4-1,5-1.6,7-3.3c0.7-0.6,1.5-1.1,1.1-2.1c-1.8-4.4-1.4-8.8-0.6-13.3
			c0.8-4.6,1.5-9.3,3.6-13.5c4.7-9.3,10.2-18.1,19.8-23.2c7.7-4.1,15.5-4.7,23.2-0.1c2.6,1.6,3.3,3.4,2.9,6.6
			c-1.3,10.5-6.7,18.9-13.2,26.9c-2.4,2.9-4.8,5.6-7.2,8.5c-3.4,4.1-7.7,7-11.9,10c-1.8,1.3-2,2.6-1.2,4.4c0.5,1.1,1,2.3,1.7,3.4
			c1.1,1.7,2.7,2.5,4.7,1.8c4.3-1.4,8.5-2.9,11-7.2c0.9-1.5,2.4-2.7,3.7-3.9c1.2-1.1,2.7-1,4.1-0.6c1.8,0.5,3.4,1.3,4.8,2.4
			c2.9,2.4,2.9,4.4-0.2,6.6c-4,2.9-8.5,4.7-13.3,6c-9.2,2.6-17.3,0.1-24.9-5c-1.6-1.1-2.9-1.2-4.7-0.6c-7.4,2.3-14.9,4.7-22.9,4.7
			c-1,0-2,0.2-3.1,0.3c-7.7,1-14.7-1.3-21.3-4.8c-3.1-1.6-4.7-4.7-5.3-8.1c-0.5-2.6-0.6-5.4,0.1-8c1.9-7,2.6-14.3,5-21.2
			c2.9-8.4,5.3-16.9,8.9-25c5.6-12.4,10.7-25.1,16.7-37.4c1.6-3.3,2.8-6.9,4.5-10.2c4-8.1,7.9-16.2,11.1-24.6
			c2.5-6.6,5.6-13.1,6.4-20.3c0.5-4,0.8-8,2.1-11.9c0.5-1.5-0.3-1.5-1.5-1.4c-4,0.3-6.8,2.7-9.6,5.1c-5.5,4.7-9.4,10.9-13.7,16.5
			c-7.4,9.5-12.7,20.3-18.7,30.7c-5.8,10-10.6,20.5-16.8,30.2c-4.7,7.3-7.3,15.6-11.2,23.2c-5.3,10.3-9.8,21.1-15.6,31.1
			c-3.7,6.4-8,6.8-15.1,5c-2-0.5-2.9-2-2.9-4.1c-0.1-2.3,0.4-4.4,1.8-6.2c1.4-1.8,2.1-4.1,3.1-6.1c3.3-6.7,6.2-13.7,10.2-20
			c3.5-5.6,6-11.6,9.5-17.2c1.1-1.7,1.5-3.6,2.3-5.4c3.8-8.5,6.4-17.3,9.4-26.1c2.6-7.7,4.2-15.5,6-23.4c2.2-9.1,2.1-18.3,2.7-27.5
			c0.1-1.5,0.1-3,0.3-4.5c0.2-1.6-0.4-1.9-1.7-1.3c-1.4,0.6-2.7,1.3-3.8,2.3c-4.2,3.6-7.8,7.8-11,12.3
			c-11.3,15.5-21.5,31.7-31.5,48.1c-6.4,10.4-12.3,21-18.9,31.2c-7,10.7-13,22-20.2,32.6c-6.8,10.1-12.5,20.9-19.3,30.9
			c-5,7.3-9.2,15.1-14,22.5c-2.1,3.3-5,5.6-9.2,5.8c-2.5,0.2-4.9,1.3-7.5,0.4c-2.6-0.9-3.2-2.2-2-4.7c3.9-7.9,7.6-16,11.9-23.7
			c5.5-10,10.3-20.3,15.9-30.1c5.2-9,9.5-18.6,14.7-27.6c5.6-9.6,10.2-19.8,15.7-29.4c4.3-7.5,7.7-15.4,11.6-23
			c4-7.9,7.5-16,11.4-23.9c6.1-12.3,9.4-25.4,12.6-38.6c0.5-2.2,0.1-2.7-2.1-2c-7,2.3-13.3,5.8-19.3,10
			c-9.4,6.5-18.1,13.7-26.1,21.8c-4.1,4.2-7.7,8.9-10.8,13.8c-2.2,3.4-5.1,4.3-8.7,3.9c-3.1-0.3-4.3-2.3-3.3-5.1
			c1.6-4.6,4.8-8.1,7.6-11.9c5.3-7.1,12.2-12.6,19-18.1c7.7-6.2,16.1-11.4,25.3-15.2c3.8-1.6,7.9-3,12-3.5
			c6.9-0.8,13.1,1.2,17.6,6.7c3.3,4,3,8.9,1.5,13.6c-2.5,7.9-4.9,15.8-8.2,23.5C855,261.6,853.5,263,853.4,265.3z M967.5,382
			c1.4,0,1.7-0.8,2.2-1.4c3.2-3.8,5.7-8.2,8.8-12.1c3.1-4,4.8-8.5,6.1-13.2c0.3-1,0.6-2.1-0.1-3.6
			C975.4,360.2,970.1,370.2,967.5,382z"/>
		<path d="M367.4,264.2c3.3-3,6-5.5,8.7-8c4.5-4.3,9.8-7.6,15.4-10c10.5-4.6,21.4-6.5,32.8-4.1c5.2,1.1,8,4.3,8.4,9.7
			c0.3,3.2,0.1,6.3-0.5,9.4c-0.8,4.3-1.5,8.6-2.5,12.8c-2.4,9.9-4.9,19.8-7.3,29.6c-0.1,0.4-0.6,0.9-0.1,1.3
			c0.4,0.4,0.9,0.1,1.3-0.1c2.2-0.7,4.4-1.3,6.6-1.8c3.5-0.8,6.9,0,10.3,0.5c1.5,0.2,3.2,0.8,3.3,2.6c0.1,1.9-1.5,2.9-3.1,3.5
			c-3.1,1.2-6.4,1.8-9.4,3.3c-3.6,1.9-7.7,3-11.2,5c-1.2,0.7-2.1,1.5-2.5,2.9c-2.6,8-4.4,16.2-6.7,24.2c-2.2,7.6-3.7,15.4-5.9,22.9
			c-2,6.9-2.8,13.9-4.5,20.8c-1.6,6.5-1.8,13.1-3,19.6c-1.4,7.4-0.8,14.8-1.6,22.2c-0.3,3.1,0.1,6.3,0.4,9.5
			c0.5,4.8,0.2,9.6,1.8,14.3c2.2,6.4,2.6,6.6,7.8,2.6c6.1-4.6,11.1-10.3,16.2-15.9c4.6-5,9-10.2,13.2-15.5c1.4-1.7,2.5-3.5,3.3-5.5
			c1.3-3.2,3.4-4.9,7-5.1c2.7-0.2,5.3-0.6,8,0.1c4.1,1.1,5.1,2.9,3.7,6.9c-1.7,4.8-5.3,8.4-8.4,12.2c-6.8,8.2-14.5,15.6-23.1,22
			c-4.5,3.3-9.4,6.4-14.9,7.7c-10,2.3-19.4,0.6-26.4-7.4c-5.5-6.3-8.2-13.9-8.3-22.4c-0.2-12.7,1.2-25.2,3-37.7
			c1.5-9.7,3.7-19.2,5.9-28.8c1.8-7.4,3.4-14.8,5.6-22c1.4-4.7,2.8-9.4,4-14.1c0.1-0.5,0.5-1.1,0.1-1.6c-0.5-0.5-1,0-1.5,0.2
			c-6.1,2.5-12.2,5.4-18.5,7.4c-5.7,1.8-11.1,4.5-17.1,5.7c-1.7,0.3-3.3,1.2-4.9,1.8c-4.7,1.8-9.4,3.6-14.2,5.4
			c-1.9,0.7-3.1,1.9-4,3.7c-2.6,5.4-4.6,11.1-7.5,16.4c-2.6,4.8-4.7,9.8-6.8,14.8c-3.3,7.6-6.4,15.3-9.7,22.9
			c-1.7,3.9-3.5,7.8-5.3,11.6c-1.8,3.7-4.7,5.5-8.5,5.9c-3.4,0.4-6.8,0-9.9-1.5c-2.6-1.2-3-2.8-1.9-5.4c3.4-7.7,6.6-15.6,10.3-23.1
			c3.9-7.8,6.4-16,9.1-24.1c0.6-1.7,1.8-3,2.2-4.7c0.1-0.5,0.6-1.1,0.2-1.6c-0.5-0.6-1,0-1.5,0.2c-3,0.9-5.7,2.3-8.5,3.5
			c-6.3,2.8-12.8,4.9-19.7,5.8c-2.8,0.4-5.5-0.4-8-1.5c-2.8-1.3-2.9-4.2-0.2-5.7c4.8-2.6,9.4-5.6,14.7-7c0.2-0.1,0.4-0.2,0.7-0.3
			c7.6-4.2,15.7-7,23.5-10.7c0.4-0.2,0.7-0.5,1.1-0.5c4.4-0.4,5.9-3.7,7.1-7.2c2.2-6.2,4-12.5,6.8-18.4c4-8.5,6.6-17.4,10.5-25.9
			c3.6-7.8,6-16,9.5-23.7c3.6-7.8,6.6-15.9,10.6-23.5c3.5-6.7,6.7-13.4,9.5-20.4c2.4-5.9,6.2-8.1,12.3-8c1.7,0,3.1,0.6,4.4,1.5
			c1.6,1.2,2,2.3,1.4,4.4c-2.2,7.2-4.9,14.2-7.8,21.1c-1.7,4-3.4,8-5.1,12C368.1,261.9,367.9,262.7,367.4,264.2z M343.8,336.9
			c3.9-1.2,7.4-2.1,10.6-3.3c9.4-3.6,18.7-7.6,28-11.5c4.1-1.7,7.8-4.1,12.2-5.3c3.8-1,6-3.3,6.6-7.5c0.5-3.7,2.2-7.3,3.1-10.9
			c2.7-11.3,6.1-22.4,8.3-33.8c1.3-6.7-0.1-13.8,3.1-20.4c-2.2,0.4-4.4,0.3-6.6,1c-5.3,1.9-9.9,4.8-14,8.6
			c-6.5,6-11.6,13.2-16.3,20.5c-5.6,8.7-11.2,17.4-16.2,26.4c-5.7,10.2-11.5,20.4-16.5,30.9C345.3,333.2,344.7,334.8,343.8,336.9z"
			/>
		<path d="M596.3,375.3c-1.8,1.5-3.2,2.6-4.3,3.8c-5.1,5.5-11,10.2-17.1,14.6c-3.9,2.9-8.5,4.5-13.5,4.3c-1.2,0-2.4-0.2-3.5-0.5
			c-4.3-1.1-6.5-4.5-5.4-8.8c1.5-6,2.2-12.3,4.5-18.1c3.7-9.5,6.7-19.3,11.6-28.2c3.9-7.1,7.4-14.5,12.6-20.8
			c3.6-4.4,7.9-7.2,13.8-7c1.4,0,2.9,0.1,3.3,1.6c0.4,1.4-1.1,2.1-2.1,2.5c-4.9,1.9-6.4,6.7-8.5,10.6c-3.4,6.2-5.8,13-8.8,19.4
			c-4.4,9.6-7.5,19.6-11,29.5c-1.3,3.6-1.7,7.4-2.1,11.2c-0.1,1.3,0.3,1.4,1.3,0.8c0.6-0.4,1.3-0.6,1.8-1.1
			c8.6-8.5,17.9-16.4,24.7-26.7c6-9,12.1-18,15.9-28.2c1.7-4.5,4-8.7,5.8-13.2c1.8-4.7,9.4-6.3,13.4-3.1c1.1,0.9,1.5,2,1.1,3.4
			c-1.8,5.8-3.6,11.6-6.4,17c-2.2,4.2-3.7,8.7-5.2,13.2c-3.1,9-6.8,17.9-8.2,27.4c-0.6,4.3-1.6,8.5-1.2,12.9
			c0.1,0.7-0.2,1.6,0.6,1.9c0.7,0.3,1.1-0.5,1.5-0.9c5.2-5.3,10.2-10.8,15.2-16.2c3.7-4,5.3-8.5,6.4-13.6c1.7-7.6,3.9-15.1,6.8-22.4
			c1.7-4.3,2.8-8.9,4.5-13.2c4.7-11.7,8.3-23.7,13.4-35.2c0.5-1.1,1.5-2.5,0.9-3.5c-0.7-1.1-2.2,0.1-3.3,0.3
			c-1.8,0.2-3.5,0.9-5.2,1.4c-7.2,2-14.4,4.3-21.7,6c-5.2,1.2-10.3,2.8-15.5,4.3c-3,0.9-6.2,1.6-9.5,1.6c-1.7,0-2.6-0.8-3.3-2.2
			c-0.8-1.5-0.4-2.8,0.6-4c1.2-1.4,2.8-2.4,4.6-2.7c2.9-0.5,5.6-1.5,8.4-2.4c11.4-3.3,22.9-6.4,34.3-10.1c4.3-1.4,8.7-2.8,13-4.4
			c2.9-1,4.3-3,5.2-5.7c2.4-6.9,5-13.7,8.1-20.2c2.6-5.5,5.6-10.8,9.5-15.5c3.6-4.3,8.2-7.2,13.9-7.9c4.9-0.6,10,2.7,11.5,7.5
			c1.7,5.5,0.6,11,0,16.4c-0.2,2.2-0.7,4.4-1.2,6.5c-0.4,1.7,0,2.2,1.8,1.6c2.6-0.9,5.3-1.3,8.1-1.4c3.3-0.1,5.8,1.7,8.4,3.4
			c1.2,0.8,1.2,2.1,0.2,3.1c-4.2,4.1-8.8,7.2-15.2,5.2c-3.1-1-7.4,1.5-8.6,4.6c-5,12.9-11.4,25.2-18.2,37.2
			c-5.8,10-11.2,20.2-17.8,29.6c-5.8,8.3-11.1,17-17.6,24.7c-3.2,3.8-4.4,8.2-4.8,12.8c-0.6,6.8-0.6,13.7,0.8,20.5
			c0.7,3.7,2.1,7.1,3.6,10.5c2.5,5.8,8.7,7.3,13.7,3.5c5.2-4,8.8-9.3,11.7-15c3.5-6.6,6.9-13.3,7.7-21c0.4-4-0.3-7.9-0.6-11.8
			c-0.3-3.9,0.6-4.8,4.4-3.7c6.3,1.8,10.1,8.1,9.5,14.8c-0.6,5.8-1.8,11.4-4.1,16.7c-3.4,7.8-8.5,14.5-15.3,19.6
			c-9.5,7-20.1,8.5-30.8,3.2c-7-3.5-11.8-9.3-13.7-17.3c-0.6-2.8-1.4-5.5-1.4-8.4c0-0.6,0.2-1.4-0.6-1.7c-0.7-0.2-1.1,0.5-1.5,0.9
			c-3.7,3.7-7.8,6.9-12.6,9.1c-5.3,2.4-10.7,1.8-15.8-0.6c-2.1-1-3.3-2.7-3.3-5.5c-0.1-5.1,0.1-10.1,1-15.1
			C596.4,377,596.3,376.5,596.3,375.3z M655,335.5c0.3,0.1,0.4,0.2,0.5,0.2c0,0,0.1-0.1,0.2-0.2c2.6-3.9,5.5-7.6,7.7-11.7
			c7.3-13.6,16-26.5,21.9-40.9c0.5-1.3,2.1-2.9,1.3-3.8c-0.9-1.1-2.8,0.2-4.1,0.5c-5.4,1.2-9.1,4.2-10.7,10
			c-1.7,6.2-4,12.3-6.5,18.3C661.2,317,659,326.6,655,335.5z M696.7,244c-0.1-2.5,0-5.1-0.8-7.5c-0.2-0.6-0.2-1.4-0.9-1.5
			c-0.7-0.1-0.9,0.8-1.2,1.3c-5.4,10.1-9,21-13.4,31.6c-0.2,0.5-0.6,1.1,0,1.5c0.4,0.3,0.9,0,1.3-0.2c3.4-1.1,6.4-3,9.9-3.9
			c0.7-0.2,1-0.8,1.2-1.4C694.5,257.4,696.3,250.9,696.7,244z"/>
		<path d="M462.6,328.4c2.9-2.3,5.8-4.5,8.8-6.6c6.9-5,14.7-7.4,23.1-7.2c6.4,0.1,12.4,2.3,17.7,6.1c5.3,3.8,6.5,9.4,5.9,15.6
			c-0.3,2.7-0.7,5.4-2.1,8c-0.9,1.5-1.2,3.4-1.6,5.2c1.9-2.2,3.8-4.4,5.5-6.7c3.4-4.6,7.8-8.1,12.2-11.4c3.5-2.7,7.4-3.8,11.8-2.5
			c1.5,0.4,3.1,0.6,4.6,0.9c2.2,0.4,3.8,1.7,4.8,3.6c2.8,5.6,4.2,11.4,2.6,17.6c-0.6,2.4-0.8,4.9-1.4,7.2c-2.3,8.1-6.4,15-12.9,20.6
			c-3,2.6-5.4,5.8-8.6,8.1c-3.6,2.5-7.1,5.3-11.2,7.1c-5.7,2.5-11.8,2.9-17.8,1c-4-1.2-4.9-2.6-4.8-6.8c0.3-6.7,2-13.1,5.2-19
			c0.1-0.3,0.2-0.5,0.2-0.9c-2.1,2.3-4.1,4.6-5.9,7.2c-5.7,8-12.8,14.7-20.2,21.1c-4.9,4.2-10.2,7.9-16,10.5
			c-6.9,3.1-14.1,5.5-21.9,5.2c-4.6-0.2-8.7-1.8-12.5-4c-2.4-1.4-3.8-4-4.1-6.9c-0.2-1.4-0.6-2.2-2.1-2.7c-3.8-1.2-4.2-2-3-5.9
			c3.1-10.1,7.6-19.6,11.5-29.3c5.5-13.6,11.6-27,16.7-40.8c2.6-7,4.8-14.2,7.7-21.1c3.7-8.7,6-17.8,10-26.3
			c3.6-7.8,6.4-16,10.3-23.6c3.5-6.7,6.8-7.6,13.7-7.1c3.4,0.3,4.5,2.6,2.7,5.5c-3.1,4.9-5.4,10.2-7.1,15.7
			c-2.8,9-6.3,17.7-9.5,26.5c-3.9,11.1-8,22.1-11.9,33.2C462.9,326.3,462.3,327.1,462.6,328.4z M502.9,326.4c1-7-3.6-9.8-9.3-7.9
			c-1.1,0.4-2.3,0.8-3.3,1.3c-4.6,2.2-8.3,5.5-12,9.1c-5.6,5.6-10.5,11.8-15.3,18c-7,9.1-12.6,19.1-18.1,29.2
			c-0.4,0.8-0.8,1.6-0.4,2.5c0.9,2,0.3,3.9-0.7,5.7c-3.5,6.2-5.4,12.9-6.6,19.9c-0.8,4.7-1,4.4,4.2,4.2c0.4,0,0.8-0.2,1.1-0.3
			c9.9-2.4,17.4-8.7,24.7-15.3c11-9.9,18.7-22.4,26.4-34.8C499.9,348.2,503.1,337.4,502.9,326.4z M537.6,335.9
			c-0.4,0.4-0.7,0.6-0.9,0.9c-5.3,6.5-9.1,14-13.4,21.1c-4.2,7-7,14.6-9.5,22.4c-1.1,3.5-1.5,7.1-1.5,10.7c0,0.9,0.4,1.2,1.2,0.7
			c1.6-1.1,3.3-1.7,4.8-2.9c3.5-2.8,6.7-6,9.7-9.3c5.4-5.9,9.5-12.8,12.6-20.2c2.2-5.2,2.5-10.9,2.3-16.5c-0.1-1.4-0.5-2.1-1.9-2.1
			c-1.7,0-2.3-1.1-2.6-2.5C538.1,337.5,538.4,336.7,537.6,335.9z"/>
	</g>
</g>
</svg>
