<?xml version="1.0" encoding="utf-8"?>
<!-- Generator: Adobe Illustrator 21.1.0, SVG Export Plug-In . SVG Version: 6.00 Build 0)  -->
<svg version="1.1" id="Layer_1" xmlns="http://www.w3.org/2000/svg" xmlns:xlink="http://www.w3.org/1999/xlink" x="0px" y="0px"
	 viewBox="0 0 1274 690" style="enable-background:new 0 0 1274 690;" xml:space="preserve">
<g>
	<g>
		<path d="M827.2,408.8c-6.7,3.9-13.3,7.7-20.3,10.6c-6,2.5-12.2,4.5-18.8,5.1c-10.6,1-20.1-2.5-29-7.7c-1.8-1-2.7-1-4.3,0.4
			c-12.4,10.4-26.3,17.3-42.4,19.6c-12.2,1.7-30.1-6.7-35-16.5c-1.3-2.5-1.8-5-1.6-7.7c0-0.6,0.4-1.5-0.3-1.9
			c-0.7-0.5-1.2,0.4-1.7,0.7c-7,4.6-14,9.1-22.2,11.4c-4.5,1.3-9,1.5-13.6,0c-0.9-0.3-1.8-0.3-2.7-0.4c-2.5-0.3-4.7-1-6.8-2.4
			c-2.8-1.8-3.7-4-3-7.3c1.6-7.1,4.9-13.5,8.9-19.5c11.4-17.5,25.1-32.7,43.1-43.7c8-4.9,16.5-9,26-9.9c4.3-0.4,8.7-0.5,12.7,1.6
			c1.3,0.7,2.1,0.2,3-0.8c4.1-4.2,8.4-8.2,13.6-10.9c6.2-3.2,12.4-2.9,18.5,0c2.6,1.2,3,2.9,1.5,5.6c-3,5.8-7.5,10.6-11.9,15.5
			c-8,8.9-16.6,17.2-24.7,25.9c-5.9,6.3-9.7,14.1-13.3,22c-3.5,7.7-4.6,16-5.9,24.3c-0.2,1.5-0.2,3.2,0,4.7c0.4,3.8,2.8,5.6,6.4,4.7
			c7.6-1.7,14.7-4.6,21-9.2c7.9-5.9,14.6-13.2,21.6-20.1c0.7-0.7,1.1-1.4,1.2-2.4c0.4-13,6.1-24.1,12.8-34.8
			c6.2-9.8,14.5-17.2,24.7-22.5c6-3.1,12.3-4.9,19.1-4c3.9,0.5,7.6,1.8,11.5,2.2c3.6,0.4,5.2,2.4,5.1,4.8c-0.1,2.7-3.2,6.6-5.8,7.2
			c-3.4,0.8-6.7,1-10.1-0.2c-2.9-1.1-3.9-2.8-2.8-5.6c0.4-1,0.6-2,1.1-3.6c-4,2.6-7,5.5-9.6,8.7c-7,8.6-13.9,17.4-18.6,27.6
			c-3.1,6.8-5.4,13.8-5.7,21.4c-0.1,3.4-1,6.8-0.4,10.2c1.2,6.5,5.6,9.6,12.1,8.3c5.8-1.1,10.9-3.8,15.8-6.8
			c11.2-6.7,21.5-14.6,31.4-23.2c5-4.3,7.5-9.3,9.2-15.4c7.9-27.9,17.3-55.3,30.6-81.3c1.1-2.2,0.9-2.5-1.7-2.4
			c-23.4,1.3-46.8,2.6-70.3,4c-20.4,1.2-40.8,2.4-61.3,3.6c-14.7,0.9-29.3,2-44,3c-1.8,0.1-3.1,0.7-4.2,2.3
			c-5.5,8.2-11.7,15.9-17.8,23.6c-14,17.5-29,34.1-45.3,49.5c-11.5,11-23.9,20.9-37.7,28.9c-5.2,3-7.9,7-8.9,12.6
			c-0.5,2.9-1.6,5.7-1.2,9c1-0.9,2.1-1.8,3.1-2.8c4.6-4.2,10-5.5,16-4.6c3.5,0.5,4.8,3,2.5,5.7c-6.1,7-13.1,12.9-22.9,13.5
			c-5,0.4-9.8-1.2-13.8-4.3c-3.1-2.4-4.6-5.6-4.2-9.7c0.2-2.6,0-2.7-2.4-1.6c-6.5,3-13,6.1-20.1,7.7c-7.9,1.7-15.1-0.3-22-3.8
			c-3.6-1.8-4.3-4.8-3.1-9.3c1.6-5.7,4.4-10.8,7.4-15.9c8.1-13.8,17.7-26.6,26.6-39.8c4.2-6.2,8.1-12.7,10.7-19.8
			c0.4-1.2,1.2-2.3,2-3.7c-3.9,1.2-7.2,3.2-10.4,5.2c-10.1,6.3-19.3,13.8-28.6,21.1c-11.4,9-22.7,18.1-33.7,27.7
			c-2.5,2.2-4.1,5-6.1,7.6c-4.4,5.9-8.7,11.9-13.8,17.2c-4.1,4.3-12,5.4-17.2,2.7c-3.1-1.7-4.1-5-2.1-8.1c2.8-4.5,6.4-8.3,10-12.2
			c1.4-1.5,2.7-3,4.2-4.3c7.8-6.4,12.7-15,18.3-23.1c9.6-13.6,19.5-27,29.6-40.1c2.9-3.7,8.6-5,13.3-3.2c3.1,1.2,3.6,2.5,1.8,5.3
			c-3.4,5.2-6.9,10.5-10.3,15.7c-0.5,0.8-1.1,1.7-1.3,2.8c3-2.1,6-4.2,9.1-6.3c7.9-5.4,16.3-9.9,25.5-12.6c2.8-0.9,5.7-1.3,8.6-1.8
			c6.6-1.1,12.2,1.4,17.3,4.9c3.5,2.4,4.1,5,2.7,9c-2.9,7.9-7.5,14.9-12.2,21.8c-8.3,12.1-17,24-24.4,36.7
			c-3.5,6.1-6.8,12.3-8.2,19.8c3.3-1.6,6.2-3,9.1-4.5c7.4-3.6,14.4-7.7,21.6-11.8c1.6-0.9,2.6-2.1,3.2-3.9
			c7.5-20.5,17.6-39.9,28.6-58.8c7.1-12.1,14.6-24,21.8-36c0.4-0.6,1.2-1.3,0.7-2c-0.5-0.9-1.5-0.4-2.3-0.3
			c-18.3,1.6-36.6,3.2-54.9,5c-9.2,0.9-18.4,2.1-27.6,3.2c-5.2,0.6-10.4,0.6-15.4-1c-2.5-0.8-5.8-1.6-5.6-4.8c0.1-3.2,3.4-3.9,6-4.4
			c12.9-2.4,25.9-4.3,38.9-5.7c22.5-2.5,45.1-4.3,67.6-6.2c1.9-0.2,3.2-0.8,4.2-2.5c9.7-15.2,18.9-30.7,29.4-45.4
			c4.5-6.3,9.1-12.3,14.8-17.6c7.1-6.6,15.5-8.3,24.7-6.6c5.6,1,9.2,5,11.5,9.9c2.4,5,3.2,10.4,3.3,15.8c0.2,13.1-3.2,25.3-9.1,36.9
			c-1.5,3-1.3,3.3,2.1,3.1c26.7-1.7,53.3-3.5,80-5.1c23.6-1.4,47.2-2.6,70.8-3.8c8.3-0.4,16.7-0.8,25-1.1c2.2-0.1,3.5-1.2,4.8-2.7
			c4.1-4.9,8.5-9.4,13.7-13.1c7.4-5.2,15.7-6.6,24.5-6.1c6.6,0.4,12.4,2.3,17.4,6.8c3.2,2.9,5,6.3,4.1,10.7
			c-0.5,2.3,0.3,2.8,2.4,2.7c13.6-0.2,27.2,0,40.8,0.4c13.9,0.4,27.7,0.7,41.6,2c17.8,1.7,35.6,3.2,52.9,8.2
			c2.3,0.7,4.6,1.6,6.7,2.8c1.6,0.9,1.7,1.9,0,2.9c-4.6,2.6-9.7,3.5-14.9,3.6c-8.2,0.3-16.3-1.4-24.4-2.5c-6.9-1-13.9-1.8-20.9-2.5
			c-17.2-1.6-34.4-1.9-51.6-2.2c-12.1-0.2-24.2-0.4-36.3,0.1c-1.8,0.1-2.8,0.8-3.6,2.2c-8,14.1-17.4,27.4-27.3,40.2
			c-10.4,13.4-21.4,26.3-33.2,38.5c-2.9,3-5.8,6.1-8.8,8.9c-1.7,1.6-2.6,3.6-3.2,5.8c-3.3,11.5-6.5,23-10.6,34.2
			c-1.3,3.5-2.9,6.9-4.8,10.2c-2.1,3.5-5.2,5.5-9,6.2c-4.3,0.8-8.7,0.9-12.8-0.9c-3.9-1.7-4.8-4.3-2.8-8.1
			C823.6,420.7,825.6,414.9,827.2,408.8z M589.8,386.3c0.1,0.1,0.3,0.2,0.4,0.3c4.2-3.6,8.5-7.2,12.6-10.9
			c11.2-10.2,21.6-21.1,31.7-32.4c10.6-11.9,20.5-24.3,29.9-37c0.5-0.6,1.5-1.2,0.9-2.1c-0.5-0.7-1.6-0.3-2.4-0.3
			c-8.2,0.7-16.3,1.4-24.5,1.9c-2.2,0.1-3.6,0.9-4.6,2.8c-2.8,4.7-5.7,9.4-8.6,14.1c-11.1,17.7-21.7,35.7-31.1,54.4
			C592.7,380.2,591.3,383.3,589.8,386.3z M685.9,228.6c-1.1,0.4-1.5,1.1-1.9,1.6c-3.7,5.4-7.6,10.6-11.1,16.1
			c-8.7,13.7-17.3,27.6-25.9,41.4c-0.8,1.2-2.5,2.6-1.9,3.8c0.7,1.3,2.8,0.2,4.2,0.1c7.7-0.5,15.5-1.2,23.2-1.8
			c2.1-0.2,3.6-0.9,4.5-2.9c1.1-2.6,2.6-5,3.8-7.6c5.1-11.1,8.5-22.7,7.2-35.1C687.5,239.1,686.6,233.9,685.9,228.6z M649.9,410.2
			c7.4-5.3,14.6-10.5,21.2-16.5c9.6-8.6,20.3-16.1,27.2-27.4c0.2-0.3,0.4-0.5,0.6-0.8c2.9-3.7,6.5-7.1,8.3-11.2
			c1.9-4.2,2.5-8.8,7.8-10.5C702.2,342.7,653.4,392.7,649.9,410.2z M874.7,341.4c0.3-0.4,0.7-0.7,1-1.1c7.8-9.7,15.3-19.6,22.5-29.8
			c4.2-5.9,8.1-11.9,11.3-18.3c1.2-2.4,1-2.7-1.7-2.7c-3.1,0-6.2,0.2-9.3,0.2c-1.4,0-2.3,0.7-3,1.9c-1.3,2.5-2.6,5-3.8,7.6
			C885.1,312.9,879.4,326.9,874.7,341.4z M904.6,276.1c3.3,0.1,6.3,0.3,9.3,0.3c1.4,0,2.4-0.6,2.6-2.2c0.4-4.7,0.9-9.4,1.3-14
			c0-0.1-0.2-0.2-0.6-0.6C912.4,264.7,908.5,270.3,904.6,276.1z"/>
		<path d="M380.5,390.4c-13.2,10.2-26.1,19.8-39.9,28.1c-10.4,6.3-20.6,13.2-32.5,16.5c-5.3,1.5-10.6,2.3-16.1,1.7
			c-3.5-0.4-7-0.9-8.8-4.6c-0.3-0.5-1-0.9-1.5-1.2c-4.6-2.5-7.7-6.3-10.3-10.7c-1.4-2.3-2-4.9-2.4-7.6c-1.5-9.5,1.3-17.9,5.6-26.2
			c10.3-20.2,21.4-39.9,35.3-57.9c11.8-15.3,24.3-29.9,37.8-43.8c14.7-15.1,31.6-27.3,49.5-38.1c9.4-5.6,19.7-9,30.8-8
			c6.2,0.5,12.3,2.1,18.4,3.3c1.2,0.2,2.4,0.8,3.5,1.4c3.4,1.9,4.7,4.4,3.7,7.9c-2.4,8.6-6.9,15.6-16.1,18.3
			c-5.1,1.5-10.3,1.4-15.2-0.7c-4.9-2.1-6.1-5.9-3.4-10.5c0.7-1.2,1.6-2.3,1.9-4.2c-3.2,1.8-5.6,3.9-8,6c-16,13.7-31,28.4-45.3,43.9
			c-12.2,13.3-23.6,27.3-34.5,41.7c-12.9,17.1-23,35.8-31.7,55.3c-2.7,6.1-5.4,12.2-7.6,18.6c-0.3,0.8-0.9,1.6-0.6,3
			c4.6-2.5,9.1-5,13.6-7.5c15.1-8.5,29.2-18.5,43.2-28.7c8.4-6.1,17.7-6.1,27.3-3.6c2.2,0.6,3.9,1.8,4.8,4.4
			c3.4-6.4,7-12.1,11.1-17.7c14.1-19.3,31.7-34.2,54-43.3c5.8-2.3,11.7-3.7,17.9-2.5c3.8,0.8,7.8,0.9,11.5,2.2
			c3.2,1.2,4.8,3,4.5,5.2c-0.4,2.7-2.9,4.8-5.8,5.4c-3.2,0.7-6.4,0.5-9.7,0.2c-1.2-0.1-1.4,0.1-1.7,1.7c-0.9,5,1.9,9.2,2.2,13.9
			c0.3,3.9-0.1,7.7-1.2,11.4c-3.5,12.4-10.3,23-18.6,32.7c-6.8,8-13.8,15.7-22.9,21.2c-6.7,4-13.8,6.3-21.7,5.3
			c-1-0.1-2.1-0.1-2.9-0.6c-5.8-3.4-12-6.2-16.9-11.1c-4.3-4.3-5.6-9.1-3.5-14.8C379.1,394.7,379.7,392.8,380.5,390.4z M399.2,414.4
			c22.9-18.2,40.3-40,45.8-69.6c-0.9,0-1.4,0.8-1.9,1.4c-4.9,4.5-9.8,9.1-14.4,14c-9.3,10-17.4,21-22.9,33.6
			c-2.6,6-4.3,12.4-6.4,18.7C399.1,413,398.9,413.8,399.2,414.4z"/>
	</g>
</g>
</svg>
