<?xml version="1.0" encoding="utf-8"?>
<!-- Generator: Adobe Illustrator 21.1.0, SVG Export Plug-In . SVG Version: 6.00 Build 0)  -->
<svg version="1.1" id="Layer_1" xmlns="http://www.w3.org/2000/svg" xmlns:xlink="http://www.w3.org/1999/xlink" x="0px" y="0px"
	 viewBox="0 0 1274 690" style="enable-background:new 0 0 1274 690;" xml:space="preserve">
<g>
	<g>
		<path d="M332.1,214.6c-1,0.3-1.4,0.4-1.7,0.6c-14.8,7-28.6,15.4-41.3,25.9c-1.6,1.3-3.2,2.7-4.6,4.2c-3.7,4-8.1,4.2-12.8,2.6
			c-2.8-0.9-3.3-2.9-1.8-5.5c2.1-3.5,5.4-5.8,8.5-8.2c13.3-10.3,27.8-18.6,43.5-24.6c5.1-2,10.4-3.1,15.9-3.3
			c3.8-0.1,6.9,1.8,9.8,3.8c2.1,1.4,2.5,3.6,1.9,6c-1.2,4.7-3.1,9.2-5.1,13.6c-5.2,11.9-10.6,23.6-16.3,35.2
			c-0.3,0.6-0.7,1.1-0.6,1.8c0.9,0,1.1-0.8,1.5-1.3c9.2-10.1,19.2-19.3,31.8-25c5.6-2.5,11.3-4.6,17.6-4.2c4,0.3,7,2.6,9.5,5.5
			c2,2.5,1.3,5.4,0.4,8.1c-1.6,5.2-3.6,10.2-5.4,15.5c0.7-0.7,1.4-1.4,2.1-2.2c9.5-10.5,19.5-20.4,31.2-28.4
			c8.3-5.7,16.8-11,26.9-13c2.5-0.5,5.1-0.8,7.7-0.7c1.9,0.1,3.7,0.5,5.2,1.6c0.8,0.6,1.7,1,2.7,1.3c5.5,2,8.4,7,7.5,12.9
			c-1.3,8.1-4.2,15.7-7.2,23.2c-11.4,28.3-26,55-39.2,82.4c-9.7,20.2-19,40.6-27.9,61.2c-9,20.8-15.7,42.3-20.4,64.5
			c-1.7,7.9-2.9,15.8-3.2,23.9c0,0.1,0,0.1,0,0.2c0.3,4.3,0.2,6.5,5.8,4c16.3-7.4,31.4-17,45.9-27.5c8.7-6.3,17.3-12.9,25.3-20.1
			c2.8-2.5,4.8-5.6,7-8.5c3-3.9,7-5.2,11.6-3.6c3.6,1.2,5,4.3,3.6,7.9c-1.1,2.9-3.3,5.1-5.4,7.2c-7.2,7-15,13.2-23,19.1
			c-10.6,7.8-21.3,15.4-32.8,21.8c-7.9,4.4-16.1,8.1-25.2,9.6c-3.1,0.5-6.1,0.4-9.2,0.1c-0.9-0.1-1.9-0.3-2.7-0.8
			c-7.5-4.7-12.9-10.8-13.1-20.3c-0.3-16.2,2.3-31.9,6.6-47.4c4.7-16.8,11.9-32.6,18.9-48.5c7.5-17.1,15.5-34.1,23.7-50.9
			c7.7-15.8,15.7-31.4,23.4-47.2c6.6-13.7,12.9-27.5,17.6-42c0.4-1.2,0.8-2.3,1.1-3.5c1.4-5.4,1.9-11.2,5.7-16.1
			c-2.8,0.2-4.9,1.1-6.9,2.1c-7.5,4.1-14.2,9.4-20.6,15.1c-7,6.2-13.5,12.9-20.1,19.5c-11,11-20.6,23.3-29.3,36.3
			c-8.5,12.6-15.8,25.9-22.9,39.3c-1.2,2.2-2.5,4.4-3.5,6.7c-1.3,3-3.6,4.6-6.7,5.1c-3,0.5-5.8,0.3-8.6-1.1c-2.7-1.3-3.3-3-2.5-5.9
			c2.9-9.9,6.6-19.4,10.5-29c7.5-18.5,16.6-36.3,24.2-54.7c1.4-3.4,2.6-6.9,3.9-10.4c0.2-0.5,0.6-1.2,0.1-1.6
			c-0.6-0.5-1.1,0.2-1.5,0.5c-4.8,3.4-9.4,7.1-13.8,11.1c-15.7,14.4-27.7,31.7-38.4,50.1c-11.5,19.7-22.8,39.6-33.1,59.9
			c-3.3,6.5-7.6,8.4-14.1,6.4c-3.5-1.1-4.9-3.4-3.8-7c2.3-7.7,5.4-15.1,8.3-22.6c7.6-20.2,16.2-39.9,25.4-59.4
			c6-12.7,12.1-25.3,18.1-38c4.4-9.4,8.8-18.9,12.6-28.6C331,218.2,331.4,216.7,332.1,214.6z"/>
		<path d="M639.6,360.8c0.1-1.8-0.1-4.2,0.4-6.6c0.2-1.3,0-2-1.6-1.9c-2.4,0.2-4.9,0.1-7.3,0.1c-1.4,0-2,0.5-2.1,2
			c-0.4,4.4-0.5,8.8-1.3,13.2c-0.7,3.6-2.5,6-5.8,7.5c-5.5,2.5-11.2,2.9-16.9,0.9c-4.5-1.6-9.2-3.2-12.4-7.2
			c-0.8-1.1-1.6-0.1-2.2,0.3c-4.1,2.6-8.3,4.9-13.1,5.6c-5,0.8-10,0.5-14.9-0.9c-4.3-1.2-6.9-4.2-8.8-8c-1-1.8-1.9-2-3.6-0.9
			c-6.9,4.3-14.1,8-21.9,10.3c-4.2,1.2-8.4,1.7-12.7,1.3c-7.3-0.6-10.2-5.2-11-13.1c-0.3-2.6,0.3-5.3,0.5-8c0-0.6,0.6-1.4-0.2-1.7
			c-0.6-0.3-1,0.4-1.5,0.7c-7.7,5.7-15.7,11.2-24,16.1c-7.6,4.4-15.2,8.7-23.7,11c-5.1,1.3-10.2,1.4-15.3,0.3
			c-7.1-1.5-8.9-5.8-10.1-12.8c-0.8-4.5,0.9-8.7,2.8-12.7c0.8-1.6,0.7-2.5-1-3.1c-0.4-0.1-0.8-0.4-1.1-0.7c-0.7-0.6-1.5-1.2-1.2-2.3
			c0.3-1,1.3-1.3,2.1-1.1c4.2,0.8,6.4-1.6,8.9-4.7c6.1-7.6,13.4-13.8,22.2-18.1c4.5-2.2,9.3-2.7,14.2-1.6c5,1.2,7.2,3.8,7.9,9
			c0.7,5.1-1,9.2-5.2,12c-8.5,5.7-17.8,9.1-27.9,10.3c-1.3,0.2-2.3,0.5-3.1,1.6c-2.5,3.8-4.8,7.7-6.4,12c-1.3,3.5-0.4,4.7,3.3,4.6
			c3.8-0.1,7.2-1.7,10.6-3.3c15-7.2,28.7-16.6,41.7-26.9c4.2-3.3,8.2-6.8,12.3-10.1c1.4-1.1,2.4-2.4,3.1-4.1
			c6.9-16.2,16-31.1,25.8-45.5c6.8-9.9,13.9-19.5,21.4-28.8c5.3-6.5,11-12.6,17.7-17.6c3.7-2.8,7.8-3.3,12.2-2.8
			c3,0.3,5.1,1.9,6,4.8c0.2,0.6,0.3,1.1,0.6,1.6c4.7,8.5,2,16.1-2.8,23.4c-4.8,7.3-10.6,13.8-16.3,20.4
			c-8.1,9.4-16.8,18.2-25.6,26.9c-8.6,8.5-17.7,16.5-26.8,24.4c-0.6,0.5-1.2,1-1.5,1.8c-3.6,8.6-7.5,17.1-8.7,26.5
			c0,0.2-0.1,0.4-0.1,0.6c-0.5,3.7-0.2,4.1,3.5,3.3c8.1-1.8,15.2-5.8,22.1-10.2c4.1-2.5,7.8-5.6,11.6-8.6c1.7-1.4,3-3.2,4.1-5.2
			c5.1-9,11.6-17.1,18.8-24.5c3.3-3.4,9.1-4.4,13.4-2.5c2.4,1.1,3,2.9,1.7,5.3c-5.5,9.8-12.4,18.5-20.2,26.6c-4,4.1-5.5,9.6-6.8,15
			c-0.3,1.1,0.4,1.8,1.3,2.2c2.3,1,4.6,1.1,6.9,0.3c5-1.6,9.1-4.8,13.1-8.1c3.9-3.2,7.6-6.6,11-10.3c2.7-2.9,4.1-6.6,6-10
			c1.8-3.2,4.1-5.3,7.9-5.5c1-0.1,1.6-0.8,2.2-1.5c4.2-4.7,7.8-9.8,11.6-14.8c2.9-3.9,7.5-5.2,11.9-3.6c2.9,1.1,3.8,3,2.4,5.8
			c-3.9,7.9-6.1,16.2-7.3,24.9c-0.4,2.6-0.1,3,2.4,2.3c4.4-1.1,8.9-2.2,11.9-6.2c1-1.3,2.6-2.1,4.2-2.5c5.2-1.3,8.2-5.5,11.7-9.1
			c0.8-0.8,0.7-1.9,0.8-2.9c0.8-6.1,3.1-11.4,8.6-14.8c2.6-1.6,5.2-1.6,7.8-0.7c3.3,1.1,4.5,4.7,3.2,8.5c-1.4,4.4-3.7,8.3-6.6,11.8
			c-1.9,2.4-1.5,5.4-1.8,8.1c-0.1,0.8,0.6,1.3,1.2,1.6c5.6,2.9,11.4,3.5,17.5,2.1c1-0.2,1.4-0.9,1.8-1.7c3.2-5.7,6.9-11.2,11.4-16
			c4.9-5.3,10.4-9,18-8.4c5.5,0.4,9.3,3.3,12,8c0.5,0.9,1,1.4,2,1.7c4.8,1.6,5.8,4.1,2.9,8.3c-5.1,7.2-9.1,14.9-11.1,23.6
			c-0.8,3.4-1.5,6.8-1.2,10.3c0.2,3.3,1,3.9,4,2.5c5.8-2.6,11.1-6.3,16.2-10.2c5.6-4.3,11.3-8.7,15.8-14.3c1.7-2.2,2.9-4.6,4.2-7
			c2.3-4.3,5.5-5.2,10.1-2.9c3.9,1.9,5.4,5.8,3.7,9.9c-1.8,4.2-4.9,7.3-8,10.3c-4.7,4.5-9.6,8.6-14.8,12.5
			c-7.7,5.6-16.1,9.4-25.7,9.6c-7.8,0.2-13.2-4-17.1-10.4c-1.1-1.7-1.6-1.5-2.8-0.3c-3,3.2-6.2,6.2-10,8.5c-2.7,1.6-5.5,2.4-8.6,2.2
			c-6.2-0.3-10.1-5-9.5-11.3c0.5-5.5,1.7-10.9,3.8-16c0.5-1.3,0.3-1.8-1.2-1.9c-4.6-0.3-9.1-0.8-13.4-2.7c-1.9-0.9-1.7,0.6-1.8,1.8
			c-0.7,8.6-1.3,17.2-3,25.7c-0.7,3.5-2.1,6.6-4.7,9.1c-3.7,3.4-13,4.4-16,1c-3.6-4-7.1-8.3-7.7-14.2
			C639.8,367,639.6,364.2,639.6,360.8z M542.4,304.5c0.6-0.5,1.1-1.1,1.7-1.6c6.4-6.4,12.8-12.9,18.9-19.6
			c7.5-8.3,14.8-16.7,21.4-25.7c2.6-3.5,4.5-7.4,5.3-11.8c0.1-0.6,0.3-1.3-0.2-1.6c-0.6-0.4-1,0.3-1.4,0.6c-3.4,2.9-6.3,6.3-9.3,9.6
			c-8.5,9.5-16,19.8-23.5,30.2C550.7,291.1,546.4,297.6,542.4,304.5z M618,348.9c0.1-1.3-0.5-2.4-1.3-2.8c-0.9-0.4-1.3,0.2-1.8,0.7
			c-5.4,5.5-11,10.7-14.3,17.9c-0.5,1.2-0.4,1.7,0.7,2.1c2,0.8,4,1.6,6,2.4c1.6,0.6,3.2,0.3,4.4-0.7c2-1.6,3.6-3.4,4.5-5.9
			C617.8,358.2,617.7,353.6,618,348.9z M652.4,373.5c1.3-1.4,1.9-3,2.5-4.7c2.5-6.9,3.3-14.1,4.1-21.3c0.1-0.9,1-2.3-0.2-2.7
			c-1-0.3-2,0.9-2.6,1.9c-0.5,0.9-1,1.8-1.3,2.7C652.5,357.2,651.8,365.3,652.4,373.5z M700.2,361.4c5.1-4.9,9.7-10.1,13.8-15.9
			c-2.6,0.4-5.1,1-7.5,1.6c-0.7,0.2-1.1,0.9-1.4,1.5C703,352.7,701.4,357,700.2,361.4z M460.5,344.1c3.4-0.9,12.1-8,12.8-10.4
			C468.2,336.5,464.3,340.3,460.5,344.1z M713,335.1c4.1-1.4,7.1-4.9,8.2-9.4C717.8,328.3,715.5,331.5,713,335.1z"/>
		<path d="M955.9,263c0.1,6.3-3.2,11.2-7,15.8c-7.8,9.3-17.2,16.8-27.2,23.3c-21.9,14.3-46,23.6-70.9,30.7
			c-4.3,1.2-8.7,2.4-13.1,3.5c-1.7,0.4-2.7,1.4-3.4,3c-9.9,24.3-19.2,48.9-28.3,73.5c-6.6,17.8-13.3,35.6-19.9,53.5
			c-4.7,12.7-9.4,25.4-13.7,38.2c-1.5,4.6-3.7,6.3-8.5,6.6c-2.1,0.1-4.1-0.1-6.1-0.7c-3.3-1.1-4.4-3.1-3.6-6.5
			c5.3-20.8,11.2-41.3,19-61.3c8.4-21.3,16-43,24.1-64.4c4.1-10.8,8.4-21.4,12.6-32.1c1.2-3.2,1.3-3.2-2.2-3.5
			c-1.7-0.1-3.4-0.3-5-0.9c-2-0.8-4-1.9-4.1-4.3c-0.1-2.5,2-3.6,3.9-4.3c3.8-1.4,7.6-2.6,11.4-3.7c2.2-0.6,3.5-1.8,4.4-3.9
			c5.2-12.7,10.7-25.3,15.9-38c3.3-8.2,6.3-16.5,9.4-24.8c0.8-2.1,0.6-2.3-1.7-2c-4.7,0.6-9.4,1.9-14.2,0.9c-1.2-0.2-2.4-0.4-3.5-1
			c-2.3-1.2-2.4-3.2-0.3-4.8c1.9-1.4,4.1-1.7,6.2-2.3c5.5-1.6,11-3.3,16.5-4.8c1.9-0.5,2.9-1.6,3.6-3.5c2.9-8.3,5.6-16.8,8-25.3
			c0.6-2,1.7-3.5,3.6-4.4c3.9-1.7,7.9-1.9,11.9-0.4c3.2,1.2,4.2,3,3.5,6.5c-1,5.2-2.4,10.3-3.8,15.4c-1.3,4.4-1.2,4.5,3.2,3.7
			c16-3.1,32.1-3,48.3-2.6c5.4,0.1,10.8,0.7,16,2.6c4.7,1.7,8.4,4.3,9.7,9.5c0.5,2,2.3,3.3,3.2,5.1
			C955.1,257.7,956.1,260.2,955.9,263z M924.3,248.5c-3.3,0-6.6,0.2-9.8,0.3c-15,0.6-29.7,3.2-44.3,6.1c-1.7,0.3-2.6,1.1-3.2,2.7
			c-4.4,12.2-8.7,24.5-13.7,36.5c-3.4,8.1-6.9,16.2-10.3,24.4c-0.3,0.7-1,1.5-0.3,2.2c0.6,0.6,1.4,0.1,2-0.1
			c18.5-5.7,36.5-12.5,53.3-22.6c10.6-6.4,20.7-13.5,28.9-22.9c3.2-3.7,6.3-7.5,9.5-11.2c2-2.4,4.1-4.8,5.8-7.5
			c1.6-2.7,1.2-4.1-1.5-5.6c-1.3-0.7-2.6-1.1-4-1.4C932.5,248.4,928.4,248.4,924.3,248.5z"/>
		<path d="M913.3,330.6c2.8-0.1,5.4,0,7.6,2.2c0.9,1,1.4-0.1,1.8-0.7c3.9-5,9.1-5.3,14.6-3.8c4.9,1.3,5.7,4.5,2.6,8.6
			c-5.9,8-12.2,15.7-17,24.5c-2.8,5.1-5.1,10.5-6.7,16.2c-0.7,2.7,0.1,3.8,2.7,3.3c6.3-1.2,11.3-4.6,14.7-10.3
			c0.3-0.5,0.4-1.1,0.5-1.7c0.3-4.1,2.3-7.5,4.9-10.5c7.4-8.7,16.3-15,27.5-17.6c5.8-1.3,11.8-1.5,17.6,0.3c2.6,0.8,4.6,2.4,5.3,5.2
			c0.1,0.4,0.3,0.9-0.1,1.2c-0.3,0.2-0.7,0.2-1-0.1c-2.6-2.3-5.6-1.6-8.3-0.9c-8.9,2.1-15.8,7.3-21.4,14.4
			c-3.5,4.5-6.3,9.5-8.8,14.6c-0.2,0.4-0.6,0.9-0.3,1.4c0.4,0.6,0.9,0.1,1.4,0c11.1-4,21.7-9,31.4-15.8c6.9-4.8,11.2-11.9,15.8-18.7
			c0.2-0.3,0.6-0.8,0.3-1.2c-0.3-0.4-0.8-0.2-1.2-0.1c-2.2,0.6-4.4,1.2-6.7,1.1c-1.7-0.1-3.3-0.4-4.8-1.1c-1.3-0.6-2.5-1.5-2.6-3.1
			c-0.1-1.6,1-2.5,2.2-3.2c2.6-1.6,5.5-1.9,8.5-2.1c3-0.1,6,0.4,8.8,1.6c1.7,0.7,3.2,1.6,3.8,3.5c0.2,0.8,0.9,1.3,1.5,1.8
			c5,4.1,6,11.1,2.5,16.6c-2.3,3.5-5.2,6.5-8.6,9.1c-10.5,8.1-22.1,14.1-34.5,18.6c-6.2,2.2-12.7,2.9-19.2,2.3
			c-1.5-0.1-3-0.5-4.3-1.3c-1.6-0.9-2.9-0.6-4.4,0.1c-8,3.7-16.4,4.9-24.8,2.1c-5.4-1.8-9.3-6.2-12.2-11.3c-1.1-2-0.8-4.2-0.8-6.4
			c-0.1-2-0.5-2.2-2.2-1.2c-5.9,3.4-11.6,7.1-17.9,9.9c-4.1,1.9-8.4,2.5-12.8,1.8c-5-0.8-10.3-5.6-6.6-12.8c2.3-4.6,5.5-8.6,9-12.4
			c9.1-10.1,20-17.7,32.7-22.5C906.6,331.2,909.9,330.4,913.3,330.6z M886.7,360.9c1.9-1.2,3.9-2.4,5.8-3.6
			c8-5.1,15.6-10.7,22.7-17.1c1.5-1.4,2.9-2.8,4-5.4C906.1,341.2,895,349.2,886.7,360.9z"/>
		<path d="M603.3,290.3c-5,0-6.8-1.5-7.1-6c-0.1-1.6,0.6-2.8,1.6-3.9c3.4-3.8,9.8-5,14.4-2.6c2.9,1.5,3.4,4,1.4,6.6
			C610.1,288.9,607.7,290.3,603.3,290.3z"/>
	</g>
</g>
</svg>
