<?xml version="1.0" encoding="utf-8"?>
<!-- Generator: Adobe Illustrator 21.1.0, SVG Export Plug-In . SVG Version: 6.00 Build 0)  -->
<svg version="1.1" id="Layer_1" xmlns="http://www.w3.org/2000/svg" xmlns:xlink="http://www.w3.org/1999/xlink" x="0px" y="0px"
	 viewBox="0 0 1584 396" style="enable-background:new 0 0 1584 396;" xml:space="preserve">
<g>
	<g>
		<g>
			<path d="M511.1,61.5c-0.9,0.2-1.4,0.3-1.6,0.6c-14.2,6.8-27.5,14.8-39.6,24.8c-1.5,1.3-3,2.6-4.4,4.1c-3.5,3.8-7.8,4.1-12.4,2.4
				c-2.7-0.8-3.1-2.8-1.7-5.2c2-3.4,5.2-5.6,8.2-7.9c12.8-9.9,26.7-17.8,41.8-23.7c4.9-1.9,10-3,15.3-3.1c3.6-0.1,6.6,1.7,9.4,3.6
				c2,1.4,2.4,3.5,1.9,5.7c-1.2,4.5-3,8.9-4.9,13.1c-5,11.4-10.1,22.7-15.6,33.8c-0.2,0.6-0.7,1-0.6,1.7c0.8,0,1-0.8,1.4-1.3
				c8.9-9.7,18.4-18.5,30.5-24c5.4-2.4,10.8-4.4,16.9-4.1c3.8,0.2,6.8,2.4,9.1,5.2c1.9,2.4,1.3,5.2,0.3,7.8c-1.5,5-3.5,9.8-5.2,14.9
				c0.7-0.7,1.4-1.4,2-2.1c9.1-10.1,18.8-19.6,30-27.3c7.9-5.5,16.1-10.6,25.9-12.5c2.4-0.5,4.9-0.8,7.3-0.7c1.9,0.1,3.5,0.5,5,1.5
				c0.8,0.6,1.6,0.9,2.6,1.3c5.2,1.9,8,6.8,7.2,12.4c-1.3,7.8-4.1,15-6.9,22.3c-11,27.2-24.9,52.8-37.6,79.1
				c-9.3,19.3-18.3,39-26.8,58.7c-8.6,19.9-15,40.7-19.6,62c-1.6,7.6-2.8,15.2-3,23c0,0.1,0,0.1,0,0.2c0.2,4.1,0.2,6.3,5.6,3.8
				c15.6-7.1,30.2-16.3,44.1-26.5c8.4-6.1,16.7-12.4,24.4-19.3c2.7-2.4,4.7-5.4,6.8-8.2c2.9-3.7,6.8-5,11.2-3.5
				c3.5,1.2,4.8,4.1,3.5,7.6c-1,2.8-3.1,4.9-5.2,6.9c-6.9,6.8-14.5,12.7-22.1,18.3c-10.1,7.5-20.5,14.8-31.5,21
				c-7.6,4.2-15.5,7.8-24.2,9.2c-3,0.5-5.8,0.3-8.9,0.1c-0.8-0.1-1.9-0.2-2.6-0.8c-7.2-4.5-12.4-10.4-12.6-19.5
				c-0.2-15.6,2.2-30.7,6.3-45.6c4.5-16.1,11.4-31.4,18.2-46.6c7.2-16.4,14.9-32.8,22.7-49c7.3-15.2,15-30.2,22.5-45.3
				c6.3-13.2,12.4-26.5,16.9-40.3c0.3-1.2,0.8-2.2,1-3.4c1.4-5.2,1.9-10.7,5.5-15.5c-2.7,0.2-4.7,1-6.6,2c-7.2,4-13.6,9-19.8,14.5
				c-6.8,5.9-12.9,12.4-19.3,18.8c-10.6,10.6-19.8,22.4-28.1,34.8c-8.2,12.1-15.2,24.8-22,37.8c-1.2,2.1-2.4,4.2-3.4,6.4
				c-1.3,2.9-3.5,4.4-6.4,4.9c-2.9,0.5-5.6,0.2-8.3-1c-2.6-1.3-3.1-2.9-2.4-5.7c2.8-9.6,6.3-18.6,10.1-27.9
				c7.2-17.7,16-34.8,23.2-52.6c1.4-3.3,2.4-6.6,3.7-10c0.2-0.5,0.6-1.2,0.1-1.5c-0.6-0.5-1,0.2-1.4,0.5c-4.7,3.3-9,6.9-13.3,10.6
				c-15,13.9-26.6,30.4-36.9,48.1c-11.1,18.9-21.9,38-31.8,57.6c-3.1,6.3-7.3,8-13.5,6.2c-3.4-1-4.7-3.3-3.6-6.8
				c2.2-7.3,5.2-14.5,7.9-21.7c7.3-19.3,15.6-38.3,24.4-57.1c5.7-12.2,11.7-24.4,17.4-36.5c4.2-9,8.5-18.2,12.1-27.5
				C510,64.9,510.4,63.5,511.1,61.5z"/>
			<path d="M806.5,202c0.1-1.7-0.1-4.1,0.3-6.3c0.2-1.3,0-1.9-1.5-1.9c-2.3,0.2-4.7,0.1-7,0.1c-1.4,0-1.9,0.5-2,1.9
				c-0.3,4.2-0.5,8.5-1.3,12.7c-0.7,3.5-2.4,5.7-5.6,7.2c-5.2,2.4-10.7,2.8-16.2,0.8c-4.3-1.5-8.9-3-11.9-6.9
				c-0.8-1-1.5-0.1-2.1,0.2c-4,2.4-7.9,4.7-12.6,5.4c-4.8,0.8-9.6,0.5-14.3-0.8c-4.1-1.2-6.6-4.1-8.5-7.7c-0.9-1.7-1.9-1.9-3.5-0.8
				c-6.6,4.1-13.5,7.7-21.1,9.9c-4.1,1.2-8,1.6-12.2,1.3c-7-0.6-9.8-5-10.6-12.6c-0.2-2.4,0.2-5.1,0.5-7.7c0-0.6,0.6-1.4-0.2-1.6
				c-0.6-0.2-0.9,0.3-1.4,0.7c-7.3,5.5-15,10.7-23.1,15.5c-7.3,4.2-14.6,8.4-22.7,10.6c-4.9,1.3-9.8,1.4-14.7,0.2
				c-6.9-1.4-8.5-5.6-9.7-12.4c-0.8-4.3,0.8-8.4,2.7-12.2c0.8-1.5,0.7-2.4-0.9-3c-0.3-0.1-0.8-0.3-1-0.7c-0.7-0.6-1.4-1.2-1.2-2.2
				c0.2-0.9,1.3-1.3,2-1c4.1,0.8,6.2-1.5,8.5-4.5c5.8-7.3,12.8-13.3,21.3-17.4c4.3-2.1,9-2.6,13.6-1.5c4.8,1.2,6.9,3.6,7.6,8.6
				c0.7,4.9-0.9,8.9-5,11.5c-8.2,5.5-17.1,8.7-26.8,9.9c-1.3,0.2-2.2,0.5-3,1.5c-2.4,3.6-4.7,7.3-6.2,11.5c-1.3,3.4-0.3,4.5,3.1,4.4
				c3.6-0.1,6.9-1.6,10.1-3.1c14.5-6.9,27.6-16,40.1-25.9c4.1-3.1,7.9-6.5,11.8-9.7c1.4-1,2.3-2.3,3-4c6.6-15.6,15.4-29.8,24.8-43.7
				c6.5-9.6,13.4-18.8,20.5-27.6c5.1-6.3,10.6-12.1,17-16.9c3.5-2.7,7.5-3.1,11.8-2.7c2.9,0.2,4.9,1.9,5.7,4.7
				c0.2,0.6,0.2,1,0.6,1.5c4.5,8.2,1.9,15.5-2.7,22.5c-4.7,7-10.1,13.3-15.6,19.6c-7.8,9-16.1,17.5-24.6,25.9
				c-8.3,8.2-17,15.9-25.8,23.4c-0.6,0.5-1.2,0.9-1.4,1.7c-3.5,8.3-7.2,16.4-8.4,25.4c0,0.2-0.1,0.3-0.1,0.6c-0.5,3.5-0.2,4,3.4,3.1
				c7.8-1.7,14.6-5.6,21.2-9.8c4-2.4,7.5-5.4,11.2-8.3c1.6-1.4,2.9-3,4-5c4.9-8.6,11.2-16.4,18.1-23.5c3.1-3.3,8.7-4.2,12.8-2.4
				c2.3,1,2.9,2.8,1.6,5.1c-5.2,9.4-11.9,17.7-19.3,25.5c-3.8,4-5.2,9.2-6.5,14.5c-0.2,1,0.3,1.7,1.3,2.1c2.2,0.9,4.4,1,6.6,0.2
				c4.8-1.5,8.7-4.7,12.6-7.8c3.7-3,7.3-6.3,10.6-9.9c2.6-2.8,4-6.3,5.7-9.6c1.7-3,4-5.1,7.6-5.2c0.9-0.1,1.5-0.8,2.1-1.4
				c4.1-4.5,7.5-9.4,11.2-14.2c2.8-3.7,7.2-5,11.4-3.5c2.8,1,3.6,2.9,2.3,5.6c-3.7,7.6-5.8,15.6-7,23.9c-0.3,2.4-0.1,2.9,2.3,2.2
				c4.2-1,8.5-2.1,11.4-5.9c0.9-1.3,2.4-2,4.1-2.4c5-1.3,7.9-5.2,11.2-8.7c0.8-0.8,0.7-1.9,0.8-2.8c0.8-5.8,3-11,8.3-14.2
				c2.4-1.5,5-1.5,7.5-0.7c3.1,1,4.3,4.5,3,8.2c-1.4,4.2-3.5,7.9-6.3,11.3c-1.9,2.3-1.4,5.2-1.7,7.8c-0.1,0.8,0.6,1.3,1.2,1.5
				c5.4,2.8,11,3.4,16.8,2c0.9-0.2,1.4-0.8,1.7-1.6c3-5.5,6.6-10.7,11-15.4c4.7-5.1,10-8.6,17.2-8c5.2,0.3,9,3.1,11.5,7.7
				c0.5,0.8,0.9,1.4,1.9,1.6c4.7,1.5,5.6,4,2.8,7.9c-4.9,6.9-8.7,14.3-10.6,22.7c-0.8,3.3-1.4,6.5-1.2,9.9c0.2,3.1,0.9,3.7,3.8,2.4
				c5.6-2.4,10.6-6.1,15.6-9.8c5.4-4.1,10.8-8.4,15.2-13.8c1.6-2.1,2.8-4.4,4.1-6.8c2.2-4.1,5.2-5,9.7-2.8c3.7,1.9,5.2,5.6,3.5,9.6
				c-1.7,4.1-4.7,7-7.7,9.9c-4.5,4.3-9.2,8.3-14.2,12c-7.3,5.4-15.5,9-24.7,9.2c-7.5,0.2-12.7-3.8-16.4-10c-1-1.6-1.5-1.4-2.7-0.2
				c-2.9,3-5.9,5.9-9.6,8.2c-2.6,1.5-5.2,2.3-8.3,2.1c-5.9-0.2-9.7-4.8-9.1-10.8c0.5-5.2,1.6-10.5,3.6-15.4c0.5-1.3,0.2-1.7-1.2-1.9
				c-4.4-0.2-8.7-0.8-12.8-2.6c-1.9-0.8-1.6,0.6-1.7,1.7c-0.7,8.3-1.3,16.5-2.9,24.7c-0.7,3.4-2,6.3-4.5,8.7
				c-3.5,3.3-12.5,4.2-15.4,0.9c-3.5-3.8-6.9-7.9-7.3-13.6C806.7,207.9,806.5,205.2,806.5,202z M713.1,147.9c0.6-0.5,1-1,1.6-1.5
				c6.2-6.2,12.4-12.4,18.2-18.9c7.2-7.9,14.2-16.1,20.5-24.7c2.4-3.4,4.3-7.1,5.1-11.3c0.1-0.6,0.2-1.3-0.2-1.5
				c-0.6-0.3-0.9,0.2-1.4,0.6c-3.3,2.8-6.1,6.1-9,9.2c-8.2,9.1-15.4,19-22.6,29C721.1,134.9,716.9,141.2,713.1,147.9z M785.8,190.5
				c0.1-1.3-0.5-2.3-1.3-2.7c-0.8-0.3-1.3,0.2-1.7,0.7c-5.2,5.2-10.6,10.3-13.8,17.2c-0.5,1.2-0.3,1.6,0.7,2
				c1.9,0.8,3.8,1.5,5.7,2.3c1.5,0.6,3,0.2,4.2-0.7c1.9-1.5,3.5-3.3,4.3-5.7C785.6,199.4,785.4,195,785.8,190.5z M818.8,214.1
				c1.3-1.4,1.9-2.9,2.4-4.5c2.4-6.6,3.1-13.5,4-20.5c0.1-0.8,0.9-2.2-0.2-2.6c-0.9-0.2-1.9,0.8-2.4,1.9c-0.5,0.8-0.9,1.7-1.3,2.6
				C818.9,198.5,818.2,206.3,818.8,214.1z M864.7,202.5c4.9-4.7,9.3-9.7,13.3-15.3c-2.4,0.3-4.9,0.9-7.2,1.5c-0.7,0.2-1,0.8-1.4,1.4
				C867.4,194.2,865.9,198.2,864.7,202.5z M634.4,185.9c3.3-0.8,11.7-7.7,12.4-10C641.9,178.5,638.1,182.3,634.4,185.9z M877,177.3
				c4-1.4,6.9-4.7,7.9-9C881.6,170.7,879.4,173.8,877,177.3z"/>
			<path d="M1110.4,108c0.1,6.1-3,10.7-6.8,15.2c-7.5,9-16.5,16.1-26.1,22.4c-21.1,13.8-44.2,22.7-68.1,29.5
				c-4.1,1.2-8.4,2.3-12.6,3.4c-1.6,0.3-2.6,1.4-3.3,2.9c-9.6,23.3-18.4,47-27.2,70.6c-6.3,17.1-12.8,34.1-19.1,51.4
				c-4.5,12.2-9,24.4-13.2,36.7c-1.4,4.4-3.5,6.1-8.2,6.3c-2,0.1-4-0.1-5.8-0.7c-3.1-1-4.2-3-3.5-6.3c5.1-19.9,10.7-39.6,18.3-58.9
				c8-20.5,15.4-41.3,23.2-61.9c4-10.4,8-20.5,12.1-30.9c1.2-3,1.3-3-2.1-3.4c-1.6-0.1-3.3-0.2-4.8-0.8c-1.9-0.8-3.8-1.9-4-4.1
				c-0.1-2.4,1.9-3.5,3.7-4.1c3.6-1.4,7.3-2.4,11-3.5c2.1-0.6,3.4-1.7,4.2-3.7c5-12.2,10.3-24.4,15.3-36.5c3.1-7.9,6.1-15.9,9-23.8
				c0.8-2,0.6-2.2-1.6-1.9c-4.5,0.6-9,1.9-13.6,0.8c-1.2-0.2-2.3-0.3-3.4-0.9c-2.2-1.2-2.3-3-0.2-4.7c1.9-1.4,4-1.6,5.9-2.2
				c5.2-1.5,10.6-3.1,15.9-4.7c1.9-0.5,2.8-1.5,3.5-3.4c2.8-7.9,5.4-16.1,7.7-24.4c0.6-1.9,1.6-3.4,3.5-4.2
				c3.7-1.6,7.6-1.9,11.4-0.3c3,1.2,4.1,2.9,3.4,6.3c-0.9,5-2.3,9.9-3.6,14.8c-1.3,4.2-1.2,4.3,3,3.5c15.4-3,30.9-2.9,46.4-2.4
				c5.2,0.1,10.4,0.7,15.4,2.4c4.5,1.6,8,4.1,9.3,9.1c0.5,1.9,2.2,3.1,3,4.9C1109.6,102.9,1110.5,105.2,1110.4,108z M1080,94
				c-3.1,0-6.3,0.2-9.4,0.2c-14.5,0.6-28.6,3-42.5,5.8c-1.6,0.2-2.4,1-3,2.6c-4.2,11.8-8.4,23.5-13.2,35.1
				c-3.3,7.8-6.6,15.6-9.9,23.4c-0.2,0.7-0.9,1.4-0.2,2.1c0.6,0.6,1.4,0.1,1.9-0.1c17.7-5.5,35.1-12,51.2-21.7
				c10.1-6.2,19.9-12.9,27.7-22c3-3.5,6.1-7.2,9.1-10.7c1.9-2.3,4-4.7,5.6-7.2c1.5-2.6,1.2-4-1.4-5.4c-1.3-0.7-2.4-1-3.8-1.4
				C1087.9,93.9,1083.9,93.9,1080,94z"/>
			<path d="M1069.5,172.9c2.7-0.1,5.2,0,7.3,2.1c0.8,0.9,1.4-0.1,1.7-0.7c3.7-4.8,8.7-5.1,14-3.6c4.7,1.3,5.5,4.3,2.4,8.3
				c-5.7,7.7-11.8,15-16.3,23.5c-2.7,4.9-4.9,10.1-6.4,15.6c-0.7,2.6,0.1,3.6,2.6,3.1c6.1-1.2,10.8-4.4,14.1-9.9
				c0.2-0.5,0.3-1,0.5-1.6c0.2-4,2.2-7.2,4.7-10.1c7.1-8.4,15.6-14.5,26.5-16.9c5.6-1.3,11.3-1.4,16.9,0.2c2.4,0.8,4.4,2.3,5.1,5
				c0.1,0.3,0.2,0.8-0.1,1.2c-0.2,0.2-0.7,0.2-0.9-0.1c-2.4-2.2-5.4-1.5-7.9-0.8c-8.5,2-15.2,7-20.5,13.9c-3.4,4.3-6.1,9.1-8.5,14
				c-0.2,0.3-0.6,0.8-0.2,1.4c0.3,0.6,0.8,0.1,1.4,0c10.6-3.8,20.9-8.6,30.2-15.2c6.6-4.7,10.7-11.4,15.2-17.9
				c0.2-0.2,0.6-0.8,0.2-1.2c-0.2-0.3-0.8-0.2-1.2-0.1c-2.1,0.6-4.2,1.2-6.4,1c-1.6-0.1-3.1-0.3-4.7-1c-1.3-0.6-2.4-1.4-2.4-3
				c-0.1-1.5,0.9-2.4,2.1-3c2.4-1.5,5.2-1.9,8.2-2c2.9-0.1,5.7,0.3,8.5,1.5c1.6,0.7,3,1.5,3.6,3.4c0.2,0.8,0.8,1.3,1.4,1.7
				c4.8,4,5.7,10.6,2.4,16c-2.2,3.4-5,6.3-8.3,8.7c-10.1,7.8-21.2,13.5-33.1,17.8c-5.9,2.1-12.2,2.8-18.4,2.2
				c-1.4-0.1-2.9-0.5-4.1-1.3c-1.5-0.8-2.8-0.6-4.2,0.1c-7.7,3.5-15.7,4.7-23.8,2c-5.2-1.7-9-5.9-11.8-10.8c-1-1.9-0.8-4.1-0.8-6.2
				c-0.1-1.9-0.5-2.1-2.1-1.2c-5.7,3.3-11.2,6.9-17.2,9.6c-4,1.9-8,2.4-12.4,1.7c-4.8-0.8-9.9-5.4-6.3-12.4
				c2.2-4.4,5.2-8.3,8.6-11.9c8.7-9.7,19.2-17,31.5-21.6C1062.9,173.5,1066.2,172.7,1069.5,172.9z M1043.8,202
				c1.9-1.2,3.7-2.3,5.6-3.5c7.7-4.9,15-10.3,21.8-16.4c1.4-1.4,2.8-2.7,3.8-5.2C1062.5,183.1,1051.9,190.8,1043.8,202z"/>
			<path d="M771.6,134.2c-4.8,0-6.5-1.4-6.9-5.7c-0.1-1.5,0.6-2.7,1.5-3.7c3.3-3.6,9.4-4.8,13.9-2.4c2.8,1.4,3.3,3.8,1.4,6.3
				C778.1,132.8,775.9,134.2,771.6,134.2z"/>
		</g>
	</g>
</g>
</svg>
