<?xml version="1.0" encoding="utf-8"?>
<!-- Generator: Adobe Illustrator 21.1.0, SVG Export Plug-In . SVG Version: 6.00 Build 0)  -->
<svg version="1.1" id="Layer_1" xmlns="http://www.w3.org/2000/svg" xmlns:xlink="http://www.w3.org/1999/xlink" x="0px" y="0px"
	 viewBox="0 0 1274 690" style="enable-background:new 0 0 1274 690;" xml:space="preserve">
<style type="text/css">
	.st0{fill:#EEE9E6;}
	.st1{fill:#FEFEFE;}
	.st2{fill:#0F1110;}
	.st3{fill:#080C0E;}
	.st4{fill:#060907;}
	.st5{fill:#080A09;}
	.st6{fill:#0A0C0B;}
	.st7{fill:#0D0F0E;}
	.st8{fill:#0E100F;}
	.st9{fill:#F0EBE5;}
	.st10{fill:#F7F5F3;}
	.st11{fill:#3D403F;}
	.st12{fill:#262827;}
	.st13{fill:#313230;}
	.st14{fill:#2A2C2C;}
	.st15{fill:#4B4B4B;}
	.st16{fill:#353635;}
	.st17{fill:#010101;}
	.st18{fill:#333233;}
	.st19{fill:#717371;}
	.st20{fill:#484A49;}
	.st21{fill:#313232;}
	.st22{fill:#929595;}
	.st23{fill:#030303;}
	.st24{fill:#020202;}
	.st25{fill:#3F3E3C;}
	.st26{fill:#72736E;}
	.st27{fill:#767772;}
	.st28{fill:#818283;}
	.st29{fill:#6A6A6A;}
	.st30{fill:#767675;}
	.st31{fill:#030205;}
	.st32{fill:#040205;}
	.st33{fill:#040303;}
	.st34{fill:#040305;}
	.st35{fill:#050203;}
	.st36{fill:#04070B;}
	.st37{fill:#7C7C7B;}
	.st38{fill:#050303;}
	.st39{fill:#050406;}
	.st40{fill:#020203;}
	.st41{fill:#060402;}
	.st42{fill:#030203;}
	.st43{fill:#040405;}
	.st44{fill:#040304;}
	.st45{fill:#373938;}
	.st46{fill:#050104;}
	.st47{fill:#5A5857;}
	.st48{fill:#000001;}
	.st49{fill:#71716D;}
	.st50{fill:#838482;}
	.st51{fill:#7E7C7C;}
	.st52{fill:#060405;}
	.st53{fill:#6F6D6E;}
	.st54{fill:#030204;}
	.st55{fill:#020306;}
	.st56{fill:#030306;}
	.st57{fill:#737371;}
	.st58{fill:#666764;}
	.st59{fill:#91908C;}
	.st60{fill:#636363;}
	.st61{fill:#030406;}
	.st62{fill:#82807B;}
	.st63{fill:#070308;}
	.st64{fill:#030408;}
	.st65{fill:#A3A3A3;}
	.st66{fill:#70706E;}
	.st67{fill:#000409;}
	.st68{fill:#747371;}
	.st69{fill:#0C0601;}
	.st70{fill:#00040A;}
	.st71{fill:#010102;}
	.st72{fill:#7E807E;}
	.st73{fill:#878380;}
	.st74{fill:#070509;}
	.st75{fill:#100310;}
	.st76{fill:#020A17;}
	.st77{fill:#2D2E2F;}
	.st78{fill:#9EA0A0;}
	.st79{fill:#9D9996;}
	.st80{fill:#777879;}
	.st81{fill:#A3A3A1;}
	.st82{fill:#777773;}
	.st83{fill:#3C3835;}
	.st84{fill:#9A9693;}
	.st85{fill:#4A4B4A;}
	.st86{fill:#B57939;}
	.st87{fill:#F1ECE9;}
	.st88{fill:#DCDBDA;}
	.st89{fill:#A2A5A3;}
	.st90{fill:#7B7A77;}
	.st91{fill:#A9AAAB;}
	.st92{fill:#797B7A;}
	.st93{fill:#9B9D9C;}
	.st94{fill:#F0EDE6;}
	.st95{fill:#787475;}
	.st96{fill:#0D0E0E;}
	.st97{fill:#777877;}
	.st98{fill:#4A4C4C;}
	.st99{fill:#A7ABAC;}
	.st100{fill:#505253;}
	.st101{fill:#8C8D8D;}
	.st102{fill:#5B5D5E;}
	.st103{fill:#AEAFAF;}
	.st104{fill:#B6BDC1;}
	.st105{fill:#F2EDEB;}
	.st106{fill:#010000;}
	.st107{fill:#020102;}
	.st108{fill:#F1EEEC;}
	.st109{fill:#F0EDEB;}
	.st110{fill:#F1EDEA;}
	.st111{fill:#EFECE9;}
	.st112{fill:#919798;}
	.st113{fill:#E1E1E1;}
	.st114{fill:#EAEBE6;}
	.st115{fill:#DDD8CF;}
	.st116{fill:#D3D8D2;}
	.st117{fill:#F1F1EC;}
	.st118{fill:#E9E6E3;}
	.st119{fill:#DEE0DF;}
	.st120{fill:#8C8E8F;}
	.st121{fill:#A3A79F;}
</style>
<g>
	<g>
		<path class="st0" d="M31.1,637.6c0-194.2,0-388.3,0-582.5c0-1.8,0.4-2.1,2.1-2.1c403.5,0,807,0,1210.5,0c0.8,1.1,0.5,2.3,0.5,3.4
			c0,35.4,0,70.7,0,106.1c0,157,0,314,0,471c0,4.9,0.4,4.5-4.5,4.5c-401.5,0-803,0-1204.4,0C33.8,638.1,32.3,638.5,31.1,637.6z"/>
		<path class="st1" d="M31.1,637.6c403.1,0,806.2,0,1209.3,0c3.4,0,3.4,0,3.4-3.3c0-193.8,0-387.5,0-581.3c0.3,0.2,1-0.5,0.9,0.5
			c0,0.5,0,1.1,0,1.6c0,193.8,0,387.5,0,581.3c0,1.8-0.4,2.1-2.1,2.1c-403.1,0-806.2,0-1209.4-0.1C32.6,638.5,31,639.7,31.1,637.6z"
			/>
		<path class="st2" d="M999.7,287.2c4.2,1.7,5.9,4.7,4.7,8.8c-0.6,2-0.2,3.8,0.7,5.9c2.2,5.3,4.7,10.7,4.4,16.8
			c-0.2,3.1-1.6,5.5-3.4,8c-2.9,4.1-7.3,5.8-11.5,6.7c-4.4,1-6.4,3.7-8.7,6.8c-1.6,2.2-4.1,3.6-4.4,6.7c-0.1,0.6-0.7,0.5-1.1,0.6
			c-0.5,0.1-0.9,0.2-1.2,0.6c-2.6,4.7-5.8,8.9-10.2,12.1c-0.3,0.2-0.6,0.6-1,0.6c-6.2,0.8-12.1,3.6-18.6,2.4c-0.7-0.1-1.4,0-1.9-0.6
			c-1.1-1.1-2.1-1-3.2,0.1c-0.4,0.4-1.1,0.9-1.4,0.7c-2.4-1-5.1-0.1-7.6-1.2c-1.8-0.8-3.9-1.4-5.9-1.9c-1.6-0.4-3-1.3-4.5-1.8
			c-3.1-0.6-6-1.8-8.4-4c-1.1-0.9-2.4-0.5-3.6-0.4c-1.5,0-1.6,1.2-2.2,2.4c-2.1,4.1-2,8.9-4,13c-1,2-0.3,3.4,1.8,4.4
			c0.4,0.2,0.7,0.6,0.9,1l0,0c0.9,1.1,0.1,2.6,1,3.7c1.8,1.1,2.3,2.7,2,4.8c-0.5,3.3-0.8,6.6-2.8,9.5c-0.7,1-0.7,1.7,0.7,2.6
			c6.4,4,12.7,8.1,17.9,13.7c2.2,2.4,4.8,4.4,7.4,6.3c2.1,1.6,3.5,3.8,5.3,5.7c2.2,1,3,3.6,5.2,4.8c0.3,0.2,0.5,0.4,0.8,0.6
			c1.7,1.6,2.8,3.8,4.9,5.1c2.1,2.9,4.6,5.5,6.5,8.8c-1.2-3.3-2.4-6.5-3.6-9.7c-0.9-2.5-1.3-5.1-2.9-7.3c-0.8-0.5-1.5,0.3-2.2,0.2
			c-1.2-0.1-3.1,0.6-2-1.9c0.2-0.4-0.1-0.8-0.4-0.9c-1.8-0.8-0.8-1.8,0-2.4c1.2-0.8,1.9-1.9,2.4-3.2l0,0c0.8-1.3,0.5-2.7,0.4-4.1
			c-0.2-1.8-1.5-1.5-2.8-1.3c-4.9,0.6-9.2-0.9-12.9-4.2c-0.2-0.2-0.4-0.5-0.5-0.8c-1.4-2.7-3.6-5.2-3.1-8.6c0.1-0.5-0.1-1.2,0.2-1.3
			c1.8-1.2,1-2.9,0.9-4.5c-0.2-2.3-0.4-4.6,1.1-6.7c1-1.4,1.8-2.3,3-0.3c0.3,0.5,0.7,1.2,1.4,0.9c1-0.4,1.4-1.4,1.4-2.3
			c0.1-3.2,1.5-5.8,2.9-8.5c0.7-1.4,1.5-2.6,2.1-4.4c1.4,2.2,2.9,4.4,4.1,6.8c1,1.9,2.7,3.1,3.9,4.9c0.7,1,1.8,0.4,2.6-0.4
			c1.2-1.1,2.4-2.2,3.6-3.3c0.5-0.4,0.9-1.4,1.7-0.7c0.6,0.5-0.2,1.1-0.4,1.6c-0.9,2.4-1.5,4.9-2.7,7.2c-0.6,1.2,0.7,2.8,1.2,4.1
			c1.1,2.7,1.6,5.4,1.3,8.3c2.1,0.4,3.9-0.2,5.6-1.3l0,0c1.7-0.7,3.1-1.8,4.2-3.3v0c1.1-1.3,1.9-2.6,0.8-4.3
			c-0.2-0.3-0.4-0.8-0.2-1.1c1.1-1.9,0.4-4.3,1.3-6.2c0.1-0.6-0.2-0.9-0.5-1.4c-0.2-0.4-0.3-0.8,0.1-1c0.8-0.3,1.4,0.3,1.8,0.9l0,0
			c1.8-0.2,3.7,0.3,5-1.4c0.2-0.3,0.7-0.3,1,0c0.3,0.4,0.3,1.3,1,1.1c0.7-0.2,0.4-0.9,0.3-1.4c-0.1-0.5-0.3-1-0.5-1.6
			c-0.2-0.6-0.9-1.4-0.1-1.8c0.6-0.3,1.5,0,2.1,0.7c0.4,0.5,0.6,1.3,1.4,0.8c0.6-0.4,0.2-1.1,0-1.7c-0.1-0.4-0.2-0.7-0.3-1.1
			c-0.4-1.1,0.5-1.4,1.1-1.8c0.7-0.5,1.2,0.2,1.5,0.7c4,6.7,8.7,13.1,9,21.3c0.1,3.3-0.5,6.4-2.1,9.2c-2.3,4.1-5.2,8-9.3,10.4
			c-2.9,1.7-6,3.2-9.2,4.1c-2.3,0.6-2.8,1.9-1.9,4.1c1.3,3.1,2.7,6.1,3.7,9.3c1.5,4.6,1.8,9.4,1.8,14.2c0,2.4-1.8,4.2-4.2,4.5
			c-1.4,0.2-2.6,0.9-4.1,0.9c-1,0-1.3,0.8-0.9,1.7c0.3,0.6,0.7,1.4,1.2,1.6c3.7,1.5,5.6,5,8.4,7.5c1,0.9,2.6,1.4,3.3,2.5
			c3.2,4.8,8.3,6.9,12.9,9.6c2.9,1.7,6.2,2.8,8.9,4.9c0.4,0.3,1,0.6,1.5,0.6c3.1,0,5.4,1.7,7.6,3.6c0.6,0.5,1.1,0.8,1.9,0.8
			c7,0.4,13.8,1.5,20.5,3.9c5,1.8,10.4,1.7,15.7,1.7c1.8,0,3.6-0.1,5.4,0.3c-1.5,1.2-1.5,1.1-8.5,1.5c-3.1,0.2-6.2-0.2-9.6,0
			c1.3,2.2,3.2,2.5,4.8,2.5c4.9,0,9.6,0.8,14.5,1.3c0.9,0.1,1.8,0.1,2.7,0.4c-1.6,0.4-3.3,0.5-4.9,1.1c-0.8,0.3-1.9,0.4-1.8,1.5
			c0.1,1.2,1.3,0.8,2,0.9c3.7,0.7,7.3,1.6,11,0.7c1.5-0.4,0.7,2.1,1.9,1.4c1-0.6,1.5-0.1,2.4,0c5.4,1,11,3.4,16.3-0.6
			c1.3-2.4,1.3-2.4,2.9-0.5c1.5,1.8,1.7,1.7,3.6,0.1c0.9-0.7,2.1-0.5,3.2,0l0,0c0.5,1,0.6,1.8-0.7,2.1c-0.4,0.1-0.8,0.2-0.8,0.7
			c0,0.5,0.5,0.7,1,0.9c1,0.4,2.2,0.2,3,1.1c-2.3,2.1-5,2.8-8,2.2c-1-0.3-1.7,0.2-2.4,0.8c-0.2,0.5-1,0.2-0.9,0.8
			c0,0.6,0.5,0.6,1,0.5c2.1-0.4,4.1,1.3,6.3,0.3c0.4-0.2,1.1,0.3,1.2,0.9c0.1,0.8-0.4,1.1-1.1,1.3c-0.4,0.1-1.1-0.1-1.1,0.6
			c0,0.7,0.7,0.7,1.2,0.7c0.5,0.1,1.5-0.4,1.3,0.6c-0.1,0.7-0.7,1.2-1.5,1.2c-0.9,0-1.8-0.5-2.7,0.2l0,0c-0.3,0.6-0.9,1-1.5,0.8
			c-1.9-0.4-3.4,0.5-5,1c-3.5,3.4-7.9,3.6-12.4,3.9c-0.5,0-1.1,0-1.6,0.2c-6.8,2.6-13.8,3-21,3.2c-3.3,0.1-6.6,0.1-9.9,0.2
			c-0.4,0-1.9-0.4-0.7,1.1c0.4,0.5-0.5,0.9-1,0.8c-2.9-0.6-5.8-0.5-8.7-0.7c-3-0.2-6.2-0.9-9.3,0.2c-1.7,0.6-3.5-0.4-5.3-0.5
			c-6.6-0.2-13.2-0.1-19.8,0c-4.8,0.1-9-2-12.9-4.5c-1.6-1-3.3-1.7-5-2.4c-5.2-2.2-10.3-4.3-14.9-7.6c-2.1-1.5-3.1-4-4.9-5.8
			c-0.5-0.5-0.8-1.1-1.3-1.5c-2.2-1.8-4.1-3.8-5.3-6.4c-0.3-0.6-0.5-1.4-1.2-1.6c-4.9-1.4-6.7-6-9.4-9.6c-2.9-3.9-4.8-8.3-7.6-12.2
			c-1.1-1.6-2.8-2.6-3.9-4.2c-2-2.8-3.8-5.7-4.8-8.9c-0.5-1.7-1.4-3.2-2.7-4.3c-4.4-3.7-7.1-8.6-10.2-13.2
			c-5.1-7.8-10.8-15.1-17.4-21.6c-1.7-1.7-3.9-2.8-5.9-4.2c-1.2-0.8-1.7-0.1-1.6,1.2c0.1,2.3,0.3,4.6,0.3,6.9
			c0.3,9.6,1.3,19.3,0.2,28.9c-0.7,6-0.8,12-2.5,17.9c-1.3,4.6-3.4,8.8-4.9,13.3c-0.2,0.7-0.9,1.3-1.4,1.8c-2,2.1-2.9,5.2-5.5,6.8
			c-3,1.8-6.3,3.3-9.4,5c-2.9,1.5-5.9,1.7-8.8,2.5c-7.2,1.9-14.6,1.8-22,1.8c-6.1,0-12.2-1-18.2-1.9c-0.1,0-0.2-0.2-0.3-0.3
			c3.5-1.1,3.6-1.3,2-3.4c2.5,0.4,4.1-0.4,5.2-2.4c0.3-0.6,1.2-0.4,1.7-0.1c6,3.5,12,1.2,17.8-0.4c4.5-1.3,8.7-3.3,11.8-7.1
			c4.8-4.6,7.4-10.2,8.2-16.7c0.2-1.4,0.7-2.8,1.1-4.2c1.2-4.8,1.3-9.6,1.8-14.4c1-9,0.7-18,0.7-27c0-10.9-1.1-21.7-1.1-32.5
			c0-4.3-1.4-8.5-2.2-12.8c-0.5-3.1-0.9-6.2-1-9.2c-0.2-5-0.9-10-0.1-14.9c0.4-2.8,1-5.6,1.8-8.3c0.3-1.1,1-1.7,2.1-1.2
			c1.6,0.7,3.2,0.3,4.8,0.2c2-0.2,3.8-0.8,5.9-0.5c2,0.2,3.4-1.8,4.8-3.2c1.6-2.2,3.8-3.7,5.9-5.3c1.3-0.8,2.6-1.8,3.5-3
			c3.2-4.2,7.5-4.5,12.1-3.8c3.8,0.6,7.3,2,10.4,4.1c3.3,2.3,4.8,5.4,4.6,9.4c-0.1,1.6-0.9,2.8-1.6,4.1c-0.8,1.7-0.4,2.2,1.5,2.3
			c2.4,0.1,4.8-0.4,7.1-1.2c4.9-1.8,9.9-3.6,14.4-6.5c2.5-1.7,5.3-3,6.2-6.3c0.1-0.3,0.3-0.6,0.6-0.7c4.5-1.9,5.8-6.5,7.8-10.2
			c2.5-4.6,4.3-9.6,5-14.9c0.3-2.6,1.5-5.1,2-7.7c0.4-1.9-0.3-2.8-2-3.2c-2.6-0.6-5.3-0.6-7.9-0.5c-9.2,0.2-18.3,0.6-27.3,2.6
			c-2,0.5-3.8,0.4-5.4-1.1c-1.1-1-2.5-1.2-3.4,0.3c-1.4,2.1-3.6,2.5-5.8,3.1c-4.2,1.1-8.6,1.2-12.8,2.3c-4.1-0.3-8,1-11.8,2.3
			c-3.3,1.1-6.8,1.2-10,2.8c-0.6,0.3-1.2,0.1-1.6-0.5c-0.4-0.7,0-1.2,0.6-1.5c0.3-0.2-0.1,0,0.2-0.1c7.2-3.5,6.9-10.3,5.5-16.5
			c-0.6-2.7-2.7-4.3-5-5.6c-0.6-0.4-2-0.4-1.5-1.3c0.5-1.1,0-2.8,1.7-3.3c4-1.1,8-2,12.1-3c3.2-0.8,6.6-0.7,9.7-2.1
			c0.2-0.1,0.5-0.3,0.6-0.2c3.3,1.4,5.6-2.1,8.8-1.8c0.9,0.1,2.2-0.5,3.3-0.5c0.7,0.2,0.7,0.9,1,1.4c0.4,0.8,1,1.2,1.9,1
			c4.3-0.8,8.6-0.9,12.9-1.8l0,0c2.1-0.1,4.3-1.2,6.4-0.4c0.7,0.3,1.3,0.3,1.9-0.2c3.8,0.3,7.2-1.5,10.8-2.2
			c0.9-0.2,1.6-0.2,2.1,0.3c1.6,1.5,3,0.7,4.4-0.3l0,0c0.1-0.8-0.5-1.8,0.8-2.1c4.5-0.9,9-2.3,13.6-0.3c0.5,0.2,1,0.3,1.6,0
			c0.5-0.3,1.2-0.3,1.6-0.1c1.8,1.1,3.8,1.2,5.9,1.3c1.8,0.1,3,1,3.4,3.1c0.5,2.5,1.7,2.9,4.1,2.7c2-0.2,4,0.2,5.9,0.7
			c2.4,0.5,4.6,1.5,6.8,2.7C993.1,284.2,996.2,286,999.7,287.2z"/>
		<path class="st3" d="M569.8,383.9c-5.4,4-11.7,4.8-18.3,5.3c-5.9,0.4-11.8,0.7-17.6,1.4c-4.7,0.6-9.4,0.7-14.1,0.9
			c-4.2,0.2-8.5,0.7-12.4,2.8c-3,1.6-6.2,1.1-9.4,1.1c-1.8,0-3.6-0.1-5.3,0.3c-4.2,1-8.2-0.1-12.3-0.6c-2.5-0.3-5-0.7-7.4-0.5
			c-4.1,0.4-7.8-1.1-11.5-2c-5.4-1.4-11.1-2.2-16.2-4.7c-2.1-1-4.2-1.8-6.4-2.5c-4.2-1.3-8-3.5-11.6-6.1
			c-5.2-3.7-10.8-6.7-16.2-10.1c-2.1-1.3-4.2-2.7-6.3-4c-2-0.9-3.7-2.3-5.9-2.6c-0.9-0.1-2-0.6-2.2,0.8c-0.2,1.2,0.6,1.8,1.8,2.1
			c0.8,0.2,2.3-0.7,2.3,0.7c0,1.6,0.9,3.4-0.7,4.8c-1.3,1.1-1.5,2.1-0.1,3.2c0.9,0.7,0.9,1.3,0.3,2.2c-0.7,1-1.1,2-0.2,3.2
			c0.2,0.3,0.3,0.7,0,0.9c-1.6,1.2-1.1,4.1-3.7,4.5c-0.7,3.1-3.7,2.9-5.8,3.6c-2.3,0.7-4.7,1.2-7.2,1.5c-3.6,0.4-7.1,1.4-10.7,1.8
			c-3.5,0.4-6.7,1.8-9.8,3.3c-2.7,1.3-3.8,3.8-3.3,6.7c0.5,2.8,0.8,5.6,0.9,8.5c0.1,2.3,0.3,2.3,2.7,1.8c0.5-0.8,1.1-1.4,1.9-1.9
			c2.5-1.6,5.2-3.1,7.5-5.1c0.7-0.6,1.7-1,2.8-0.9c1.9,0.2,3.5-0.5,4.9-1.6c1-0.5,2-1.1,2.9-1.9c0.8-0.8,1.8-0.7,2.5-0.1
			c0.6,0.5,0.1,1.2-0.3,1.9c-0.6,1-1.1,2-2.1,2.6c-1,0.6-2,1.9-1.9,2.5c0.6,3.1-2.2,4.1-3.5,5.9c-1.7,2.3-3.7,4.6-5.8,6.6
			c-1.6,2.1-3.3,4.1-4.8,6.3c-1.1,1.6-1.7,3.5-2.1,5.4c-0.1,0.3,0,0.8-0.2,0.9c-3.6,2.2-4.7,6.8-8.3,9c-1.1,0.7-1.7,1.7-2.3,2.6
			c-1.5,2.2-3.4,3.8-5.8,4.7c-1.5,0.6-4.9-0.4-6.2-1.8c-0.4-0.4-0.6-0.9-1.1-1.2c-3.9-2.8-5.6-6.4-4.8-11.2c0.3-1.7-1-2.7-2.4-3.3
			c-0.7-0.3-1.4-0.5-2.1-1c-3-2.2-3.1-3.1-0.4-5.7c1.1-1.1,1.6-2.5,1.8-3.7c1-7.9,3.8-15.2,6.8-22.4c0.7-1.7,0.5-2.5-1.5-2.5
			c-0.6,0-1.2-0.3-1.8-0.4c-2.9-0.8-3.8-0.2-5.7,2.2c-4,5-6.1,11-9.1,16.5c-1.3,2.4-3.5,4.1-4.3,6.8c-0.8,3-4,4.7-4.5,8.1
			c-0.2,1.2-1.9,2-2.5,3.2c-1.2,2.6-2.8,4.8-4.4,7.1c-1.8,2.7-3.7,5.3-5.6,7.9c-2.7,3.8-5.7,7.6-8.2,11.6c-1.4,2.3-3,4.4-4.3,6.8
			c-0.9,1.8-2.5,3.4-3.8,5.2c-2.1,2.8-4.3,5.5-6.8,7.9c-3.4,3.3-6.7,6.8-11.3,8.7c-3.3,1.4-6.3,3.4-9.5,4.9
			c-2.7,1.3-5.6,1.9-8.4,2.9c-3.8,1.3-7.6,2.6-11.4,3.8c-0.8,0.3-1.6,0.5-2.5,0.5c-2.4-0.1-4.5,0.5-6.7,1.5
			c-2.1,0.9-4.7,0.8-7.1,1.1c-1,0.1-2,0.2-2.9,0.6c-1,0.5-2.2,0.6-3.1-0.2c-1.1-1.1,0.7-1,0.8-1.5c0.1-1.1-1-1.5-2.1-1.8
			c1.2-0.8,2.3-0.2,3.2-0.5c0.6-0.1,1.3-0.2,1.4-1c0.1-0.6-0.2-1-0.7-1.4c-0.4-0.3-0.9-0.5-1-0.9c-0.3-0.8-1.4-1.6-0.7-2.5
			c0.6-0.8,1.6-0.3,2.4-0.2c2,0.3,4,0.6,6,1c7.8,1.6,14.3-2,20.8-5.2c9.6-4.6,16.2-12.5,22.4-20.8c3.8-5.1,7-10.4,10.5-15.7
			c3.9-5.8,7.4-12,11.3-17.8c2.6-3.8,4.4-8.1,6.6-12.2c3.4-6.3,6.8-12.7,9.4-19.3c2.9-7.5,5.7-15,7.8-22.7c1.2-4.3,1.8-8.9,3.2-13.2
			c2-6.2,3.3-12.5,5.2-18.8c1.6-5.4,3.5-10.7,4.3-16.2c0-0.2,0-0.3,0.1-0.5c1.6-2.2,1-4.3,0.1-6.7c-0.9-2.3,0.4-4.1,2.9-4.6
			c1.2-0.2,2.3-0.2,1.4-1.9c-0.2-0.4-0.2-0.8,0.2-1.1c1.2-1,1.8-1.9,0-3c-0.4-0.3-0.2-0.8,0.1-1c2.3-1.4,1.3-3.7,1.7-5.6
			c0.1-0.5-0.4-1.2,0.3-1.4c1.2-0.3,1.3-1.1,1.5-2.1c0.5-1.9,3.1-2.3,3.5-4.3c0,0,0.1-0.1,0.2-0.1c4,0.9,6.2-2.2,9.2-3.7
			c4.4-2.2,6.8-6.1,9.5-9.8c0.8-1,0.8-2.1,0.6-3.3c-0.7-4.5-2.2-8.8-2.7-13.3c-0.2-1.9-2-3.3-1.8-5.4c0.1-0.8-0.9-0.7-1.5-0.5
			c-1.5,0.3-3.2,0.4-4.5,1c-3.1,1.6-6.4,1.8-9.5,0.9c-4.2-1.2-9-1.3-11.9-5.5c-0.5-0.7-1.4-1.3-2.3-1.5c-4.2-0.9-4.8-4.5-6.3-7.6
			c-1.1-2.2-0.7-3.9,0.6-5.8c0.6-0.9,0.8-1.4,1.7-0.4c2,2.2,4.8,1.5,7.3,2.1c0.4,0.1,0.6-0.3,0.8-0.7c0.9-2.2,2.6-2.4,4.5-1.4
			c0.9,0.5,1.5,0.3,2.4-0.2c3.8-2.2,7.6-4.4,11.4-6.6c1-0.6,1.9-0.9,3.1-0.6c3.3,0.8,5.5-1.5,8-3.1c0.5-0.3,0.6-0.9,0.5-1.5
			c-0.1-4.1,2.9-6.2,5.6-8.2c3.3-2.4,6.5-4.9,9.9-7.1c0.2-0.1,0.3-0.4,0.5-0.4c3.9-0.8,7.3-3,11.4-3.5c4.7-0.5,8.9,0.7,13.3,1.5
			c2.8,0.5,2,2.9,1.9,4.5c-0.1,3-0.1,6.2-2.7,8.6c-0.9,0.8-0.3,1.7,0,2.6c1.1,2.8-0.2,5.5-3.1,6.1c-6.9,1.4-11,6.4-14.7,11.8
			c-0.5,0.8-0.4,1.4,0.1,2.1c0.9,1.4,2.3,2.3,3.3,3.6c3.8,4.9,8.1,9.4,10.3,15.3c1.4,3.5,0.7,7.2,1,10.9c0.2,2.2-0.1,4.5,0,6.8
			c0.1,3.5-1.1,6.3-3.2,9c-1.1,1.4-1.8,3.2-3.3,4.4c-1.9,1.5-4,2.3-6.6,1.9c-5.8-0.8-11.2-3.2-16.8-4.8c-4.3-1.2-8.1-0.3-11.6,2.3
			c-0.8,0.6-1,1.3-0.3,2.2c2.4,3.3,4.8,6.7,7.3,9.9c0.9,1.2,2.2,1.9,3.7,2.3c6.5,1.8,13.2,3,19.4,5.7c5.7,2,11.3,4.4,17.2,5.9
			c2.1,0.4,4,1.6,6.2,1.8c0.4,0.3,0.8,0.6,0.9,1.1c0.9,4,3.4,7.2,4.8,11c1,2.7,3.1,4.2,5.6,5.3c6.7,3,13.4,2.9,19.9-0.7
			c0.5-0.3,1-0.6,1.5-0.6c2.1,0,3.6-1,4.4-3c0.7-0.2,1.4-0.1,2,0.4c4.4,3.1,9.3,5.2,14.1,7.5c3.4,1.6,6.7,3.8,10.3,5.4
			c3.9,1.7,8.2,2.7,12.3,3.3c5.6,0.8,11.4,0.9,17.2-0.2c1-0.2,2-0.2,3,0.1c0.4,0.1,1,0.4,1.4,0.2c2.2-1.4,4.9,0.4,7.1-1.1
			c0.4-0.3,0.9-0.1,1.3,0.1c1.2,0.9,2.7,0.5,3.8,0c1.4-0.6,2.7-0.7,4.1-0.7c8.4,0.1,16.8-0.4,25.1,0.3c3.3,0.3,6.6,0,9.9-0.1
			c0.7,0,1.4,0.2,2,0.4c1.3,0.5,2.7,0.6,3.8,0c1.8-1,3.9-0.2,5.7-0.9c2-0.8,4.1-0.4,6.1-0.5c1.1-0.1,2.2,1,2.1,2.3
			c0,0.9,0.4,1.4,0.8,2l0,0c1.6,1.9,0.5,4,0.4,6c0,0.9-0.8,1.7-0.2,2.6c0.1,0.2,0,0.6-0.2,0.6c-3.6,0-0.8,3.8-2.9,4.9
			c-0.6,0.3-0.1,1.8,1,2.4c0.7,0.3,1.8,0.1,1.9,1.2l0,0c-0.9,0.6-3.3-0.4-2.1,2.5C572.9,380.9,570.9,382.7,569.8,383.9z"/>
		<path class="st4" d="M368.4,194.6c-1.3,1.7-3.4,2.5-5.2,3.7c-2.1,1.4-3.6,3.3-5.5,4.8c-1.6,1.3-1.4,3-1.4,4.6
			c0,1.1-0.1,1.7-1.5,1.8c-3,0.1-4.5,2.4-6.1,4.4c-0.3,0.4-0.6,1.1-1,1.2c-2.5,0.9-3.2,3.2-4.5,5.1c-0.1,0.2-0.2,0.4-0.4,0.6
			c-5.1,4.9-8.8,11.2-15.6,14.4c-3.1,1.4-6.3,3-9,5c-2.7,2-5.6,3.1-8.4,4.5c-3.6,1.9-7.6,2.5-11.3,4c-2.2,0.9-4.6,1.9-6.9,2.5
			c-5.2,1.4-10.4,4-16,1.5c-0.3-0.1-0.7-0.1-0.9-0.2c-4.3-3.1-9.5-4.9-13.7-8.3c-2.9-3.9-6.6-7.3-8.4-12c-1.6-4.5-2.6-9-2-13.8
			c0.3-2.2-0.3-4.5-0.4-6.7c-0.1-5,0.7-9.7,2.1-14.6c1.8-5.8,5.2-10.5,8.1-15.5c2-2.2,3.3-5.2,5.7-7c3.7-2.9,6.4-6.9,10-9.9
			c1.6-1.3,3.1-2.1,5.2-2c2.9,0.1,5.8-0.6,8.6,0.7c0.7,0.3,1.5,0,2.2-0.3c3.3,0.8,3.1,3.9,3.9,6.2c0.9,2.5,1.3,5,3.6,6.7
			c1.1,0.8,0.9,2.7,2.2,3.7l0,0c0.4,0.4,0.1,1,0.4,1.3c2.5,2.7,1.9,6,1.4,9c-0.4,2.2-1.3,4.5-2.7,6.4c-0.9,1.3-0.9,3.2-2.8,3.8l0,0
			c-1.3,1.8-2.2,4-3.6,5.5c-1.7,1.8-2.6,3.8-3.7,5.9c-0.4,0.8-0.2,1.8-0.9,2.6c-0.5,0.6-1.1,1.4-0.3,2c0.7,0.5,1.8,0.6,2.4-0.1
			c1.3-1.4,3.2-1.8,4.7-2.9l0,0c5.7-2,9.9-6.1,14.1-10.2c4-4,8-7.9,12.3-11.6c1.8-1.5,3-3.6,5.2-4.6c3.8-3.2,8-5.7,11.6-9.1
			c0.8-0.7,1.5-1.2,2.6-1.3c1.1-0.1,2.8,0.8,3.1-1.4c0.1-0.4,1.3-0.2,2-0.1c3,0.3,6.4-2.4,6.8-5.4c0.1-1.1,0.3-2.2,0.3-3.2
			c0-1,0.1-2,1.5-1.7c0.5,0.1,0.7-0.3,0.9-0.6c1.8-3,4.7-4.5,8-5.3c0.5-0.1,1.2-0.3,1.4-0.7c1.2-1.9,3.6-2,5.1-3.5
			c0.8-0.9,2.2-0.2,3.3-0.7c2.3-1,4.5-2.3,6.9-3.2c0.2-0.1,0.4-0.2,0.6-0.3c1.6-0.1,2-1.4,2.7-2.4c5.9-2.2,12.1-3.3,17.6-6.4
			c1.7-1,3.9-1.1,5.9-1.1c3.4-0.1,6.8-0.6,10.2-0.9c2.4-0.2,4.5,0.3,6.5,1.1c1.8,0.7,3.4,0.8,5.1-0.5c1.6-1.2,3.8-0.7,5.6-0.1
			c0.9,0.3,1.9,0.6,2.8,1c5.7,1.8,11.3,3.8,16.5,6.8c2.8,1.6,5.9,2.6,8.7,4.4c5.1,3.3,9.2,7.5,12.6,12.5c2.7,4,4.3,8.4,4.8,13.3
			c0.3,3,2.3,5.6,2.6,8.7c0.1,0.9,0.4,1.8-0.1,2.5c-1.8,2.6-2.5,6-5.1,8.1c-1.7,1.5-2.9,3.7-4.6,4.8c-2,1.3-3.9,2.6-5.7,4.2
			c-2.7,2.5-6.3,3.4-9,5.7c-3.7,1-7.4,2.1-10.7,4.2c-0.8,0.5-1.7,0.8-2.6,0.7c-1.3-0.1-2.4,0.5-3.5,0.9c-3.9,1.2-7.8,2.6-11.9,1.3
			c-1.5-0.5-3-1-4.6-0.6c-0.4,0.1-0.8,0.2-1.1,0c-3.5-2.1-7.5-1.3-11.2-2.2c-0.5-0.1-1-0.4-1.4-0.7c-1.3-0.8-2.6-1.3-4.1-1.2
			c-2.9,0.1-5.6-1.3-8.6-1.5c-1.4-0.1-2.9-0.2-4.3-0.4c-0.9-0.1-1.9,0.2-2.8-1c2.9-1.2,5.7-0.5,8.5-0.5c-5.2-1.9-10.2-1.3-15.2,0.3
			c-1.5,1-3.1,0.6-4.7,0.7c-2.4,0.2-4.7,1.1-7.1,1.1c-0.6,0-1.8,0.6-1.8-0.7c0-1.1-0.7-2.5,1.2-2.9c1.7-0.4,3.4-1.2,4.9-2
			c1.5-0.6,3.3-0.7,4.6-2.4c-1.8,0.4-3.5,0.7-5.2,0.8c-0.5,0-1.1,0-1.3-0.6c-0.2-0.6,0.5-0.6,0.8-0.9c0.3-0.3,0.7-0.6,1.1-0.8
			c0.1-0.1,0.2-0.1,0.4-0.1c1.4-0.7,3-1.2,4.3-2.3c0.1-0.1,0.2-0.1,0.4-0.1c1-0.2,1.7-0.6,2-1.7c-1.6-0.4-3,0.1-4.5,0.4
			c-0.7,0.1-1.5,0.2-1.7-0.6c-0.3-1,0.5-1.4,1.2-1.3c2.6,0.1,2.1-2.6,3.5-3.7c1.4-1.2,3.3-1.4,4.9-1.8c2.5-0.6,4.8-1.6,7.3-2
			c5.2-1.3,10.5-2,15.8-2.6c3.9-0.5,7.7-1.5,11.6-2c2.7-0.3,3.4-2.4,4.7-4.1c0.5-0.6,0-1.3-0.7-1.7c-1-0.6-2.1-1.1-3.3-1.1
			c-4.6-2-9.3-3.5-14.4-3.8c-1.3-0.1-2.6-0.2-3.9,0.2c-3.3,1.1-6.8,1.7-9.9,3.4c-2.9,1.6-6.3,1.8-9.2,3.1
			c-5.6,2.6-10.9,5.7-15.1,10.3C370.8,193.1,369.9,194.3,368.4,194.6z"/>
		<path class="st5" d="M944.6,157.7c0.4,4.1,0,8-2.8,11.4c-1.2,1.5-0.2,3.7-1,5.4c-0.4,1-0.3,2.5-2.1,1.2c-0.9-0.6-1.2,0.5-1.4,1
			c-1.3,3.9-3.7,7.3-5.4,10.9c-1.5,3.2-3.9,5.9-5.2,9.1c-1,2.6-2,5.1-3.1,7.6c-0.5,1.1-0.7,2.3-1.8,3.1c-0.7,0.5-1,1.4-1,2
			c0.1,2.7-1.8,4.8-3.3,6.2c-2.9,2.8-6,5.7-10.5,5.9c-6.7,0.3-11.5,3.9-15.4,8.9c-1,1.3-0.5,2.8-0.3,4.3c0.5,2.8,1.2,5.5,1.6,8.2
			c0.6,5.1,0.3,10.2-1.9,14.9c-1,2.2-3.2,2.6-5.4,2.9c-5,0.7-5.2,0.9-6.5,5.7c-0.5,1.9-1.5,3.8-3.1,5.1c-2.9,2.5-5.2,5.5-8.6,7.4
			c-2,1.1-3.3,1.3-4.5-1.3c-2,6-7.4,6.7-11.9,8.3c-3.4,1.2-7.2,1.6-10.8,0.7c-4.9-1.2-9.5-3.1-13.6-6.1c-1.7-1.2-1.8-3.3-2-5
			c-0.5-5-0.8-10,1-14.8c0.9-2.4,2.3-4.6,3-7.2c1.6-6.3,3.3-12.6,6.2-18.5c1.5-2.9,2.9-5.9,4.4-8.8c0.2-0.4,0.7-0.8,1-0.8
			c0.7,0,0.9,0.7,0.9,1.2c-0.2,2.3,1.2,3.7,2.6,5.2c2.4,2.5,2.7,5.9,3.5,9c0.6,2.3,1.4,4.6,0.7,7.1c-0.1,0.5,0,1.1,0.3,1.6
			c1.1,2,1.1,4.2,0.8,6.4c-0.2,1.4,0.3,2.3,1.8,1.6c4.5-2.1,9.1-4,12.4-7.9c1.3-1.5,2.7-3,4-4.5c2.3-2.4,2.5-5.3,0.4-7.9
			c-0.5-0.6-1-1.2-1.5-1.8c-0.8-1-0.7-1.9,0.6-2.3c0.8-0.3,1.4-0.9,2.1-1.4c1.1-0.8,1.4-1.4,0.8-2.9c-2.1-5.1,1.6-10.7,7.5-10.7
			c3.5,0,7.1,0.4,10.1,2.9c1.6,1.3,2.6,2.8,2.7,4.9c0,0.5-0.1,1.3,0.6,1.3c0.6,0,0.7-0.7,0.7-1.3c0.1-5.4,1.8-10.4,3.1-15.5
			c0.2-1,0.5-1.9,0.8-2.9c0.5-2.2-0.2-2.9-2.3-2.3c-2.4,0.7-4.9,1.1-7.2,2.4c-2.8,1.5-6.1,0.8-9.1,1.8c-3.7,1.3-7.6,2.2-11.4,3.3
			c-0.6,0.2-1.3,0.5-1.8,0.2c-2.1-1.3-3.3,0.2-4.9,1.2c-2.3,1.6-5.3,1.8-7.9,2.6c-5.8,1.9-11.6,3.4-17.4,5.2
			c-2.9,0.9-5.7,2.3-8.8,2.7c-1.6,0.2-2.6,1.4-2.9,3.2c-0.3,2.1-0.9,4.1-1.9,5.9c-1.6,2.7-1.7,6.1-4,8.5c-0.7,0.7-0.7,1.7-0.6,2.7
			c0.7,4.3-2.8,6.6-6.1,8.4c-2.3,1.2-5,1-7.4,1.8c-1.2,0.4-2.4-0.3-3.2-1c-2.1-1.8-4.3-3.1-7-3.7c-1.5-0.4-2-1.7-2.1-3
			c-0.3-3.1,0.3-6.1,1.3-9.1c1.4-4.5,3.6-8.5,5.1-12.9c2.4-7.3,5.3-14.4,6.8-22c0.3-1.3,0.6-2.5,2.1-3c1.6-0.6,1.3-2.4,0.7-3.2
			c-1.2-1.5-0.8-2.8-0.5-4.5c0.7-3.2,1.2-6.6,1.6-9.9c0.6-4.5,1.1-9,1.7-13.6c0.2-1.3-0.1-2.5-0.5-3.7c-0.1-0.4-0.2-1,0.2-1.3
			c0.5-0.4,1.1-0.2,1.5,0.2c3.5,2.9,7.9,4.3,11.4,7.2c3.7,3,5.8,7.1,7.2,11.7c1,3.2,0.4,6.4,0.2,9.6c-0.3,3.5,0.2,4,3.8,3.2
			c1.6-0.4,3.2-1.1,4.8-1.7c3.5-1,6.9-2.3,10.3-3.4c3.6-1.1,7.1-2.8,11.1-2.4c0.8,0.1,1.4,0.1,1.9,0.9c0.7,1.1,1.6,0.7,1.8-0.4
			c0.6-3,2.9-3.1,5.1-3.3c4.8-0.3,9.6-0.7,14.1-2.1c2.3-0.7,4.5-0.8,6.8-0.7c1.6,0,3-0.8,4.5-1c4.1-0.6,8.1-1.1,12.2-1.7
			c0.6-0.1,1-0.3,1.3-0.8l0,0c1.6-1.8,1.8-4.2,2.8-6.3c1.3-2.7,3.1-5.2,2.6-8.5c-0.1-0.7,0.4-1.1,1-1.4c2,0.9,3.8,1.5,4.2-1.7
			c2.5-1.2,2.5-4,3.8-5.9c0.6-0.9,0.8-1.8,2.2-1.5c0.6,0.1,1.2,0,1.7-0.6c0.3-0.5,0.9-0.7,1.4-0.4c2.6,1.5,4.6-0.2,6.7-1.3
			c0.5-0.2,0.9-0.6,1.4-0.9c1.8-1,3.5-1.1,5.5,0C941.7,152.8,944.4,154,944.6,157.7z"/>
		<path class="st6" d="M409.1,422.7c-4,1.5-6.8,4.8-9.9,7.5c-3.1,2.7-6.4,4.1-10.5,3.5c-0.9-0.1-1.9,0-2.8,0.2
			c-3,0.5-3.8,2.3-1.9,4.7c3.1,4.2,5.9,8.5,8.2,13.2c2.3,4.8,3.8,9.7,3.9,15.1c0.1,4.9,0.7,9.7,0.5,14.6c-0.2,6.5,0.4,12.9-0.1,19.4
			c-0.7,8.5,0.9,16.7,4.9,24.3c2.1,4,4.4,7.9,6.6,11.8c1.2,2.1,1.9,4.6,2.3,7c0.2,1.1-0.3,1.9-1.2,2.6c-1.3,1-2.5,2.1-3.7,3.1
			c-0.7,0.6-1,1.2-1.1,2.2c-0.2,1.9-0.6,3.8-1.1,5.7c-0.4,1.6-1.5,2.4-3.1,1.5c-1.3-0.8-2.7-0.7-3.8-0.3c-3.2,1.3-5.8-0.2-8.3-1.6
			c-6.4-3.8-10.2-10-13.6-16.4c-2.1-3.8-3.8-7.8-4.7-12c-1.3-6-2.7-12-3-18.2c-0.3-5.7-1.2-11.4-1.6-17.1c-0.2-3.1-0.4-6.2,0-9.3
			c0.8-6.3,0-12.6,0.6-18.9c0.4-4.3,0.7-8.6,1.2-12.9c0.6-4.5,1.3-8.9,2.2-13.3c1.1-4.9,3.4-9.3,5.8-13.7c0.1-0.2,0.3-0.5,0.4-0.5
			c2.5,1.1,2.6-1.4,3.2-2.5c4-7.8,8.8-15.1,14.7-21.6c1.8-2,4.2-3.6,5.7-5.9c1.4-2.1,2.7-4.3,4-6.4c0.6-1.1,0.2-2.1-0.1-3.1
			c-0.8-2.1-0.3-2.5,1.9-2.7c4.7-0.4,8.6,0.9,12,4.2c1.6,1.6,4.1,2.2,5.6,4.1c4.8,5.3,6.9,9.5,4.5,15.6c-0.7,1.9-2.5,2.9-3.2,4.7
			c-0.7,1.7-1.8,3.2-3.5,4.2C416.2,417.9,413,420.9,409.1,422.7z"/>
		<path class="st7" d="M832.9,406.3c0.3-0.5,0.6-1,0.9-1.5c1.1-2.6,0.7-5.3,0.3-8c-0.2-1.3-1.9-1.9-2.3-3.5
			c-0.3-1.5-0.4-2.8,0.2-4.2l0,0c0.9-0.5,1.8-1.2,3-0.7c0.5,0.2,1.2,0,1.3-0.6c0.2-0.8-0.6-0.6-1.1-0.8c-0.8-0.4-2.7-0.6-0.7-2
			c0.2-0.1,0.2-0.2,0.2-0.4c-0.2-1.5-0.2-1.5,1.4-1.6c5.5-0.3,9.7,2,13.1,6.1c1.8,2,2.9,4.4,3.6,7c1.9,6.6,4.6,12.9,5.5,19.7
			c0.6,4.4,0.8,8.9,0.5,13.4c-0.3,4.3-1.1,8.4-2,12.6c-0.2,1-0.7,2-1.2,2.7c-1.3,2-0.4,4.2-1.1,6.1c-1.3,3.3-1.9,6.9-3.7,10.1
			c-0.8,1.3-0.4,3.1-1.2,4.6c-1.5,3-3,6-4.8,8.9c-1.3,2.3-2.4,4.7-4.3,6.6c-4.2,4.3-9.3,7.4-15,9.3c-6.6,2.2-13.2,4.7-20.1,5.5
			c-5.9,0.7-11.9,0.9-17.8-0.6c-0.3-0.1-0.8-0.1-0.9-0.6c3.8-1.2,3.8-1.2,2.9-4.4c1-0.6,1.3,0.4,1.9,0.7c0.6,0.3,1.5,0.7,1.9,0
			c0.5-0.7,0-1.3-0.8-1.5c-0.6-0.2-0.9-0.7-0.7-1.3c0.2-0.6,0.8-0.7,1.3-0.6c1.1,0.2,1.6-0.4,2-1.2c0.8-1.9,1.6-1.2,2.7-0.1
			c3.2,3.4,4.7,3.6,8.6,1c5.2-3.6,10.7-6.8,15.2-11.5c1.1-1.1,1.7-2.6,2.8-3.7c2.1-3,3.2-6.5,4.5-9.9c2.2-6,3.6-12.2,5.2-18.3
			c0.3-1.1,0.8-2.2,1-3.3c0.1-0.4,0.2-0.8-0.2-1c-0.5-0.3-0.9,0.1-1.2,0.5c-0.7,0.8-0.7,2.1-1.6,2.8c-1.1-0.1-1.3,0.5-1.2,1.4
			c-0.2,1.2-1.7,1-2.2,1.9c-0.6,2.8-2.5,4.5-4.9,5.8c-1.2,0.7-2.1,2-3.2,3c-1.1,1.1-2.2,2.1-3.9,1.9c-0.7-0.1-1.1,0.1-1.3,0.7
			c-0.9,2.1-1.5,1.2-2.1-0.1c-0.7-1,1.1-1.5,0.3-2.6c-0.1,1.1-0.8,2.1-0.3,3.2c-0.4,1.4-1.3,1.8-2.6,2.2c-1.8,0.5-3.6,1.2-5.4,1.5
			c-2.5,0.4-5.1,0.1-7.6,0c-1-0.6-1.9-1.4-3.2-0.6c-0.8,0.4-1.7,0.2-2-0.6c-0.7-1.9-2.3-3.5-2.4-5.6c0.9-1.1,1-2.2-0.1-3.2
			c-0.1-0.8-1-1.6,0-2.4c0.1,0,0.2-0.1,0.2-0.1c0.2-4,1.8-7.8,1.3-11.8c0-0.3-0.3-0.6-0.3-0.9c0.8-1.8,1.8-2.2,3.9-1.6
			c2.3,0.6,4.8,0.7,7.1-0.2c1-0.4,2-0.6,3-0.2c1.5,0.7,3,0.6,4.6,0.6c1.9,0.1,3.3-0.2,4.7-1.8c1.8-2,4.5-1.6,6,0.6
			c0.9,1.4,1.9,1.5,3,0.3c1.3-1.4,2.4-1.3,3.7,0c1.4,1.4,2.7,1,3.1-1c0.2-0.6,0.1-1.2,0.2-1.8c0.1-0.6,0.3-1.3,1-1.4
			c0.7-0.1,1.2,0.4,1.5,0.9c0.6,0.9,0.7,2,1,3.1c0.2,0.8,0.1,2,1.3,1.8c1-0.1,2.1-0.6,2.3-1.7c0.5-2.1,1.5-3.9,2.4-5.8
			c0.7-1.5-0.1-2.6-1.5-2c-3.1,1.2-6.1-0.5-9.1,0c-1,0.2-2,0.2-2.6,1.1c-1,1.5-2.1,1.5-3.2,0.2c-1-1.1-2.1-1.7-3.7-1
			c-0.7,0.3-1.4,0-2-0.2c-1.2-0.4-2.4-0.6-3.7-0.6c-2.7,0-3.5,0.7-4.1,3.3c-0.1,0.7-0.1,1.5-1,1.7c-0.9,0.2-1.4-0.4-1.9-1.1
			c-0.4-0.6-0.7-1.2-0.9-1.9c-0.4-1-1-1.7-2.2-1.7c-1.2,0-2,0.3-2.5,1.5c-1.2,2.4-2.2,2.4-3.5,0.2c-0.7-1.2-1.7-1.8-3-2.1
			c-1.3-0.3-1.5-1-1.4-2.2c0.3-3.3,1.1-6.5,1.3-9.8c1.3-7,2.5-14,5.8-20.4c0.8-1.7,1-3.6,2.1-5.1c0.5-0.7,0.9-1.5,1.8-2
			c0.7-0.4,1.6-1.3,1.7-2.1c0.7-4.9,3.6-8.6,5.8-12.8c3.2-6,6.8-11.8,11.2-17.1c0.3-0.4,0.7-0.8,1.1-1.2c1.4-1.1,2.7-2.3,2.9-4.3
			c0.1-1,0.7-1.4,1.6-0.8c0.5,0.4,1,0.7,1.7,0.4c1.5-0.5,2.9-0.3,4.3,0.2c1,0.3,2,0.5,2.9-0.1c0.8-0.5,1.4-0.2,2,0.5
			c3.1,3.9,4.2,8.2,2.7,13c-0.6,1.9-1.8,3.4-3.2,4.8c-0.8,0.8-1.6,1.5-1.8,2.6c-0.8,3.2-3.4,5.4-4.8,8.3c-1.8,3.7-3.8,7.3-4.9,11.3
			c-1.7,4.1-2.9,8.4-3.2,12.9c-0.4,5.6-0.6,11.3-1.7,16.8c0,0.2-0.1,0.3-0.1,0.4c-0.1,0.8-0.3,1.8,0.6,2c0.7,0.2,1.2-0.7,1.4-1.3
			c0.8-1.9,2.1-3.6,3.3-5.3c0.9-1.7,1.8-3.5,2.7-5.2C831.7,408.2,832.3,407.2,832.9,406.3z"/>
		<path d="M434.6,334.3c-0.1,0.2-0.3,0.4-0.4,0.6c-0.4,1.4-0.2,2.5,1,3.5c1.1,1,0.8,1.8-0.8,2.2c-1,0.2-2,0.1-3,0.1
			c-4.5,0-9,0.1-13.5,0c-1.1,0-2.8,0.3-2.4-1.9c1.3-1.2,1.4-2.7,0.7-4.2c-0.8-1.8-1.4-3.8-1.4-5.8c-3.6-10.9-7.2-21.8-10.8-32.8
			c-1.1-3.3-1.1-3.3,2.4-3.3c3.7,0,7.3,0,11,0c0.6,0,1.4-0.3,1.6,0.5c0.2,0.7-0.5,0.8-1,1c-0.9,0.5-0.8,1.2-0.5,2
			c2.5,7.7,4.9,15.4,7.5,23c0.3,0.9,0.6,2.7,1.6,2.6c1-0.1,0.9-1.8,1.2-2.7c2.3-7.4,4.5-14.8,6.8-22.3c0.3-1.1,0.9-2.3-0.8-2.8
			c-0.5-0.1-0.5-0.5-0.4-0.9c0.2-0.5,0.6-0.4,1-0.4c1.6,0,3.1,0,4.7,0c4.6,0,9.2,0,13.8,0c0.5,0,1.2-0.2,1.5,0.4
			c0.3,0.7-0.4,0.8-0.8,1.2c-0.9,0.7-0.5,1.5-0.2,2.3c1,3.8,1.8,7.8,3.2,11.4c1.6,4.3,2.7,8.7,4,13c0.1,0.4,0.2,0.8,0.8,1
			c1.9-5.8,3.8-11.6,5.7-17.3c0.9-2.7,1.8-5.3,2.6-8c0.3-1.1,0.6-2.2-0.9-2.6c-0.4-0.1-0.7-0.3-0.6-0.8c0.1-0.4,0.5-0.5,0.9-0.5
			c4.4,0,8.7,0,13.1,0c0.8,0,1.4,0.6,0.7,1.1c-1.5,1-1.6,2.6-2,4.1c-4.2,12.4-8.4,24.8-12.5,37.3c-0.4,1.3-1.8,2.9,0.7,3.7
			c0.1,0,0.3,0.4,0.2,0.6c-0.2,0.6-0.8,0.4-1.2,0.4c-3,0-5.9,0-8.9,0c-2.8,0-5.6,0-8.4,0c-1.3-0.3-0.6-1.1-0.3-1.6
			c0.6-1.1,0.7-2.2,0.5-3.4c-2.1-8.7-5-17.2-7.3-26.2c-0.8,1.1-1,2.1-1.3,3c-1.9,6.8-4.1,13.6-6.4,20.3
			C435.6,333,435.6,333.9,434.6,334.3z"/>
		<path d="M805.4,336.2c-0.2,1-0.1,1.8,0.9,2.3c0.5,0.2,1.4,0.2,1.3,1c-0.2,0.8-1,0.3-1.6,0.4c-0.2,0.1-0.5,0-0.7,0.1
			c-0.5,0.2-1.1,0.4-1.7,0.5c-4.2,0.4-8.4,0.2-12.6,0.1c-0.8-0.1-1.7-0.1-1.9-1.2c0.2-1.4,2.2-1.8,1.9-3.4
			c-0.2-4.3-0.1-8.6-0.1-12.9c0.2-5.3,0-10.6,0.1-15.9c-2.2,4.1-3.7,8.4-5.8,12.5c-2.3,3.8-3.6,8-5.7,11.9c-0.9,1.7-1.3,3.7-2.4,5.3
			c-0.5,0.7-0.7,1.8-1.8,1.6c-0.9-0.2-1.1-1.2-1.5-2c-0.4-0.9,0-1.9-0.5-2.7c-5.3-9.3-8.8-19.5-13.7-29.2c-1,0.7-0.6,1.4-0.6,2.1
			c0,8.6-0.1,17.1,0,25.7c0,2.6-1.3,5.7,2.4,7.3c-5.2,0-10.4,0-15.5,0c3.7-1.5,2.5-4.7,2.5-7.2c0.1-11.7,0-23.3,0-35
			c0-1.6,0.2-3.2-2-3.6c-0.3-0.1-0.6-0.4-0.5-0.7c0.1-0.2,0.4-0.4,0.7-0.5c0.4-0.1,0.8-0.1,1.2-0.1c6.5,0,12.9,0,19.4,0
			c0.6,0,1.6-0.4,1.8,0.5c0.2,0.9-0.8,0.7-1.3,1.1c-0.9,0.7-0.6,1.4-0.3,2.3c2,5.8,5.3,11,7.7,16.6c0.2,0.4,0.3,0.8,0.7,0.8
			c0.5,0,0.5-0.4,0.7-0.8c2.6-5.5,5.2-10.9,7.9-16.4c0.6-1.2,0.7-2.3-0.9-2.8c-0.4-0.1-0.8-0.3-0.7-0.8c0.1-0.6,0.7-0.5,1.2-0.5
			c7.4,0,14.8,0,22.2,0c0.4,0,1-0.2,1.2,0.4c0.2,0.6-0.4,0.8-0.8,0.9c-1.3,0.2-1.6,1-1.6,2.2c0.1,3.2,0.1,6.4,0.1,9.6
			c0.8,0.9,0.8,2,0.8,3.1c0,8,0,16,0,24C806.2,334.1,806,335.2,805.4,336.2z"/>
		<path class="st8" d="M804.6,348.4c-0.1,0.2-0.1,0.3-0.2,0.5c-1.1,1-2.1,2.1-2.7,3.4c-0.3,0.6-0.6,1-1.2,1.3
			c-2.5,1.6-3.2,4.4-2,7.4c1.2,2.8,2.1,5.5,0.9,8.7c-1,2.4-1.3,5.1-1.7,7.8c-0.3,1.8-0.5,3.3-2.4,4.2c-1.4,0.7-1.7,1.8-0.4,2.9
			c1.4,1.2,1.1,2.3,0.1,3.6c-0.4,0.4-1.1,0.8-1,1.5c0.3,1.5-0.6,1.9-1.8,2.1c-0.3,0.1-0.6,0.4-0.9,0.7c-2.2,1.7-4.5,3.4-7,4.7
			c-2.1,1.1-4,2.7-6.5,2.7c-0.5,0-1.2-0.3-1.5,0.3c-0.7,1.3-1.1,0.5-1.6-0.1c-1.1-1.3-2.1-3-4.1-1.1c-0.3,0.2-1,0.2-1.3,0
			c-2.5-1.4-5.4-2.4-6.5-5.5c-2.1-4.7-1.8-9.7-0.9-14.6c1.2-6.4,2.2-12.9,3.4-19.3c0.5-2.8,1.7-5.6,2.8-8.3c1.2-3,2.1-6.1,3.4-9.1
			c0.3-0.7,0.1-1.7,1.2-1.7c0.9,0,1.6,0.5,1.8,1.3c0.5,1.3,1.1,1.2,2.3,0.8c4.4-1.4,8.5-1,12,2.3c1.4,1.3,2.9,2,4.8,2.3
			c1.1,0.1,2.2,0.3,3.2,0.7c1.7,0.7,3.3,0.9,5,0.1c0.6-0.3,1.4-0.3,2.1-0.1C804.1,347.7,804.4,348,804.6,348.4z"/>
		<path d="M862.7,340.1c-11.9,0-23.9-0.1-35.8-0.1c-1.1,0-2.2,0-3.3,0c-0.5,0-1.2,0.3-1.3-0.5c-0.1-0.6,0.5-0.7,0.9-0.8
			c1.3-0.3,1.4-1.2,1.4-2.3c0-2.2-0.1-4.5-0.1-6.7c-0.9-0.9-0.8-2-0.8-3.1c0-8.2,0-16.4,0-24.6c0-1.1,0-2.2,0.8-3.1
			c-0.2-1.8,1.3-4.2-1.8-4.9c-0.2,0-0.3-0.3-0.3-0.5c0-0.4,0.2-0.6,0.6-0.6c0.6,0,1.2,0,1.9,0c9.4,0,18.8,0,28.2-0.1
			c3.3-0.9,6.6-1.2,9.9,0c0.9,0,1.8,0,2.6,0c1.1-0.6,2.2-1,3.2-1.8c1.2-1,1.9-0.7,2.2,0.8c0.3,1.7,0.1,3.4,0.1,5.1
			c0,2.4,0.1,4.8-0.1,7.2c0,0.8-0.1,1.7-1,1.9c-0.8,0.2-1.1-0.7-1.6-1.1c-1.4-1.1-3-0.4-4.5-0.7c-5.7,0.2-11.3,0.1-17,0.1
			c-1.6-0.2-3.3,0-4.9,0c-2.4,0-2.7,0.3-2.7,2.7c0,1-0.2,2,0.6,2.9c0.6,0.5,1.3,0.5,2,0.5c4,0,8-0.1,12.1-0.1c1,0,2-0.3,2.8-1
			c0.6-0.5,1.2-1.1,2-0.9c1,0.4,1.1,1.3,1.1,2.1c-0.2,3.8-0.5,7.5-0.6,11.3c0,0.3-0.2,0.6-0.4,0.8c-0.2,0.1-0.4,0.3-0.6,0.2
			c-3.7-2.2-7.7-1-11.6-1.3c-1.6-0.1-3.3,0-4.9,0c-1.8,0-2.6,0.7-2.5,2.5c0.1,0.8,0,1.7,0,2.6c0.1,0.5,0.2,1,0.5,1.4
			c0.7,0.7,1.6,0.6,2.4,0.6c7.7,0,15.3,0,23,0c0.9,0,1.7-0.1,2.4-0.5c1-0.4,1.3-2.1,2.5-1.6c1.3,0.6,1,2.1,1,3.3
			c-0.1,3.8,0.4,7.5-0.3,11.3c-1,1.4-1.8-0.1-2.6-0.3c-0.8-0.1-1.5-0.1-2.3,0C864.7,340.7,863.7,340.7,862.7,340.1z"/>
		<path d="M678.8,309.5c3.2-10.2,10.8-15,20.7-16.6c7.9-1.3,15.7-0.7,22.9,3.2c8.9,4.8,13.1,13.7,11.6,24.4
			c-1.2,8.9-8.2,16.5-17.5,18.5c-8.6,1.9-17.3,2.1-25.5-1.6c-6.1-2.7-10-7.4-12.3-13.8c-1.4-3.8-1.2-7.5-1-11.4
			C678.6,311.4,678,310.2,678.8,309.5z"/>
		<path d="M530.1,308.8c0,4.6,0,9.1,0,14.6c-1.8-3.4-4.5-2.7-6.9-2.7c-3.8,0-7.6,0.1-11.4-0.1c-2-0.1-2.6,0.7-2.5,2.6
			c0.1,1.4,0.1,2.8,0,4.2c-0.1,1.4,0.6,1.9,1.9,1.9c8.7,0,17.4,0,26.2,0c1.4,0,2.5-0.3,2.7-1.9c0.1-0.4,0.2-0.8,0.7-0.8
			c0.7,0,0.5,0.7,0.5,1.1c0,4.7,0,9.3,0,14.5c-2.4-3.2-5.6-2-8.4-2c-12.2-0.1-24.4,0-36.7,0c-0.5,0-1.1,0-1.6,0
			c-0.4,0-0.8,0.1-1-0.4c-0.1-0.5,0.3-0.7,0.6-0.8c1.7-0.3,1.7-1.5,1.7-2.8c0-13,0-26,0-39c0-1.4,0-2.7-1.9-2.9
			c-0.3,0-0.5-0.4-0.5-0.7c0.1-0.4,0.4-0.5,0.7-0.5c0.6,0,1.2,0,1.9,0c13.5,0,27.1,0,40.6,0c1.5,0,3.1,0.3,3.4-1.9
			c0-0.3,0.3-0.5,0.7-0.4c0.4,0.1,0.4,0.4,0.4,0.7c0,4.6,0,9.2,0,13.8c0,0.3,0,0.6-0.4,0.7c-0.5,0.1-0.7-0.3-0.8-0.7
			c-0.2-1.6-1.4-1.6-2.6-1.6c-8.7,0-17.4,0-26.2,0c-1.4,0-2.1,0.3-2.1,1.9c0.2,7-0.8,5.5,5.4,5.6c2.8,0.1,5.6,0,8.4,0
			C525.6,310.9,528.3,311.7,530.1,308.8z"/>
		<path d="M667.5,295.2c-2.9,5.3-5.5,10.1-8.1,14.9c-0.5-3.7-3.5-4.1-6-4.8c-6.8-1.8-13.5-2.2-20,1.1c-4.1,2.1-6.6,5.3-6.5,10.2
			c0.1,4.7,2.6,7.9,6.6,9.9c8.2,4.1,16.2,2.2,24-1.1c0.9-0.4,1.9-0.9,1.4-2.3c-0.1-0.4-0.3-0.7,0.2-1c0.5-0.2,0.7,0.1,0.9,0.4
			c0.7,1.1,1.5,2.2,2.2,3.3c2,3,3.9,6,5.9,9c0.2,0.4,0.7,0.8,0.3,1.2c-0.3,0.3-0.7,0.2-1,0c-0.8-0.6-1.6-0.2-2.4,0.1
			c-8.5,3.3-17.4,4.6-26.5,3.8c-9.7-0.8-17.8-4.4-23.1-13.1c-3.9-6.3-4.1-12.9-1.1-19c3.9-8,10.9-12.7,19.7-14.5
			c9.6-1.9,19-1,28.2,1.9C664.8,295.9,664.8,296,667.5,295.2z"/>
		<path d="M586.3,329.2c4.6,0,9.2,0,13.8,0c1.4,0,2.7-0.1,3-1.9c0.1-0.4,0.2-0.8,0.7-0.8c0.6,0.1,0.6,0.6,0.6,1.1
			c0,4.4,0,8.7,0,13.1c0,0.5,0.1,1-0.5,1.2c-0.6,0.2-0.7-0.4-0.9-0.8c-0.4-1.5-1.7-1.1-2.7-1.1c-14.4,0-28.8,0-43.2,0
			c-0.5,0-1.1,0-1.6,0c-0.4,0-0.8,0.1-1-0.4c-0.1-0.5,0.3-0.7,0.6-0.8c1.7-0.3,1.7-1.5,1.7-2.8c0-13.1,0-26.1,0-39.2
			c0-1.2,0-2.4-1.6-2.6c-0.4-0.1-0.8-0.3-0.7-0.8c0.1-0.5,0.5-0.5,0.9-0.5c5.4,0,10.9,0,16.3,0c0.4,0,0.8-0.1,0.9,0.5
			c0.1,0.6-0.4,0.8-0.9,0.8c-1.4,0.3-1.6,1.2-1.6,2.4c0,10.3,0,20.5,0,30.8c0,1.4,0.5,1.9,1.9,1.9
			C576.8,329.2,581.5,329.2,586.3,329.2z"/>
		<path class="st9" d="M368.4,194.6c3.9-4.8,8.8-8.2,14-11.5c3.7-2.3,8-2.6,11.7-4.5c3.2-1.6,6.7-2.7,10.1-3.7
			c5-1.5,9.9-0.3,14.6,1.2c1.8,0.6,3.6,0.9,5.1,2.1c1.3,0.2,2.4,0.8,3.6,1.3c0.6,0.3,1.2,0.8,1.1,1.6c-0.1,0.9-3.2,4.4-4.2,4.5
			c-3.8,0.5-7.4,1.4-11.2,2c-5.7,1-11.5,1.2-17.1,2.9c-7.2,1.6-14.1,4-20.6,7.4c-1.4,0.8-1.5,2.6-3,3.1c-1,0.4-2.1,1-2.9-0.2
			c-0.9-1.4-2.7-2.5-1.6-4.6C368.4,195.8,368.4,195.2,368.4,194.6z"/>
		<path class="st9" d="M354.7,227.6c1.2,0.8,2.2,1.1,0.8,2.7c-0.5,0.5-0.8,1.6-1.2,2.3c-0.9,1.6-2.1,0.9-2.7,0.7
			c-1.3-0.4-2.2,0.5-3.3,0.6c-0.1,0-0.2,0-0.2,0.1c0.2,3.6-4.4,1.3-5.1,4.2c-0.2,0.8-1.8,1.7-2.7,0c-0.4-0.7-1.1-0.6-1.7-0.3
			c-0.6,0.3-0.1,0.7,0,1.2c0.5,1.3-0.5,1-1.1,1c-1.3-0.1-2.2,0.2-2.8,1.5c-0.5,1.2-1.4,0.9-2.3,0.2c-0.4-0.3-1.1-0.5-1.5,0
			c-0.4,0.6,0.7,0.7,0.7,1.4c-1.1,0.5-1.5-0.2-2-1.1c-0.6-1-1.5-0.6-2.4-0.4c-0.1,1,2.1,0.9,1.1,1.8c-0.7,0.7-2.5,1-3.2,0.4
			c-1.5-1.4-2-0.1-2.8,0.6c-0.5,0.5-0.6,1.4-1.5,0.4c-0.3-0.4-1.2-0.3-1.2-0.9c0-0.9,1.1-0.4,1.3-1c0-0.9-1.2-0.2-1.2-0.5
			c1.1-3.4,4.8-2.4,6.4-4.8c0.3-0.5,0.9-0.1,1.3,0c1.8,0.5,2.8-1,4.1-1.7c0.4-0.2,0.4-0.6,0-0.9c-0.3-0.2-1.4,0.2-0.8-0.8
			c0.3-0.5,1-0.6,1.7-0.2c0.9,0.6,1.5,0.5,1.3-0.8c-0.1-0.5-0.4-1,0.4-1c0.5,0,0.6,0.4,0.7,0.8c0.2,1,0.7,1.2,1.5,0.6
			c0.8-0.6,0.5-2.8,2.6-1.7c0.5,0.2,0.4-0.9-0.2-1c-0.9-0.3-1.2-0.9-1.4-1.7c-0.1-0.5,0.2-0.9,0.6-0.7c3.3,1.7,1.3-0.9,1.5-1.8
			c0.4-0.3,0.7-0.1,1.1,0.1c0.4,0.3,0.9,0.8,1.4,0.4c0.6-0.6-0.2-0.9-0.4-1.4c-0.5-1.1-0.6-1.9,0.6-2.8c1.1-0.8,1.9-1.9,2.7-3.1
			c0.9-1.3,2.4-2.4,4.1-2.7c1.1-0.2,1.6-0.2,0.6-1.2c-0.4-0.4-0.6-0.8-0.2-1.2c0.5-0.6,0.8,0.1,1.2,0.2c0.2,0,0.3,0.1,0.4,0.1
			c0.8,0,1.2,1.2,2.1,0.6c0.1-0.1,0.2-0.4,0.1-0.6c-0.4-0.9-1.3-0.9-2.2-1c-0.1,0-0.3-0.1-0.4-0.2c-0.1-0.5,0.3-0.8,0.6-0.8
			c1.6-0.2,3.3-0.2,4-2.2c0-0.1,0.2-0.2,0.4-0.2c2.4-0.6,2.8-1.4,2.3-3.8c-0.5-2.3,0.4-3.4,3-3.6c0.7-0.1,1.2-0.4,0.9-1
			c-0.9-2.2,1.2-2.5,2.2-2.9c1-0.4,2-0.4,2-2c1.9,1.4,2.3,3.2,2.9,4.9c0.2,0.5-0.2,0.9-0.6,1.2c-0.7,0.4-0.8-0.3-0.9-0.6
			c-0.3-0.7-0.4-1.7-1.8-1.6c1.1,2.5,1.1,5.3,3.2,7.3c0.6,0.6,0.3,2,0.2,2.8c-0.1,1.2-1.3,0.5-2.1,0.3c-0.9-0.1-0.7,0.7-0.3,1.1
			c0.8,1,1.7,2,2.9,2.7c0.4,0.3,1,0.7,0.8,1.3c-0.3,0.9-0.8,0.3-1.3,0.1c-0.9-0.4-1.5,0.3-1.7,0.8c-0.5,1.5-3,1.8-2.3,4
			c0.2,0.5-0.6,0.4-1.1,0.5c-2.1,0-3.7,0.6-5,2.5C358,226,356.7,227.4,354.7,227.6z"/>
		<path class="st10" d="M434.6,334.3c2.4-7.6,4.7-15.2,7.1-22.9c0.4-1.4,0.5-3,1.8-4.6c1,3.4,1.9,6.5,2.8,9.6
			c1.6,5.7,3.3,11.5,4.9,17.2c0.5,1.9,1.5,4-0.8,5.6c-0.2,0.2,0,0.6,0.3,0.8c0.6,1.5,1.2,2.7,2.9,0.9c1-1.1,2.5-0.2,3.7-0.4
			c3.1-0.3,6.2-0.1,9.3-0.1c0.6,0,1.4-0.1,1.5,0.7c0.1,0.6-0.4,1-0.9,1.2c-1.8,1-3.2,2.8-5.5,2.4c-0.4-0.1-0.8,0.1-0.9,0.5
			c-0.2,0.6,0.3,0.8,0.7,1c1.3,0.5,2,1.5,2.7,3c-3.1,0.3-4.3-4.7-7.9-2.1c0.5-1.2,0-2.3,0.8-3.1c0.3-0.3,0.8-0.8,0.1-1.1
			c-0.5-0.3-1.1-0.2-1.3,0.5c-0.6,1.7-1.3,2.5-2.3,0.2c-0.1-0.3-0.4-0.4-0.6-0.7c-1.4,2-2.9-1-4.4,0.3c1.4-2.2-0.8-2.9-1.6-4
			c-0.5-0.7-1.3-1.2-1.6-2.2c-0.3-1.1-0.8-2.1-2.3-1c-0.8,0.5-1.2-0.4-1.6-0.9c-0.3-0.4-0.6-0.7-1.1-0.6c-0.6,0.2-0.9,0.7-0.8,1.3
			c0.3,1.5-0.4,1.5-1.4,1C436.8,336.2,434.9,336.4,434.6,334.3z"/>
		<path class="st11" d="M795.1,413.3c0.7,3.3-1,6.4-0.9,9.6c0,0.7-0.8,1.8,1.2,1.6c1-0.1,2.9,0.9,3.4,2.7c0.1,0.6,0.2,1.3,1.1,1.3
			c0.6,0,0.9-0.6,1-1.1c0.5-1.8,1.5-2.5,3.4-2.5c2,0.1,2.6,1.3,3.1,2.9c0.2,0.5,0.4,1,0.8,1.4c0.2,0.3,0.6,0.6,0.9,0.6
			c0.6-0.1,0.5-0.7,0.5-1.1c0.4-3.4,1.5-4.4,5-4.2c1.4,0.1,2.8,0.3,4.1,0.8c0.3,0.2,0.7,0.5,1,0.3c2.1-1.4,3.4-0.4,4.7,1.2
			c0.7,0.9,1.3,1,1.9-0.2c0.7-1.5,2-1.4,3.4-1.6c2.9-0.6,5.8,1.4,8.7,0c0.8-0.4,1.8-0.2,2.5,0.7c0.7,0.8,0.3,1.7-0.1,2.4
			c-1.1,1.8-2,3.6-2.4,5.7c-0.3,1.3-1.8,1.9-3,2.4c-0.9,0.4-1.4-0.2-1.6-1.1c-0.3-1.4-0.6-2.7-1-4.1c-0.2-0.6-0.6-1.3-1.3-1.1
			c-0.7,0.1-0.4,0.9-0.5,1.4c-0.1,1,0.2,2-0.6,2.9c-1.2,1.4-2.8,1.6-3.9,0c-1.1-1.7-1.8-1.5-2.8,0.1c-1.2,1.7-2.9,1.4-3.9-0.4
			c-0.4-0.7-0.3-2.1-1.4-1.8c-1.2,0.3-2.7,0-3.7,1.1c-0.7,0.8-1,2.1-2.3,2c-2.2-0.1-4.5,0.6-6.7-0.4c-1.2-0.6-2.2-0.5-3.5,0
			c-2.4,1-5,1-7.3,0.1c-2-0.7-2.7-0.2-3.4,1.3c0.9,2.5-0.3,5-0.6,7.4c-0.2,1.7,0.2,3.5-0.5,5.1c-0.9,0.8,0.1,1.6,0.1,2.4
			c0.5,0.9,0.8,1.8,0,2.8c-0.2,2.3,1.8,3.8,2.4,5.8c0.2,0.8,1.2,0.8,2,0.4c1-0.5,1.9-0.2,2.6,0.7c-0.2,0.3-0.4,0.3-0.6,0.1
			c-0.5-0.4-1.1-0.6-1.7-0.3c-1.8,1-2.6,0-3.4-1.5c-2.7-4.8-2.8-9.9-1.9-15.2c0.5-3.2,0.8-6.5,1.5-9.6c-0.5-1.3-1.1-2.7,0.4-3.5
			c1.6-0.9,2.8,0.2,3.7,1.4c0.3,0.4,0.4,0.8,1.3,1.4c-0.8-1.4-1.2-2.5-0.4-3.8c1-1.6,0.5-2.5-1.4-2.8c-0.7-0.1-1.6,0-2.1-0.7
			c1.1-3.9,1.1-8,2-12C794.8,414,794.9,413.7,795.1,413.3z"/>
		<path class="st12" d="M810.5,304.4c1.9-0.6,3.8-1.2,5.6-1.8c0.6-0.4,1.2-0.1,1.8-0.4c1.7-0.3,2,0.9,2,2.1c0.3,5.1,0.2,10.2,0,15.3
			c-0.2,3.7,0,7.4-0.7,11c-0.1,0.2-0.2,0.4-0.3,0.6c-1.1,1-2.6,1-3.8,1.7c-1.1,0.2-2.1,0.9-3.2,0.9c-1.9-0.2-2-1.6-2-3.1
			c-0.2-5.3,0.3-10.7,0-16C809.8,311.4,809.6,307.8,810.5,304.4z"/>
		<path class="st13" d="M868.9,304c0.6,0.3,0.4,1.1,1.2,1.9c0-5.3,0-10.3,0-16c-1,2.7-2.5,3.3-4.5,2.7c0.8-0.9,1-2.1,0.6-3
			c-0.5-1,0.1-1.4,0.5-2c1.1-1.5,3.2-2.3,3.6-4.6c0.1-0.7,2.5-1.1,3.9-1.4c5.5-1.4,11-2.6,16.5-3.6c4.2-0.8,8.4-1.8,12.6-2.8
			c0.8-0.2,1.7-0.3,2.5-0.1c0.2,0.1,0.3,0.1,0.2,0.2c0,0.1-0.1,0.2-0.2,0.2c-2.4,0.5-4.8,0.9-7.1,1.5c-0.6,0.2-1.7,0.1-1.2,1.6
			c0.2,0.6-1.1,1.5-1.8,0.5c-1.2-1.6-2.6-1.2-3.9-0.6c-2.6,1.2-5.6,0.8-8.3,1.7c-3.9,1.2-8,1.9-11.9,3c-1.3,0.4-0.7,2.3-1.7,3.3
			c3.3-0.4,7.2,4.9,7.6,7.9c0.4,3.2,0.3,6.2-0.2,9.3c-0.3,1.6-1.6,3.1-2.9,4c-1.1,0.8-2,2.2-3.6,2.4c-0.5,0.1-0.6,0.4-0.4,0.8
			c0.2,0.4,0.6,0.4,1,0.2c5.5-2.4,11.5-3.2,17.1-5c1.6-0.5,3.2-0.3,4.8-0.2c-0.2,1-1.1,1-1.8,1.2c-7.3,1.4-14.4,3.5-21.4,6
			c-1.4,0.5-2.8,0.9-4.2-0.2c-1.3-2.9-1-4.6,1.6-6.7C868.1,305.5,868.2,304.6,868.9,304z"/>
		<path class="st14" d="M804,347.9c-3.4,1.5-6.7,0.5-10.2-0.3c-2.4-0.5-4.3-1.4-6-3.1c-3-2.9-8.6-3.1-12.3-0.6
			c-0.3,0.2-0.6,0.6-1,0.3c-0.3-0.2-0.4-0.6-0.3-1c0.1-0.4,0.3-0.8,0.2-1.1c-0.3-0.7-0.8-1.3-1.5-1.4c-0.8-0.1-0.5,0.8-0.7,1.2
			c-2.5,5.5-4.5,11.1-6.3,16.9c-0.8,2.4-1.3,5-1.2,7.7c0,2.4-1,4.7-1.4,7.1c-0.5,2.7-1.1,5.5-1.2,8.2c-0.2,3.8-0.3,7.7,0.9,11.4
			c-2.8-3.9-1.9-8.4-1.5-12.5c0.6-6.5,2.5-12.8,3.2-19.2c0.4-3.5,1.9-6.7,3-10c1.5-4.3,3.5-8.4,4.4-12.9c0.3-1.7,2.1-2.8,1.7-4.7
			c1.1,1.2,0.9,3.1,2.1,4.3c0.9-0.1,0.5-1.2,1.2-1.5c0.7,0.2,1.4-0.1,2-0.3c6.2-2.6,6.5-2.5,10.6,2.7c0,1,0.8,0.8,1.4,0.9
			c2.8,2.5,5.9,4,9.8,3.2c2.7-0.6,2.7,1.7,3.3,3.4C804.2,347.1,804.3,347.5,804,347.9z"/>
		<path class="st15" d="M416.1,338.6c-0.3,0.6-0.8,1.4,0.5,1.4c6.2,0,12.4-0.1,18.5-0.1c0.1,0,0.2-0.2,0.4-0.5
			c-2.2-1-2.6-2.5-1.3-4.5c0,1.3,0.6,1.9,1.9,2.4c3.5,1.4,6.9,3.1,10.1,5.1c2.2,1.3,4.3,2.8,6.7,3.7c6.1,2.4,11.3,6.6,17.5,8.5
			c4.9,1.5,9.8,3.2,15,3.1c4.4-0.1,8.8,0,13.3-0.6c2.8-0.3,5.9,0.1,8.5-0.5c3.1-0.7,5.9,0.5,9.1-0.5c3.4-1.1,7.4-0.6,11.1-0.3
			c3.8,0.3,7.6-0.5,11.4,0c2.7,0.3,5.4-0.2,8.1,0.7c0.5,0.2,1.1-0.1,1.6-0.1c2.7-0.2,5.4-0.9,8.1,0.1c0.9,0.4,2.1,0.3,3-0.1
			c1.8-0.9,3.6-0.7,5.5-0.7c0.3-0.2,0.5-0.1,0.6,0.2c-3.5,0.2-6.8,2.1-10.5,1c-1.4-0.4-3-0.1-4.4,0c-4.8,0.5-9.6-0.9-14.4-0.6
			c-6.3,0.4-12.7-0.2-19,0c-1.3,0-2,1.1-3.3,1c-2.8-0.1-5.7-0.3-8.3,0.2c-3,0.6-5.8,0.2-8.7,0.5c-5.3,0.6-10.8,1-16.1,0
			c-7.8-1.5-15.3-3.9-22.2-8.3c-4.9-3.1-10.6-4.9-15.5-8.2c-0.3-0.2-0.8-0.1-1.1-0.1c-2.7-1.6-4.8-0.2-7.1,1.2
			c-6.7,4-18.3,3.6-22.9-5.1c-1.3-2.4-2.7-4.9-2.3-7.9c2.9,0.2,3.1,0.3,3.5,2.9c0.2,1.3,1,2.2,1.6,3.3
			C415.5,336.7,416.4,337.4,416.1,338.6z"/>
		<path class="st16" d="M862.7,340.1c1.2-0.2,2.3-0.3,3.5,0c0.7,0.4,1.5,0.7,2.2,0c1.1-0.2,0.9,1.5,1.9,1.4c0.6,0.6,1,1.4,1.4,2.1
			c1.7,2.4,1.8,2.4,4.3,0.7c0.9-0.6,1.6-2,3.1-1.4c-0.8,2.1-3.1,2.7-4.6,4.1c-0.2,0.2-0.6,0.2-0.9,0.1c-3.1-0.8-5.9,0.7-8.8,0.8
			c-0.6,0-1.2,0.1-1.7-0.4c-1.3-1.3-1.7-0.9-2.2,0.8c-2.4,8.6-2.1,17.3-1,26.1c1.4,11,2.9,22,3.3,33.2c0.5,13.3,0.5,26.6,0.5,39.8
			c0,5.8-0.7,11.6-1.9,17.3c-0.8,4-1.3,8.2-2.8,12c-1.7,4.1-3.1,8.5-7.4,11c3.8-4.5,6.4-9.6,7.8-15.4c2.2-8.9,3-17.9,3.4-27.1
			c0.3-7.2,0.6-14.3,0.4-21.4c-0.2-8.1-0.9-16.1-1.3-24.2c-0.1-2.6,0.2-5.3-0.2-7.9c-0.8-6.2-2.6-12.2-2.8-18.4
			c-0.2-6-1.3-11.9-0.2-17.9c0.7-4,1.3-8.1,3.5-11.7C862.7,342.6,863.1,341.4,862.7,340.1z"/>
		<path d="M84.7,80.7c1.3-2.6,3.2-4.9,3.9-7.8c0.2-0.9,0.6-0.7,1.1-0.7c1.2,0,2.5,0,3.7,0c-0.3,5-0.2,9.8-0.1,14.8
			c-1.1,0.2-2.5,0.1-3.9,0c1.2-3.1,0.3-6.2,0.2-9.5c-1.7,3.1-3.4,6.2-5.3,9.6c-1.8-3.4-3.5-6.5-5.2-9.6c-0.2,3.2-1,6.3,0.1,9.4
			c-1.4,0-2.9,0-4.2,0c0.5-5,0.2-9.9,0.3-14.9c-0.4,0.1-0.3,0.1-0.3,0.1c3-0.4,5.6-0.4,6.5,3.4c0.4,1.7,1.6,3.1,2.5,4.7
			C84.1,80.5,84.3,80.5,84.7,80.7z"/>
		<path d="M130.7,72.3c1.1,0,2.3,0,3.5,0c-0.3,4.9-0.2,9.8-0.1,14.7c-1.8,0.2-3.4,0.5-4.9-1.7c-2-3-4.9-5.3-7.9-8.5
			c0.2,3.9-0.2,7.1,0.4,10.3c-1.2,0-2.5,0-3.5,0c0-4.9,0-9.8,0-14.7c0,0,0.2-0.1,0.4-0.1c1.9,0,3.6-0.2,5.1,2
			c1.9,2.7,4.9,4.6,7.3,6.8C130.9,78.4,131.4,75.4,130.7,72.3z"/>
		<path class="st17" d="M98.9,72.1c4.7,0,9.5,0,14.4,0c0.3,0.8,0,1.9,0,3.1c-3.4-1-6.9-0.4-10.3-0.5c-1.3,0-0.7,1.3-0.8,2.1
			c-0.1,0.7,0,1.5,1,1.4c2-0.2,4.2,0.6,6.1-0.8c0,1.4,0,2.6,0,4c-2-1.3-4.3-0.7-6.4-0.7c-1.5,0-0.6,1.5-0.8,2.3
			c-0.1,0.7-0.2,1.5,0.9,1.4c3.2-0.1,6.4,0.4,9.5-0.3c1.1-0.2,1,0.3,0.9,0.8c-0.2,0.8,0.7,2.6-0.7,2.4c-4.7-0.4-9.4,0.1-14.1-0.3
			C99.1,82.2,99.1,77.3,98.9,72.1z"/>
		<path class="st17" d="M138.9,72.3c1.9,0,3.5,0,5,0c-0.6,3.5-0.4,7-0.2,10.4c0.1,1.3,1.3,1.6,2.4,1.9c4.1,1.1,6.4-0.5,6.3-4.7
			c-0.1-2.5,0.7-5.1-0.7-7.6c1.4,0,2.8,0,4.1,0c-0.9,2.9-0.4,5.8-0.4,8.7c-0.1,4.2-1.4,5.8-5.6,6.1c-2.1,0.1-4.2,0.2-6.2-0.4
			c-2.8-0.8-3.6-1.9-3.7-4.8c0-2.2,0-4.4,0-6.5C139.9,74.3,139.9,73.2,138.9,72.3z"/>
		<path class="st18" d="M827.7,388.5c0.6-4.4,3-7.9,4.9-11.7c1.4-2.8,3.9-5,4.7-8.2c0.5-1.9,2.3-2.7,3.3-4.1
			c2.9-4.2,2.9-10.1-0.2-14c-0.4-0.5-0.5-1.1-0.9-1.6c-0.2-0.3-0.6-0.9-1.1-0.3c-0.9,1.2-2.1,0.8-3.2,0.4c-1.7-0.6-3.4-0.8-5.2-0.2
			c-0.1,0-0.1,0.1-0.2,0.1c-1.2,0.5-0.6-1.1-1.3-1.1c-1.4,0-0.5,1.2-0.9,1.7c-0.4,0.5-0.8,1.1-1.2,1.7c-0.5,0.7-0.9,1.5-2,1.4
			c0.9-1.6,2-3,2.5-5c0.7-2.5,3.7-3.5,6.1-4c2-0.5,4.1-0.1,5.3,2.3c0.9,1.8,2.4,3.4,3.6,5.1c2.8,4.3,2.2,12-2.3,16
			c-0.8,0.7-1.4,1.4-1.7,2.4c-1,3.5-3.9,5.8-5.3,9.1c-0.7,1.6-1.2,3.5-2,4.9c-1.1,1.7-1.4,3.6-2.4,5.2
			C828,388.7,827.9,388.7,827.7,388.5z"/>
		<path class="st19" d="M812.4,333.4c1-0.2,1.9-0.4,2.8-1c0.5-0.2,1-0.3,1.5,0.1c-2,1-4,1.9-6.3,1.9c-1.8,0.1-3.3,1-5,1.8
			c-0.2-10.1-0.2-20.3,0-30.4c0.8-0.1,1.4-0.8,2.3-0.5c0.9,0.6,0.9,1.6,0.9,2.5c0,6.3,0.7,12.7-0.1,19c-0.1,1.1-0.1,2.2-0.1,3.2
			C808.4,333.1,809.2,333.7,812.4,333.4z"/>
		<path class="st20" d="M812.4,333.4c-1.2,0.9-2.5,0.4-3.8,0.4c-1,0-0.9-0.9-0.9-1.6c0.1-2.6,0.2-5.2,0.3-7.9
			c0.3-4.3-0.1-8.6-0.1-12.9c0-2,0-4.1-0.3-6.1c0.9-0.3,1.8-0.7,2.8-1c0.6,2.6,0.7,5.1,0.2,7.7c-0.2,1.4-0.2,2.7,0.1,4.1
			c0.4,2.1,0.5,4.2,0,6.2c-0.8,3.1,0.8,6.2-0.2,9.4C810.3,332.7,811.2,333.5,812.4,333.4z"/>
		<path class="st19" d="M817.9,302.5c-0.6,0-1.2,0-1.9,0c2.8-1.2,5.6-2.5,8.4-3.7c0.3,10.3,0.2,20.5,0,30.8c-2.1,0.1-3.4,2.2-5.6,2
			c-0.1-0.1-0.2-0.2-0.1-0.3c0-0.1,0.1-0.2,0.1-0.2l0,0c0.4-0.5,0.9-0.8,1.5-1.1c0.9-0.5,1.2-1.1,0.9-2.1c-0.6-1.5-0.3-3.1,0-4.6
			c0.5-2.6,0.2-5.3,0.3-7.9c0-4.4-0.2-8.8-0.1-13.4C820.2,302.3,819,302.1,817.9,302.5z"/>
		<path class="st21" d="M385.7,211c3.3-2,7-1.9,10.6-2.1c1.5-0.1,3.1,1.2,5,0.9c0.7-0.1,1.6,0.9,1.1,1.9c-0.4,1-1.1,0.3-1.7,0.1
			c-2.4-0.8-4.9-0.1-7.4-0.1c3.2-0.3,6.4,0.5,9.4,1.3c3.4,0.8,7,0.2,10.2,2.3c1.4,0.9,3.3,1.1,5,1.3c2.3,0.1,4.5,0.9,6.7,1.1
			c5,0.6,10.1,2.7,15,0.7c4.4-1.8,9.3-1.8,13.4-4.7c1.8-1.2,4.2-2,6.5-1.7c-4.7,1.6-8.9,4.3-13.9,5.3c-2.7,0.5-5.2,1.9-8,2.3
			c-2.6,0.3-5.2,0.8-7.8-0.4c-0.7-0.3-1.7-0.4-2.5-0.3c-1.9,0.2-3.6-0.5-5.4-1.1c-2.3-0.7-4.9-0.7-7.3-0.9c-0.8-0.1-1.6-0.1-2.2-0.7
			c-1.2-1.1-2.6-1.3-4.1-1.2c-1.4,0.1-2.7-0.3-4-0.9c-2.7-1.2-5.8-0.8-8.7-1.1c-1.5-0.2-2.9-0.3-4.3-0.8c-0.5-1.6,0.9-1.5,1.6-1.9
			c-0.7,0.1-1.5,0.2-2.3,0.6c-0.8,0.4-1.6,0.7-2.4,0.7C387.4,211.4,386.5,211.4,385.7,211z"/>
		<path class="st22" d="M363.2,411.9c-2.5,1.1-3,0.8-3.1-1.7c-0.1-2.6-0.2-5-0.8-7.6c-0.9-4.2,1.3-7.6,6.3-9.3
			c6.2-2.1,12.6-2.9,19-3.9c3.3-0.5,6.9-1,9.7-2.7c1.5-1,3.1-2.7,4.3-4.5c1.4-2.2-0.2-4.7,1.6-6.6c0.5-0.5,0-0.8-0.5-1
			c-0.6-0.2-1.8,0.3-1.5-0.8c0.2-1-0.3-2.4,1.2-3c0.9-0.4,1.6-4.2,0.9-4.9c-0.4-0.4-0.9-0.2-1.3-0.1c-1,0.1-1.9-0.1-2.4-1.1
			c-0.3-0.7-0.4-1.5,0.2-2.2c0.8-0.9,1.8-0.4,2.6-0.1c2,0.5,3.9,1.4,5.4,2.9c-2-0.1-3.4-1.8-5.3-2.2c-0.8-0.1-1.5-0.4-2.2,0.1
			c-0.4,0.3-0.3,0.7-0.1,1.1c0.5,0.9,1.2,1,2.2,0.9c2.1-0.2,3.1,1.5,1.9,4.3c-0.8,1.9-0.9,3.4,0.1,5.1c0.2,0.4,0.1,0.8-0.1,1.1
			c-1.1,1.3-1.1,2.5-0.8,4.3c0.2,1.3-1,3.7-2.8,4.8c-0.4,0.2-1.2,0.3-1.2,0.6c-0.6,3.7-4.1,3.1-6.3,3.5c-5.9,1.4-11.9,2.4-18,3.2
			c-3.8,0.5-7.4,1.9-10.5,4.3c-1.6,1.2-2,3.2-1.6,5.3c0.4,2.7,1.2,5.3,0.8,8.1C360.6,411.3,361.5,412.2,363.2,411.9z"/>
		<path class="st23" d="M50.8,72.2c-3.1,0-6.2,0-9.3,0c-1.2,0-1.6-0.3-1.6-1.5c0-1.3,0.3-1.7,1.7-1.7c6.2,0.1,12.4,0.1,18.6,0
			c1.3,0,1.7,0.4,1.7,1.7c0,1.4-0.6,1.6-1.8,1.6C57.1,72.2,54,72.2,50.8,72.2z"/>
		<path class="st24" d="M50.7,79.7c-3,0-6.1-0.1-9.1,0c-1.4,0-1.7-0.5-1.7-1.7c0-1.2,0.3-1.6,1.5-1.6c6.2,0.1,12.4,0.1,18.7,0
			c1.2,0,1.7,0.2,1.8,1.6c0.1,1.6-0.7,1.7-1.9,1.7C56.9,79.6,53.8,79.7,50.7,79.7z"/>
		<path d="M50.8,87.2c-3.1,0-6.2-0.1-9.3,0c-1.3,0-1.6-0.4-1.6-1.6c0-1.3,0.2-1.8,1.6-1.7c6.2,0.1,12.4,0.1,18.7,0
			c1.3,0,1.7,0.4,1.7,1.7c0,1.4-0.5,1.6-1.8,1.6C57.1,87.1,53.9,87.2,50.8,87.2z"/>
		<path class="st25" d="M382.4,150.7c-2.7,1.7-5.4,3.2-8.5,3.9c-2.3,0.6-4.4,1.5-6,3.3c-0.5,0.6-1,1.1-1.9,1.2
			c-3.8,0.3-6.5,2.5-8.4,5.5c-0.6,0.9-0.9,1.9-1.7,0c-1.5,2.7,0.3,6-2.2,8c-2.2,1.7-4.3,3.7-7.8,2.1c0.4,0.9,1.4,0.8,1.2,1.5
			c-0.2,0.6-0.8,0.7-1.4,0.6c-3.7-0.7-5.9,1.7-8.4,3.8c-2.1,1.7-4.1,3.6-6.5,4.8c-0.9,0.4-0.7,1.9-2,1.7c-0.3-0.3-0.3-0.6,0-0.9
			c2.5-2.8,6.1-4.3,8.7-6.9c2.3-2.3,5-3.5,7.8-4.7c0.4-0.2,0.9-0.3,1.3-0.3c5.2-0.2,7.5-1.9,7.6-6.7c0.1-3.4,2.3-4.8,4.5-6.3
			c4.1-2.7,8.7-4.5,12.8-7.1c1.7-1,4.1-0.9,6-2c0.8-0.5,1.7-0.8,2.5-1.2C380.9,151,381.5,150.3,382.4,150.7z"/>
		<path class="st26" d="M261,181.6c-3.4,5.3-7.1,10.5-8.6,16.8c-0.6,2.7-1.4,5.2-1.5,8.1c-0.2,5.9-0.1,11.7,0.3,17.5
			c0.3,5,1.6,9.8,5.3,13.8c1.7,1.8,3.4,3.9,4.5,6.4c-1.2-0.1-1.5-1.3-2.1-2c-4.7-5.3-8.4-11.2-8.6-18.7c-0.2-7.1-1.2-14.2,0-21.1
			c0.9-5.1,2.6-10.4,5.8-14.8c1.7-2.3,2.4-5.2,4.8-7C261.2,180.9,261.2,181.3,261,181.6z"/>
		<path class="st27" d="M905.9,179.7c-0.1,1.3-1.2,1.3-2,1.4c-4.8,0.5-9.5,1.6-14.3,2.1c-4.9,0.5-9.7,1.6-14.6,2.4
			c-3.5,0.5-7.1,0.6-10.6,1.3c-1.2,0.3-1.6,0.7-1.9,1.8c-0.6,2.4-1.2,2.3-3.1,0.9c-1.4-1-3.2-0.7-4.9-0.3
			c-5.5,1.5-10.7,3.5-16.1,5.3c-0.6,0.2-1.2,0.1-1.8,0.1c6.2-2.6,12.6-4.7,19.1-6.2c1.4-0.3,3.2-0.4,4.5,1c0.4,0.5,1.1,0.8,1.2-0.1
			c0.5-3.9,3.6-3.3,6.2-3.7c4.9-0.7,10-0.7,14.7-2.5c0.4-0.1,0.8-0.1,1.1-0.1c7.3,0.1,14.3-2.5,21.6-2.9
			C905.3,180.1,905.6,179.9,905.9,179.7z"/>
		<path class="st28" d="M382.4,150.7c-0.8,0.1-1.4,0.8-2.3,0.5c5.1-4,11.1-5.9,17.2-7.5c0.8-0.2,1.6-0.6,2.3-1
			c3.6-2.1,7.5-2.6,11.6-2.8c1.4,0,2.8-0.1,4.2-0.4c3.6-0.8,7.1-0.8,10.5,0.8c0.8,0.4,1.6,0.9,1.7-0.6c0-0.1,0.3-0.4,0.5-0.4
			c3.5,0.4,7.2-0.9,10.5,1.2c0.2,0.1,0.3,0.3,0.5,0.5c-2.4-0.2-4.6-1.3-7.1-0.8c-0.7,0.1-1.9-0.4-1.4,1.3c0.2,0.7-0.6,0.5-1,0.5
			c-1.3-0.2-2.7-0.2-3.8-0.8c-3.3-1.8-6.8-1.2-10.2-0.9c-3.7,0.3-7.4,0.8-11.1,1.1c-1.5,0.1-2.3,1.2-3.5,1.7
			c-5.1,2.2-10.5,3.6-15.7,5.5C384.9,149.8,383.9,150.6,382.4,150.7L382.4,150.7z"/>
		<path class="st29" d="M862.9,292.7c-3.3,0-6.6,0-9.9,0c1.6-0.7,1.4-2.4,1.9-3.6c0.5-1,0.8-1.7,1.8-2.3c1.1-0.7,2-2,3.5-1.1
			c1.5,1,2.8,2.3,2.6,4.4C862.6,290.9,862.3,291.8,862.9,292.7z"/>
		<path class="st30" d="M385.7,211c1.8,0.2,3.5-0.1,5.1-1c1.4-0.8,2.9-0.4,4.8-0.1c-1.5,1.1-3.6,0.3-4.2,2.2c-5-0.6-9.9,0.3-14.8,1
			c-2.3,0.3-4.7,1-7.1,0.8c-0.4,0-0.8,0-1-0.4c-0.1-0.4,0.2-0.9,0.6-0.8c2,0.1,2.6-1,2.6-2.8c0-0.2,0.6-0.5,0.9-0.7c0,0,0,0,0,0
			c1.8-0.7,3.6-1.4,6.1-2.4c-3.2-1.1-5.1,0.8-7.3,1.1c1.6-2.6,4.4-3.2,6.9-4.3c-0.5,0.6-1.1,1.1-1.7,1.8c0.4,0,0.8,0,1.1,0.1
			c2.1,0.5,2.2,0.9,0.9,2.3c-1.8,0.8-3.5,1.9-5.5,2.3c-1.8,0.4,0,1.6-0.5,2.4c-0.4,0.6,0.7,0.5,1.1,0.4
			C377.8,212.2,381.7,211.6,385.7,211z"/>
		<path class="st31" d="M617.5,460.7c0-1.1,0-2.2,0-3.3c0-0.5-0.5-1.2,0.6-1.2c0.8,0,1.2,0,1.2,1.1c-0.1,1.9,0,3.7-0.1,5.6
			c0,0.4,0.6,1.2-0.4,1.3c-0.6,0-1.4,0.5-1.9-0.4c-1.1-2-3.3-2.8-5-5c0,1.8-0.1,3.1,0,4.4c0,0.6,0.5,1.2-0.6,1.1
			c-0.6,0-1.3,0.3-1.1-1c0.3-1.8,0-3.6,0.1-5.4c0-0.5-0.7-1.3,0.2-1.5c0.7-0.2,1.7-0.5,2.3,0.5C614,458.6,616,459.2,617.5,460.7z"/>
		<path class="st32" d="M708.2,429.3c0.1,1.8-0.2,3.3,0.3,4.9c-1.5,0.5-2.2,0.3-1.9-1.6c0.2-1.5,0-3.1,0.1-4.7
			c0-0.5-0.8-1.3,0.2-1.5c0.7-0.2,1.5-0.4,2.2,0.3c1.5,1.4,3,2.8,4.8,4.5c0-1.5,0-2.6,0-3.7c0-0.6-0.4-1.2,0.7-1.2
			c0.9,0,1.2,0.1,1.1,1.1c-0.1,1.8,0,3.6-0.1,5.4c0,0.5,0.7,1.4-0.4,1.5c-0.6,0-1.3,0.3-2-0.6C711.9,432,710.5,430.3,708.2,429.3z"
			/>
		<path class="st33" d="M598.8,428.9c0,1.9-0.1,3.2,0.1,4.5c0.1,0.8,0.1,1.1-0.8,1c-0.6,0-1.2,0.1-1.1-0.9c0.1-1.8,0-3.6,0.1-5.4
			c0-0.5-0.7-1.5,0.5-1.7c0.8-0.1,1.5-0.2,2.3,0.7c1.1,1.4,2.6,2.4,4.1,3.8c0-1.1,0.1-2.3,0-3.5c-0.1-0.8-0.2-1.1,0.7-1
			c0.7,0,1.2-0.1,1,1.1c-0.3,1.8,0,3.7-0.1,5.6c0,0.4,0.9,1.1-0.1,1.3c-0.6,0.1-1.4,0.4-2.1-0.5
			C602.1,432.2,600.6,430.8,598.8,428.9z"/>
		<path class="st34" d="M700.6,464.2c0-2.2-0.1-4.3,0-6.4c0-0.5-0.8-1.3,0.2-1.5c0.7-0.1,1.6-0.4,2.3,0.5c1.1,1.4,2.5,2.7,4.1,4.4
			c0-1.6,0.1-2.7,0-3.8c-0.1-0.8-0.2-1.3,0.9-1.2c0.9,0,1,0.3,0.9,1.1c-0.1,1.9,0,3.7-0.1,5.6c0,0.4,0.6,1.2-0.3,1.3
			c-0.6,0-1.3,0.4-2-0.5c-1.2-1.6-2.7-3-4.5-5c0,1.7,0,2.9,0,4.1C702.2,464.2,702.2,464.2,700.6,464.2z"/>
		<path class="st31" d="M662.5,428.9c0,1.9-0.1,3.2,0,4.4c0.1,0.7,0.2,1.1-0.7,1.1c-0.7,0-1.2,0.1-1-1.1c0.2-2.2,0.1-4.4,0.1-6.8
			c3.6-0.7,3.9,3.5,6.7,4.4c0-1.1,0.2-2.3,0-3.4c-0.2-0.9,0.1-1,0.9-1c0.8,0,1,0.2,1,1c-0.1,1.9,0,3.7-0.1,5.6
			c0,0.4,0.6,1.2-0.3,1.3c-0.6,0.1-1.4,0.4-2-0.5C665.7,432.2,664.2,430.8,662.5,428.9z"/>
		<path class="st32" d="M630.1,431c0-1.3,0.1-2.4,0-3.5c-0.1-0.7-0.2-1.1,0.8-1.1c0.7,0,1.1,0,1,1c-0.1,1.9,0,3.7-0.1,5.6
			c0,0.5,0.7,1.4-0.5,1.4c-0.6,0-1.3,0.3-1.9-0.7c-1.1-1.6-2.7-2.9-4.4-4.8c0,1.8-0.1,3.1,0,4.4c0.1,0.6,0.4,1.2-0.6,1.1
			c-0.6,0-1.3,0.3-1.1-1c0.3-1.7,0-3.6,0.1-5.3c0-0.5-0.7-1.3,0.1-1.5c0.8-0.2,1.7-0.4,2.5,0.6C627.2,428.5,628.6,429.6,630.1,431z"
			/>
		<path class="st32" d="M546.5,430.8c0-1.1,0.1-2.2,0-3.3c0-0.6-0.3-1.2,0.7-1.1c0.9,0,1.2,0.2,1.1,1.2c-0.1,1.8,0,3.6-0.1,5.3
			c0,0.5,0.7,1.4-0.4,1.4c-0.6,0-1.3,0.4-2-0.6c-1.1-1.6-2.7-3-4.4-4.8c0,1.8-0.1,3.1,0,4.3c0.1,0.8,0.3,1.2-0.8,1.2
			c-1,0-1-0.4-0.9-1.2c0.1-1.7,0-3.4,0.1-5.1c0-0.5-0.9-1.5,0.3-1.6c0.7-0.1,1.5-0.3,2.3,0.6C543.6,428.4,545.1,429.5,546.5,430.8z"
			/>
		<path class="st35" d="M718.5,430.3c0-1.3-0.5-3.3,0.1-3.6c1.1-0.6,2.7-0.3,4.1-0.3c3.4,0,4.7,1.4,4.3,4.7c-0.2,1.6-0.9,2.6-2.5,3
			c-0.6,0.2-1.2,0.3-1.8,0.3c-1.4,0-3.1,0.4-4.1-0.2C718,433.7,718.5,431.6,718.5,430.3C718.5,430.3,718.5,430.3,718.5,430.3z"/>
		<path class="st36" d="M657.9,456.5c1.6-0.5,2.3-0.2,2.1,1.6c-0.2,1.5-0.2,3,0,4.4c0.2,1.8-0.5,2.2-2.1,1.7c0.1-1,0.8-2.4-0.1-3
			c-1-0.8-2.5-0.3-3.8-0.2c-0.9,0.1-0.7,1-0.6,1.5c0.3,1.7-0.4,2.2-1.8,1.8c0-2.3,0.1-4.6-0.1-6.9c-0.1-0.8-0.1-1.1,0.8-1
			c0.6,0.1,1.3-0.2,1.2,0.9c-0.1,0.7-0.5,1.8,0.4,2c1.3,0.3,2.8,0.5,3.9-0.1C658.6,458.6,658.1,457.4,657.9,456.5z"/>
		<path class="st37" d="M991,281.6c-4.3-2.5-8.9-3.8-13.9-3.3c-2.3,0.2-2.8-1.7-3.4-3.2c-0.9-2.2-2.3-3.4-4.7-2.7
			c-1.1,0.3-1.7,0.1-2.5-0.6c-0.9-0.8-2-1.6-3.3-0.5c-0.3,0.3-0.8,0.3-1.1,0.1c-4.5-2.4-9-0.5-13.5,0c-1.5,0.2,0,1.6-1,1.8
			c-1.1-1.4-1.3-2.3,1-2.7c3.3-0.6,6.5-1.6,9.8-1c3.1,0.6,6.3,0.3,9.3,1.8c1.3,0.7,3.2,0.1,4.9,0.7c1.2,0.4,1.7,0.9,1.9,2.2
			c0.4,2.8,1.4,3,4.1,3.2c4.6,0.2,9.4,0.7,13,4.2C991.2,281.7,991.1,281.7,991,281.6z"/>
		<path class="st38" d="M532.3,426.3c3,0,4.9,1.6,4.8,4.1c0,2.3-2,3.9-4.8,4c-2.9,0-4.9-1.6-5-4
			C527.4,427.9,529.3,426.3,532.3,426.3z"/>
		<path class="st39" d="M686.1,426.3c0.4,0,1.4,0,2.2,0.5c0.3,0.2,1.4-0.2,0.7,0.8c-0.3,0.5-0.3,1.6-1.4,0.7
			c-0.8-0.6-1.7-0.8-2.6-0.7c-0.6,0.1-1.5,0-1.5,0.7c-0.1,0.8,0.8,0.7,1.4,0.8c0.8,0.1,1.7,0.3,2.5,0.4c1.1,0.1,1.9,0.7,2,1.9
			c0.1,1.3-0.5,2-1.7,2.5c-1.8,0.7-3.6,0.5-5.5-0.1c-0.7-0.2-0.8-0.5-0.5-1.1c0.3-0.5,0.4-1,1.1-0.5c1.1,0.7,2.3,0.9,3.6,0.6
			c0.4-0.1,1-0.3,1-0.8c0-0.5-0.6-0.7-1-0.8c-0.7-0.1-1.4-0.1-2.1-0.1c-1.5-0.1-2.9-0.4-2.8-2.3c0.1-1.7,1.3-2.3,2.9-2.4
			C684.8,426.3,685.2,426.3,686.1,426.3z"/>
		<path class="st40" d="M466.7,426.3c2.9,0,4.9,1.7,4.8,4.1c-0.1,2.3-2.1,3.9-4.9,3.9c-2.9,0-4.9-1.6-4.9-4.1
			C461.9,427.7,463.6,426.3,466.7,426.3z"/>
		<path class="st41" d="M641,460.3c0-4,0-4,4-4c1,0,2,0,3-0.1c0.4,0,0.9-0.4,0.9,0.4c0,0.5,0.2,1.1-0.7,1.1c-1.4-0.1-2.8-0.1-4.2,0
			c-0.5,0-1.1-0.2-1.2,0.7c0,0.9,0.5,1,1.2,1c0.6,0,1.2,0,1.8-0.2c0.4-0.1,0.9-0.5,1.1,0.2c0.1,0.4,0.1,0.9-0.1,1.4
			c-0.2,0.5-0.6,0.2-1,0.1c-0.1-0.1-0.3-0.2-0.4-0.2c-0.9,0.2-2.4-0.8-2.6,0.8c-0.2,1.9,1.4,1.1,2.4,1.2c0.9,0.1,1.9,0.1,2.8-0.1
			c0.7-0.1,1-0.1,1,0.7c0,0.7-0.2,1-1,0.9c-1-0.1-2,0-3,0C641,464.3,641,464.3,641,460.3z"/>
		<path class="st42" d="M560.7,434.4c-2.9,0-4.9-1.6-4.9-4.1c0-2.4,1.8-3.9,4.7-4c3,0,5,1.5,5.1,3.9
			C565.7,432.6,563.6,434.4,560.7,434.4z"/>
		<path class="st42" d="M653.5,426.3c3.1,0,4.9,1.5,4.9,4c0,2.5-2,4.1-4.9,4c-2.9,0-4.7-1.6-4.7-4
			C648.6,427.8,650.4,426.3,653.5,426.3z"/>
		<path class="st43" d="M787.1,430.2c-0.1,0.4-0.1,0.6-0.2,0.8c-0.6,0.8,0.8,1.9-0.2,2.5c-1.4,0.9-3.1,1-4.7,0.8
			c-2.8-0.3-4.1-2-3.8-4.8c0.2-1.7,1.2-2.7,2.7-3.1c1.6-0.4,3.2-0.3,4.8,0.2c0.7,0.2,1.2,0.3,0.7,1.2c-0.3,0.6-0.5,1.1-1.3,0.4
			c-0.6-0.6-1.6-0.6-2.4-0.6c-1.3,0-2.4,0.6-2.8,2c-0.3,1.2,0,2.2,1.1,2.8c1.3,0.8,2.7,0.6,4,0.2c0.3-0.1,0.4-0.4,0.3-0.8
			c-0.2-0.5-0.6-0.3-1-0.4c-0.5-0.2-1.5,0.8-1.5-0.6c0-1.5,1.2-0.5,1.7-0.6C785.3,430.1,786.1,430.2,787.1,430.2z"/>
		<path class="st17" d="M792.7,426.4c0.9,0,1.9,0,2.8,0.1c1.7,0.2,2.5,1.8,1.8,3.3c-1,2.2-1,2.2,0.3,4.4c-1.2,0.2-2.3,0.6-2.5-1.1
			c-0.1-0.4-0.5-0.8-0.8-1.1c-0.6-0.9-1.5-1.1-2.5-0.8c-1,0.4-0.5,1.3-0.6,2.1c0,0.4,0.5,0.9-0.1,1.3c-1.2,0.1-1.7-0.1-1.5-1.7
			c0.3-2,0.3-4.1-0.1-6.2C790.5,426.2,791.6,426.5,792.7,426.4z"/>
		<path class="st44" d="M720.8,460.1c-0.1,0.5-0.2,0.7-0.3,0.9c-0.3,3-0.8,3.4-4.3,3.3c-3-0.1-4.5-1.5-4.5-4.2
			c0.1-2.5,1.5-3.8,4.5-3.8c1,0,2,0.1,3,0.3c0.5,0.1,1.4,0,0.9,1.1c-0.3,0.6-0.5,1.3-1.4,0.5c-0.7-0.6-1.7-0.6-2.7-0.5
			c-1.4,0.2-2.4,0.8-2.6,2.3c-0.2,1.2,0.3,2.2,1.4,2.7c1.2,0.6,2.5,0.5,3.8,0c0.3-0.1,0.4-0.5,0.2-0.8c-0.2-0.4-0.6-0.3-1-0.4
			c-0.5-0.1-1.5,0.8-1.5-0.6c0.1-1.3,1-0.5,1.6-0.6C718.9,460,719.7,460.1,720.8,460.1z"/>
		<path class="st45" d="M383.9,194.7c-0.1,0.2-0.4,0.4-0.4,0.6c0.2,2.7-1.5,3.1-3.6,3.2c-0.3,0-0.6,0.2-0.5,0.6
			c0.1,0.5,0.5,0.5,0.9,0.4c1.4-0.3,2.7-0.6,4.1-0.9c0.7-0.2,1.6-0.6,2.1,0.2c0.5,1-0.6,1.2-1.1,1.8c-0.6,0.7-1.3,0.8-2.1,0.5
			c0.3-0.4,1.7-0.9,0-1.2c-0.9-0.1-1.8,0.2-2.7,0.3c-1.9,1-3.8,1.7-5.9,1.7c-1.1,0-1.4-0.4-1-1.4c0.3-0.8,0.5-1.7,1.4-2
			c2.4-0.9,4.4-2.5,6.6-3.7C382.4,194.4,383.1,194.3,383.9,194.7z"/>
		<path class="st46" d="M605.7,461.1c-1-0.5-1.8-0.4-2.7-0.4c-0.7,0-0.9,0.4-0.9,1c0,0.6,0.2,1.1,0.9,1.1c1.2,0,2.5,0,3.7,0
			c0.5,0,1-0.6,1.1,0.5c0,0.7-0.1,1.3-1,1.1c-0.2,0-0.3,0-0.5,0c-2,0-4-0.1-6-0.1c-0.1-2.4-0.1-4.9-0.2-7.3c0-0.8,0.6-0.5,0.9-0.5
			c2-0.1,4,0,6-0.2c0.7-0.1,0.6,0.3,0.6,0.6c0,0.5,0.2,1.1-0.8,1c-1.1-0.1-2.2-0.1-3.3,0c-0.6,0-1.6-0.4-1.6,0.8c0,1.2,1,1,1.7,1
			C605.7,459.5,605.7,459.4,605.7,461.1z"/>
		<path class="st46" d="M492.7,426.3c2.1,0,4.3,0,6.5,0c0.5,0,1-0.5,1,0.5c0,0.6,0,1.1-0.8,1c-1.2-0.1-2.3-0.1-3.5,0
			c-0.6,0-1.3-0.2-1.3,0.8c0,0.9,0.7,0.9,1.3,0.9c0.5,0,1.1,0.1,1.6-0.1c1-0.4,0.8,0.3,0.8,0.8c0,0.5,0.2,0.9-0.8,0.8
			c-1-0.1-2.8-1.1-2.8,0.9c0,1.9,1.8,0.7,2.8,1c0.6,0.2,1.3,0.1,1.8,0c0.6-0.1,1-0.4,1,0.5c0,0.6,0,1.1-0.8,1c-2-0.1-4,0-6.1,0
			c-0.9,0-0.7-0.5-0.7-1C492.8,431.1,492.7,428.9,492.7,426.3z"/>
		<path class="st11" d="M828.2,445.1c0.4-1.2,2.1,0,2.4-1.4c0.1-0.6,0.3-1.1,0.9-1.4c1.5-0.8,0.6-2.8,1.9-3.8
			c0.6-0.4,0.8-1.1,1.7-0.4c0.7,0.6,1.4,1,0.8,2.1c-2.4,4-2.6,8.7-3.9,13c-1.7,6-3.8,11.8-6.4,17.5c-0.2,0.5-0.6,0.9-1.2,1
			c2.3-5.1,4.5-10.4,6-15.8c1.4-4.9,2.5-9.8,3.9-15.2c-2.2,1.2-2.3,3.7-4.2,4.4C829.5,445.5,828.9,445.7,828.2,445.1z"/>
		<path class="st47" d="M828.2,445.1c0.7,0,1.3,0,2,0.1c-2,4.5-6.7,6.5-9.7,10.1c-0.4,0.4-1.1,0.6-1.6,0.9
			c-4.6,3.1-9.6,5.2-15.2,5.6c-2.3,0.2-4.7,0.6-6.9-0.7c0.2,0,0.4-0.1,0.6-0.1c3.2-0.1,6.3,0.4,9.5-0.4c2.5-0.6,5.1-1.1,6.4-3.7
			c0,0,0,0,0,0c0.3,0.1,0.6,0.2,0.8,0.4c0.2,0.1,0.2,0.4,0.4,0.6c0.5-1.3,0.5-3,2.7-1.8c0.9,0.5,2-0.6,2.6-1.2
			c1.7-1.7,3.4-3.3,5.3-4.7C826.9,449,827.9,447.2,828.2,445.1z"/>
		<path class="st48" d="M584.2,434.3c-0.9,0-1.8,0-2.8,0c0.8-2.3,0.5-4.6,0.3-6.8c-0.1-1,0-1.1,0.9-1.1c1.7,0.1,3.4,0,5.1,0
			c1.3,0,2.2,0.6,2.3,2.1c0.1,1.5-0.7,2.3-2,2.6c-0.4,0.1-0.8,0-1.2,0C583.7,431.2,583.7,431.2,584.2,434.3z"/>
		<path class="st49" d="M944.6,157.7c-0.9-3.1-3-4.8-5.9-6.2c-2.4-1.2-4.1-0.5-6.1,0.6c-2.3,1.3-4.3,3.2-7.2,1.7
			c-1.4,1.6-4.6-0.1-5.2,2.9c-0.3,1.4-1.1,2.6-1.6,3.8c-0.7,1.5-2.2,3-3.4,4.5c-0.8,1.1-1.7-1.2-2.9-1.2c-0.3-0.1-0.3-0.3,0-0.5
			c1.8,0.6,3.6,1.3,3.8-1.7c2.2-0.5,2.3-2.8,2.8-4.1c0.9-2.6,3.1-3.3,4.9-4.7c0.5-0.4,1.1-0.1,1.5,0.1c2.3,1.4,4.3,0.2,6.2-1
			c4.3-2.7,9.3-1.9,12.5,2.2C944.9,155.3,944.8,156.5,944.6,157.7z"/>
		<path class="st43" d="M674.2,464.1c0-1.1,0.9-2.5-0.3-3.1c-1.1-0.5-2.7-0.5-3.8,0c-1.3,0.5-0.2,2-0.4,3.1c-0.7,0.2-1.3,0.2-2,0
			c0.4-2.3,0.3-4.6,0.1-6.9c-0.1-1,0.2-1,0.9-1c0.6,0,1.2-0.1,1,0.9c-0.6,3,1.7,1.9,3.1,2.1c1.8,0.3,2-0.8,1.6-2.1
			c-0.4-1.2,0.3-0.9,0.9-0.9c0.6,0,1.1-0.1,1,0.9c-0.2,1.8-0.3,3.6,0,5.3C676.5,464.6,675.5,464.5,674.2,464.1z"/>
		<path class="st43" d="M595.2,456.5c1.6-0.6,2.1-0.2,1.9,1.6c-0.2,1.7-0.2,3.4,0,5.1c0.1,1.1-0.2,1.1-1,1.1c-0.9,0-1.1-0.1-0.9-1.1
			c0.3-1.2,0.4-2.5-1.6-2.3c-1.6,0.2-3.8-0.6-3.1,2.4c0.3,1.1-0.2,1.1-1,1.1c-1,0.1-0.9-0.3-0.8-1.2c0.2-1.9,0.2-3.9,0-5.8
			c-0.1-0.8-0.2-1.2,0.7-1c0.5,0.1,1.3-0.3,1.1,0.9c-0.6,3.4,2.1,2,3.5,2.1C596.6,459.4,595,457.5,595.2,456.5z"/>
		<path class="st50" d="M383.9,194.7c-2.2,0.1-3.8,1.4-5.2,2.9c-0.5,0.5-0.9,0.8-1.5,0.9c-1.8,0.3-2.9,1.2-3.2,3.1
			c2.4,0.5,4.5-0.9,6.7-1.3c-0.9,1.3-2.4,1.5-3.6,1.7c-1.7,0.4-3.3,0.6-4.8,1.6c-0.6,0.4-1.7,0.6-2-0.3c-0.4-1.1,0.6-1.2,1.4-1.3
			c0.6-0.1,1.1-0.2,1.1-0.9c0.7-2.2,2.2-3.4,4.2-4.4c6.1-3.1,12.5-4.9,19.1-6.3c0.2,0.1,0.2,0.2,0.1,0.3c-0.1,0.1-0.1,0.1-0.2,0.1
			c-3.3,0.9-6.5,1.9-9.8,2.9C385.4,194,384.6,194.4,383.9,194.7z"/>
		<path class="st51" d="M409.1,422.7c3.2-2.2,6.3-4.6,9.7-6.6c3.7-2.1,5.2-5.9,7.2-9.1c1.7-2.7,2-6.2,0.2-9.3
			c-1.3-2.2-2.7-4.2-4-6.3c3,1.5,6.2,7.6,5.9,10.7c-0.3,3.4-1.3,6.3-3.8,9c-1.4,1.5-2.2,3.7-4.1,5c-3.2,2.2-6.3,4.3-9.5,6.4
			C410.2,422.8,409.7,422.8,409.1,422.7z"/>
		<path class="st52" d="M459.5,427.1c-0.5,0.9-0.6,1.9-2.1,1.1c-1.5-0.8-3.5-1.1-4.9,0.7c-0.7,0.9-0.7,1.9,0,2.8
			c1.4,1.8,3.3,1.3,5.1,0.7c0.7-0.3,1.4-1.3,1.8,0.1c0.4,1.2-0.9,1.2-1.4,1.3c-1.6,0.5-3.3,0.8-5,0.2c-2-0.7-2.9-2-2.8-4
			c0.2-2,1.4-3.3,3.4-3.6C455.6,426.1,457.5,426.2,459.5,427.1z"/>
		<path class="st44" d="M742.4,427.1c-0.4,1.3-1,2.1-2.4,1c-0.5-0.3-1.2-0.4-1.8-0.5c-1.7-0.1-3.3,1.2-3.2,2.7
			c0.2,1.7,1.4,2.5,3.1,2.6c0.9,0,1.8-0.3,2.6-0.9c0.4-0.3,0.7-0.7,1.2-0.3c0.3,0.3,0.7,0.7,0.8,1.1c0.1,0.6-0.6,0.6-1,0.7
			c-1.6,0.5-3.2,1.1-5,0.7c-2.4-0.6-3.5-2-3.3-4.3c0.2-2.1,1.5-3.3,3.9-3.6C738.9,426.2,740.6,426.5,742.4,427.1z"/>
		<path class="st53" d="M827.7,388.5c0.2,0,0.3,0.1,0.5,0.1c-3.6,8.2-3.3,17.1-4.1,25.8c-0.2,1.9-1,3.8-0.7,6.5
			c2-2.3,2.6-5.1,4.8-6.5c-1.6,2.8-3,5.7-5,8.2c-0.2-0.1-0.5-0.1-0.7-0.2c0-1.2-0.2-2.4,0-3.6c1.4-7.2,1.3-14.6,2.4-21.9
			C825.4,393.9,826.3,391.1,827.7,388.5z"/>
		<path class="st34" d="M744.1,434.3c1.1-2.5,2.3-4.9,3.3-7.3c0.3-0.8,0.8-0.6,1.3-0.6c0.5,0,0.8-0.1,1.1,0.7c1,2.4,2.2,4.7,3.5,7.2
			c-1.1,0-2.3,0.7-2.8-1.2c-0.4-1.3-3.9-1.1-4.2,0.3C745.8,434.9,745,434.3,744.1,434.3z"/>
		<path class="st34" d="M698.5,464.2c-1.3,0.2-2.3,0.3-2.9-1.3c-0.4-1.1-3.8-0.9-4.1,0.4c-0.3,1.5-1.2,1-2.1,0.9
			c1.1-2.5,2.3-4.8,3.3-7.2c0.3-0.8,0.8-0.7,1.2-0.6c0.4,0,0.9-0.2,1.2,0.6C696,459.4,697.3,461.7,698.5,464.2z"/>
		<path class="st39" d="M444.6,434.3c-1.3,0-2.4,0.5-2.9-1.3c-0.3-1.1-3.8-1-4.1,0.2c-0.3,1.6-1.2,1.2-2.2,1.1
			c1.1-2.5,2.3-4.8,3.2-7.3c0.3-0.9,0.8-0.5,1.2-0.5c0.4,0,0.9-0.3,1.2,0.6C442,429.5,443.3,431.8,444.6,434.3z"/>
		<path class="st54" d="M581,464.2c-2.7,0-4.6-1.6-4.5-4c0-2.4,1.7-3.9,4.5-4c1.2,0,2.3,0.1,3.4,0.3c0.4,0.1,1.5-0.2,1.1,0.9
			c-0.2,0.6-0.5,1.5-1.6,0.7c-0.6-0.5-1.6-0.5-2.4-0.6c-1.7-0.1-3.3,1.2-3.2,2.6c0.2,1.9,1.6,2.6,3.3,2.6c0.9,0,1.8-0.3,2.6-0.7
			c0.6-0.3,0.9-0.8,1.4,0c0.6,1-0.1,1.2-0.8,1.5C583.7,464,582.5,464.3,581,464.2z"/>
		<path class="st34" d="M704.5,434.3c-1.2,0-2.2,0.6-2.8-1.1c-0.4-1.3-3.9-1.2-4.2,0.1c-0.3,1.5-1.2,1-2.1,1
			c1.1-2.6,2.1-5.1,3.3-7.5c0.4-0.8,1.9-0.8,2.2,0C701.8,429.4,703.4,431.6,704.5,434.3z"/>
		<path class="st55" d="M555.2,464.3c0-1.8,0.1-3.4,0-5.1c-0.1-1.2,0-1.8,1.4-1.7c1,0.1,2,0,3,0c1.6,0.1,2.6,0.6,1.9,2.5
			c-0.1,0.2-0.2,0.4-0.2,0.7c0.1,3.6,0.1,3.6-3.5,3.6C557,464.3,556,464.3,555.2,464.3z"/>
		<path class="st56" d="M679.4,456.5c1.5-0.5,2.4-0.3,2.1,1.6c-0.1,0.8,0,1.6,0,2.3c-0.1,1.6,0.4,2.5,2.2,2.5c1.7,0,2.6-0.7,2.6-2.5
			c0-1,0.2-2.1-0.1-3c-0.2-0.8-0.3-1.2,0.8-1.2c0.9,0,1.1,0.2,1,1.2c-0.2,1.2,0,2.5-0.1,3.7c-0.1,2.5-1,3.1-4.3,3.1
			c-2.9,0-3.7-0.7-3.8-3.2c0-1.3,0-2.6-0.1-4C679.5,456.9,679.4,456.7,679.4,456.5z"/>
		<path class="st34" d="M506.9,426.3c0.9,0.1,1.9,0,2.8,0.4c0.5,0.2,1.1,0.3,0.6,1c-0.3,0.4-0.4,1.4-1.3,0.6
			c-0.5-0.4-1.1-0.5-1.7-0.6c-1.4-0.2-2.5,0.1-3.3,1.3c-0.6,0.8-0.6,1.8,0.1,2.6c0.9,1.1,2.1,1.6,3.5,1.2c0.4-0.1,0.7-0.2,1.1-0.4
			c0.6-0.2,1.3-1.6,1.9,0c0.5,1.4-0.9,1.2-1.5,1.4c-3.9,1.5-7.3-0.3-7.2-3.7C502,427.6,503.7,426.3,506.9,426.3z"/>
		<path class="st57" d="M328.7,186.3c0,0.3,0,0.6,0,0.9c-2.8,1.4-4.7,3.8-6.8,5.9c-3.1,3-6.4,5.8-9.3,9c-3.2,3.7-7.2,6.5-11,9.6
			c-1.3,1.1-2.9,1.6-4.7,1.7c3.8-2,7.4-4.4,10.5-7.4c4.3-4.1,8.5-8.4,12.9-12.4C323.1,191,325.5,188.2,328.7,186.3z"/>
		<path class="st58" d="M261,181.6c0-0.3,0-0.7,0-1c2.4-3.3,4.8-6.5,8.1-9.1c2.4-2,4.4-4.7,6.7-7c1.7-1.6,3.7-2,6-2.4
			c3.5-0.6,6.6,0.9,9.9,0.6c0.5-0.2,0.6,0,0.6,0.5c-0.7,0.5-1.5,0.8-2.2,0.4c-2.8-1.4-5.7-0.6-8.6-0.9c-1.7-0.2-3.1,0.4-4.2,1.4
			c-2.5,2.4-5.1,4.7-7.3,7.5c-0.8,1.1-2,1.9-3.1,2.8C264.4,176.5,263.1,179.4,261,181.6z"/>
		<path class="st59" d="M1089.4,506.8c2.6-0.3,5.4-0.1,7.5-2.3c-0.9-0.4-2.1-0.1-3.1-0.4c-1.1-0.3-1.4-0.9-1.3-1.8
			c0.1-0.9,0.8-1.2,1.5-1c1.9,0.5,0.8-0.9,1-1.4c1.2,1.1,3.2,1.6,2.5,3.9c0,0.1,1.7,0.8,2.6,1.2c0.4,0.2,1,0.3,0.9,0.9
			c-0.1,0.6-0.7,0.5-1.2,0.4c-0.8-0.1-1.7-0.1-2.5-0.4c-0.6-0.2-1.2-0.3-1.5,0.2c-1.4,2.3-3.9,0.4-5.6,1.5
			C1090.1,507.6,1089.7,507.1,1089.4,506.8z"/>
		<path class="st60" d="M416.1,338.6c-1.3-2.3-3.6-4.1-3.4-7.3c0.1-1.4-1.6-1.3-2.7-1.6c-0.6,0.2-1-0.1-1.4-0.5
			c-0.1-0.2,0-0.4,0.1-0.6c1.5,0.4,3,0.7,4.5,1.2c1.1,0.3,1.7,0.2,1.6-1.1c0.9,2.5,1.8,5.1,2.6,7.6
			C417.7,337.4,417.6,338.5,416.1,338.6z"/>
		<path class="st53" d="M849.3,389.1c-2-1.4-3.7-3.1-5.9-4.4c-2.9-1.6-5.9-1.2-9-1.2c0.7,0.9,2.2,0,2.2,1.1c-0.1,1.4-1.6,0.3-2.4,1
			c0.3,1,1,1.1,1.9,1.2c0.7,0.1,1.3,0.3,1,1.2c-0.2,0.7-0.6,1.2-1.3,1c-1.3-0.2-2.5-0.1-3.7,0.2c0.7-1.7,2.5-1,4.2-1.7
			c-1.6-0.4-2.8-0.6-4-0.9c0-1.2,1-1.4,1.7-1.9c-0.3-0.6-1.4-0.4-1.3-1.2c0.1-0.8,1-0.6,1.5-0.7C840,381.7,847,384.6,849.3,389.1z"
			/>
		<path class="st55" d="M641.3,434.3c-0.8,0-1.5,0-2.2,0c0.4-2.6,0.3-5.2,0.1-7.8c2.4-0.4,4.8,0.3,7.2-0.3c0.7-0.2,1,0,1,0.8
			c0,0.7-0.3,0.9-1,0.9c-1.4-0.1-2.8-0.1-4.2-0.1c-0.5,0-1.1-0.1-1.2,0.7c0,0.9,0.5,1,1.2,1c0.6,0,1.3,0,1.8-0.1
			c0.9-0.2,0.9,0.1,0.9,0.8c0,0.6,0,0.8-0.9,0.8C640.7,430.6,640.6,430.8,641.3,434.3z"/>
		<path class="st61" d="M572,426.3c0.8,0,1.6,0.1,2.3,0c0.5-0.1,1-0.6,1.1,0.5c0,0.8-0.1,1.1-1,1c-1.2-0.1-2.5,0-3.7,0
			c-0.6,0-1.1,0-1.1,0.8c0,0.7,0.4,0.9,1.1,0.9c0.6,0,1.3,0.1,1.8-0.1c0.9-0.3,1.1,0,1,0.9c0,0.8-0.3,0.7-1,0.6
			c-3-0.3-3.1-0.2-2.8,2.6c0.2,1.3-0.6,0.8-1,0.8c-0.4,0-1.3,0.5-1-0.8c0.3-1.4,0.3-3,0.1-4.4c-0.4-2.4,0.4-3.2,2.8-2.8
			C571,426.5,571.5,426.4,572,426.3C572,426.4,572,426.4,572,426.3z"/>
		<path class="st62" d="M909.5,375c-0.2-0.2-0.5-0.4-0.7-0.6c-2.7-1.4-3.2-2.6-2.1-5.6c1.6-4.3,2.1-8.8,3.7-13.1
			c0.6-1.7,4.1-2.9,5.9-1.5c2.6,2,5.6,3.1,8.6,4.4c-3.3,0.6-5.6-1.6-8-3.1c-1.3-0.9-2.5-1.1-3.9-0.9c-1.1,0.2-1.4,0.8-1.9,1.8
			c-1.8,4.1-2.3,8.5-3.7,12.6c-0.7,2-1.8,4.1,1.5,4.8C909.5,374,909.7,374.5,909.5,375z"/>
		<path class="st63" d="M676.4,434.2c-1.4,0.5-2.1,0.1-1.8-1.7c0.1-0.7,0-1.4,0-2.1c0.1-1.7,0.2-3.2-2.3-2.6c-0.8,0.2-0.9-0.3-0.9-1
			c0-0.8,0.3-0.7,1-0.6c2.2,0.1,4.5,0.1,6.8,0c0.8-0.1,1,0.1,0.9,0.8c0,0.4,0.1,1-0.7,0.8c-3.4-0.9-3.1,1.4-3,3.5
			C676.4,432.3,676.4,433.2,676.4,434.2z"/>
		<path class="st56" d="M607.6,426.5c1.6-0.3,2.8-0.3,3.4,1.4c0.5,1.4,1.4,1.7,2,0.1c0.6-1.6,1.8-1.9,3.4-1.5
			c-0.6,0.8-1.1,1.6-1.9,2.3c-1.1,0.9-2.1,2.2-1.8,3.8c0.4,1.8-0.4,2-2,1.5C611.9,430.8,609.1,429,607.6,426.5z"/>
		<path class="st64" d="M516,426.5c1.3-0.1,2.6-0.1,3.9-0.3c0.8-0.1,1,0.1,1,0.7c0,0.6,0,1.3-0.8,1c-3.4-1-2.7,1.4-2.7,3.2
			c0,0.7-0.1,1.4,0,2.1c0.2,1-0.3,1.1-1.1,1.1c-0.9,0-0.9-0.4-0.8-1.1c0.1-1,0-2,0.1-3c0.2-1.8-0.1-2.9-2.3-2.4
			c-1,0.2-0.9-0.4-1-1.1c0-1.1,0.6-0.5,1-0.4c0.9,0,1.7,0,2.6,0C516,426.4,516,426.4,516,426.5z"/>
		<path class="st65" d="M372.2,419.9c2.4-3.6,5.5-6.6,8.3-9.9c0.4-0.5,1.3-0.9-0.1-1.5c-1.2-0.6,0.1-1.1,0.4-1.5
			c1.3-1.6,3.4-2.6,4.3-4.7c0.2-0.5,1-1.1,0.3-1.6c-0.6-0.5-1.4-0.4-2.1,0.2c-0.8,0.7-1.8,1.2-2.7,1.8c-0.3,0.3-0.7,0.3-1,0
			c1.2-0.9,2.4-1.9,3.8-2.6c0.8-0.4,1.9-0.5,2.6,0.2c0.6,0.6,0.2,1.4-0.2,2.1c-0.5,0.9-1,1.7-1.7,2.4c-0.7,0.7-2,1-0.9,2.5
			c0.2,0.3-0.6,1.7-1.3,2.3c-3.1,3.1-5.7,6.6-8.7,9.9C372.9,419.7,372.6,419.9,372.2,419.9z"/>
		<path class="st66" d="M945.9,426.5c-2.5-0.9-3.3-3.5-5.1-5.2c1.9,0.9,3.2,0.5,4.3-1.5c1-1.8,3.1-2.8,4.1-4.6
			c0.5,2.6-2.7,2.8-3,4.8c2.3,0.3,2.5,0.7,1.1,2.9c1.1,0.1,2.1,0.4,3-0.3c0.5-0.4,1.1-0.7,1.6,0.1c-2.1,2.4-4.5,1.4-7,0.8
			C944.7,424.7,946.6,425.2,945.9,426.5z"/>
		<path class="st67" d="M482.6,434.4c0.5-2.4,0.3-4.7,0.1-7c-0.1-0.9,0.1-1,0.8-1c0.5,0,1.4-0.3,1.1,0.9c-0.1,0.4,0,0.8,0,1.2
			c0,4.8,0,4.8,4.9,4.5c0.4,0,1.2-0.9,1.3,0.4c0.1,1-0.5,1.1-1.3,1.1C487.3,434.3,485,434.4,482.6,434.4z"/>
		<path class="st68" d="M574.6,377.4c-0.5-0.8-1.4-0.6-2.1-0.9c-2-0.8-2.4-2.4-0.7-3.8c0.5-0.4,1.2-0.7,0.6-1.4
			c-2.2-2.7,0.3-2.2,1.7-2.5c-0.3-3.1,1.4-6.1,0.5-9.2c2.5,2,1,4.5,0.8,6.8c0,0.5-0.6,1-0.3,1.5c1.1,1.8,0.3,2.2-1.4,1.9
			c-0.6-0.1-1,0.4-0.6,0.8c1.1,1.2,0.7,1.8-0.5,2.7c-1,0.8-0.7,2,0.8,2.7C573.8,376.2,575.4,375.8,574.6,377.4z"/>
		<path class="st69" d="M755,430.5c0-1,0.1-2,0-3c-0.2-1.1,0.4-1,1.1-1.1c1.2-0.1,0.9,0.6,0.8,1.2c0,0.1,0,0.3,0,0.5
			c0.2,5.9-1.2,4.7,4.8,4.8c0.5,0,0.9-0.4,0.9,0.4c0,0.5,0.2,1.2-0.7,1.2c-2.1,0-4.2,0-6.3,0c-0.7,0-0.6-0.3-0.6-0.9
			C755,432.5,755,431.5,755,430.5C755,430.5,755,430.5,755,430.5z"/>
		<path class="st69" d="M475.7,426.5c-0.1,0.6-0.2,1.1-0.2,1.7c0.2,5.6-1.2,4.6,4.7,4.6c0.6,0,1-0.4,1,0.5c0,0.6-0.1,1-0.9,1
			c-2,0-4,0-6.1,0c-0.9,0-0.7-0.4-0.7-1c0.1-1.8,0.2-3.6,0-5.4C473.5,426.3,474.2,426.1,475.7,426.5z"/>
		<path class="st70" d="M764,434.3c0.4-2.4,0.3-4.7,0.1-7c-0.1-1,0.1-1,0.8-1c0.5,0,1.4-0.3,1.1,0.9c-0.1,0.4,0,0.9,0,1.4
			c0,4.6,0,4.6,4.5,4.3c0.4,0,1.2-0.9,1.3,0.4c0.1,1-0.5,1.1-1.3,1.1c-1.8,0-3.6,0-5.4,0C764.7,434.4,764.3,434.3,764,434.3z"/>
		<path class="st59" d="M1090.9,514.7c0.4-0.8,1-1.1,1.9-0.7c0.9,0.4,1.5,0,2-1c-0.9-0.1-1.7-0.2-2.5-0.4c-0.6-0.1-0.9-0.7-0.8-1.2
			c0.1-0.7,0.6-0.7,1.2-0.5c0.7,0.2,1.6,0.3,1.6-0.6c0-0.7-1-0.6-1.6-0.4c-2.2,0.7-4.2-1.1-6.4-0.2c-0.5,0.2-0.8-0.4-0.8-0.9
			c0-1,0.8-1,1.5-1c0.3,0.3-1.4,1.2,0.3,1c2-0.2,3.9,0.8,6,0.2c0.7-0.2,1.5,0.1,1.8,0.8c0.4,1,1.3,1.2,2.1,1.7c-1.3,1-2.7,0.2-4,0.7
			c0.6,0.8,2.3-0.3,2.2,1.2c-0.2,1.4-1.5,1.6-2.7,1.5C1092.1,514.7,1091.5,514.7,1090.9,514.7z"/>
		<path class="st71" d="M626.5,464.3c0.4-2.4,0.3-4.7,0.1-7c-0.1-0.9,0-1.1,0.8-1c0.5,0.1,1.6-0.4,1.1,0.9c-0.2,0.4-0.1,0.9-0.1,1.4
			c-0.1,4.5-0.1,4.5,4.5,4.2c0.4,0,1.2-0.9,1.3,0.4c0.1,1-0.4,1.1-1.2,1.1C630.8,464.2,628.7,464.3,626.5,464.3z"/>
		<path class="st57" d="M296.9,213.3c-1.3,1.6-3.3,2.1-4.8,3.5c-0.6,0.5-1.8,0.5-2.6-0.1c-0.9-0.7-0.3-1.6,0.1-2.3
			c0.9-1.4,0.9-3.1,1.8-4.4c2.1-3.4,4-6.9,6.9-9.7c-1.5,2.4-2.5,5.1-4.5,7.2c-1.7,1.7-2.2,4-3,6.2c-0.3,0.8-1.7,1.6-0.5,2.4
			c0.9,0.6,1.9-0.1,2.7-0.8C294.1,214.1,295.5,213.7,296.9,213.3z"/>
		<path class="st57" d="M298.4,200.3c2-2.7,3.8-5.7,4.6-8.9c0.8-3.2,2.2-6.6-0.5-9.7c-0.5-0.6-0.6-1.3-0.4-2
			c2.9,3.1,2.9,6.9,2.2,10.6c-0.4,2.2-1.7,4.2-2.7,6.2c-0.3,0.6-0.8,1.2-0.9,1.9C300.6,200,299.8,200.5,298.4,200.3z"/>
		<path class="st72" d="M933.4,404.9c4,3.7,8.8,5.3,14.3,4.4c1-0.2,2.1,0.1,2.3,1.1c0.2,1.6,1.3,3.5-0.7,4.8c0-0.4,0.1-0.8,0.1-1.2
			c0-3.4,0.5-4.2-3.8-3.8c-4.2,0.5-8.2-1.1-11.5-4C933.7,405.9,933.3,405.5,933.4,404.9z"/>
		<path class="st73" d="M1086.7,493c-0.1,0.7,0.4,1.8-1,1.9c-0.7,0-4.8-3-4.5-3.3c0.9-1,2.7-0.5,3.5-1.8
			C1085.5,490.7,1087.2,491.2,1086.7,493z"/>
		<path class="st74" d="M570.7,457.8c-0.9,2-3.4,3.2-2.8,6c0.2,0.9-1,0.3-1.8,0.5c1.3-3-1.5-4.4-2.6-6.4c2.4-1.2,2.4,1.6,3.7,2.1
			C568.4,459.2,568.4,456.6,570.7,457.8z"/>
		<path class="st37" d="M947.4,273.2c-1.1,1.8-2.5,1.8-4.1,0.7c-0.9-0.6-1.8-0.7-2.8-0.1c-1.2,0.7-2.8,0.3-4,0.9c-2.1,1-4,1.7-6.3,1
			c-0.2-0.1-0.2-0.2-0.2-0.3c0-0.1,0.1-0.2,0.1-0.2c2.3,0.1,4.3-1.1,6.5-1.2c0.6,0,1.7-0.1,1.4-1.5c-0.2-1.1,1.5-0.7,1.5-0.5
			c0.5,2.6,2.6-0.1,3.6,1.2C944.4,274.6,946,273.5,947.4,273.2z"/>
		<path class="st59" d="M1095,499.9c-1.3,0.4-3.2-0.8-3.9,1.6c-0.2,0.8-3.1-0.4-3.8-1.7c-0.1-0.2-0.1-0.5-0.1-0.7
			c0-0.1-0.2-0.2-0.3-0.3c-0.9,0.2-0.7,1.4-1.6,1.5c0.5-2.4,2.9-3.7,4.8-2.6c1,0.5,0.2,1.1-0.1,1.5c-0.4,0.6-1.2,1.2-0.1,1.8
			c1,0.6,1-0.4,1.4-0.9C1092.5,498.5,1093.8,499.2,1095,499.9z"/>
		<path class="st75" d="M525,430.6c0,0.8-0.1,1.7,0,2.5c0.2,0.9,0.3,1.3-0.9,1.3c-1.1,0-1.1-0.4-1-1.3c0.1-1.9,0.2-3.9,0-5.8
			c-0.1-1,0.3-1,1-1c0.7,0,1.1,0,1,1C524.9,428.4,525,429.5,525,430.6z"/>
		<path class="st76" d="M774,430.2c0-0.9,0.1-1.9,0-2.8c-0.1-0.6-0.3-1.2,0.7-1.1c0.7,0,1.3-0.2,1.3,1c-0.1,2.1-0.1,4.2,0.1,6.3
			c0.1,1.2-0.7,0.7-1.1,0.7c-0.5,0.1-1.2,0.2-0.9-0.9C774.2,432.5,774,431.3,774,430.2C774,430.2,774,430.2,774,430.2z"/>
		<path class="st76" d="M592.2,430.4c0-1,0.2-2.1-0.1-3c-0.2-0.9,0-1.1,0.8-1c0.6,0,1.2-0.2,1.2,0.9c-0.1,2.2,0,4.3,0.1,6.5
			c0,1.2-0.8,0.6-1.3,0.6c-0.4,0.1-1,0.3-0.8-0.7C592.3,432.6,592.2,431.5,592.2,430.4C592.2,430.4,592.2,430.4,592.2,430.4z"/>
		<path class="st76" d="M618.4,430.3c0-1,0.1-2,0-3c-0.1-0.6-0.2-1.1,0.6-0.9c0.5,0.1,1.3-0.5,1.3,0.7c0,2.2,0.1,4.5,0.1,6.7
			c0,1.1-0.8,0.5-1.3,0.6c-0.5,0.1-1,0.2-0.8-0.8C618.5,432.5,618.3,431.4,618.4,430.3C618.3,430.3,618.4,430.3,618.4,430.3z"/>
		<path class="st57" d="M292.3,163.3c-0.2-0.2-0.4-0.3-0.6-0.5c2.1,0,3.3,1.2,3.9,3.1c0.8,2.5,1.4,5.1,2.6,7.5c1,2.1,3.1,3.6,3.8,6
			c0,0.1,0.1,0.3,0.1,0.4c-2.3-3-5-5.7-6.1-9.6C295.4,167.6,295.6,164.4,292.3,163.3z"/>
		<path class="st53" d="M832.1,389.1c-0.2,2.8-0.2,5.4,2.3,7.4c1.1,0.9,0.4,7.4-0.6,8.3c0-2.2,0-4.4,0.1-6.5c0-1-0.2-1.7-1.1-2.4
			C830.9,394.3,830.7,391.3,832.1,389.1z"/>
		<path class="st77" d="M399.2,326.5c-3-0.2-5.6-1.7-8.4-2.5c-2.6-0.8-5.1-2.2-7.8-2.7c-0.5-0.1-0.8-0.5-0.9-0.9
			c2.7,0.1,5.1,1.3,7.4,2.3c3.2,1.3,6.6,2.2,9.8,3.4C399.4,326.2,399.4,326.3,399.2,326.5z"/>
		<path class="st22" d="M379.6,402.6c0.3,0,0.6,0,1,0c-1.7,1.1-3.3,2.2-5.5,1.9c-1.4-0.2-2.4,0.9-3.5,1.6c-2.1,1.5-4,3.1-6.5,3.9
			c0-0.9,0.9-1,1.4-1.3c1.6-1,3.1-1.9,4.6-3.1c1.5-1.2,3-2.5,5.2-1.9C377.6,403.9,378.5,402.8,379.6,402.6z"/>
		<path class="st78" d="M905.8,275.5c0-0.1-0.1-0.3-0.1-0.4c0.3,0,0.8,0,0.8,0.1c0.7,2.6,2.5,1.8,4.4,1.8c3.6,0.1,7.1-1.5,10.7-1.1
			c-2.4,1.3-5.1,1.1-7.6,1.5c-0.9,0.1-1.8,0.1-2.7,0.4C908,278.7,907.6,278.5,905.8,275.5z"/>
		<path class="st14" d="M798.4,361c-1.4-1.5-1.6-4.1,0-6c1.5-1.8,3.3-3.4,4.5-5.4c0.3-0.5,0.8-0.7,1.4-0.8c-1.3,1.8-2.1,3.9-4,5.2
			c-1.3,0.9-2.2,2.1-1.9,3.9C798.5,359,798.4,360,798.4,361z"/>
		<path d="M635.9,464.1c0.4-2.3,0.3-4.6,0.1-6.9c-0.1-1,0.1-1,0.8-1c0.7,0,1.3-0.2,1,1.1c-0.3,1.7-0.3,3.4,0,5.1
			C638.2,464.5,637.4,464.6,635.9,464.1z"/>
		<path class="st27" d="M912.3,163.3c0,0.2,0,0.3,0,0.5c-0.8,0.5-0.8,1.2-0.8,2c-0.3,5.1-3.4,9.1-5.1,13.7c0,0.1-0.4,0.2-0.6,0.2
			c1.4-3.6,2.7-7.2,4.5-10.6c0.6-1.1,0.7-2.4,0.7-3.6C911,164.5,910.9,163.5,912.3,163.3z"/>
		<path class="st78" d="M930.2,275.1c0,0.2,0,0.3,0,0.5c-0.2,0.4-0.5,0.8-0.8,0.6c-2.5-1.5-5.1,0.5-7.7-0.3
			c-0.1-0.4-0.2-0.7-0.7-0.8c-0.5-0.1-1.5,0.2-1.4-0.7c0.1-1,1.1-0.9,1.8-1.1c0.7-0.2,1.3,0,1.1,0.9c-0.2,1.1,0.8,1.1,1.1,1
			C925.8,274.8,928,275.4,930.2,275.1z"/>
		<path class="st79" d="M1092.3,491.9c1,0,2,0,3,0.1c0.8,0,1.3,0.5,1.3,1.3c0,0.8-0.7,1-1.3,0.9c-2-0.2-3.8,0.8-5.9,0.5
			c1.4-0.5,0.6-2.9,2.5-2.7c0.1,1.2,1.1,1.1,2.3,1.4C1093.1,492.9,1092.2,492.9,1092.3,491.9z"/>
		<path class="st68" d="M569.8,383.9c0-1.1,1.2-1.5,1.5-2.5c0.2-0.7,1.4-1.3-0.1-2.2c-0.8-0.5-0.2-1.3,0.6-1.6
			c0.9-0.3,1.8-0.3,2.7-0.2c-1.2,0.5-0.8,2.1-1.2,2.4C572.2,381.2,571.6,383.1,569.8,383.9z"/>
		<path class="st80" d="M970.3,381.6c0.2,1.5,0.1,2.9-0.4,4.3c-0.5,1.3-0.6,2.6,0.1,4c0.6,1.4,0,2.7-1.5,3.3c0.9-1.5,0.6-3,0.4-4.7
			C968.6,386.3,969.1,383.7,970.3,381.6z"/>
		<path class="st68" d="M565.7,355.9c-0.2-0.1-0.4-0.1-0.6-0.2c2.4-1.5,5.1-1.1,7.5-0.5c2,0.5,1.2,2.9,1.9,4.3
			c-0.9-0.3-1.2-0.9-1.2-1.9c0-1.5-0.9-2.4-2.3-2.1C569.2,356,567.5,355.7,565.7,355.9z"/>
		<path class="st60" d="M399.2,326.5c0-0.2,0.1-0.3,0.1-0.5c3.2,0.7,6.4,1.5,9.4,2.7c-0.1,0.1-0.1,0.2-0.2,0.3
			c-1.3,0.9-2.2,0.1-3.2-0.6C403,328.7,401.2,327.2,399.2,326.5z"/>
		<path class="st81" d="M804,347.9c0.1-0.4-0.1-0.7-0.4-1c-0.6-1.7-0.1-3.4-0.6-5.1c-0.2-0.8,0.2-1.5,1-1.8c0.5,0,0.9,0,1.4,0
			c-0.8,0.7-1.7,1.3-0.6,2.5c0.2,0.2,0.2,0.9,0,1.1c-1,1.1-0.8,2,0.1,3c0.5,0.6,0.6,1.3-0.3,1.7C804.4,348.2,804.2,348.1,804,347.9z
			"/>
		<path class="st82" d="M991,281.6c0.1,0,0.3,0,0.4,0c2.3,1.9,4.5,4.1,7.6,4.9c0.4,0.1,0.7,0.3,0.7,0.7
			C995.9,286.6,993.2,284.5,991,281.6z"/>
		<path class="st83" d="M1092.3,491.9c1,0.9,2.5,0.7,3.7,1.4c-1.5,0.6-3,0.6-4.3,0.2c-0.6-0.2-0.1-1.1,0.2-1.6
			C1092,491.9,1092.1,491.9,1092.3,491.9z"/>
		<path class="st84" d="M1070.3,486.1c-0.3,0.9-1,0.9-1.6,0.7c-0.7-0.2-1.7-0.3-1.6-1.3c0.1-0.8,0.8-0.5,1.3-0.3
			C1069.2,485.3,1070.1,485.1,1070.3,486.1z"/>
		<path class="st59" d="M1084.3,516.6c1.1-1.4,2.7-1.4,4.1-1.4c0.9,0,1.7-0.1,2.4-0.5c0,0.9-0.8,1.5-1.3,1.3
			C1087.7,515.2,1086.1,516.8,1084.3,516.6z"/>
		<path class="st9" d="M370.5,207.6c-1-0.4-1.8-0.9-1.4-2c0.2-0.5,0.6-1,1.2-0.9c0.7,0.1,0.4,0.7,0.3,1.1
			C370.5,206.4,370.5,206.9,370.5,207.6z"/>
		<path class="st80" d="M977.8,378.8c-1.8,1.4-3.7,2.4-6.1,1.4c1.6-0.8,3.7-0.2,5-1.8C977,378.1,977.6,378.1,977.8,378.8z"/>
		<path class="st80" d="M964.3,396.6c-1.4,1.7-3.6,2.2-5.6,1.3C960.5,397.4,962.5,397.4,964.3,396.6z"/>
		<path class="st30" d="M382.9,201.2c-1,1.5-2.4,2.3-4.3,2.3C379.7,201.9,381.5,201.9,382.9,201.2z"/>
		<path class="st80" d="M968.4,393.2c-0.8,1.8-2.1,3.1-4.2,3.3C965.7,395.5,967.1,394.4,968.4,393.2z"/>
		<path class="st62" d="M910.5,378.7c-1.3-1-1.1-2.4-1-3.7C911,376,910.1,377.5,910.5,378.7z"/>
		<path class="st9" d="M372.7,209.2c-0.5,0-1.1,0-1.5,0.4c-0.3,0.2-0.4,1-1,0.5c-0.1-0.1-0.2-0.4-0.2-0.6c0.1-0.6,0.6-0.7,1-0.7
			C371.6,208.7,372.2,208.6,372.7,209.2C372.7,209.2,372.7,209.2,372.7,209.2z"/>
		<path class="st9" d="M353.2,235c-0.4,0.8-0.8,1.3-1.5,0.9c-0.3-0.1-0.5-0.5-0.3-0.8C351.9,234.6,352.5,234.8,353.2,235z"/>
		<path class="st85" d="M818.9,331.1c0,0.2,0,0.3,0,0.5c-0.6,0.6-1.4,1-2.3,1c-0.5,0-1-0.1-1.5-0.1
			C816.4,332,817.6,331.5,818.9,331.1z"/>
		<path class="st80" d="M971.7,380.2c-0.6,0.1-1.3-1.4-1.9,0c-0.7-0.6-0.5-1.4,0.1-1.6C970.9,378.4,971.6,379.1,971.7,380.2z"/>
		<path class="st86" d="M678.8,309.5c0,1,0.1,2.1-1.1,2.6C677.7,311.1,677.5,310,678.8,309.5z"/>
		<path class="st53" d="M832.9,406.3c-0.2,1.2-0.9,2.1-1.9,2.7C831,407.7,831.9,407,832.9,406.3z"/>
		<path class="st9" d="M373.5,203.8c0.1,0.2,0.4,0.4,0.4,0.7c0,0.5-0.4,0.8-0.9,0.9c-0.4,0.1-0.6-0.2-0.5-0.5
			C372.7,204.4,372.8,203.9,373.5,203.8z"/>
		<path class="st87" d="M879.2,342.7c-1.6,0.5-2.6,1.8-3.9,2.7c-1.5,1-2.4,1.3-3.2-0.6c-0.5-1.2-2.1-1.8-1.7-3.4
			c0-4.5,0.1-9,0.1-13.4c0-0.5,0.3-1.2-0.4-1.4c-1-0.2-0.7,0.8-0.9,1.3c-0.2,0.5-0.5,1-1.1,1.1c-9.3,0.2-18.6,0-27.9,0.1
			c-0.6,0-1.3,0-1.6-0.7c0-0.5,0-0.9,0-1.4c0.9-1.4-1-3.9,2-4.5c1.7-0.3,3.2-1.6,5.1-1.3c0.3,0,0.6,0,0.8-0.3c2.9,0,5.8,0,8.7-0.2
			c1.7-0.1,2.1,1.7,3.4,2c0.6-1.6,0.3-3.2,0.2-4.8c-0.1-1.7,0.4-2.9,1.8-3.7c1.5-0.9,2.4-2,2.6-3.8c0.1-0.8,0.4-1.6,1.5-1.4
			c1,0.1,0.8,0.9,0.8,1.6c-0.1,0.8,0.3,1.3,0.7,1.9c1.2,0.8,2.5,0.5,3.5,0c4.4-2,9.3-2.7,13.8-4.3c3.2-1.2,6.7-0.9,9.8-2.2
			c3.8-1.2,7.9-1.1,11.8-2.2c1.5-0.4,3-0.8,4.5-1.2c0.7-0.2,1.3-0.6,1.4-1.1c0.3-1.4,0.9-2.2,2.5-1.9c1.2,0.2,2.2,0.1,2.9,1.4
			c0.7,1.2,2.1,0.9,3.2,0.7c4.8-1,9.6-1.7,14.4-2.1c5.6-0.5,11.1-0.8,16.7-0.6c2.3,0.1,4.6,0.1,6.9,0.8c1.1,0.4,1.7,0.9,1.4,2.2
			c-2.1,8.5-3.7,17.2-7.8,25.1c-1.5,2.9-3.8,5.4-5.1,8.5c-0.1,0.3-0.7,0.8-0.8,0.8c-2.6-1-2.5,1.2-3,2.5c-0.5,1.3-1.5,2.2-2.6,2.9
			c-5.2,3.4-10.7,5.9-16.5,8.1c-2.7,1-5.5,1.5-8.4,1.7c-0.9,0.1-2,0.3-2.5-0.6c-0.5-0.9-0.2-2,0.5-2.8c2.4-3.1,1.9-6.2,0.3-9.4
			c-0.7-1.3-2-2.2-3-3.3c-4.8-3.8-10.3-5-16.2-4.4c-2,0.2-3.7,1.1-5,2.9c-1.2,1.7-2.9,2.9-4.4,4.3
			C882.6,339.6,880.9,341.2,879.2,342.7z"/>
		<path class="st88" d="M945.9,426.5c-0.3-1-1.2-1.6-1.9-2.2c-0.4-0.4-0.6-0.9-0.2-1.4c0.4-0.4,1.1-0.8,1.4-0.4
			c2.2,2.3,4.5,1.1,6.7,0.3c1.9,2.9,2.3,6.3,3.7,9.4c1,2.2,1.4,4.7,2.8,6.7c0.4,0.6,0.3,1.3-0.2,2.5c-2.5-3.3-4.8-6.3-7.2-9.4
			c-1.7-1.6-2.7-3.8-4.7-5.1C946.3,426.8,946.1,426.6,945.9,426.5z"/>
		<path class="st89" d="M1034,501.9c1.4-1,2.8-0.6,4.2-0.5c1.1,0.1,2.3,0.5,3.4-0.2c0.2-0.1,0.5-0.3,0.6-0.2c2.3,2,4.6,0,6.9,0.2
			c0.3,0,0.7-0.2,0.9,0c2.3,1.5,5,0.7,7.4,1.5c0.5,0.2,0.9,0.4,1,0.9c0,0.8-0.7,0.7-1.2,0.7c-1.2,0-2.4,0.1-3.5,0
			c-5.5-0.8-11.1-0.3-16.7-0.9C1035.9,503.1,1034.8,503.2,1034,501.9z"/>
		<path class="st90" d="M884.3,338.1c3-3.2,5.3-7.5,10.4-7.7c5.6-0.2,11.1,0.5,15.3,4.9c-3.2-1.8-6.5-3.4-10.2-3.9
			c-3.3-0.4-6.6-0.9-9.4,1.3c-1.8,1.3-3.2,3.1-4.8,4.7C885.3,337.7,885,338.2,884.3,338.1z"/>
		<path class="st91" d="M963.1,447.9c-0.1,1.1-0.9,1.1-1.6,0.8c-2-0.7-2.9-2.5-3.8-4.2c-0.4-0.8,0.3-1.2,0.9-1.7
			c0.6-0.5,1.1-0.1,1.3,0.4c0.8,1.5,1.5,3,2.9,4.1C963.1,447.4,963.1,447.7,963.1,447.9z"/>
		<path class="st92" d="M885.2,366.6c0.7,3.2,0.5,6.4-0.1,9.6c-0.1,0.5-0.3,0.9-0.9,0.9c-0.5,0-0.4-0.5-0.6-0.9
			c-1.4-2.7-1.1-5.8-1.8-8.6c-0.2-0.7,0.3-1.3,0.9-1.5C883.6,365.9,884.6,365.5,885.2,366.6c-3.2,1.8-1.2,4.5-1.2,6.8
			C884.2,371.1,883.9,368.7,885.2,366.6z"/>
		<path class="st93" d="M884.1,381.3c0.7,0,1.2,0.4,1.3,1.1c0,0.8-0.6,1.3-1.2,1.5c-0.7,0.2-1.2-0.3-1.2-1.1
			C882.9,382.1,883.3,381.5,884.1,381.3z"/>
		<path class="st66" d="M946.5,426.9c2.3,1,3.5,3.1,4.7,5.1C949,430.9,948.1,428.6,946.5,426.9z"/>
		<path class="st94" d="M343.6,362.1c0.8-5.8,0.5-11,0.8-16.1c0.1-1.7,0.4-3.4,1.2-4.9c1.3-2.6,3-3.1,5.7-1.8
			c9.6,4.3,18.6,9.8,28.1,14.3c1,0.5,2.2,0.9,3.3,1.3c0.6,0.2,1.3,0.3,1.3,1.1c0,0.7-0.7,0.8-1.2,1c-3.8,1.3-7.8,2.1-11.7,2.9
			c-5.8,1.1-11.6,1.7-17.3,3.1c-2.4,0.6-4.9,0.9-7.4,1.1C344.6,364.2,343.2,363.7,343.6,362.1z"/>
		<path class="st77" d="M405.3,328.3c1.1,0.2,2.1,0.4,3.2,0.6c0.5,0.3,1,0.6,1.5,0.8c1.3,2.6,1.6,5.6,3.3,8.1
			c2.9,4.3,6.8,6.3,11.9,6.4c4,0,7.7-0.4,10.8-3.2c0.7-0.6,2.3-0.1,1.9-1.8c0.3,0,0.7-0.2,0.8,0c1,0.9,2.8,0.8,3.5,2.1
			c0.1,1.9-0.1,3.3-2.7,3.1c-2.5-0.1-4.4,2-6.8,2.6c-4.7,1.3-9.2,1.6-13.8,0c-3.7-1.3-7.2-2.9-8.7-6.7
			C408.8,336.3,406.3,332.6,405.3,328.3z"/>
		<path class="st95" d="M396,190.9c0-0.1,0-0.3,0-0.4c3.6-1.1,7.2-1.6,10.9-2.1c5.9-0.8,11.8-2,17.7-3.1c2.2-0.4,2.4-2.7,3.6-4.1
			c0.5-0.5-0.4-1-1-1.3c-1.1-0.6-2.2-1.1-3.3-1.6c1.7-0.3,2.9,0.8,4.3,1.4c0.5,0.2,1,0.8,0.9,1.5c-0.1,0.9-3.6,4.7-4.5,4.9
			c-4,0.6-8,1.6-12.1,2.2c-5,0.8-10.2,1-15.1,2.6C397.1,191,396.6,190.9,396,190.9z"/>
		<path class="st45" d="M378.7,207.7c1-1.3,0.1-1.8-0.9-2.3c1.6-0.8,3.6,0,5-1.3c0.3-0.2,0.8-0.1,1,0.2c0.4,0.5,0,0.8-0.3,1.2
			C382.3,206.9,380.6,207.6,378.7,207.7z"/>
		<path class="st25" d="M382.4,150.7c1.1-0.5,2.1-1.2,2.9-2.3C385.3,150.4,384.1,150.8,382.4,150.7z"/>
		<path class="st96" d="M828.9,438.5c-1.4,1.5-1.8,4.1-4.4,4.4c-0.8,0.1-1,0.8-0.8,1.6c0.2,0.5,0.5,1.1-0.2,1.4
			c-0.5,0.2-0.9-0.2-1.2-0.4c-2.8-2.1-5.1-1.4-6.5,1.8c-0.4,0.9-0.1,1.4,0.9,1.8c0.6,0.2,1.3,0.7,1.1,1.6c-0.3,1.1-1.2,1.6-2.2,1.9
			c-0.8,0.3-1.3-0.2-1.6-0.9c-0.5-1.2-1.5-1.7-2.8-1.8c-0.6,0-1.3-0.1-1.7,0.4c-0.6,0.7,0.1,1.1,0.5,1.6c0.7,0.9,0.9,1.8,0,2.7
			c-1,1-1.6,0.4-2.1-0.5c-0.1-0.2-0.5-0.4-0.8-0.4c-1.6-0.2-4.4,0.5-1.9-2.7c0.4-0.5-0.3-1-0.7-1.3c-1.2-0.9-2.3-1.8-3.5-2.7
			c-2.3-1.8-2.8-5.3-1-7.7c1.4-1.9,3.5-1.5,5.5-1.6c3.6-0.2,7.4,0.4,10.4-2.3c0.9-0.8,1.5-0.5,2.2,0.2c0.8,0.8,1.6,1.6,2.8,1.5
			c1.8,0,3.2,0.3,3.3,2.5c0,0.8,0.8,0.8,1.5,0.6C826.9,440.1,827.9,439.2,828.9,438.5z"/>
		<path class="st96" d="M796.3,439.2c0.7,0.8,1.8,1.8,1.2,3.1c-0.4,0.9-0.4,1.5-0.2,2.4c0.2,0.7,0,1.2-0.8,1.3
			c-0.8,0.1-1.6-0.2-1.6-0.9c0.1-1.7-0.5-3.5,0.4-5.1C795.5,439.6,795.7,439.2,796.3,439.2z"/>
		<path class="st96" d="M790.4,448.8c-0.3-4.2,0.4-8.4,1.1-12.6c1.9,1.2,0.2,2.9,0.6,4.4c0.6,2.6-2,5.1-0.8,8
			C791.5,449.1,791.1,449.2,790.4,448.8z"/>
		<path class="st96" d="M796.9,450.8c-0.1-0.3-0.3-0.9-0.4-1.5c-0.1-0.6-0.1-1.3,0.6-1.6c0.6-0.3,1.2-0.3,1.7,0.1
			c0.5,0.4,0.9,0.8,0.6,1.6c-0.3,0.8-0.2,1.7-1,2.3c-0.5,0.4-0.8,1.2-1.4,1C796.2,452.4,796.8,451.7,796.9,450.8z"/>
		<path class="st96" d="M813.3,456.8c-0.3-0.1-0.5-0.3-0.8-0.4c1-1.1,0-2.3-0.1-3.6C815.1,454.5,815.1,454.5,813.3,456.8
			C813.3,456.8,813.3,456.8,813.3,456.8z"/>
		<path class="st96" d="M820.6,447.4c-0.1,0.8-0.7,1.3-1.4,1.4c-0.6,0.1-1.1,0-1.2-0.7c-0.1-0.8,0.3-1.4,1.1-1.5
			C819.8,446.5,820.4,446.7,820.6,447.4z"/>
		<path class="st96" d="M811.7,457.9c0.1,0.5-0.3,0.7-0.7,0.7c-0.7,0-0.9-0.4-1-0.9c-0.1-0.4-0.2-0.8,0.4-0.8
			C811,456.9,811.4,457.4,811.7,457.9z"/>
		<path class="st96" d="M790.5,454c0-0.9,0-1.9,0-2.8C791.6,452.1,792.9,453,790.5,454z"/>
		<path class="st96" d="M831.6,442.4c0,0.6-0.4,1.1-0.9,1.4c-0.9-0.8-0.4-1.4,0.3-1.9C831.4,441.5,831.5,442,831.6,442.4z"/>
		<path class="st97" d="M791.8,322.7c0.3,4.7,0.1,9.3,0,14c-1.4,0.2-1.8-1-2.3-1.9c-0.7-1.2-0.9-2.6-1.5-3.9c-1-2-2-2.3-3.9-1.1
			c-1.2,0.7-2,1.9-3.3,2.5c-1.2,0.6-1.3,0.5-1.6-0.8c1.8-3.9,3.4-8,5.5-11.8C787.8,319,790.3,319.5,791.8,322.7z"/>
		<path class="st98" d="M779.2,331.6c0.2,1,0.6,0.7,1.3,0.4c1.5-0.8,2.5-2.3,4-3.1c1.8-0.9,3-0.6,3.7,1.2c0.6,1.4,1.1,2.9,1.7,4.3
			c0.4,0.9,0.8,1.8,1.8,2.3c0.5,2-1.4,1.7-2.3,2.4c-1.4-0.2-2.3-1.4-3-2.4c-1-1.5-2.1-1.5-3.6-1.2c-1.7,0.4-3.2,1-4.7,1.9
			c-1,0.7-1.4,0.4-1.5-0.7C777.7,335,778.4,333.3,779.2,331.6z"/>
		<path class="st99" d="M791.8,322.7c-0.6-0.3-1.1-0.7-1.6-1.2c-1-1.3-2.3-2-4-1.1c-0.7,0.4-1.3,0.4-1.5-0.5
			c2.2-4.9,4.4-9.9,6.5-14.8c0.2,0,0.4,0.1,0.5,0.1C791.8,311,791.8,316.8,791.8,322.7z"/>
		<path class="st100" d="M804,340c-0.9,2.3-0.2,4.6-0.5,6.9c-0.1-0.1-0.3-0.2-0.3-0.3c-0.7-3-0.7-3-4.2-2.5c-2.8,0.4-7-1.7-8.1-4.1
			C795.3,340,799.6,340,804,340z"/>
		<path class="st101" d="M858.6,308.6c-2,2.6-4.9,2.4-7.7,2.4c-3.3,0-6.5,0-9.8,0c-0.7,0-1.6,0.3-2.2-0.4c1.1-1.2,2.6-0.7,3.9-0.8
			c1.1-0.1,1.9,0,1.5-1.6c-0.6-2.3,0.1-3.4,2.2-4.7c5.9,0,11.8,0,17.8,0c0.2,1.2-0.9,1.5-1.6,2C861.1,306.4,859.7,307.3,858.6,308.6
			z"/>
		<path class="st102" d="M858.6,308.6c-0.1-1.3,0.7-1.9,1.7-2.5c1.3-0.8,2.9-1.3,3.9-2.6c1.6,0,3.2-0.6,4.7,0.5c0.1,1.4,0,2.5-1.7,3
			c-2.4,0.7-0.8,2.9-1.3,4.3c-0.1,0.3,0.1,0.7,0.2,1.1c-1.2-0.5-0.8-1.5-0.9-2.4c0-0.5-0.2-0.9-0.8-0.9c-0.6,0-0.9,0.4-0.7,0.9
			c0.6,2.7-1.1,4-3.1,4.9c-1.2,0.6-1.5,1.5-1.5,2.8c-0.1,1.6,0.6,3.3-0.4,4.9c0.1-3.8,0.3-7.5,0.4-11.3
			C859,310.4,859.2,309.5,858.6,308.6z"/>
		<path class="st103" d="M846.5,303.6c-1.5,1.8-2.9,3.6-0.9,6.1c0.7,0.8-0.4,0.9-1,0.9c-1.9,0.1-3.8,0.1-5.8,0.1
			c-0.9-2.1-0.4-4.3-0.3-6.4c0-1,1-0.8,1.6-0.8C842.3,303.5,844.4,303.5,846.5,303.6z"/>
		<path class="st104" d="M838.6,328.3c0.9,0.7,1.9,0.5,2.9,0.5c8.9,0,17.7,0.1,26.6,0.1c-0.7,0.6-1.5,0.3-2.2,0.3
			c-8.4,0-16.7,0-25.1,0C840,329.2,838.8,329.8,838.6,328.3z"/>
		<path class="st104" d="M846.5,320.8c-2.4,0.2-4.1,2.3-6.5,2.4c-0.8,0-0.9,0.6-1,1.3c-0.1,0.8,0.3,1.7-0.4,2.4
			c-0.6-6.2-0.6-6.2,5.4-6.2C844.8,320.7,845.6,320.8,846.5,320.8z"/>
		<path class="st0" d="M868.4,340c0.1,0.3,0.9,0.9,0.1,1c-0.8,0.1-1.9,0.2-2.3-0.9C866.9,340,867.7,340,868.4,340z"/>
		<path class="st105" d="M721.1,315.3c0,7.6-5.3,13.1-11.8,14c-4.3,0.6-8.2,0.2-11.9-2c-4.9-3-7.3-8.3-6.2-13.2
			c1.2-5.6,5.7-9.8,11.4-10.6c4.7-0.6,9.3-0.3,13.3,2.7C719.3,308.8,721,312.2,721.1,315.3z"/>
		<path class="st106" d="M811.1,426.5c1.8,0,3.5,0,5.2,0c1.3,0,2.5,0.4,2.6,2c0.1,1.8-1.1,2.3-2.5,2.5c-0.5,0.1-1.1,0.1-1.6,0
			c-1.7-0.3-2.2,0.5-2,2.1c0.1,0.4,0.6,0.9-0.1,1.1c-0.5,0.1-1.2,0.2-1.6-0.1c-0.5-0.3,0.2-0.7,0.2-1.2
			C811.4,430.9,811.6,428.7,811.1,426.5z"/>
		<path class="st107" d="M808.8,434.3c-1.2,0.1-2.1,0.4-2.6-1.2c-0.5-1.6-3.9-1.4-4.9,0.1c-0.6,1-0.6,1-1.8,1c1-2.3,2.1-4.6,3.1-7
			c0.3-0.7,0.7-0.6,1.3-0.7c0.8-0.1,1.2,0.2,1.5,1C806.4,429.7,807.6,431.9,808.8,434.3z"/>
		<path d="M821.3,430.2c0-1,0-2-0.2-3c-0.1-0.8,0.3-0.8,0.7-0.8c0.5,0,0.9,0,0.8,0.7c-0.1,0.8-0.5,1.9,0.5,2.3
			c1.2,0.5,2.5,0.3,3.7,0.1c1.2-0.2,1-1.3,0.8-2.1c-0.1-0.6-0.3-1,0.6-1.1c0.9,0,0.9,0.4,0.9,1.1c-0.1,1.9-0.1,3.7,0,5.6
			c0,0.6,0.3,1.2-0.7,1.2c-1,0-0.9-0.5-0.7-1.2c0.4-1.9-0.4-2.7-2.4-2.6c-1.8,0.1-3.2,0.1-2.8,2.5c0.1,0.5,0.5,1.2-0.6,1.3
			c-1.2,0.1-0.9-0.7-0.8-1.3C821.3,432.1,821.2,431.2,821.3,430.2C821.3,430.2,821.3,430.2,821.3,430.2z"/>
		<path class="st17" d="M831.6,426.5c1.5-0.4,2.5,0,3.2,1.6c0.7,1.7,1.7,1.5,2.7,0.1c0.6-0.9,0.9-2.3,2.7-1.6
			c-0.8,1.2-1.6,2.3-2.5,3.4c-0.7,0.9-1.2,1.9-0.8,3c0.3,0.9,0.2,1.3-0.9,1.3c-1,0-1.2-0.2-1.2-1.3
			C835,430.9,834.9,430.8,831.6,426.5z"/>
		<path class="st85" d="M817.9,302.5c0.9-1.1,2.5-0.7,3.6-1.6c0.3-0.3,1-0.2,0.9,0.5c-0.9,6.3,0,12.6-0.2,18.9
			c-0.1,1.9-0.5,3.7-0.6,5.5c0,0.3-0.2,0.7-0.1,1.1c0.8,3.3,0.8,3.3-2.6,4.1c-0.7-1.2-0.2-2.5-0.1-3.6c0.6-6.1,0.6-12.3,0.6-18.4
			c0-1.8-0.1-3.6-0.1-5.4C819.3,302.5,818.6,302.7,817.9,302.5z"/>
		<path class="st108" d="M720.3,430.2c0-1.3-0.5-2.7,1.8-2.5c1.8,0.1,3.1,0.5,3.2,2.5c0.1,1.8-1,2.7-3.2,2.7
			C720.3,432.9,720.3,432.9,720.3,430.2z"/>
		<path class="st109" d="M532.4,433c-1.5-0.3-3-0.8-3.1-2.6c-0.1-1.8,1.2-2.5,2.9-2.6c1.7-0.1,3.1,0.6,3.2,2.5
			C535.4,432.2,533.8,432.6,532.4,433z"/>
		<path class="st110" d="M466.3,432.9c-1.3-0.4-2.8-0.9-2.6-2.8c0.2-1.9,1.7-2.4,3.4-2.2c1.5,0.1,2.6,0.9,2.7,2.6
			C469.8,431.8,467.9,433.1,466.3,432.9z"/>
		<path class="st109" d="M560.7,433c-1.4-0.4-3-0.8-3-2.6c0-1.9,1.4-2.6,3.2-2.5c1.7,0,2.9,0.8,2.9,2.6
			C563.7,432.2,562.2,432.6,560.7,433z"/>
		<path class="st111" d="M653.6,433c-1.6-0.2-3.1-0.8-3.2-2.5c-0.1-1.7,1.2-2.6,2.9-2.6c1.8-0.1,3.2,0.6,3.3,2.4
			C656.6,432,655.1,432.6,653.6,433z"/>
		<path class="st112" d="M793.4,427.8c0.8,0.2,2.5-0.4,2.3,1c-0.2,1.7-2,0.7-3.1,1c-0.8,0.2-1.3,0-1.3-1
			C791.4,427.1,792.7,428,793.4,427.8z"/>
		<path class="st113" d="M585.7,427.8c1,0.2,2.4-0.4,2.5,0.8c0.1,1.3-1.2,1.1-2.1,1.1c-0.8,0-2.1,0.5-2.1-1
			C584,427.1,585.3,428.2,585.7,427.8z"/>
		<path class="st114" d="M747.3,431.2c0.3-1,0.4-1.7,1.1-2.1c0.5,0.5,1,1.2,0.8,1.7C748.9,431.5,748.1,431,747.3,431.2z"/>
		<path class="st114" d="M694.6,460.8c-0.6,0.3-1.4,0.5-1.7,0c-0.5-0.7,0.4-1.2,0.7-2C694.3,459.5,694.5,460.1,694.6,460.8z"/>
		<path class="st115" d="M439.6,428.8c0.7,0.8,1,1.4,1,2.1c-0.7,0.2-1.6,0.5-1.9-0.1C438.6,430.4,439.3,429.6,439.6,428.8z"/>
		<path class="st116" d="M698.5,431c0.3-0.7,0.6-1.4,0.9-2c1,0.3,0.9,1.2,1.2,1.8C700,431.3,699.3,431.1,698.5,431z"/>
		<path class="st117" d="M558.6,463c-0.7-0.2-1.9,0.4-1.8-0.9c0-1.2,1-0.7,1.6-0.7c0.7,0,1.9-0.2,1.9,0.7
			C560.4,463.3,559.1,462.7,558.6,463z"/>
		<path class="st118" d="M558.3,460.1c-0.5-0.2-1.6,0.4-1.5-0.7c0-1.1,1-0.6,1.6-0.7c0.6,0,1.7-0.3,1.7,0.6
			C560.1,460.5,559,459.9,558.3,460.1z"/>
		<path class="st119" d="M885.2,366.6c-0.7,2.8,0.2,5.7-1,8.6c-1.6-2.3-1.4-4.9-1.6-7.3C882.6,365.9,884.2,366.7,885.2,366.6
			L885.2,366.6z"/>
		<path class="st120" d="M814.8,427.8c0.8,0.3,2.2-0.5,2.2,0.9c0,1.3-1.4,0.9-2.2,0.9c-0.7,0-1.9,0.5-1.9-0.9
			C812.9,427.2,814.1,428.1,814.8,427.8z"/>
		<path class="st121" d="M802.7,431.2c-0.2-1,0.4-1.4,0.7-2.5c0.5,1,1.7,1.1,1.4,2C804.5,431.7,803.4,430.8,802.7,431.2z"/>
	</g>
</g>
</svg>
