<?xml version="1.0" encoding="utf-8"?>
<!-- Generator: Adobe Illustrator 21.1.0, SVG Export Plug-In . SVG Version: 6.00 Build 0)  -->
<svg version="1.1" id="Layer_1" xmlns="http://www.w3.org/2000/svg" xmlns:xlink="http://www.w3.org/1999/xlink" x="0px" y="0px"
	 viewBox="0 0 1274 690" style="enable-background:new 0 0 1274 690;" xml:space="preserve">
<g>
	<g>
		<path d="M481.8,305.2c4.8-1.8,9.2-3.6,13.9-4.4c10.5-1.7,18.9,4.7,20,15.1c0.4,3.2,0.2,6.5,1.3,9.6c1,3.1,1.9,3.5,4.7,1.8
			c6.7-4.1,10.9-10,14-17.2c6.7-15.6,14-30.8,21.1-46.2c0.4-0.8,1.3-1.7,0.7-2.5c-0.6-0.9-1.7-0.2-2.5,0c-2.6,0.6-5.3,1.1-7.9,1.8
			c-5.2,1.3-10.1,3.1-14.1,6.9c-1.5,1.4-3.2,2.6-5.2,3.4c-1.8,0.7-3.7,1.4-4.9-0.9c-1.2-2.2-0.6-4.1,1.2-5.5
			c3.1-2.4,6.5-4.1,10.2-5.4c7.7-2.7,15.8-4.3,23.8-6.3c2.2-0.6,3.5-1.6,4.5-3.7c10.7-23.2,21.6-46.4,34.9-68.3
			c3.4-5.6,7.2-11,12.1-15.5c4.6-4.2,10.1-6.2,16.2-6.3c6.5-0.1,10,3.5,9.8,9.9c-0.3,11.2-3,21.9-6.1,32.6
			c-1.8,6.1-3.9,12.2-6.4,18.1c-0.3,0.6-0.9,1.4-0.4,2c0.6,0.7,1.3-0.1,1.9-0.3c3.2-1.3,6.3-2.7,9.5-3.8c1.8-0.7,2.3-2.1,2.9-3.6
			c2.8-7.3,6.3-14.1,11.9-19.8c12.9-13.1,33.2-15.2,48.5-4.9c3.1,2.1,6,4.3,8.6,6.9c6,5.9,7.6,13,6.4,21c-1.3,8.2-11.1,10.6-17,7
			c-2.4-1.4-2.6-4.1-2.4-6.5c0.3-2.2,0.3-4.3-0.2-6.4c-1.2-5.1-2.9-10.1-5.1-14.8c-2.1-4.4-5.9-7.3-10.2-9.3c-3.3-1.6-5.2-1-7.6,1.8
			c-4.2,5.1-6,11.2-7.9,17.3c-6.1,20.3-9.3,41.3-12.5,62.2c-0.7,4.5-1.5,9.1-2.1,13.6c-0.4,2.9-0.1,3.2,2.6,2
			c6.9-2.9,14-4.5,21.6-4.1c1.8,0.1,3.6,0.4,5.2,1.2c2.1,1,2.5,2.8,0.9,4.3c-2.3,2.1-5,3.6-8.1,4.1c-2,0.3-3.8-0.4-4.4-2.6
			c-0.7-2.2-2-2.3-3.7-1.3c-4.7,2.6-9.5,5.2-14.3,7.7c-1.4,0.7-1.8,1.9-2,3.3c-3.3,21.6-6.4,43.3-10.7,64.7
			C627.9,397,616.1,428,599,457c-7.1,12.1-15.2,23.4-25.6,32.9c-7,6.4-15.1,10.4-24.9,10c-3.6-0.1-6.6-1.2-9.1-3.9
			c-3.7-4.1-7-8.4-9.2-13.6c-4.3-10.3-8.2-20.8-10.6-31.7c-0.6-2.6-0.2-5,0.9-7.3c0.5-1,1-2.3,2.3-2.4c1.5-0.1,2.1,1.2,2.8,2.2
			c1.2,1.9,2.2,3.9,2.6,6.2c1.8,11.8,6.5,22.6,11.2,33.5c1.2,2.8,2.2,5.7,3.9,8.3c1.3,1.9,2.5,2.3,4.7,0.9
			c8.3-5.6,14.6-13.1,20.2-21.2c21.1-30.6,34.9-64.3,43-100.5c4.2-19.1,7.1-38.4,10-57.7c0.1-0.7,0.5-1.5,0-2.1
			c-0.8-0.7-1.5,0.1-2.2,0.5c-9.1,4.6-17.9,9.6-27.3,13.7c-3.6,1.5-7.1,3-10.8,4.1c-2.3,0.7-4.7,1.2-7.2,0.9
			c-1.1-0.1-2.3-0.2-2.5-1.5c-0.2-1.2,1-1.6,1.9-2c3.4-1.5,6.8-2.9,10-4.7c12.6-7,25.1-14.2,38-20.6c1.7-0.8,2.3-2.1,2.6-3.8
			c2.6-19.4,5.1-38.9,8.3-58.3c0.5-3.3,1.2-6.5,1.8-9.8c0.1-0.6,0.5-1.3-0.1-1.7c-0.5-0.3-1,0.2-1.5,0.4c-5.1,3.2-10.2,6.4-15.3,9.7
			c-0.9,0.5-1.5,1.3-1.9,2.2c-7.7,14.6-17.7,27.5-28,40.3c-8.4,10.4-16.9,20.9-26.8,30c-6.8,6.2-11.6,13.3-15,21.9
			c-8.2,20.7-15.7,41.6-19.3,63.7c-0.5,3.3-1,6.6-1.5,9.9c-0.2,1.2,0,1.8,1.4,1.9c2.1,0.2,3.4,1.6,3.9,3.6c0.5,2-0.6,3.5-2.1,4.6
			c-4.4,3.1-9.1,3.2-13.9,1.2c-4.2-1.7-5.8-5.3-6.2-9.7c-1-11.5,1.6-22.6,4.4-33.6c3.3-12.9,7.8-25.3,12.7-37.6
			c1.2-2.9,1.1-2.8-2-2.9c-10.2-0.3-20.5-5.6-22.3-16.2c-0.4-2.5-0.4-5-0.1-7.5c0.1-0.7,0.6-1.6-0.1-2c-0.8-0.6-1.5,0.2-2.2,0.7
			c-2.6,2-5.2,3.9-7.6,6.1c-8.9,8.3-17.1,17.3-24.3,27.1c-3.5,4.8-5,10.5-7.5,15.8c-3.3,7-6.3,14.1-9.2,21.3
			c-3,7.4-8.2,8.3-15.5,6.8c-4-0.8-5.6-4.2-4.6-8.7c1.1-4.8,3.2-9.4,5.3-13.9c2.1-4.5,4.4-8.9,7.3-12.9c7.4-10.7,12.4-22.7,18.9-34
			c3.5-6.2,7-12.4,11-18.3c2.4-3.5,8.4-4.9,12.1-3c1.8,0.9,1.7,2.3,1.1,3.9C483.8,300.5,482.8,302.8,481.8,305.2z M618.4,175.5
			c-13.8,22.2-23.5,46.3-34.2,70c3.6-1.1,6.5-3,9.6-4.5c2.6-1.2,4.2-3.1,5.5-5.6c6.2-11.9,11.2-24.4,14.8-37.3
			C616.2,190.7,617.9,183.2,618.4,175.5z M589.2,252.1c-2.9,1-5.1,1.8-7.3,2.5c-1.9,0.6-3,1.7-3.8,3.5c-1.8,4.2-3.8,8.3-5.7,12.5
			c-1.1,2.5-2.3,5.1-3.4,7.6C576.3,270.1,583.2,261.9,589.2,252.1z"/>
		<path d="M775.7,366.2c-4.8,2.6-9,5.8-13.6,8.5c-9.5,5.7-19.6,7.8-30.6,5.3c-2.3-0.5-4.5-1.3-6.6-2.3c-5-2.5-7.6-6.3-7.4-12.1
			c0.1-3.8,0.4-7.5,0.8-11.3c-3.2,5-6.4,10-10.3,14.4c-5.7,6.5-12.1,12-19.9,15.9c-11.5,5.7-27.6,1.7-33.2-4.4
			c-2-2.2-3.1-4.6-3.2-7.5c-0.2-10.4,2.8-20,8.3-28.7c9.4-14.7,21.8-26.5,36.6-35.7c3.1-1.9,6.4-3.2,10.1-3.6c5.3-0.7,10-3.5,15-5.1
			c6.2-2,12.3-4,18.5-6c1.4-0.4,2.8-0.7,4.3-0.6c0.7,0.1,1.9-0.4,2.1,0.6c0.2,0.8-0.9,1.2-1.5,1.7c-2,1.5-4.3,2.2-6.6,2.9
			c-5.5,1.8-10.8,3.9-15.9,6.7c-1.5,0.8-2.4,1.8-2.8,3.6c-0.4,2.1-2.3,3.8-2.4,6.2c-0.1,1.9-0.1,3.6,1.2,5.1c3.3,3.9,6.5,7.8,6,14
			c2.1-2.3,2.8-4.6,3.9-6.5c9.7-16.3,21-31.7,32.1-47.1c14.2-19.5,29.9-37.6,47.5-54.1c3.6-3.4,7.5-6.6,13-6.2
			c1.7,0.1,3.6,0.2,4.4,2c0.8,1.8-0.6,3-1.8,4.2c-22.5,21.4-39.4,47.1-56.1,73c-9.1,14.2-17.1,29-23.5,44.6
			c-4,9.7-5.8,19.6-4.7,30.1c0.3,2.7,1,3.2,3.4,1.8c6.4-3.8,12.2-8.4,17.9-13.1c12.9-10.6,25.2-22,37.8-33
			c6.2-5.4,10.5-12.5,15.8-18.8c3-3.5,6-7,9.4-10.1c4.4-4,9.5-5.4,15.3-3.9c4.6,1.1,5.6,3.6,2.9,7.5c-2.2,3.1-4.6,6-7.5,8.5
			c-10.3,9-17.3,20.4-24.6,31.7c-5.1,7.9-9.6,16-13.3,24.7c-2.5,6-3.8,12.2-3.4,18.6c0.1,2.1,1.3,1.8,2.6,1.4
			c5.4-1.7,10.4-4.5,15.3-7.3c12.1-6.9,24.1-14,36.2-21c2-1.1,3.2-2.6,4-4.8c3.3-8.5,8.8-15.7,14.5-22.7
			c8.4-10.2,17.6-19.7,27.7-28.3c0.1-0.1,0.2-0.1,0.2-0.2c1.9-5.9,7.9-5.3,12.2-7.2c4.5-2.1,9.5-2.8,14.5-2.6
			c8.3,0.3,11.7,4.4,10.4,12.6c-0.4,2.6-1.1,5.1-2.5,7.4c-0.9,1.5-0.5,2.5,1,3.3c2.2,1.3,4.6,2.5,6.2,4.7c2.7,3.6,2.7,7.8,2,11.9
			c-1.3,7.8-4.5,15-8.6,21.7c-7.7,12.6-16.8,24.1-28.7,33c-12.8,9.6-26.7,11.6-41.5,5.2c-8.2-3.5-12.7-9.5-11.7-18.9
			c0-0.4,0.1-0.7,0-1.1c-0.1-1,0.5-2.2-0.4-2.8c-0.9-0.6-1.8,0.5-2.6,1c-11.1,6.4-21.9,13.3-34,17.7c-10.6,3.9-21.2,3.7-31.7-0.4
			c-5.2-2-6.9-5.3-6.2-10.9c0.3-2.3,0.7-4.6,1.4-6.9C774.1,370.5,775,368.4,775.7,366.2z M915.4,331.6c-0.1-0.6,0.3-1.5-0.5-1.8
			c-0.8-0.4-1.3,0.4-1.8,0.8c-11.7,8.6-23.9,16.3-36.5,23.5c-1.4,0.8-2.3,1.8-2.9,3.4c-1.7,4.9-3.1,10-3.9,15.1
			c-0.9,6.4,0.2,12.6,2.1,18.6c1,3.3,3.2,3.9,6,1.9c1.8-1.2,3.5-2.6,5-4.1c13.2-12.8,21.7-28.5,28.8-45.2
			C913.4,339.9,914.8,336,915.4,331.6z M706.2,327.4c1-4.1-0.8-7.7-3.7-11.1c-1.2-1.4-2-1.6-3.2-0.3c-1.8,2-3.7,3.9-5.5,5.9
			c-9.8,11.2-17.1,23.7-21.7,37.9c-2.1,6.5-2,13.1-1.3,19.7c0.3,3.4,1.7,4,4.7,2.3c1.8-1,3.4-2.3,4.9-3.8c6.8-6.5,12-14.3,16.9-22.3
			C702.6,347.2,706.6,338.3,706.2,327.4z M881.9,339.8c7.3-4.1,14.4-8.6,20.4-14.5c2.5-2.5,4.2-5.6,5.1-9.1c0.4-1.6,0.3-2.7-1.3-3.6
			c-1.7-1-2.7-0.3-3.7,0.9c-4.5,4.9-9,9.8-13.1,15C886.5,332,884,335.8,881.9,339.8z"/>
		<path d="M365.8,198.3c-4.4,1.8-8.7,3.6-13.1,5.5c-10,4.3-20.4,7.6-30.9,10.6c-2.7,0.8-5.2,1.9-7.2,4.1c-1.6,1.7-4.3,1.9-5.7,3.9
			c-0.1,0.2-0.6,0.2-0.8,0.1c-2.9-1.4-6.4-1.2-9.2-2.8c-2.2-1.3-2.2-3.9,0.2-5.4c1.7-1.1,3.7-2,5.7-2.5c13.1-3.6,25.3-9.3,37.6-15
			c9.1-4.2,18.4-7.8,27.9-10.8c1.8-0.6,3.2-1.4,4-3.2c1-2.1,2.5-3.8,4.7-4.7c6.2-2.5,12.5-2.9,18.6,0c2,1,4,1.5,6.2,1.3
			c12.5-1.1,24.2,1.6,35.2,7.3c2.5,1.3,4.7,2.9,6.9,4.7c4.8,3.9,5.2,8.7,3.2,14.1c-3.4,8.8-8.7,16.6-14.6,23.9
			c-11.8,14.7-26.5,26.3-41.8,37.2c-13.2,9.3-27.4,16.9-40.9,25.8c-2,1.3-3.2,2.9-4.2,5.1c-14.8,32-27.6,64.8-43,96.4
			c-5.8,11.8-12.4,23.1-20.1,33.9c-6.2,8.7-14.6,10.6-25.4,7.9c-1.2-0.3-2.4-0.9-3.4-1.7c-2.2-1.6-2.5-3.7-0.9-5.9
			c14.6-19.2,24.3-41,33.8-62.9c7.1-16.5,14.3-33.1,21.5-49.5c1-2.4,0.5-3-1.9-2.9c-1.6,0.1-3.2-0.3-4.7-1.1
			c-2.7-1.3-3.2-3.6-1.1-5.9c2.7-2.9,6.2-4.9,9.3-7.3c1-0.8,2-1.5,3.1-2.1c4.2-2.1,6.6-5.5,8.5-9.7c9-19.6,18.5-39,28.4-58.2
			c4.8-9.3,9.2-18.9,13.8-28.4C365.8,199.8,366.3,199.2,365.8,198.3z M361.7,267.6c0.7-0.2,0.9-0.1,1.1-0.2
			c17.4-11.6,33.5-24.6,46.4-41.2c6.7-8.6,13.3-17.3,16.3-28c0.4-1.6,1.5-2.9,2.4-4.2c3.2-4.4,2.4-6.6-2.8-8.1
			c-0.3-0.1-0.7-0.2-1-0.3c-7.6-1.8-15-0.6-22.5,0.7c-1.3,0.2-2,1.1-2.4,2.3c-1,2.4-2,4.8-3.1,7.2c-9.9,21.6-20.3,42.9-30.7,64.3
			C364,262.3,363,264.8,361.7,267.6z"/>
		<path d="M420,300.8c0.5,0.8,1.1,0.7,1.6,0.9c9.5,2.9,13.2,8.8,11.6,18.6c-1.6,10.2-5.5,19.6-10.5,28.5
			c-6.8,12.3-14.7,23.7-24.9,33.4c-6.4,6-13.9,10-22.9,9c-12.6-1.3-26.4-11.4-23.4-27.8c2.6-14.8,8.3-28.2,18.4-39.4
			c7.6-8.4,16.9-14.8,26.6-20.6c6.3-3.7,12.7-7.2,19.6-9.5c4.9-1.6,9.7-1.6,14.5,0.3c1,0.4,2.1,0.8,2,2.2c-0.1,1.2-1.1,1.5-2.1,1.8
			c-1.1,0.3-2.3,0.7-3.5,0.3C424.3,297.9,422.2,299.2,420,300.8z M416.1,303.9c-10.9,6.2-30.3,25.4-37.8,45.3
			c-4,10.6-5.1,21.6-5.5,32.8c3.1-2.7,5.7-5.5,8.3-8.3c11-11.9,19.4-25.4,26-40.1C411.3,324.3,411.4,313.7,416.1,303.9z"/>
		<path d="M850,249.2c-1.6-0.1-4,0-4.9-2.1c-1-2.3,1.3-3.7,2.7-5c2.3-2.1,5.2-2.4,8.1-1.9c2.1,0.4,2.9,2.2,2,4.4
			C856.7,247.6,854.3,249.2,850,249.2z"/>
	</g>
</g>
</svg>
