<?xml version="1.0" encoding="utf-8"?>
<!-- Generator: Adobe Illustrator 21.1.0, SVG Export Plug-In . SVG Version: 6.00 Build 0)  -->
<svg version="1.1" id="Layer_1" xmlns="http://www.w3.org/2000/svg" xmlns:xlink="http://www.w3.org/1999/xlink" x="0px" y="0px"
	 viewBox="0 0 1274 690" style="enable-background:new 0 0 1274 690;" xml:space="preserve">
<g>
	<g>
		<path d="M902,316.8c-0.1,9.1-0.1,18.2-0.3,27.3c-0.1,4.5-0.4,9-0.6,13.5c-0.1,1.5,0.3,2.9,1.4,4c4.6,4.7,9.4,9.3,15.3,12.6
			c5.4,3,8.4,2.6,12.9-1.4c16.5-15.1,27.5-33.5,35.8-53.4c0.9-2.1,1.5-4.3,0.9-6.7c-0.5-2.1,1.2-3.1,3-3.7c2.7-0.8,5.6-1,8.4-0.5
			c5,0.9,6.8,3.4,5.8,8.1c-0.9,4-2.5,7.8-4.3,11.6c-6,13-13.2,25.4-22.5,36.6c-4.3,5.3-9.3,9.9-15.6,12.9
			c-10.8,5.3-21.3,3.7-31.5-1.9c-2.5-1.4-5-2.8-7.2-4.6c-0.6-0.5-1.2-1.3-2.1-0.9c-1,0.4-0.9,1.4-0.9,2.3c-0.2,6.9-0.8,13.8-2,20.6
			c-1.1,6.8-2.8,13.3-6.8,19.2c-4.8,7-17.3,10.4-25.3,6.8c-13.3-5.9-20.3-16.2-23.5-29.1c-0.3-1.2-0.6-2.5-0.9-3.7
			c-0.8-3.4-0.9-3.5-3.7-1.1c-7.4,6.2-15.3,11.8-23.9,16.5c-9.3,5-19.2,8.8-29.8,10.3c-13.7,2-25.7-1-35.3-10.8
			c-1.8-1.9-3.1-2.1-5.5-0.7c-8,4.8-16.8,8.2-26.1,10.2c-11.8,2.5-22.6,0.4-32-6.6c-8.3-6.1-12.2-14.2-10.4-24.3
			c1.9-10.7,6.6-20.3,12.4-29.5c6.9-10.8,14.4-21.3,24.6-29.8c7.6-6.3,15.9-11.7,26.1-13.8c6.5-1.4,12.4,0.5,18.4,2.5
			c0.9,0.3,1.8,1,1.8,2.1c0,1.1-0.8,1.7-1.7,2.1c-2.7,1.1-5.5,1-8.2-0.1c-1.5-0.6-1.4-1.9-0.9-3.1c0.2-0.5,1.1-0.9,0.5-1.5
			c-0.6-0.6-1.4-0.2-2.1,0c-3.6,1.2-6.5,3.4-9.4,5.6c-12.9,10-23,22.2-31.7,35.5c-6.4,9.8-11.7,20-13.5,31.5
			c-0.6,4-1.1,8.1-0.9,12.2c0.4,7.2,4.7,12.2,11.3,13.2c3.1,0.5,6.2-0.1,9.1-1c10.9-3.4,20.2-9.4,29.2-15.8c1-0.7,1.7-1.5,1.4-2.8
			c-2.7-12,1.1-23.1,5.4-34.1c6.4-16.3,16-31.1,26-45.6c9.6-13.9,19.9-27.5,29.9-41.2c0.5-0.7,1.5-1.4,1.1-2.2
			c-0.6-1-1.8-0.5-2.7-0.3c-19.2,3.2-38.4,6.6-57.6,9.6c-15.7,2.5-31.5,4.8-47.3,6.2c-5,0.4-10,0.1-15-0.1c-1.9-0.1-3.8-0.7-5.5-1.4
			c-2.1-0.8-3.5-2.1-3.5-4.4c0-2.4,1.7-3.5,3.7-4.2c3.7-1.3,7.4-2.3,11.3-2.9c7.3-1.2,14.5-2.3,22-2.1c2.4,0.1,4.6,1.1,7,1.2
			c3.8,0.2,7.5-0.5,11.1-1.2c28.1-4.7,56.1-9.4,84.2-14.1c2.6-0.4,4.3-1.6,5.9-3.6c6.6-8.9,12.6-18.1,20.1-26.4
			c4.6-5.1,10.6-7.5,17.7-7c5.3,0.3,7.4,2.6,6.9,7.5c-0.6,6.3-2.1,12.4-3.7,18.5c-1,3.7-0.7,3.9,3.4,3.5c17.3-2,34.6-3.5,52-2.8
			c3.5,0.1,6.9,0.8,10.1,2.2c1.5,0.7,3,1.6,2.9,3.4c-0.1,1.7-1.5,2.6-3.1,3.2c-3.7,1.5-7.6,2-11.5,1.4c-5.1-0.8-10.2-0.2-15.3,0.1
			c-12.6,0.7-25.2,2.3-37.7,4c-3.6,0.5-5.7,1.6-6.8,5.2c-5.7,17.9-13.2,35.1-22.4,51.7c-9.6,17.4-21.3,33.4-35.1,48.2
			c-10.5,11.3-21.7,21.7-34.6,30.6c-2,1.3-2.6,3-1.9,5.1c0.4,1.2,0.7,2.5,1.1,3.7c2.6,6.7,8.2,9.4,16.7,8.2c7.1-1,13.6-3.5,19.6-6.9
			c16.2-9.1,30.3-20.6,42.8-33.7c1.2-1.3,1.3-2.7,1.3-4.3c0.4-6.9,2.2-13.4,5.5-19.6c3.1-5.8,8.3-8.7,15-9.3
			c2.7-0.2,4.1-1.3,5.2-3.3c6.2-11.3,11-23.1,15-35.3c1.3-3.9,2.6-7.8,3.9-11.7c0.8-2.4,2.5-3.9,5.2-4.3c0.6-0.1,1.3-0.3,1.9-0.3
			c9.6-0.3,11,1.8,11,9.3C902.3,297.4,902.1,307.1,902,316.8C902,316.8,902,316.8,902,316.8z M758.7,375.3
			c5.1-3.5,8.8-7.4,12.6-11.2c8.2-8,15.7-16.5,22.6-25.5c13.1-17.1,23.5-35.6,31.9-55c3.2-7.3,6.1-14.8,8.7-22.3
			c1-2.9,0.6-3.2-2.7-2.8c-3.8,0.4-6.2,2.1-8.4,5.2c-15.7,21.7-32.2,42.9-46.1,65.6c-7.2,11.8-13.4,24-16.9,37.2
			C759.6,369.2,758.7,371.9,758.7,375.3z M855.4,375.2c0.2,9.7,0.9,19.4,4.5,28.6c1.4,3.8,3.1,7.5,6.7,10c1.7,1.2,3.3,1.2,4.8-0.3
			c2.4-2.3,4.3-4.8,5.8-7.7c3.1-6.3,4-13.1,4.9-19.8c1.1-8,0.9-16.1,1.9-24.2c0.7-6,0-11.3-5.4-15.4c-0.4-0.3-0.7-0.8-1-1.2
			c-1.9-2.2-2.4-2.2-4.1,0.3c-4.8,7.2-10.1,14-15.9,20.4c-1.4,1.5-2.2,3.1-2.1,5.1C855.5,372.5,855.4,373.9,855.4,375.2z M884.4,329
			c-0.2-0.1-0.4-0.2-0.6-0.3c-1.7,3-3.4,5.9-5,8.9c-0.4,0.7-0.2,1.3,0.5,1.8c1.2,0.9,2.4,1.8,3.6,2.7c1,0.7,1.3,0.1,1.3-0.7
			C884.3,337.2,884.3,333.1,884.4,329z"/>
		<path d="M571.9,358.4c-5.8,6.5-11.9,12.6-18.6,18.1c-14.7,12.2-30.5,23-48.7,30.2c-8.4,3.4-17.2,5.8-26.6,3.9
			c-6.1-1.2-11.9-3.3-17-6.8c-3.8-2.6-5.4-6-4.4-10.5c1.8-8,6.2-14.7,11.2-21.1c9.5-12,20.6-22.6,32.6-32.5
			c9.3-7.7,18.5-15.4,29-21.6c6.5-3.8,13.1-7.4,20.6-9.3c7.2-1.8,13.9,0.3,20.6,2.2c1.4,0.4,2.4,1.5,2.3,2.9
			c-0.1,1.5-1.4,2.1-2.8,2.4c-1,0.2-2,0.3-3,0.5c-0.7,0.1-1.6-0.2-1.9,0.7c-0.2,0.8,0.5,1.2,1,1.7c1.6,1.7,3.3,3.4,4.8,5.2
			c4.6,5.5,6.1,8.8,7.8,17.4c2.1-3.9,4.1-7.4,6.1-11c4.4-8.1,10.1-15.4,16.7-22c4.9-4.9,10.8-8.6,17.8-10.5c3.4-0.9,6.7-0.8,10,0.3
			c2.8,0.9,3.3,3,1.1,4.9c-1.6,1.4-3.5,2.5-5.5,3.2c-2.1,0.7-3.5,2-4.8,3.6c-15.5,17.7-25.3,38-31.7,59.9
			c-3.2,10.8-5.7,21.6-7.5,32.7c-0.1,0.7-0.7,1.6,0.1,2.1c0.8,0.5,1.4-0.5,2.1-0.8c3-1.8,6-3.6,8.9-5.4c1-0.6,1.9-1.2,1-2.4
			c-5.2-6.5-3.7-13.3-1.1-20.2c4.4-11.9,12.3-21.8,20.7-31.3c7.7-8.7,16.3-16.5,26.2-23c7.7-5.1,16.1-8.7,26-7.7
			c6.2,0.6,12.1,2.1,15.5,7.7c2.2,3.7,2.6,7.7,2,11.9c-2.8,18.5-13.7,32.1-29.8,42.4c-13.2,8.4-26.7,16.3-40,24.5
			c-2.4,1.4-2.4,2.3,0.1,3.5c5.3,2.4,10.8,2.1,16.2,0.3c4.6-1.5,9.1-3,14.1-2.6c1.1,0.1,2.4-0.3,2.9,0.9c0.5,1.3-0.8,2-1.8,2.6
			c-5.2,3-11,4-16.9,4.5c-6.8,0.6-13.3-0.7-19.4-3.3c-2-0.9-3.5-0.7-5.3,0.5c-7.3,4.8-14.6,9.6-22,14.3c-1.7,1.1-2.5,2.4-2.7,4.2
			c-1.2,11.4-2.4,22.8-3.8,34.2c-2.7,23.3-6.8,46.4-17.2,68c-6.6,13.8-14.5,26.7-26.6,37c-9.6,8.1-19.9,15-33,17.1
			c-7.4,1.2-14.7,1.2-21.6-2.1c-3.1-1.5-5.1-4.1-7.4-6.4c-8.3-8.3-11.7-18.3-12.2-29.4c-0.6-13.2,1.8-26,7.7-38
			c4.5-9.1,10.8-17.1,17.5-24.9c12.8-14.7,28.3-26.6,44.2-38.1c10-7.2,20.2-14,30.4-20.8c1.5-1,2.4-2.2,2.6-4
			c2.6-20,6.8-39.6,13.5-58.8C571.9,359,571.9,358.7,571.9,358.4z M469.9,550.5c-0.2,3.8,0.1,7.5,0.7,11.2c0.2,1.6,0.6,3.2,1.1,4.7
			c2.5,7.6,9.1,10.4,16.9,7.3c14.1-5.5,25.3-14.4,34.1-25.9c9.7-12.7,16.2-26.9,21.1-41.8c3.8-11.7,6.1-23.8,7.9-35.9
			c1.3-9.4,2.5-18.9,3.6-28.3c0.1-0.9,0.5-2.1-0.5-2.6c-1.1-0.6-1.8,0.5-2.5,1.1c-10.3,7.1-20.4,14.5-30.1,22.4
			c-17.8,14.4-32.7,30.9-42.6,51.1C473.8,525.3,470.1,537.5,469.9,550.5z M560.4,331.6c0.1-4.8-2.1-9-4.9-12.9
			c-2.2-3-2.5-3.1-5.5-0.8c-14.5,10.8-28.7,22-41.4,34.7c-7.1,7.1-14.2,14.3-20.7,22c-6.6,7.9-11.4,16.5-12.9,26.6
			c-0.6,4.2,1.2,6,5.7,5.3c0.7-0.1,1.4-0.3,2.1-0.5c7.5-2.2,14.1-5.9,20.6-9.9c16.6-10.3,31.5-22.4,44.9-36.2
			C556.1,351.8,559.2,342.1,560.4,331.6z M607.6,387.6c0,0.3-0.1,0.9,0.5,1.1c0.8,0.3,1.4-0.2,2-0.6c10.5-6.2,21.5-11.8,30.9-19.6
			c10-8.2,17.7-17.7,21-30c1.6-6,1.8-12.1,2.8-18.1c0.3-1.7-0.8-1.7-2-1c-3.2,1.9-6.2,3.9-9,6.2c-7.3,6.1-14.1,12.5-20.6,19.3
			c-8.3,8.5-15.7,17.6-21.1,28C609.8,377.5,608.3,382.3,607.6,387.6z"/>
		<path d="M393.7,227.1c-7,2.6-13.1,6.2-19.3,9.8c-11.2,6.4-22.8,12.2-33.7,19c-3.4,2.2-7.3,3-11.5,2.5c-1.8-0.2-3.4-0.8-4.1-2.5
			c-0.7-1.7,0.3-3,1.6-4c4.1-3.4,9-5.8,13.5-8.6c14.2-8.5,28.3-17.1,43.7-23.7c5.1-2.2,10.1-4.3,15.2-6.3c1.8-0.7,3-1.8,3.8-3.4
			c2.5-4.6,5.4-9.1,7.7-13.8c2-3.9,5.1-6.1,9.6-6.8c4.2-0.7,8.4-0.5,12.4,1c3.6,1.4,4.5,3.3,3.1,6.7c-0.4,1-0.8,1.9-1.2,2.8
			c-0.3,0.6-0.8,1.3-0.3,1.9c0.5,0.7,1.4,0.3,2,0.1c6.9-1.4,13.8-2.5,20.8-3.2c13-1.2,25.9-1.3,38.2,3.5c2.4,0.9,4.7,1.9,6.8,3.2
			c5,3.1,6.9,7,5.6,12.5c-2.2,9.4-7.4,17.5-13.3,25.2c-14.4,18.8-33,33.3-53.5,46.1c-15.8,9.8-32.7,17.5-49.7,25.2
			c-7.4,3.3-14.6,6.9-21.9,10.4c-1.6,0.8-2.4,2-3.1,3.4c-11.3,20.7-21.4,41.9-31.2,63.3c-7.5,16.4-15.3,32.7-23.1,49.1
			c-4,8.4-17,10.4-24.1,3.8c-2-1.9-2.3-4-0.9-7.1c7.6-16.6,15.4-33.1,22.6-49.8c15-34.9,33.9-68,52.2-101.4
			c10.1-18.4,20-36.9,30-55.3C392.5,229.6,393.1,228.3,393.7,227.1z M490.9,205.9c-0.1-1.1-1-1.5-2-1.8c-2.4-0.8-4.9-1.1-7.5-1.2
			c-16.9-0.8-32.9,2.7-48.8,7.5c-2.6,0.8-4.3,2.1-5.5,4.5c-8.7,17.4-18,34.5-27.3,51.7c-7.1,13.1-14.2,26.2-21.3,39.4
			c-0.4,0.7-1.2,1.4-0.6,2.1c0.8,0.9,1.7,0,2.4-0.3c7.3-3.2,14.4-6.6,21.4-10.2c17.7-9.2,34.3-19.9,48.8-33.3
			c7.2-6.6,13.6-13.9,19.7-21.5c6.5-8,12.3-16.5,15.1-26.3c0.9-3,2.3-5.7,4.3-8.2C490.3,207.5,490.9,206.8,490.9,205.9z"/>
		<path d="M462.6,315.2c3.3-1.1,5.5-2.8,7.9-4c11.9-6.3,24.7-9.9,38.3-11.1c2.9-0.2,5.7-1.1,8.7-0.4c1,0.2,2,0.4,2.8,0.9
			c2,1.1,2,2.9,0,4c-0.9,0.5-2,0.8-3.1,1c-12.4,1.9-23,7.6-32.5,14.9c-19.2,14.8-36.9,31.1-51.9,49.8c-5.7,7.2-9.1,15.5-13.1,23.5
			c-2.6,5.2-4.9,10.4-7.4,15.6c-3.1,6.5-6.6,7.7-13.5,4.5c-4.6-2.2-8-5.6-10.5-9.8c-1.1-1.9-0.7-4-0.2-6c1.1-4.5,3.6-8.4,6.3-12.1
			c12.6-17.3,21.1-36.6,31.6-55c4.2-7.4,8.6-14.6,13.4-21.6c4.7-6.9,16.1-9.5,23.8-5.5c2.8,1.5,3.5,3.5,2.1,6.2
			C464.6,311.6,463.7,313.1,462.6,315.2z"/>
		<path d="M612.5,282c-6.4-0.1-12.5-2.1-18.6-3.7c-1.1-0.3-2.1-1-3-1.7c-2.5-1.9-2.6-4.4-0.2-6.5c2.2-2,5.1-2.8,7.9-3.3
			c7.7-1.3,15.5-1.7,23.1,0.9c2.2,0.7,4.2,1.7,5.7,3.4c3.1,3.7,2.3,6.8-2.3,8.8C621.1,281.6,616.9,282.1,612.5,282z"/>
	</g>
</g>
</svg>
