<?xml version="1.0" encoding="utf-8"?>
<!-- Generator: Adobe Illustrator 21.1.0, SVG Export Plug-In . SVG Version: 6.00 Build 0)  -->
<svg version="1.1" id="Layer_1" xmlns="http://www.w3.org/2000/svg" xmlns:xlink="http://www.w3.org/1999/xlink" x="0px" y="0px"
	 viewBox="0 0 1290 350" style="enable-background:new 0 0 1290 350;" xml:space="preserve">
<style type="text/css">
	.st0{fill:#E6E6E6;stroke:#B3B3B3;stroke-linecap:round;stroke-miterlimit:10;}
	.st1{stroke:#000000;stroke-width:0.25;stroke-miterlimit:10;}
</style>
<path class="st0" d="M812.5,338.5h-111c-3.9,0-7.1-3.2-7.1-7.1v-7.6c0-3.9,3.2-7.1,7.1-7.1h111c3.9,0,7.1,3.2,7.1,7.1v7.6
	C819.6,335.3,816.4,338.5,812.5,338.5z"/>
<path class="st0" d="M873.7,33.3H701.4c-3.9,0-7.1-3.2-7.1-7.1v-7.6c0-3.9,3.2-7.1,7.1-7.1h172.2c3.9,0,7.1,3.2,7.1,7.1v7.6
	C880.7,30.1,877.6,33.3,873.7,33.3z"/>
<path class="st0" d="M821.8,77.8H701.4c-3.9,0-7.1-3.2-7.1-7.1v-7.6c0-3.9,3.2-7.1,7.1-7.1h120.3c3.9,0,7.1,3.2,7.1,7.1v7.6
	C828.9,74.6,825.7,77.8,821.8,77.8z"/>
<path class="st0" d="M812.5,120.7H701.4c-3.9,0-7.1-3.2-7.1-7.1V106c0-3.9,3.2-7.1,7.1-7.1h111.1c3.9,0,7.1,3.2,7.1,7.1v7.7
	C819.6,117.6,816.4,120.7,812.5,120.7z"/>
<path class="st0" d="M895.1,207.3H701.4c-3.9,0-7.1-3.2-7.1-7.1v-7.6c0-3.9,3.2-7.1,7.1-7.1h193.6c3.9,0,7.1,3.2,7.1,7.1v7.6
	C902.2,204.1,899,207.3,895.1,207.3z"/>
<path class="st0" d="M812.5,250.3H701.4c-3.9,0-7.1-3.2-7.1-7.1v-7.7c0-3.9,3.2-7.1,7.1-7.1h111.1c3.9,0,7.1,3.2,7.1,7.1v7.7
	C819.6,247.2,816.4,250.3,812.5,250.3z"/>
<path class="st0" d="M843.8,294.8H701.4c-3.9,0-7.1-3.2-7.1-7.1v-9.9c0-3.9,3.2-7.1,7.1-7.1h142.3c3.9,0,7.1,3.2,7.1,7.1v9.9
	C850.9,291.6,847.7,294.8,843.8,294.8z"/>
<path class="st0" d="M785.3,165.5h-83.9c-3.9,0-7.1-3.2-7.1-7.1v-7.6c0-3.9,3.2-7.1,7.1-7.1h83.9c3.9,0,7.1,3.2,7.1,7.1v7.6
	C792.4,162.3,789.2,165.5,785.3,165.5z"/>
<g>
	<path class="st1" d="M602,23.7h-7.8V29h0.6c0.9,0,1.5,0.2,1.9,0.5c0.4,0.3,0.6,0.8,0.6,1.3c0,0.5-0.2,1-0.6,1.3
		c-0.4,0.3-1,0.5-1.9,0.5h-4.5c-0.9,0-1.5-0.2-1.9-0.5c-0.4-0.3-0.6-0.8-0.6-1.3c0-0.7,0.3-1.2,0.9-1.5c0.3-0.2,0.9-0.3,1.8-0.3
		V14.8c-0.6-0.1-1.1-0.3-1.5-0.6c-0.3-0.3-0.5-0.7-0.5-1.2c0-0.5,0.2-1,0.6-1.3c0.4-0.3,1-0.5,1.9-0.5l3.7,0c0.9,0,1.5,0.2,1.9,0.5
		c0.4,0.3,0.6,0.8,0.6,1.3c0,0.5-0.2,1-0.6,1.3c-0.4,0.3-1,0.5-1.9,0.5h-0.6v5.3h7.8v-5.3h-0.6c-0.9,0-1.5-0.2-1.9-0.5
		c-0.4-0.3-0.6-0.8-0.6-1.3c0-0.5,0.2-1,0.6-1.3c0.4-0.3,1-0.5,1.9-0.5l3.7,0c0.9,0,1.5,0.2,1.9,0.5c0.4,0.3,0.6,0.8,0.6,1.3
		c0,0.5-0.2,0.9-0.5,1.2c-0.3,0.3-0.8,0.5-1.5,0.6V29c0.9,0,1.6,0.1,1.8,0.3c0.6,0.4,0.9,0.9,0.9,1.6c0,0.5-0.2,1-0.6,1.3
		c-0.4,0.3-1,0.5-1.9,0.5h-4.5c-0.9,0-1.5-0.2-1.9-0.5c-0.4-0.3-0.6-0.8-0.6-1.3c0-0.5,0.2-1,0.6-1.3c0.4-0.3,1-0.5,1.9-0.5h0.6
		V23.7z"/>
	<path class="st1" d="M621.7,14.8V29h2.5c0.9,0,1.5,0.2,1.9,0.5c0.4,0.3,0.6,0.8,0.6,1.3c0,0.5-0.2,1-0.6,1.3
		c-0.4,0.3-1,0.5-1.9,0.5h-8.6c-0.9,0-1.5-0.2-1.9-0.5c-0.4-0.3-0.6-0.8-0.6-1.3c0-0.5,0.2-1,0.6-1.3c0.4-0.3,1-0.5,1.9-0.5h2.5
		V14.8h-4v3.4c0,0.9-0.2,1.5-0.5,1.9s-0.8,0.6-1.3,0.6c-0.5,0-1-0.2-1.3-0.6s-0.5-1-0.5-1.9v-7.1l19,0v7.1c0,0.9-0.2,1.5-0.5,1.9
		s-0.8,0.6-1.3,0.6c-0.5,0-1-0.2-1.3-0.6s-0.5-1-0.5-1.9v-3.4H621.7z"/>
	<path class="st1" d="M636.2,18.1V29h1.3c0.9,0,1.5,0.2,1.9,0.5c0.4,0.3,0.6,0.8,0.6,1.3c0,0.5-0.2,1-0.6,1.3
		c-0.4,0.3-1,0.5-1.9,0.5h-4.8c-0.9,0-1.5-0.2-1.9-0.5c-0.4-0.3-0.6-0.8-0.6-1.3c0-0.5,0.2-1,0.6-1.3c0.4-0.3,0.9-0.5,1.7-0.5V14.8
		c-0.6-0.1-1.1-0.3-1.5-0.6c-0.3-0.3-0.5-0.7-0.5-1.2c0-0.5,0.2-1,0.6-1.3c0.4-0.3,1-0.5,1.9-0.5l4,0l5,10.9l4.9-10.9l4.1,0
		c0.9,0,1.5,0.2,1.9,0.5c0.4,0.3,0.6,0.8,0.6,1.3c0,0.5-0.2,0.9-0.5,1.2c-0.3,0.3-0.8,0.5-1.4,0.6V29c0.8,0,1.3,0.2,1.7,0.5
		c0.4,0.3,0.6,0.8,0.6,1.3c0,0.5-0.2,1-0.6,1.3c-0.4,0.3-1,0.5-1.9,0.5h-4.8c-0.9,0-1.5-0.2-1.9-0.5c-0.4-0.3-0.6-0.8-0.6-1.3
		c0-0.5,0.2-1,0.6-1.3c0.4-0.3,1-0.5,1.9-0.5h1.3V18.1l-4.2,9.3h-3.2L636.2,18.1z"/>
	<path class="st1" d="M662.4,14.8V29h7.9v-3.4c0-0.9,0.2-1.5,0.5-1.9s0.8-0.6,1.3-0.6c0.5,0,1,0.2,1.3,0.6s0.5,1,0.5,1.9v7.1h-17.4
		c-0.9,0-1.5-0.2-1.9-0.5c-0.4-0.3-0.6-0.8-0.6-1.3c0-0.5,0.2-1,0.6-1.3c0.4-0.3,1-0.5,1.9-0.5h2.1V14.8h-2.1
		c-0.9,0-1.5-0.2-1.9-0.5c-0.4-0.3-0.6-0.8-0.6-1.3c0-0.5,0.2-1,0.6-1.3c0.4-0.3,1-0.5,1.9-0.5l7.9,0c0.9,0,1.5,0.2,1.9,0.5
		c0.4,0.3,0.6,0.8,0.6,1.3c0,0.5-0.2,1-0.6,1.3c-0.4,0.3-1,0.5-1.9,0.5H662.4z"/>
	<path class="st1" d="M600.1,63.6h-7.5c-0.9,0-1.5-0.2-1.9-0.5s-0.6-0.8-0.6-1.3c0-0.5,0.2-1,0.6-1.3c0.4-0.3,1-0.5,1.9-0.5h11.1
		v16.8c0,1.3-0.3,2.4-0.8,3.3s-1.4,1.8-2.5,2.5c-1.1,0.7-2.4,1-3.8,1h-4.1c-0.9,0-1.5-0.2-1.9-0.5c-0.4-0.3-0.6-0.8-0.6-1.3
		c0-0.5,0.2-1,0.6-1.3c0.4-0.3,1-0.5,1.9-0.5h4c1.1,0,2-0.3,2.6-0.9c0.6-0.6,0.9-1.4,0.9-2.3V63.6z M601.6,53.1V57h-4.4v-3.8H601.6z
		"/>
	<path class="st1" d="M623.2,76.1v-0.8c-0.9,0.5-1.9,0.8-3,1.1s-2.1,0.4-3,0.4c-2,0-3.6-0.5-4.8-1.5s-1.8-2.2-1.8-3.4
		c0-1.5,0.8-2.9,2.4-4.2c1.6-1.3,3.7-2,6.5-2c1.1,0,2.4,0.1,3.8,0.4V65c0-0.5-0.2-1-0.7-1.3c-0.5-0.3-1.4-0.5-2.7-0.5
		c-1.1,0-2.5,0.2-4.2,0.6c-0.6,0.2-1.1,0.2-1.5,0.2c-0.5,0-0.9-0.2-1.2-0.5c-0.3-0.3-0.5-0.8-0.5-1.3c0-0.3,0.1-0.6,0.2-0.8
		s0.3-0.4,0.5-0.5s0.7-0.3,1.3-0.5c0.9-0.2,1.8-0.4,2.8-0.6s1.8-0.2,2.6-0.2c2.3,0,4,0.5,5.3,1.5c1.3,1,1.9,2.3,1.9,4v7.5h0.6
		c0.9,0,1.5,0.2,1.9,0.5c0.4,0.3,0.6,0.8,0.6,1.3c0,0.5-0.2,1-0.6,1.3c-0.4,0.3-1,0.5-1.9,0.5H623.2z M623.2,69.6
		c-1.5-0.3-2.8-0.4-4.1-0.4c-1.5,0-2.8,0.4-3.8,1.1c-0.7,0.5-1,0.9-1,1.4c0,0.3,0.2,0.6,0.5,0.8c0.6,0.4,1.4,0.6,2.5,0.6
		c0.9,0,1.9-0.2,3-0.5s2.1-0.8,3-1.4V69.6z"/>
	<path class="st1" d="M641.9,71.7l4-8c-1,0-1.6-0.1-1.9-0.2c-0.6-0.4-0.9-0.9-0.9-1.6c0-0.5,0.2-1,0.6-1.3c0.4-0.3,1-0.5,1.9-0.5h5
		c0.9,0,1.5,0.2,1.9,0.5c0.4,0.3,0.6,0.8,0.6,1.3c0,0.5-0.2,1-0.6,1.3c-0.4,0.3-1,0.5-1.9,0.5H650l-6.1,12.4H640l-6.1-12.4h-0.5
		c-0.9,0-1.5-0.2-1.9-0.5s-0.6-0.8-0.6-1.3c0-0.5,0.2-1,0.6-1.3c0.4-0.3,1-0.5,1.9-0.5h4.9c0.9,0,1.5,0.2,1.9,0.5
		c0.4,0.3,0.6,0.8,0.6,1.3c0,0.7-0.3,1.2-0.9,1.5c-0.3,0.2-0.9,0.3-1.9,0.3L641.9,71.7z"/>
	<path class="st1" d="M667.2,76.1v-0.8c-0.9,0.5-1.9,0.8-3,1.1s-2.1,0.4-3,0.4c-2,0-3.6-0.5-4.8-1.5s-1.8-2.2-1.8-3.4
		c0-1.5,0.8-2.9,2.4-4.2c1.6-1.3,3.7-2,6.5-2c1.1,0,2.4,0.1,3.8,0.4V65c0-0.5-0.2-1-0.7-1.3c-0.5-0.3-1.4-0.5-2.7-0.5
		c-1.1,0-2.5,0.2-4.2,0.6c-0.6,0.2-1.1,0.2-1.5,0.2c-0.5,0-0.9-0.2-1.2-0.5c-0.3-0.3-0.5-0.8-0.5-1.3c0-0.3,0.1-0.6,0.2-0.8
		s0.3-0.4,0.5-0.5s0.7-0.3,1.3-0.5c0.9-0.2,1.8-0.4,2.8-0.6s1.8-0.2,2.6-0.2c2.3,0,4,0.5,5.3,1.5c1.3,1,1.9,2.3,1.9,4v7.5h0.6
		c0.9,0,1.5,0.2,1.9,0.5c0.4,0.3,0.6,0.8,0.6,1.3c0,0.5-0.2,1-0.6,1.3c-0.4,0.3-1,0.5-1.9,0.5H667.2z M667.2,69.6
		c-1.5-0.3-2.8-0.4-4.1-0.4c-1.5,0-2.8,0.4-3.8,1.1c-0.7,0.5-1,0.9-1,1.4c0,0.3,0.2,0.6,0.5,0.8c0.6,0.4,1.4,0.6,2.5,0.6
		c0.9,0,1.9-0.2,3-0.5s2.1-0.8,3-1.4V69.6z"/>
	<path class="st1" d="M483.5,117.6v5.9h2.2c0.9,0,1.5,0.2,1.9,0.5c0.4,0.3,0.6,0.8,0.6,1.3c0,0.5-0.2,1-0.6,1.3
		c-0.4,0.3-1,0.5-1.9,0.5h-6.5c-0.9,0-1.5-0.2-1.9-0.5c-0.4-0.3-0.6-0.8-0.6-1.3c0-0.5,0.2-1,0.6-1.3c0.4-0.3,1-0.5,1.9-0.5h0.6
		v-16.4h-0.6c-0.9,0-1.5-0.2-1.9-0.5s-0.6-0.8-0.6-1.3c0-0.5,0.2-1,0.6-1.3c0.4-0.3,1-0.5,1.9-0.5h4.3v1.2c0.9-0.6,1.7-1,2.7-1.3
		s1.9-0.4,2.8-0.4c2.5,0,4.6,0.8,6.4,2.5c1.8,1.7,2.6,3.6,2.6,5.8c0,2.4-1,4.4-3.1,5.9c-1.7,1.3-3.7,1.9-5.9,1.9
		c-0.9,0-1.9-0.1-2.8-0.4C485.3,118.5,484.4,118.1,483.5,117.6z M494.3,111.3c0-0.5-0.2-1.2-0.6-1.9s-1-1.4-1.9-2
		c-0.8-0.5-1.8-0.8-3-0.8c-1.8,0-3.3,0.7-4.3,2c-0.7,0.9-1.1,1.8-1.1,2.7c0,1,0.5,1.9,1.6,2.8c1,0.9,2.3,1.4,3.9,1.4
		c1.6,0,2.8-0.5,3.9-1.4C493.8,113.3,494.3,112.3,494.3,111.3z"/>
	<path class="st1" d="M506.2,96.6v7.7c0.8-0.4,1.5-0.8,2.3-1c0.8-0.2,1.6-0.3,2.4-0.3c1.3,0,2.4,0.2,3.4,0.6c1,0.4,1.8,1.1,2.5,2
		c0.6,0.9,1,2.1,1,3.5v6.8c0.9,0,1.5,0.1,1.8,0.3c0.6,0.4,0.9,0.9,0.9,1.6c0,0.5-0.2,1-0.6,1.3c-0.4,0.3-1,0.5-1.9,0.5h-4.2
		c-0.9,0-1.5-0.2-1.9-0.5c-0.4-0.3-0.6-0.8-0.6-1.3c0-0.7,0.3-1.2,0.9-1.5c0.3-0.2,0.9-0.3,1.8-0.3v-6.6c0-0.9-0.2-1.6-0.6-2
		c-0.6-0.5-1.4-0.8-2.5-0.8c-0.8,0-1.5,0.2-2.2,0.5c-0.6,0.3-1.5,1-2.5,2v6.8c0.9,0,1.6,0.1,1.8,0.3c0.6,0.4,0.9,0.9,0.9,1.6
		c0,0.5-0.2,1-0.6,1.3c-0.4,0.3-1,0.5-1.9,0.5h-4.2c-0.9,0-1.5-0.2-1.9-0.5c-0.4-0.3-0.6-0.8-0.6-1.3c0-0.7,0.3-1.2,0.9-1.5
		c0.3-0.2,0.9-0.3,1.8-0.3v-15.7h-0.6c-0.9,0-1.5-0.2-1.9-0.5c-0.4-0.3-0.6-0.8-0.6-1.3c0-0.5,0.2-1,0.6-1.3c0.4-0.3,1-0.5,1.9-0.5
		H506.2z"/>
	<path class="st1" d="M541.5,111.8c0,1.4-0.4,2.7-1.2,4s-1.9,2.3-3.5,3.1c-1.5,0.8-3.2,1.2-4.8,1.2c-1.7,0-3.3-0.4-4.8-1.1
		c-1.5-0.8-2.7-1.8-3.5-3.1s-1.2-2.7-1.2-4.1c0-1.5,0.4-2.9,1.2-4.3c0.8-1.4,2-2.5,3.5-3.3c1.5-0.8,3.1-1.2,4.8-1.2
		c1.7,0,3.3,0.4,4.8,1.2c1.5,0.8,2.7,1.9,3.5,3.3S541.5,110.4,541.5,111.8z M537.8,111.9c0-1.2-0.4-2.2-1.3-3.2
		c-1.2-1.3-2.7-2-4.6-2c-1.7,0-3,0.5-4.2,1.6c-1.1,1.1-1.7,2.3-1.7,3.6c0,1.1,0.6,2.2,1.7,3.2c1.1,1,2.5,1.5,4.1,1.5
		c1.6,0,3-0.5,4.2-1.5C537.3,114.1,537.8,113,537.8,111.9z"/>
	<path class="st1" d="M553.1,107.1v7.3c0,0.8,0.2,1.3,0.5,1.5c0.5,0.4,1.4,0.6,2.7,0.6c1.9,0,3.6-0.4,5.2-1.2
		c0.6-0.3,1.1-0.5,1.4-0.5c0.5,0,0.9,0.2,1.2,0.5c0.4,0.4,0.5,0.8,0.5,1.3c0,0.5-0.2,0.9-0.6,1.2c-0.6,0.6-1.7,1.1-3.5,1.5
		c-1.7,0.5-3.2,0.7-4.4,0.7c-2.3,0-4-0.5-5.1-1.5c-1.1-1-1.7-2.2-1.7-3.6v-8h-1.3c-0.9,0-1.5-0.2-1.9-0.5c-0.4-0.3-0.6-0.8-0.6-1.3
		c0-0.5,0.2-1,0.6-1.3c0.4-0.3,1-0.5,1.9-0.5h1.3v-3.3c0-0.9,0.2-1.5,0.5-1.9c0.3-0.4,0.8-0.6,1.3-0.6c0.5,0,1,0.2,1.3,0.6
		s0.5,1,0.5,1.9v3.3h6.8c0.9,0,1.5,0.2,1.9,0.5c0.4,0.3,0.6,0.8,0.6,1.3c0,0.5-0.2,1-0.6,1.3c-0.4,0.3-1,0.5-1.9,0.5H553.1z"/>
	<path class="st1" d="M585.5,111.8c0,1.4-0.4,2.7-1.2,4s-1.9,2.3-3.5,3.1s-3.2,1.2-4.8,1.2c-1.7,0-3.3-0.4-4.8-1.1
		c-1.5-0.8-2.7-1.8-3.5-3.1s-1.2-2.7-1.2-4.1c0-1.5,0.4-2.9,1.2-4.3c0.8-1.4,2-2.5,3.5-3.3c1.5-0.8,3.1-1.2,4.8-1.2
		c1.7,0,3.3,0.4,4.8,1.2c1.5,0.8,2.7,1.9,3.5,3.3S585.5,110.4,585.5,111.8z M581.8,111.9c0-1.2-0.4-2.2-1.3-3.2
		c-1.2-1.3-2.7-2-4.6-2c-1.7,0-3,0.5-4.2,1.6c-1.1,1.1-1.7,2.3-1.7,3.6c0,1.1,0.6,2.2,1.7,3.2c1.1,1,2.5,1.5,4.1,1.5
		c1.6,0,3-0.5,4.2-1.5C581.3,114.1,581.8,113,581.8,111.9z"/>
	<path class="st1" d="M601.9,107.7c-0.6-0.4-1.2-0.6-1.9-0.8c-0.7-0.2-1.3-0.3-2.1-0.3c-1.4,0-2.5,0.2-3.4,0.7
		c-0.4,0.2-0.6,0.4-0.6,0.7c0,0.3,0.2,0.5,0.8,0.8c0.4,0.2,1.2,0.4,2.6,0.5c2.4,0.3,4.1,0.7,5.1,1c1.3,0.4,2.2,1.1,2.9,1.9
		c0.7,0.9,1,1.8,1,2.7c0,1.3-0.6,2.4-1.7,3.3c-1.7,1.3-3.8,1.9-6.5,1.9c-1.1,0-2-0.1-2.9-0.3s-1.7-0.5-2.5-0.8
		c-0.2,0.2-0.4,0.3-0.6,0.4c-0.2,0.1-0.4,0.1-0.6,0.1c-0.6,0-1-0.2-1.4-0.6s-0.5-1-0.5-1.9v-1.2c0-0.9,0.2-1.5,0.5-1.9
		s0.8-0.6,1.3-0.6c0.4,0,0.8,0.1,1.1,0.4c0.3,0.2,0.5,0.7,0.7,1.2c0.6,0.5,1.2,0.8,2,1.1c0.8,0.2,1.7,0.4,2.7,0.4
		c1.7,0,3-0.3,3.9-0.8c0.4-0.3,0.7-0.5,0.7-0.8c0-0.5-0.3-0.9-0.9-1.2c-0.6-0.3-1.9-0.6-3.9-0.8c-2.9-0.3-4.9-0.9-5.9-1.8
		c-1-0.9-1.5-1.9-1.5-3.2c0-1.3,0.6-2.4,1.7-3.2c1.5-1.2,3.5-1.8,5.9-1.8c0.8,0,1.7,0.1,2.4,0.2c0.8,0.2,1.5,0.4,2.2,0.7
		c0.2-0.2,0.4-0.3,0.6-0.4c0.2-0.1,0.4-0.1,0.5-0.1c0.5,0,0.9,0.2,1.3,0.6s0.5,1,0.5,1.9v0.9c0,0.8-0.1,1.3-0.3,1.6
		c-0.4,0.5-0.9,0.8-1.6,0.8c-0.4,0-0.8-0.1-1.2-0.4C602.2,108.6,602,108.2,601.9,107.7z"/>
	<path class="st1" d="M616.1,96.6v7.7c0.8-0.4,1.5-0.8,2.3-1c0.8-0.2,1.6-0.3,2.4-0.3c1.3,0,2.4,0.2,3.4,0.6c1,0.4,1.8,1.1,2.5,2
		c0.7,0.9,1,2.1,1,3.5v6.8c0.9,0,1.5,0.1,1.8,0.3c0.6,0.4,0.9,0.9,0.9,1.6c0,0.5-0.2,1-0.6,1.3c-0.4,0.3-1,0.5-1.9,0.5h-4.2
		c-0.9,0-1.5-0.2-1.9-0.5c-0.4-0.3-0.6-0.8-0.6-1.3c0-0.7,0.3-1.2,0.9-1.5c0.3-0.2,0.9-0.3,1.8-0.3v-6.6c0-0.9-0.2-1.6-0.6-2
		c-0.6-0.5-1.4-0.8-2.5-0.8c-0.8,0-1.5,0.2-2.2,0.5s-1.5,1-2.5,2v6.8c0.9,0,1.6,0.1,1.8,0.3c0.6,0.4,0.9,0.9,0.9,1.6
		c0,0.5-0.2,1-0.6,1.3c-0.4,0.3-1,0.5-1.9,0.5h-4.2c-0.9,0-1.5-0.2-1.9-0.5c-0.4-0.3-0.6-0.8-0.6-1.3c0-0.7,0.3-1.2,0.9-1.5
		c0.3-0.2,0.9-0.3,1.8-0.3v-15.7h-0.6c-0.9,0-1.5-0.2-1.9-0.5c-0.4-0.3-0.6-0.8-0.6-1.3c0-0.5,0.2-1,0.6-1.3c0.4-0.3,1-0.5,1.9-0.5
		H616.1z"/>
	<path class="st1" d="M651.4,111.8c0,1.4-0.4,2.7-1.2,4s-1.9,2.3-3.5,3.1c-1.5,0.8-3.2,1.2-4.8,1.2c-1.7,0-3.3-0.4-4.8-1.1
		c-1.5-0.8-2.7-1.8-3.5-3.1c-0.8-1.3-1.2-2.7-1.2-4.1c0-1.5,0.4-2.9,1.2-4.3c0.8-1.4,2-2.5,3.5-3.3c1.5-0.8,3.1-1.2,4.8-1.2
		c1.7,0,3.3,0.4,4.8,1.2c1.5,0.8,2.7,1.9,3.5,3.3S651.4,110.4,651.4,111.8z M647.8,111.9c0-1.2-0.4-2.2-1.3-3.2
		c-1.2-1.3-2.7-2-4.6-2c-1.7,0-3,0.5-4.2,1.6c-1.1,1.1-1.7,2.3-1.7,3.6c0,1.1,0.6,2.2,1.7,3.2c1.1,1,2.5,1.5,4.1,1.5
		c1.6,0,3-0.5,4.2-1.5C647.2,114.1,647.8,113,647.8,111.9z"/>
	<path class="st1" d="M659.3,117.6v5.9h2.2c0.9,0,1.5,0.2,1.9,0.5c0.4,0.3,0.6,0.8,0.6,1.3c0,0.5-0.2,1-0.6,1.3
		c-0.4,0.3-1,0.5-1.9,0.5h-6.5c-0.9,0-1.5-0.2-1.9-0.5c-0.4-0.3-0.6-0.8-0.6-1.3c0-0.5,0.2-1,0.6-1.3c0.4-0.3,1-0.5,1.9-0.5h0.6
		v-16.4h-0.6c-0.9,0-1.5-0.2-1.9-0.5c-0.4-0.3-0.6-0.8-0.6-1.3c0-0.5,0.2-1,0.6-1.3c0.4-0.3,1-0.5,1.9-0.5h4.3v1.2
		c0.9-0.6,1.7-1,2.7-1.3c0.9-0.3,1.9-0.4,2.8-0.4c2.5,0,4.6,0.8,6.4,2.5s2.6,3.6,2.6,5.8c0,2.4-1,4.4-3.1,5.9
		c-1.7,1.3-3.7,1.9-5.9,1.9c-0.9,0-1.9-0.1-2.8-0.4C661.2,118.5,660.3,118.1,659.3,117.6z M670.2,111.3c0-0.5-0.2-1.2-0.6-1.9
		s-1-1.4-1.9-2c-0.8-0.5-1.8-0.8-3-0.8c-1.8,0-3.3,0.7-4.3,2c-0.7,0.9-1.1,1.8-1.1,2.7c0,1,0.5,1.9,1.6,2.8c1,0.9,2.3,1.4,3.9,1.4
		c1.6,0,2.8-0.5,3.9-1.4C669.7,113.3,670.2,112.3,670.2,111.3z"/>
	<path class="st1" d="M416.7,162.1c-0.3,0.4-0.6,0.6-0.8,0.7c-0.2,0.1-0.4,0.2-0.7,0.2c-0.6,0-1-0.2-1.4-0.6s-0.5-1-0.5-1.8v-2.4
		c0-0.9,0.2-1.5,0.5-1.9s0.8-0.6,1.4-0.6c0.4,0,0.8,0.1,1.1,0.3s0.5,0.6,0.7,1.1c0.2,0.5,0.3,0.9,0.5,1.1c0.3,0.4,1,0.7,1.8,1.1
		s1.8,0.6,2.9,0.6c1.6,0,3-0.4,4-1.1c0.7-0.5,1-1,1-1.7c0-0.4-0.2-0.9-0.5-1.3c-0.3-0.4-0.8-0.7-1.6-1c-0.5-0.2-1.5-0.4-3.2-0.7
		c-2-0.4-3.5-0.8-4.5-1.3c-1-0.5-1.8-1.3-2.4-2.2c-0.6-0.9-0.9-2-0.9-3.1c0-1.7,0.7-3.3,2.2-4.6c1.5-1.3,3.4-2,5.7-2
		c0.9,0,1.8,0.1,2.6,0.3c0.8,0.2,1.5,0.5,2.2,0.9c0.5-0.5,1-0.7,1.4-0.7c0.5,0,1,0.2,1.3,0.6s0.5,1,0.5,1.8v2.7
		c0,0.9-0.2,1.5-0.5,1.9s-0.8,0.6-1.3,0.6c-0.5,0-0.8-0.1-1.2-0.4c-0.3-0.2-0.5-0.6-0.6-1.2c-0.1-0.6-0.3-1-0.5-1.3
		c-0.3-0.4-0.9-0.8-1.6-1.1c-0.7-0.3-1.5-0.5-2.4-0.5c-1.3,0-2.4,0.3-3.1,0.9c-0.8,0.6-1.2,1.2-1.2,1.9c0,0.4,0.2,0.9,0.5,1.3
		c0.3,0.4,0.8,0.7,1.4,1c0.4,0.2,1.5,0.4,3.4,0.8c1.9,0.4,3.3,0.8,4.3,1.2c1,0.4,1.8,1.1,2.5,2.1c0.7,0.9,1,2,1,3.3
		c0,1.8-0.6,3.2-1.9,4.3c-1.7,1.4-3.9,2.1-6.5,2.1c-1,0-2-0.1-3-0.4S417.6,162.6,416.7,162.1z"/>
	<path class="st1" d="M438.7,162.1c-0.3,0.4-0.6,0.6-0.8,0.7c-0.2,0.1-0.4,0.2-0.7,0.2c-0.6,0-1-0.2-1.4-0.6s-0.5-1-0.5-1.8v-2.4
		c0-0.9,0.2-1.5,0.5-1.9s0.8-0.6,1.4-0.6c0.4,0,0.8,0.1,1.1,0.3s0.5,0.6,0.7,1.1c0.2,0.5,0.3,0.9,0.5,1.1c0.3,0.4,1,0.7,1.8,1.1
		s1.8,0.6,2.9,0.6c1.6,0,3-0.4,4-1.1c0.7-0.5,1-1,1-1.7c0-0.4-0.2-0.9-0.5-1.3c-0.3-0.4-0.8-0.7-1.6-1c-0.5-0.2-1.5-0.4-3.2-0.7
		c-2-0.4-3.5-0.8-4.5-1.3c-1-0.5-1.8-1.3-2.4-2.2c-0.6-0.9-0.9-2-0.9-3.1c0-1.7,0.7-3.3,2.2-4.6c1.5-1.3,3.4-2,5.7-2
		c0.9,0,1.8,0.1,2.6,0.3c0.8,0.2,1.5,0.5,2.2,0.9c0.5-0.5,1-0.7,1.4-0.7c0.5,0,1,0.2,1.3,0.6s0.5,1,0.5,1.8v2.7
		c0,0.9-0.2,1.5-0.5,1.9s-0.8,0.6-1.3,0.6c-0.5,0-0.8-0.1-1.2-0.4c-0.3-0.2-0.5-0.6-0.6-1.2c-0.1-0.6-0.3-1-0.5-1.3
		c-0.3-0.4-0.9-0.8-1.6-1.1c-0.7-0.3-1.5-0.5-2.4-0.5c-1.3,0-2.4,0.3-3.1,0.9c-0.8,0.6-1.2,1.2-1.2,1.9c0,0.4,0.2,0.9,0.5,1.3
		c0.3,0.4,0.8,0.7,1.4,1c0.4,0.2,1.5,0.4,3.4,0.8c1.9,0.4,3.3,0.8,4.3,1.2c1,0.4,1.8,1.1,2.5,2.1c0.7,0.9,1,2,1,3.3
		c0,1.8-0.6,3.2-1.9,4.3c-1.7,1.4-3.9,2.1-6.5,2.1c-1,0-2-0.1-3-0.4S439.6,162.6,438.7,162.1z"/>
	<path class="st1" d="M470,154.2h-7.8v5.3h0.6c0.9,0,1.5,0.2,1.9,0.5c0.4,0.3,0.6,0.8,0.6,1.3c0,0.5-0.2,1-0.6,1.3
		c-0.4,0.3-1,0.5-1.9,0.5h-4.5c-0.9,0-1.5-0.2-1.9-0.5c-0.4-0.3-0.6-0.8-0.6-1.3c0-0.7,0.3-1.2,0.9-1.5c0.3-0.2,0.9-0.3,1.8-0.3
		v-14.2c-0.6-0.1-1.1-0.3-1.5-0.6c-0.3-0.3-0.5-0.7-0.5-1.2c0-0.5,0.2-1,0.6-1.3c0.4-0.3,1-0.5,1.9-0.5l3.7,0c0.9,0,1.5,0.2,1.9,0.5
		c0.4,0.3,0.6,0.8,0.6,1.3c0,0.5-0.2,1-0.6,1.3c-0.4,0.3-1,0.5-1.9,0.5h-0.6v5.3h7.8v-5.3h-0.6c-0.9,0-1.5-0.2-1.9-0.5
		c-0.4-0.3-0.6-0.8-0.6-1.3c0-0.5,0.2-1,0.6-1.3c0.4-0.3,1-0.5,1.9-0.5l3.7,0c0.9,0,1.5,0.2,1.9,0.5c0.4,0.3,0.6,0.8,0.6,1.3
		c0,0.5-0.2,0.9-0.5,1.2c-0.3,0.3-0.8,0.5-1.5,0.6v14.2c0.9,0,1.6,0.1,1.8,0.3c0.6,0.4,0.9,0.9,0.9,1.6c0,0.5-0.2,1-0.6,1.3
		c-0.4,0.3-1,0.5-1.9,0.5h-4.5c-0.9,0-1.5-0.2-1.9-0.5c-0.4-0.3-0.6-0.8-0.6-1.3c0-0.5,0.2-1,0.6-1.3c0.4-0.3,1-0.5,1.9-0.5h0.6
		V154.2z"/>
	<path class="st1" d="M515.8,142.5c0.2-0.3,0.5-0.5,0.7-0.7s0.6-0.2,0.9-0.2c0.5,0,1,0.2,1.3,0.5c0.3,0.4,0.5,1,0.5,1.9v3.1
		c0,0.9-0.2,1.5-0.5,1.9s-0.8,0.6-1.3,0.6c-0.5,0-0.9-0.1-1.2-0.4c-0.3-0.3-0.5-0.8-0.7-1.5c-0.1-0.5-0.3-0.9-0.5-1.2
		c-0.5-0.5-1.2-1-2-1.3c-0.9-0.3-1.8-0.5-2.6-0.5c-1.1,0-2.1,0.2-3,0.7c-0.9,0.5-1.7,1.2-2.4,2.3c-0.7,1.1-1.1,2.3-1.1,3.8v2.4
		c0,1.7,0.6,3.2,1.9,4.4s3.1,1.8,5.3,1.8c1.4,0,2.5-0.2,3.5-0.5c0.5-0.2,1.1-0.6,1.8-1.3c0.4-0.4,0.7-0.6,0.9-0.7
		c0.2-0.1,0.5-0.2,0.7-0.2c0.5,0,0.9,0.2,1.3,0.5c0.4,0.4,0.6,0.8,0.6,1.3s-0.2,1-0.8,1.6c-0.7,0.8-1.7,1.5-2.8,1.9
		c-1.5,0.6-3.2,1-5.1,1c-2.2,0-4.1-0.4-5.9-1.3c-1.4-0.7-2.6-1.8-3.6-3.4c-1-1.5-1.5-3.2-1.5-5v-2.5c0-1.9,0.4-3.6,1.3-5.3
		c0.9-1.6,2.1-2.9,3.7-3.8c1.6-0.9,3.2-1.3,5-1.3c1.1,0,2.1,0.1,3,0.4C514.1,141.7,515,142,515.8,142.5z"/>
	<path class="st1" d="M541.5,155.3c0,1.4-0.4,2.7-1.2,4s-1.9,2.3-3.5,3.1c-1.5,0.8-3.2,1.2-4.8,1.2c-1.7,0-3.3-0.4-4.8-1.1
		c-1.5-0.8-2.7-1.8-3.5-3.1s-1.2-2.7-1.2-4.1c0-1.5,0.4-2.9,1.2-4.3c0.8-1.4,2-2.5,3.5-3.3c1.5-0.8,3.1-1.2,4.8-1.2
		c1.7,0,3.3,0.4,4.8,1.2c1.5,0.8,2.7,1.9,3.5,3.3S541.5,153.9,541.5,155.3z M537.8,155.3c0-1.2-0.4-2.2-1.3-3.2
		c-1.2-1.3-2.7-2-4.6-2c-1.7,0-3,0.5-4.2,1.6c-1.1,1.1-1.7,2.3-1.7,3.6c0,1.1,0.6,2.2,1.7,3.2c1.1,1,2.5,1.5,4.1,1.5
		c1.6,0,3-0.5,4.2-1.5C537.3,157.6,537.8,156.5,537.8,155.3z"/>
	<path class="st1" d="M548.3,147v1c0.6-0.6,1.1-1,1.6-1.2c0.5-0.2,1-0.3,1.7-0.3c0.5,0,1.1,0.1,1.6,0.4c0.5,0.3,1,0.6,1.5,1.2
		c0.6-0.5,1.3-0.9,1.9-1.2c0.7-0.3,1.3-0.4,2-0.4c1.4,0,2.5,0.4,3.3,1.1c1.1,0.9,1.7,2.2,1.7,3.7v8.1c0.8,0,1.3,0.2,1.7,0.5
		c0.4,0.3,0.6,0.8,0.6,1.3c0,0.5-0.2,1-0.6,1.3c-0.4,0.3-1,0.5-1.9,0.5H560v-11.4c0-0.6-0.1-0.9-0.3-1.1s-0.5-0.3-0.9-0.3
		c-0.4,0-0.8,0.1-1.1,0.3c-0.4,0.3-1,0.8-1.6,1.7v7.3c0.8,0,1.3,0.2,1.7,0.5c0.4,0.3,0.6,0.8,0.6,1.3c0,0.5-0.2,1-0.6,1.3
		c-0.4,0.3-1,0.5-1.9,0.5h-3.5v-11.4c0-0.5-0.1-0.9-0.3-1.1s-0.5-0.3-0.9-0.3c-0.4,0-0.9,0.1-1.3,0.4c-0.4,0.3-0.9,0.8-1.5,1.6v7.3
		c0.8,0,1.3,0.2,1.7,0.5c0.4,0.3,0.6,0.8,0.6,1.3c0,0.5-0.2,1-0.6,1.3c-0.4,0.3-1,0.5-1.9,0.5h-3.3c-0.9,0-1.5-0.2-1.9-0.5
		c-0.4-0.3-0.6-0.8-0.6-1.3c0-0.5,0.2-1,0.6-1.3c0.4-0.3,0.9-0.5,1.7-0.5v-8.8c-0.8,0-1.3-0.2-1.7-0.5c-0.4-0.3-0.6-0.8-0.6-1.3
		s0.2-1,0.6-1.3c0.4-0.3,1-0.5,1.9-0.5H548.3z"/>
	<path class="st1" d="M570.3,147v1c0.6-0.6,1.1-1,1.6-1.2c0.5-0.2,1-0.3,1.7-0.3c0.5,0,1.1,0.1,1.6,0.4c0.5,0.3,1,0.6,1.5,1.2
		c0.6-0.5,1.3-0.9,1.9-1.2c0.7-0.3,1.3-0.4,2-0.4c1.4,0,2.5,0.4,3.3,1.1c1.1,0.9,1.7,2.2,1.7,3.7v8.1c0.8,0,1.3,0.2,1.7,0.5
		c0.4,0.3,0.6,0.8,0.6,1.3c0,0.5-0.2,1-0.6,1.3c-0.4,0.3-1,0.5-1.9,0.5H582v-11.4c0-0.6-0.1-0.9-0.3-1.1c-0.2-0.2-0.5-0.3-0.9-0.3
		c-0.4,0-0.8,0.1-1.1,0.3c-0.4,0.3-1,0.8-1.6,1.7v7.3c0.8,0,1.3,0.2,1.7,0.5c0.4,0.3,0.6,0.8,0.6,1.3c0,0.5-0.2,1-0.6,1.3
		c-0.4,0.3-1,0.5-1.9,0.5h-3.5v-11.4c0-0.5-0.1-0.9-0.3-1.1s-0.5-0.3-0.9-0.3c-0.4,0-0.9,0.1-1.3,0.4c-0.4,0.3-0.9,0.8-1.5,1.6v7.3
		c0.8,0,1.3,0.2,1.7,0.5c0.4,0.3,0.6,0.8,0.6,1.3c0,0.5-0.2,1-0.6,1.3c-0.4,0.3-1,0.5-1.9,0.5h-3.3c-0.9,0-1.5-0.2-1.9-0.5
		c-0.4-0.3-0.6-0.8-0.6-1.3c0-0.5,0.2-1,0.6-1.3c0.4-0.3,0.9-0.5,1.7-0.5v-8.8c-0.8,0-1.3-0.2-1.7-0.5c-0.4-0.3-0.6-0.8-0.6-1.3
		s0.2-1,0.6-1.3c0.4-0.3,1-0.5,1.9-0.5H570.3z"/>
	<path class="st1" d="M601.2,163.1v-0.8c-0.9,0.5-1.9,0.8-3,1.1s-2.1,0.4-3,0.4c-2,0-3.6-0.5-4.8-1.5s-1.8-2.2-1.8-3.4
		c0-1.5,0.8-2.9,2.4-4.2c1.6-1.3,3.7-2,6.5-2c1.1,0,2.4,0.1,3.8,0.4V152c0-0.5-0.2-1-0.7-1.3c-0.5-0.3-1.4-0.5-2.7-0.5
		c-1.1,0-2.5,0.2-4.2,0.6c-0.6,0.2-1.1,0.2-1.5,0.2c-0.5,0-0.9-0.2-1.2-0.5c-0.3-0.3-0.5-0.8-0.5-1.3c0-0.3,0.1-0.6,0.2-0.8
		s0.3-0.4,0.5-0.5s0.7-0.3,1.3-0.5c0.9-0.2,1.8-0.4,2.8-0.6s1.8-0.2,2.6-0.2c2.3,0,4,0.5,5.3,1.5c1.3,1,1.9,2.3,1.9,4v7.5h0.6
		c0.9,0,1.5,0.2,1.9,0.5c0.4,0.3,0.6,0.8,0.6,1.3c0,0.5-0.2,1-0.6,1.3c-0.4,0.3-1,0.5-1.9,0.5H601.2z M601.2,156.6
		c-1.5-0.3-2.8-0.4-4.1-0.4c-1.5,0-2.8,0.4-3.8,1.1c-0.7,0.5-1,0.9-1,1.4c0,0.3,0.2,0.6,0.5,0.8c0.6,0.4,1.4,0.6,2.5,0.6
		c0.9,0,1.9-0.2,3-0.5s2.1-0.8,3-1.4V156.6z"/>
	<path class="st1" d="M616.2,147v1.2c0.7-0.6,1.4-1,2.2-1.3c0.8-0.3,1.7-0.4,2.6-0.4c2.2,0,3.9,0.7,5.2,2c1,1.1,1.5,2.5,1.5,4.2v6.7
		c0.8,0,1.3,0.2,1.7,0.5c0.4,0.3,0.6,0.8,0.6,1.3c0,0.5-0.2,1-0.6,1.3c-0.4,0.3-1,0.5-1.9,0.5h-3.3c-0.9,0-1.5-0.2-1.9-0.5
		c-0.4-0.3-0.6-0.8-0.6-1.3c0-0.5,0.2-1,0.6-1.3c0.4-0.3,0.9-0.5,1.7-0.5v-6.8c0-0.8-0.2-1.4-0.6-1.7c-0.6-0.5-1.4-0.7-2.5-0.7
		c-0.8,0-1.6,0.2-2.2,0.5c-0.6,0.3-1.4,1-2.4,2.1v6.7c0.9,0,1.6,0.1,1.8,0.3c0.6,0.4,0.9,0.9,0.9,1.6c0,0.5-0.2,1-0.6,1.3
		c-0.4,0.3-1,0.5-1.9,0.5h-4.2c-0.9,0-1.5-0.2-1.9-0.5c-0.4-0.3-0.6-0.8-0.6-1.3c0-0.7,0.3-1.2,0.9-1.5c0.3-0.2,0.9-0.3,1.8-0.3
		v-8.8c-0.8,0-1.3-0.2-1.7-0.5c-0.4-0.3-0.6-0.8-0.6-1.3s0.2-1,0.6-1.3c0.4-0.3,1-0.5,1.9-0.5H616.2z"/>
	<path class="st1" d="M650.3,140.1v19.3h0.6c0.9,0,1.5,0.2,1.9,0.5c0.4,0.3,0.6,0.8,0.6,1.3c0,0.5-0.2,1-0.6,1.3
		c-0.4,0.3-1,0.5-1.9,0.5h-4.3v-0.9c-0.8,0.5-1.7,0.8-2.6,1.1c-0.9,0.2-1.9,0.4-2.8,0.4c-2.8,0-5-0.8-6.7-2.4
		c-1.7-1.6-2.5-3.5-2.5-5.9c0-2.5,0.9-4.5,2.6-6.3c1.8-1.7,3.9-2.6,6.5-2.6c1,0,1.9,0.1,2.8,0.4c0.9,0.3,1.8,0.7,2.7,1.3v-4.5H646
		c-0.9,0-1.5-0.2-1.9-0.5c-0.4-0.3-0.6-0.8-0.6-1.3c0-0.5,0.2-1,0.6-1.3c0.4-0.3,1-0.5,1.9-0.5H650.3z M646.7,155.5
		c0-1.5-0.5-2.8-1.6-3.8c-1.1-1-2.4-1.6-3.9-1.6c-1.5,0-2.8,0.5-3.9,1.6s-1.6,2.3-1.6,3.8c0,1.3,0.5,2.4,1.4,3.3s2.3,1.3,4,1.3
		c1.7,0,3.1-0.4,4-1.3S646.7,156.8,646.7,155.5z"/>
	<path class="st1" d="M667.9,151.2c-0.6-0.4-1.2-0.6-1.9-0.8c-0.7-0.2-1.3-0.3-2.1-0.3c-1.4,0-2.5,0.2-3.4,0.7
		c-0.4,0.2-0.6,0.4-0.6,0.7c0,0.3,0.2,0.5,0.8,0.8c0.4,0.2,1.2,0.4,2.6,0.5c2.4,0.3,4.1,0.7,5.1,1c1.3,0.4,2.2,1.1,2.9,1.9
		c0.7,0.9,1,1.8,1,2.7c0,1.3-0.6,2.4-1.7,3.3c-1.7,1.3-3.8,1.9-6.5,1.9c-1.1,0-2-0.1-2.9-0.3s-1.7-0.5-2.5-0.8
		c-0.2,0.2-0.4,0.3-0.6,0.4c-0.2,0.1-0.4,0.1-0.6,0.1c-0.6,0-1-0.2-1.4-0.6s-0.5-1-0.5-1.9v-1.2c0-0.9,0.2-1.5,0.5-1.9
		s0.8-0.6,1.3-0.6c0.4,0,0.8,0.1,1.1,0.4c0.3,0.2,0.5,0.7,0.7,1.2c0.6,0.5,1.2,0.8,2,1.1c0.8,0.2,1.7,0.4,2.7,0.4
		c1.7,0,3-0.3,3.9-0.8c0.4-0.3,0.7-0.5,0.7-0.8c0-0.5-0.3-0.9-0.9-1.2c-0.6-0.3-1.9-0.6-3.9-0.8c-2.9-0.3-4.9-0.9-5.9-1.8
		c-1-0.9-1.5-1.9-1.5-3.2c0-1.3,0.6-2.4,1.7-3.2c1.5-1.2,3.5-1.8,5.9-1.8c0.8,0,1.7,0.1,2.4,0.2c0.8,0.2,1.5,0.4,2.2,0.7
		c0.2-0.2,0.4-0.3,0.6-0.4c0.2-0.1,0.4-0.1,0.5-0.1c0.5,0,0.9,0.2,1.3,0.6s0.5,1,0.5,1.9v0.9c0,0.8-0.1,1.3-0.3,1.6
		c-0.4,0.5-0.9,0.8-1.6,0.8c-0.4,0-0.8-0.1-1.2-0.4C668.2,152,668,151.7,667.9,151.2z"/>
	<path class="st1" d="M445.9,190.5v12.4h4.4c0.9,0,1.5,0.2,1.9,0.5c0.4,0.3,0.6,0.8,0.6,1.3c0,0.5-0.2,1-0.6,1.3
		c-0.4,0.3-1,0.5-1.9,0.5h-12.5c-0.9,0-1.5-0.2-1.9-0.5c-0.4-0.3-0.6-0.8-0.6-1.3c0-0.5,0.2-1,0.6-1.3c0.4-0.3,1-0.5,1.9-0.5h4.4
		v-8.8h-3c-0.9,0-1.5-0.2-1.9-0.5c-0.4-0.3-0.6-0.8-0.6-1.3c0-0.5,0.2-1,0.6-1.3c0.4-0.3,1-0.5,1.9-0.5H445.9z M445.4,183.6v3.8H441
		v-3.8H445.4z"/>
	<path class="st1" d="M467.9,183.6v19.3h4.4c0.9,0,1.5,0.2,1.9,0.5c0.4,0.3,0.6,0.8,0.6,1.3c0,0.5-0.2,1-0.6,1.3
		c-0.4,0.3-1,0.5-1.9,0.5h-12.5c-0.9,0-1.5-0.2-1.9-0.5c-0.4-0.3-0.6-0.8-0.6-1.3c0-0.5,0.2-1,0.6-1.3c0.4-0.3,1-0.5,1.9-0.5h4.4
		v-15.7h-3c-0.9,0-1.5-0.2-1.9-0.5c-0.4-0.3-0.6-0.8-0.6-1.3c0-0.5,0.2-1,0.6-1.3c0.4-0.3,1-0.5,1.9-0.5H467.9z"/>
	<path class="st1" d="M489.9,183.6v19.3h4.4c0.9,0,1.5,0.2,1.9,0.5c0.4,0.3,0.6,0.8,0.6,1.3c0,0.5-0.2,1-0.6,1.3
		c-0.4,0.3-1,0.5-1.9,0.5h-12.5c-0.9,0-1.5-0.2-1.9-0.5c-0.4-0.3-0.6-0.8-0.6-1.3c0-0.5,0.2-1,0.6-1.3c0.4-0.3,1-0.5,1.9-0.5h4.4
		v-15.7h-3c-0.9,0-1.5-0.2-1.9-0.5c-0.4-0.3-0.6-0.8-0.6-1.3c0-0.5,0.2-1,0.6-1.3c0.4-0.3,1-0.5,1.9-0.5H489.9z"/>
	<path class="st1" d="M517.8,190.5v12.4c0.8,0,1.3,0.2,1.7,0.5c0.4,0.3,0.6,0.8,0.6,1.3c0,0.5-0.2,1-0.6,1.3c-0.4,0.3-1,0.5-1.9,0.5
		h-3.5v-0.8c-1,0.5-2.1,0.8-3,1.1c-1,0.2-1.9,0.4-2.7,0.4c-1.2,0-2.2-0.3-3.1-0.8c-0.9-0.5-1.6-1.2-2.1-2.1
		c-0.4-0.6-0.6-1.4-0.6-2.4v-7.8H502c-0.9,0-1.5-0.2-1.9-0.5c-0.4-0.3-0.6-0.8-0.6-1.3c0-0.5,0.2-1,0.6-1.3c0.4-0.3,1-0.5,1.9-0.5
		h4.3v10.8c0,0.8,0.2,1.3,0.6,1.7c0.4,0.4,1,0.5,1.7,0.5c0.7,0,1.5-0.1,2.4-0.4s1.9-0.8,3.2-1.6v-7.4h-1.3c-0.9,0-1.5-0.2-1.9-0.5
		c-0.4-0.3-0.6-0.8-0.6-1.3c0-0.5,0.2-1,0.6-1.3c0.4-0.3,1-0.5,1.9-0.5H517.8z"/>
	<path class="st1" d="M536,194.7c-0.6-0.4-1.2-0.6-1.9-0.8c-0.7-0.2-1.3-0.3-2.1-0.3c-1.4,0-2.5,0.2-3.4,0.7
		c-0.4,0.2-0.6,0.4-0.6,0.7c0,0.3,0.3,0.5,0.8,0.8c0.4,0.2,1.2,0.4,2.6,0.5c2.4,0.3,4.1,0.7,5.1,1c1.3,0.4,2.2,1.1,2.9,1.9
		s1,1.8,1,2.7c0,1.3-0.6,2.4-1.7,3.3c-1.7,1.3-3.8,1.9-6.5,1.9c-1.1,0-2-0.1-2.9-0.3s-1.7-0.5-2.5-0.8c-0.2,0.2-0.4,0.3-0.6,0.4
		c-0.2,0.1-0.4,0.1-0.6,0.1c-0.6,0-1-0.2-1.4-0.6c-0.3-0.4-0.5-1-0.5-1.9v-1.2c0-0.9,0.2-1.5,0.5-1.9c0.3-0.4,0.8-0.6,1.3-0.6
		c0.4,0,0.8,0.1,1.1,0.4c0.3,0.2,0.5,0.7,0.7,1.2c0.6,0.5,1.2,0.8,2,1.1c0.8,0.2,1.7,0.4,2.7,0.4c1.7,0,3-0.3,3.9-0.8
		c0.4-0.3,0.7-0.5,0.7-0.8c0-0.5-0.3-0.9-0.9-1.2c-0.6-0.3-1.9-0.6-3.9-0.8c-2.9-0.3-4.9-0.9-5.9-1.8c-1-0.9-1.5-1.9-1.5-3.2
		c0-1.3,0.6-2.4,1.7-3.2c1.5-1.2,3.5-1.8,5.9-1.8c0.8,0,1.7,0.1,2.4,0.2c0.8,0.2,1.5,0.4,2.2,0.7c0.2-0.2,0.4-0.3,0.6-0.4
		c0.2-0.1,0.4-0.1,0.5-0.1c0.5,0,0.9,0.2,1.3,0.6s0.5,1,0.5,1.9v0.9c0,0.8-0.1,1.3-0.3,1.6c-0.4,0.5-0.9,0.8-1.6,0.8
		c-0.4,0-0.8-0.1-1.2-0.4C536.3,195.5,536,195.2,536,194.7z"/>
	<path class="st1" d="M553.1,194.1v7.3c0,0.8,0.2,1.3,0.5,1.5c0.5,0.4,1.4,0.6,2.7,0.6c1.9,0,3.6-0.4,5.2-1.2
		c0.6-0.3,1.1-0.5,1.4-0.5c0.5,0,0.9,0.2,1.2,0.5c0.4,0.4,0.5,0.8,0.5,1.3c0,0.5-0.2,0.9-0.6,1.2c-0.6,0.6-1.7,1.1-3.5,1.5
		c-1.7,0.5-3.2,0.7-4.4,0.7c-2.3,0-4-0.5-5.1-1.5c-1.1-1-1.7-2.2-1.7-3.6v-8h-1.3c-0.9,0-1.5-0.2-1.9-0.5c-0.4-0.3-0.6-0.8-0.6-1.3
		c0-0.5,0.2-1,0.6-1.3c0.4-0.3,1-0.5,1.9-0.5h1.3v-3.3c0-0.9,0.2-1.5,0.5-1.9c0.3-0.4,0.8-0.6,1.3-0.6c0.5,0,1,0.2,1.3,0.6
		c0.3,0.4,0.5,1,0.5,1.9v3.3h6.8c0.9,0,1.5,0.2,1.9,0.5c0.4,0.3,0.6,0.8,0.6,1.3c0,0.5-0.2,1-0.6,1.3c-0.4,0.3-1,0.5-1.9,0.5H553.1z
		"/>
	<path class="st1" d="M575.2,190.5v2.3c1.5-1.1,2.8-1.8,3.6-2.2c0.9-0.4,1.7-0.5,2.5-0.5c1.2,0,2.3,0.4,3.5,1.3
		c0.8,0.6,1.1,1.2,1.1,1.8c0,0.5-0.2,1-0.5,1.3c-0.4,0.4-0.8,0.5-1.3,0.5c-0.5,0-0.9-0.2-1.4-0.7c-0.5-0.4-0.9-0.7-1.3-0.7
		c-0.5,0-1.3,0.3-2.3,1c-1,0.6-2.3,1.6-3.8,2.9v5.5h5.2c0.9,0,1.5,0.2,1.9,0.5c0.4,0.3,0.6,0.8,0.6,1.3c0,0.5-0.2,1-0.6,1.3
		c-0.4,0.3-1,0.5-1.9,0.5h-11.1c-0.9,0-1.5-0.2-1.9-0.5c-0.4-0.3-0.6-0.8-0.6-1.3c0-0.5,0.2-1,0.6-1.3c0.4-0.3,1-0.5,1.9-0.5h2.2
		v-8.8h-1.3c-0.9,0-1.5-0.2-1.9-0.5c-0.4-0.3-0.6-0.8-0.6-1.3c0-0.5,0.2-1,0.6-1.3c0.4-0.3,1-0.5,1.9-0.5H575.2z"/>
	<path class="st1" d="M601.2,206.5v-0.8c-0.9,0.5-1.9,0.8-3,1.1c-1.1,0.2-2.1,0.4-3,0.4c-2,0-3.6-0.5-4.8-1.5
		c-1.2-1-1.8-2.2-1.8-3.4c0-1.5,0.8-2.9,2.4-4.2s3.7-2,6.5-2c1.1,0,2.4,0.1,3.8,0.4v-0.9c0-0.5-0.2-1-0.7-1.3
		c-0.5-0.3-1.4-0.5-2.7-0.5c-1.1,0-2.5,0.2-4.2,0.6c-0.6,0.2-1.1,0.2-1.5,0.2c-0.5,0-0.9-0.2-1.2-0.5c-0.3-0.3-0.5-0.8-0.5-1.3
		c0-0.3,0.1-0.6,0.2-0.8c0.1-0.2,0.3-0.4,0.5-0.5s0.7-0.3,1.3-0.5c0.9-0.2,1.8-0.4,2.8-0.6c0.9-0.1,1.8-0.2,2.6-0.2
		c2.3,0,4,0.5,5.3,1.5c1.3,1,1.9,2.3,1.9,4v7.5h0.6c0.9,0,1.5,0.2,1.9,0.5c0.4,0.3,0.6,0.8,0.6,1.3c0,0.5-0.2,1-0.6,1.3
		c-0.4,0.3-1,0.5-1.9,0.5H601.2z M601.2,200.1c-1.5-0.3-2.8-0.4-4.1-0.4c-1.5,0-2.8,0.4-3.8,1.1c-0.7,0.5-1,0.9-1,1.4
		c0,0.3,0.2,0.6,0.5,0.8c0.6,0.4,1.4,0.6,2.5,0.6c0.9,0,1.9-0.2,3-0.5s2.1-0.8,3-1.4V200.1z"/>
	<path class="st1" d="M619,194.1v7.3c0,0.8,0.2,1.3,0.5,1.5c0.5,0.4,1.4,0.6,2.7,0.6c1.9,0,3.6-0.4,5.2-1.2c0.6-0.3,1.1-0.5,1.4-0.5
		c0.5,0,0.9,0.2,1.2,0.5c0.4,0.4,0.5,0.8,0.5,1.3c0,0.5-0.2,0.9-0.6,1.2c-0.6,0.6-1.7,1.1-3.5,1.5s-3.2,0.7-4.4,0.7
		c-2.3,0-4-0.5-5.1-1.5c-1.1-1-1.7-2.2-1.7-3.6v-8H614c-0.9,0-1.5-0.2-1.9-0.5c-0.4-0.3-0.6-0.8-0.6-1.3c0-0.5,0.2-1,0.6-1.3
		c0.4-0.3,1-0.5,1.9-0.5h1.3v-3.3c0-0.9,0.2-1.5,0.5-1.9c0.3-0.4,0.8-0.6,1.3-0.6c0.5,0,1,0.2,1.3,0.6c0.3,0.4,0.5,1,0.5,1.9v3.3
		h6.8c0.9,0,1.5,0.2,1.9,0.5c0.4,0.3,0.6,0.8,0.6,1.3c0,0.5-0.2,1-0.6,1.3c-0.4,0.3-1,0.5-1.9,0.5H619z"/>
	<path class="st1" d="M651.4,198.8c0,1.4-0.4,2.7-1.2,4s-1.9,2.3-3.5,3.1c-1.5,0.8-3.2,1.2-4.8,1.2c-1.7,0-3.3-0.4-4.8-1.1
		c-1.5-0.8-2.7-1.8-3.5-3.1c-0.8-1.3-1.2-2.7-1.2-4.1c0-1.5,0.4-2.9,1.2-4.3c0.8-1.4,2-2.5,3.5-3.3c1.5-0.8,3.1-1.2,4.8-1.2
		c1.7,0,3.3,0.4,4.8,1.2c1.5,0.8,2.7,1.9,3.5,3.3C651,195.9,651.4,197.4,651.4,198.8z M647.8,198.8c0-1.2-0.4-2.2-1.3-3.2
		c-1.2-1.3-2.7-2-4.6-2c-1.7,0-3,0.5-4.2,1.6c-1.1,1.1-1.7,2.3-1.7,3.6c0,1.1,0.6,2.2,1.7,3.2c1.1,1,2.5,1.5,4.1,1.5
		c1.6,0,3-0.5,4.2-1.5C647.2,201,647.8,200,647.8,198.8z"/>
	<path class="st1" d="M663.1,190.5v2.3c1.5-1.1,2.8-1.8,3.6-2.2c0.9-0.4,1.7-0.5,2.5-0.5c1.2,0,2.3,0.4,3.5,1.3
		c0.8,0.6,1.1,1.2,1.1,1.8c0,0.5-0.2,1-0.5,1.3c-0.4,0.4-0.8,0.5-1.3,0.5c-0.5,0-0.9-0.2-1.4-0.7c-0.5-0.4-0.9-0.7-1.3-0.7
		c-0.5,0-1.3,0.3-2.3,1c-1,0.6-2.3,1.6-3.8,2.9v5.5h5.2c0.9,0,1.5,0.2,1.9,0.5c0.4,0.3,0.6,0.8,0.6,1.3c0,0.5-0.2,1-0.6,1.3
		c-0.4,0.3-1,0.5-1.9,0.5h-11.1c-0.9,0-1.5-0.2-1.9-0.5c-0.4-0.3-0.6-0.8-0.6-1.3c0-0.5,0.2-1,0.6-1.3c0.4-0.3,1-0.5,1.9-0.5h2.2
		v-8.8h-1.3c-0.9,0-1.5-0.2-1.9-0.5c-0.4-0.3-0.6-0.8-0.6-1.3c0-0.5,0.2-1,0.6-1.3c0.4-0.3,1-0.5,1.9-0.5H663.1z"/>
	<path class="st1" d="M549.4,248v5.9h2.2c0.9,0,1.5,0.2,1.9,0.5c0.4,0.3,0.6,0.8,0.6,1.3c0,0.5-0.2,1-0.6,1.3
		c-0.4,0.3-1,0.5-1.9,0.5h-6.5c-0.9,0-1.5-0.2-1.9-0.5c-0.4-0.3-0.6-0.8-0.6-1.3c0-0.5,0.2-1,0.6-1.3c0.4-0.3,1-0.5,1.9-0.5h0.6
		v-16.4h-0.6c-0.9,0-1.5-0.2-1.9-0.5c-0.4-0.3-0.6-0.8-0.6-1.3c0-0.5,0.2-1,0.6-1.3c0.4-0.3,1-0.5,1.9-0.5h4.3v1.2
		c0.9-0.6,1.7-1,2.7-1.3s1.9-0.4,2.8-0.4c2.5,0,4.6,0.8,6.4,2.5c1.8,1.7,2.6,3.6,2.6,5.8c0,2.4-1,4.4-3.1,5.9
		c-1.7,1.3-3.7,1.9-5.9,1.9c-0.9,0-1.9-0.1-2.8-0.4C551.2,249,550.3,248.6,549.4,248z M560.3,241.8c0-0.5-0.2-1.2-0.6-1.9
		c-0.4-0.8-1-1.4-1.9-2c-0.8-0.5-1.8-0.8-3-0.8c-1.8,0-3.3,0.7-4.3,2c-0.7,0.9-1.1,1.8-1.1,2.7c0,1,0.5,1.9,1.6,2.8
		c1,0.9,2.3,1.4,3.9,1.4c1.6,0,2.8-0.5,3.9-1.4C559.8,243.8,560.3,242.8,560.3,241.8z"/>
	<path class="st1" d="M573.9,249.9l-6.4-12.3c-0.6-0.1-1-0.3-1.4-0.6s-0.5-0.7-0.5-1.2c0-0.5,0.2-1,0.6-1.3c0.4-0.3,1-0.5,1.9-0.5
		h3.3c0.9,0,1.5,0.2,1.9,0.5c0.4,0.3,0.6,0.8,0.6,1.3c0,0.5-0.2,1-0.6,1.3c-0.4,0.3-1,0.5-1.8,0.5l4.3,8.3l4.3-8.3
		c-0.8,0-1.4-0.2-1.7-0.5c-0.4-0.3-0.6-0.8-0.6-1.3c0-0.5,0.2-1,0.6-1.3c0.4-0.3,1-0.5,1.9-0.5h3.5c0.9,0,1.5,0.2,1.9,0.5
		c0.4,0.3,0.6,0.8,0.6,1.3c0,0.5-0.2,0.9-0.5,1.2c-0.3,0.3-0.8,0.5-1.4,0.6L576,254c0.9,0,1.5,0.1,1.8,0.3c0.6,0.4,0.9,0.9,0.9,1.6
		c0,0.5-0.2,1-0.6,1.3c-0.4,0.3-1,0.5-1.9,0.5h-8c-0.9,0-1.5-0.2-1.9-0.5c-0.4-0.3-0.6-0.8-0.6-1.3c0-0.5,0.2-1,0.6-1.3
		c0.4-0.3,1-0.5,1.9-0.5h3.6L573.9,249.9z"/>
	<path class="st1" d="M597,237.6v7.3c0,0.8,0.2,1.3,0.5,1.5c0.5,0.4,1.4,0.6,2.7,0.6c1.9,0,3.6-0.4,5.2-1.2c0.6-0.3,1.1-0.5,1.4-0.5
		c0.5,0,0.9,0.2,1.2,0.5c0.4,0.4,0.5,0.8,0.5,1.3c0,0.5-0.2,0.9-0.6,1.2c-0.6,0.6-1.7,1.1-3.5,1.5s-3.2,0.7-4.4,0.7
		c-2.3,0-4-0.5-5.1-1.5c-1.1-1-1.7-2.2-1.7-3.6v-8h-1.3c-0.9,0-1.5-0.2-1.9-0.5c-0.4-0.3-0.6-0.8-0.6-1.3c0-0.5,0.2-1,0.6-1.3
		c0.4-0.3,1-0.5,1.9-0.5h1.3v-3.3c0-0.9,0.2-1.5,0.5-1.9c0.3-0.4,0.8-0.6,1.3-0.6c0.5,0,1,0.2,1.3,0.6c0.3,0.4,0.5,1,0.5,1.9v3.3
		h6.8c0.9,0,1.5,0.2,1.9,0.5c0.4,0.3,0.6,0.8,0.6,1.3c0,0.5-0.2,1-0.6,1.3c-0.4,0.3-1,0.5-1.9,0.5H597z"/>
	<path class="st1" d="M616.1,227.1v7.7c0.8-0.4,1.5-0.8,2.3-1c0.8-0.2,1.6-0.3,2.4-0.3c1.3,0,2.4,0.2,3.4,0.6c1,0.4,1.8,1.1,2.5,2
		c0.7,0.9,1,2.1,1,3.5v6.8c0.9,0,1.5,0.1,1.8,0.3c0.6,0.4,0.9,0.9,0.9,1.6c0,0.5-0.2,1-0.6,1.3c-0.4,0.3-1,0.5-1.9,0.5h-4.2
		c-0.9,0-1.5-0.2-1.9-0.5c-0.4-0.3-0.6-0.8-0.6-1.3c0-0.7,0.3-1.2,0.9-1.5c0.3-0.2,0.9-0.3,1.8-0.3v-6.6c0-0.9-0.2-1.6-0.6-2
		c-0.6-0.5-1.4-0.8-2.5-0.8c-0.8,0-1.5,0.2-2.2,0.5s-1.5,1-2.5,2v6.8c0.9,0,1.6,0.1,1.8,0.3c0.6,0.4,0.9,0.9,0.9,1.6
		c0,0.5-0.2,1-0.6,1.3c-0.4,0.3-1,0.5-1.9,0.5h-4.2c-0.9,0-1.5-0.2-1.9-0.5c-0.4-0.3-0.6-0.8-0.6-1.3c0-0.7,0.3-1.2,0.9-1.5
		c0.3-0.2,0.9-0.3,1.8-0.3v-15.7h-0.6c-0.9,0-1.5-0.2-1.9-0.5c-0.4-0.3-0.6-0.8-0.6-1.3c0-0.5,0.2-1,0.6-1.3c0.4-0.3,1-0.5,1.9-0.5
		H616.1z"/>
	<path class="st1" d="M651.4,242.3c0,1.4-0.4,2.7-1.2,4s-1.9,2.3-3.5,3.1c-1.5,0.8-3.2,1.2-4.8,1.2c-1.7,0-3.3-0.4-4.8-1.1
		c-1.5-0.8-2.7-1.8-3.5-3.1c-0.8-1.3-1.2-2.7-1.2-4.1c0-1.5,0.4-2.9,1.2-4.3c0.8-1.4,2-2.5,3.5-3.3c1.5-0.8,3.1-1.2,4.8-1.2
		c1.7,0,3.3,0.4,4.8,1.2c1.5,0.8,2.7,1.9,3.5,3.3C651,239.4,651.4,240.8,651.4,242.3z M647.8,242.3c0-1.2-0.4-2.2-1.3-3.2
		c-1.2-1.3-2.7-2-4.6-2c-1.7,0-3,0.5-4.2,1.6c-1.1,1.1-1.7,2.3-1.7,3.6c0,1.1,0.6,2.2,1.7,3.2c1.1,1,2.5,1.5,4.1,1.5
		c1.6,0,3-0.5,4.2-1.5C647.2,244.5,647.8,243.5,647.8,242.3z"/>
	<path class="st1" d="M660.2,234v1.2c0.7-0.6,1.4-1,2.2-1.3c0.8-0.3,1.7-0.4,2.6-0.4c2.2,0,3.9,0.7,5.2,2c1,1.1,1.5,2.5,1.5,4.2v6.7
		c0.8,0,1.3,0.2,1.7,0.5c0.4,0.3,0.6,0.8,0.6,1.3c0,0.5-0.2,1-0.6,1.3c-0.4,0.3-1,0.5-1.9,0.5h-3.3c-0.9,0-1.5-0.2-1.9-0.5
		c-0.4-0.3-0.6-0.8-0.6-1.3c0-0.5,0.2-1,0.6-1.3c0.4-0.3,0.9-0.5,1.7-0.5v-6.8c0-0.8-0.2-1.4-0.6-1.7c-0.6-0.5-1.4-0.7-2.5-0.7
		c-0.8,0-1.6,0.2-2.2,0.5c-0.6,0.3-1.4,1-2.4,2.1v6.7c0.9,0,1.6,0.1,1.8,0.3c0.6,0.4,0.9,0.9,0.9,1.6c0,0.5-0.2,1-0.6,1.3
		c-0.4,0.3-1,0.5-1.9,0.5h-4.2c-0.9,0-1.5-0.2-1.9-0.5c-0.4-0.3-0.6-0.8-0.6-1.3c0-0.7,0.3-1.2,0.9-1.5c0.3-0.2,0.9-0.3,1.8-0.3
		v-8.8c-0.8,0-1.3-0.2-1.7-0.5c-0.4-0.3-0.6-0.8-0.6-1.3c0-0.5,0.2-1,0.6-1.3c0.4-0.3,1-0.5,1.9-0.5H660.2z"/>
	<path class="st1" d="M625.7,273c0.2-0.3,0.5-0.5,0.7-0.7s0.6-0.2,0.9-0.2c0.5,0,1,0.2,1.3,0.5c0.3,0.4,0.5,1,0.5,1.9v3.1
		c0,0.9-0.2,1.5-0.5,1.9c-0.3,0.4-0.8,0.6-1.3,0.6c-0.5,0-0.9-0.1-1.2-0.4c-0.3-0.3-0.5-0.8-0.7-1.5c-0.1-0.5-0.3-0.9-0.5-1.2
		c-0.5-0.5-1.2-1-2-1.3c-0.9-0.3-1.8-0.5-2.6-0.5c-1.1,0-2.1,0.2-3,0.7c-0.9,0.5-1.7,1.2-2.4,2.3c-0.7,1.1-1.1,2.3-1.1,3.8v2.4
		c0,1.7,0.6,3.2,1.9,4.4c1.3,1.2,3.1,1.8,5.3,1.8c1.4,0,2.5-0.2,3.5-0.5c0.5-0.2,1.1-0.6,1.8-1.3c0.4-0.4,0.7-0.6,0.9-0.7
		c0.2-0.1,0.5-0.2,0.7-0.2c0.5,0,0.9,0.2,1.3,0.5c0.4,0.4,0.6,0.8,0.6,1.3s-0.2,1-0.8,1.6c-0.7,0.8-1.7,1.5-2.8,1.9
		c-1.5,0.6-3.2,1-5.1,1c-2.2,0-4.1-0.4-5.9-1.3c-1.4-0.7-2.6-1.8-3.6-3.4c-1-1.5-1.5-3.2-1.5-5v-2.5c0-1.9,0.4-3.6,1.3-5.3
		c0.9-1.6,2.1-2.9,3.7-3.8s3.2-1.3,5-1.3c1.1,0,2.1,0.1,3,0.4C624,272.1,624.9,272.5,625.7,273z"/>
	<path class="st1" d="M636.6,292.6c-0.3,0.4-0.6,0.6-0.8,0.7c-0.2,0.1-0.4,0.2-0.7,0.2c-0.6,0-1-0.2-1.4-0.6c-0.3-0.4-0.5-1-0.5-1.8
		v-2.4c0-0.9,0.2-1.5,0.5-1.9c0.3-0.4,0.8-0.6,1.4-0.6c0.4,0,0.8,0.1,1.1,0.3c0.3,0.2,0.5,0.6,0.7,1.1c0.2,0.5,0.3,0.9,0.5,1.1
		c0.3,0.4,1,0.7,1.8,1.1s1.8,0.6,2.9,0.6c1.6,0,3-0.4,4-1.1c0.7-0.5,1-1,1-1.7c0-0.4-0.2-0.9-0.5-1.3c-0.3-0.4-0.8-0.7-1.6-1
		c-0.5-0.2-1.5-0.4-3.2-0.7c-2-0.4-3.5-0.8-4.5-1.3c-1-0.5-1.8-1.2-2.4-2.2c-0.6-0.9-0.9-2-0.9-3.1c0-1.7,0.7-3.3,2.2-4.6
		c1.5-1.3,3.4-2,5.7-2c0.9,0,1.8,0.1,2.6,0.3s1.5,0.5,2.2,0.9c0.5-0.5,1-0.7,1.4-0.7c0.5,0,1,0.2,1.3,0.6c0.3,0.4,0.5,1,0.5,1.8v2.7
		c0,0.9-0.2,1.5-0.5,1.9c-0.3,0.4-0.8,0.6-1.3,0.6c-0.5,0-0.8-0.1-1.2-0.4c-0.3-0.2-0.5-0.6-0.6-1.2c-0.1-0.6-0.3-1-0.5-1.3
		c-0.3-0.4-0.9-0.8-1.6-1.1s-1.5-0.5-2.4-0.5c-1.3,0-2.4,0.3-3.1,0.9s-1.2,1.2-1.2,1.9c0,0.4,0.2,0.9,0.5,1.3c0.3,0.4,0.8,0.7,1.4,1
		c0.4,0.2,1.5,0.4,3.4,0.8c1.9,0.4,3.3,0.8,4.3,1.2s1.8,1.1,2.5,2.1s1,2,1,3.3c0,1.8-0.6,3.2-1.9,4.3c-1.7,1.4-3.9,2.1-6.5,2.1
		c-1,0-2-0.1-3-0.4C638.4,293.5,637.5,293.1,636.6,292.6z"/>
	<path class="st1" d="M658.5,292.6c-0.3,0.4-0.6,0.6-0.8,0.7c-0.2,0.1-0.4,0.2-0.7,0.2c-0.6,0-1-0.2-1.4-0.6c-0.3-0.4-0.5-1-0.5-1.8
		v-2.4c0-0.9,0.2-1.5,0.5-1.9c0.3-0.4,0.8-0.6,1.4-0.6c0.4,0,0.8,0.1,1.1,0.3c0.3,0.2,0.5,0.6,0.7,1.1c0.2,0.5,0.3,0.9,0.5,1.1
		c0.3,0.4,1,0.7,1.8,1.1s1.8,0.6,2.9,0.6c1.6,0,3-0.4,4-1.1c0.7-0.5,1-1,1-1.7c0-0.4-0.2-0.9-0.5-1.3c-0.3-0.4-0.8-0.7-1.6-1
		c-0.5-0.2-1.5-0.4-3.2-0.7c-2-0.4-3.5-0.8-4.5-1.3c-1-0.5-1.8-1.2-2.4-2.2c-0.6-0.9-0.9-2-0.9-3.1c0-1.7,0.7-3.3,2.2-4.6
		c1.5-1.3,3.4-2,5.7-2c0.9,0,1.8,0.1,2.6,0.3s1.5,0.5,2.2,0.9c0.5-0.5,1-0.7,1.4-0.7c0.5,0,1,0.2,1.3,0.6c0.3,0.4,0.5,1,0.5,1.8v2.7
		c0,0.9-0.2,1.5-0.5,1.9c-0.3,0.4-0.8,0.6-1.3,0.6c-0.5,0-0.8-0.1-1.2-0.4c-0.3-0.2-0.5-0.6-0.6-1.2c-0.1-0.6-0.3-1-0.5-1.3
		c-0.3-0.4-0.9-0.8-1.6-1.1s-1.5-0.5-2.4-0.5c-1.3,0-2.4,0.3-3.1,0.9s-1.2,1.2-1.2,1.9c0,0.4,0.2,0.9,0.5,1.3c0.3,0.4,0.8,0.7,1.4,1
		c0.4,0.2,1.5,0.4,3.4,0.8c1.9,0.4,3.3,0.8,4.3,1.2s1.8,1.1,2.5,2.1s1,2,1,3.3c0,1.8-0.6,3.2-1.9,4.3c-1.7,1.4-3.9,2.1-6.5,2.1
		c-1,0-2-0.1-3-0.4C660.4,293.5,659.5,293.1,658.5,292.6z"/>
	<path class="st1" d="M624,322v-1.1h4.3c0.9,0,1.5,0.2,1.9,0.5c0.4,0.3,0.6,0.8,0.6,1.3c0,0.5-0.2,1-0.6,1.3c-0.4,0.3-1,0.5-1.9,0.5
		h-0.6v13.2c0,1.3-0.3,2.4-0.8,3.3c-0.5,0.9-1.4,1.8-2.5,2.5c-1.1,0.7-2.4,1-3.8,1h-4.2c-0.9,0-1.5-0.2-1.9-0.5
		c-0.4-0.3-0.6-0.8-0.6-1.3c0-0.5,0.2-1,0.6-1.3c0.4-0.3,1-0.5,1.9-0.5h4c1.1,0,2-0.3,2.6-0.9s0.9-1.4,0.9-2.3V336
		c-0.8,0.5-1.6,0.9-2.5,1.2c-0.8,0.3-1.7,0.4-2.6,0.4c-2.5,0-4.6-0.8-6.3-2.5s-2.5-3.7-2.5-6.1c0-2.4,0.8-4.5,2.5-6.1
		c1.7-1.6,3.8-2.5,6.3-2.5c0.9,0,1.8,0.1,2.7,0.4S623.2,321.5,624,322z M623.9,329c0-1.3-0.5-2.5-1.5-3.5c-1-1-2.2-1.5-3.6-1.5
		c-1.4,0-2.6,0.5-3.6,1.5c-1,1-1.5,2.1-1.5,3.5c0,1.3,0.5,2.5,1.5,3.5c1,1,2.2,1.5,3.6,1.5c1.4,0,2.6-0.5,3.6-1.5
		C623.4,331.5,623.9,330.3,623.9,329z"/>
	<path class="st1" d="M643.7,320.9v12.4h4.4c0.9,0,1.5,0.2,1.9,0.5c0.4,0.3,0.6,0.8,0.6,1.3c0,0.5-0.2,1-0.6,1.3
		c-0.4,0.3-1,0.5-1.9,0.5h-12.5c-0.9,0-1.5-0.2-1.9-0.5c-0.4-0.3-0.6-0.8-0.6-1.3c0-0.5,0.2-1,0.6-1.3c0.4-0.3,1-0.5,1.9-0.5h4.4
		v-8.8h-3c-0.9,0-1.5-0.2-1.9-0.5c-0.4-0.3-0.6-0.8-0.6-1.3c0-0.5,0.2-1,0.6-1.3c0.4-0.3,1-0.5,1.9-0.5H643.7z M643.2,314.1v3.8
		h-4.4v-3.8H643.2z"/>
	<path class="st1" d="M663,324.6v7.3c0,0.8,0.2,1.3,0.5,1.5c0.5,0.4,1.4,0.6,2.7,0.6c1.9,0,3.6-0.4,5.2-1.2c0.6-0.3,1.1-0.5,1.4-0.5
		c0.5,0,0.9,0.2,1.2,0.5c0.4,0.4,0.5,0.8,0.5,1.3c0,0.5-0.2,0.9-0.6,1.2c-0.6,0.6-1.7,1.1-3.5,1.5s-3.2,0.7-4.4,0.7
		c-2.3,0-4-0.5-5.1-1.5c-1.1-1-1.7-2.2-1.7-3.6v-8H658c-0.9,0-1.5-0.2-1.9-0.5c-0.4-0.3-0.6-0.8-0.6-1.3c0-0.5,0.2-1,0.6-1.3
		c0.4-0.3,1-0.5,1.9-0.5h1.3v-3.3c0-0.9,0.2-1.5,0.5-1.9c0.3-0.4,0.8-0.6,1.3-0.6c0.5,0,1,0.2,1.3,0.6c0.3,0.4,0.5,1,0.5,1.9v3.3
		h6.8c0.9,0,1.5,0.2,1.9,0.5c0.4,0.3,0.6,0.8,0.6,1.3c0,0.5-0.2,1-0.6,1.3c-0.4,0.3-1,0.5-1.9,0.5H663z"/>
</g>
<g>
</g>
<g>
</g>
<g>
</g>
<g>
</g>
<g>
</g>
</svg>
