<?xml version="1.0" encoding="utf-8"?>
<!-- Generator: Adobe Illustrator 21.1.0, SVG Export Plug-In . SVG Version: 6.00 Build 0)  -->
<svg version="1.1" id="Layer_1" xmlns="http://www.w3.org/2000/svg" xmlns:xlink="http://www.w3.org/1999/xlink" x="0px" y="0px"
	 viewBox="0 0 350 350" style="enable-background:new 0 0 350 350;" xml:space="preserve">
<style type="text/css">
	.st0{fill:#E6E6E6;}
	.st1{fill:#B3B3B3;}
</style>
<g>
	<path class="st0" d="M272.9,280h-69.5c-3.9,0-7.1-3.2-7.1-7.1v-0.4c0-3.9,3.2-7.1,7.1-7.1h69.5c3.9,0,7.1,3.2,7.1,7.1v0.4
		C280,276.8,276.8,280,272.9,280z"/>
	<path class="st1" d="M272.9,280.5h-69.5c-4.2,0-7.6-3.4-7.6-7.6v-0.4c0-4.2,3.4-7.6,7.6-7.6h69.5c4.2,0,7.6,3.4,7.6,7.6v0.4
		C280.5,277.1,277,280.5,272.9,280.5z M203.4,265.9c-3.6,0-6.6,3-6.6,6.6v0.4c0,3.6,3,6.6,6.6,6.6h69.5c3.6,0,6.6-3,6.6-6.6v-0.4
		c0-3.6-3-6.6-6.6-6.6H203.4z"/>
</g>
<g>
	<path class="st0" d="M313.8,76H203.3c-3.9,0-7.1-3.2-7.1-7.1v-0.4c0-3.9,3.2-7.1,7.1-7.1h110.4c3.9,0,7.1,3.2,7.1,7.1v0.4
		C320.8,72.8,317.7,76,313.8,76z"/>
	<path class="st1" d="M313.8,76.5H203.3c-4.2,0-7.6-3.4-7.6-7.6v-0.4c0-4.2,3.4-7.6,7.6-7.6h110.4c4.2,0,7.6,3.4,7.6,7.6v0.4
		C321.3,73.1,317.9,76.5,313.8,76.5z M203.3,61.9c-3.6,0-6.6,3-6.6,6.6v0.4c0,3.6,3,6.6,6.6,6.6h110.4c3.6,0,6.6-3,6.6-6.6v-0.4
		c0-3.6-3-6.6-6.6-6.6H203.3z"/>
</g>
<g>
	<path class="st0" d="M279.1,105.7h-75.7c-3.9,0-7.1-3.2-7.1-7.1v-0.4c0-3.9,3.2-7.1,7.1-7.1h75.7c3.9,0,7.1,3.2,7.1,7.1v0.4
		C286.2,102.5,283,105.7,279.1,105.7z"/>
	<path class="st1" d="M279.1,106.2h-75.7c-4.2,0-7.6-3.4-7.6-7.6v-0.4c0-4.2,3.4-7.6,7.6-7.6h75.7c4.2,0,7.6,3.4,7.6,7.6v0.4
		C286.7,102.8,283.3,106.2,279.1,106.2z M203.3,91.7c-3.6,0-6.6,3-6.6,6.6v0.4c0,3.6,3,6.6,6.6,6.6h75.7c3.6,0,6.6-3,6.6-6.6v-0.4
		c0-3.6-3-6.6-6.6-6.6H203.3z"/>
</g>
<g>
	<path class="st0" d="M272.9,134.4h-69.6c-3.9,0-7.1-3.2-7.1-7.1v-0.4c0-3.9,3.2-7.1,7.1-7.1h69.6c3.9,0,7.1,3.2,7.1,7.1v0.4
		C280,131.3,276.8,134.4,272.9,134.4z"/>
	<path class="st1" d="M272.9,134.9h-69.6c-4.2,0-7.6-3.4-7.6-7.6v-0.4c0-4.2,3.4-7.6,7.6-7.6h69.6c4.2,0,7.6,3.4,7.6,7.6v0.4
		C280.5,131.5,277.1,134.9,272.9,134.9z M203.3,120.4c-3.6,0-6.6,2.9-6.6,6.6v0.4c0,3.6,2.9,6.6,6.6,6.6h69.6c3.6,0,6.6-2.9,6.6-6.6
		v-0.4c0-3.6-2.9-6.6-6.6-6.6H203.3z"/>
</g>
<g>
	<path class="st0" d="M328.1,192.3H203.3c-3.9,0-7.1-3.2-7.1-7.1v-0.4c0-3.9,3.2-7.1,7.1-7.1h124.7c3.9,0,7.1,3.2,7.1,7.1v0.4
		C335.2,189.1,332,192.3,328.1,192.3z"/>
	<path class="st1" d="M328.1,192.8H203.3c-4.2,0-7.6-3.4-7.6-7.6v-0.4c0-4.2,3.4-7.6,7.6-7.6h124.7c4.2,0,7.6,3.4,7.6,7.6v0.4
		C335.7,189.4,332.3,192.8,328.1,192.8z M203.3,178.2c-3.6,0-6.6,3-6.6,6.6v0.4c0,3.6,3,6.6,6.6,6.6h124.7c3.6,0,6.6-3,6.6-6.6v-0.4
		c0-3.6-3-6.6-6.6-6.6H203.3z"/>
</g>
<g>
	<path class="st0" d="M272.9,221.1h-69.6c-3.9,0-7.1-3.2-7.1-7.1v-0.4c0-3.9,3.2-7.1,7.1-7.1h69.6c3.9,0,7.1,3.2,7.1,7.1v0.4
		C280,217.9,276.8,221.1,272.9,221.1z"/>
	<path class="st1" d="M272.9,221.6h-69.6c-4.2,0-7.6-3.4-7.6-7.6v-0.4c0-4.2,3.4-7.6,7.6-7.6h69.6c4.2,0,7.6,3.4,7.6,7.6v0.4
		C280.5,218.2,277.1,221.6,272.9,221.6z M203.3,207c-3.6,0-6.6,2.9-6.6,6.6v0.4c0,3.6,2.9,6.6,6.6,6.6h69.6c3.6,0,6.6-2.9,6.6-6.6
		v-0.4c0-3.6-2.9-6.6-6.6-6.6H203.3z"/>
</g>
<g>
	<path class="st0" d="M293.8,250.8h-90.4c-3.9,0-7.1-3.2-7.1-7.1v-1.9c0-3.9,3.2-7.1,7.1-7.1h90.4c3.9,0,7.1,3.2,7.1,7.1v1.9
		C300.9,247.6,297.7,250.8,293.8,250.8z"/>
	<path class="st1" d="M293.8,251.3h-90.4c-4.2,0-7.6-3.4-7.6-7.6v-1.9c0-4.2,3.4-7.6,7.6-7.6h90.4c4.2,0,7.6,3.4,7.6,7.6v1.9
		C301.4,247.9,298,251.3,293.8,251.3z M203.4,235.2c-3.6,0-6.6,3-6.6,6.6v1.9c0,3.6,3,6.6,6.6,6.6h90.4c3.6,0,6.6-3,6.6-6.6v-1.9
		c0-3.6-3-6.6-6.6-6.6H203.4z"/>
</g>
<g>
	<path class="st0" d="M254.7,164.4h-51.4c-3.9,0-7.1-3.2-7.1-7.1v-0.4c0-3.9,3.2-7.1,7.1-7.1h51.4c3.9,0,7.1,3.2,7.1,7.1v0.4
		C261.8,161.2,258.6,164.4,254.7,164.4z"/>
	<path class="st1" d="M254.7,164.9h-51.4c-4.2,0-7.6-3.4-7.6-7.6v-0.4c0-4.2,3.4-7.6,7.6-7.6h51.4c4.2,0,7.6,3.4,7.6,7.6v0.4
		C262.3,161.5,258.9,164.9,254.7,164.9z M203.3,150.3c-3.6,0-6.6,2.9-6.6,6.6v0.4c0,3.6,3,6.6,6.6,6.6h51.4c3.6,0,6.6-2.9,6.6-6.6
		v-0.4c0-3.6-2.9-6.6-6.6-6.6H203.3z"/>
</g>
<g>
	<path d="M135.2,68.8h-6.7v5.7h1.4c0.2,0,0.4,0,0.5,0.1s0.2,0.2,0.2,0.4c0,0.1-0.1,0.3-0.2,0.4c-0.1,0.1-0.3,0.1-0.5,0.1h-3.5
		c-0.2,0-0.4,0-0.5-0.1c-0.1-0.1-0.2-0.2-0.2-0.4c0-0.1,0.1-0.3,0.2-0.4c0.1-0.1,0.3-0.1,0.5-0.1h1.1V62.7h-0.6
		c-0.2,0-0.4,0-0.5-0.1s-0.2-0.2-0.2-0.4s0.1-0.3,0.2-0.4c0.1-0.1,0.3-0.1,0.5-0.1h3c0.2,0,0.4,0,0.5,0.1c0.1,0.1,0.2,0.2,0.2,0.4
		s-0.1,0.3-0.2,0.4s-0.3,0.1-0.5,0.1h-1.4v5.2h6.7v-5.2h-1.3c-0.2,0-0.4,0-0.5-0.1s-0.2-0.2-0.2-0.4s0-0.3,0.1-0.4
		c0.1-0.1,0.3-0.1,0.5-0.1h3c0.2,0,0.4,0,0.5,0.1c0.1,0.1,0.2,0.2,0.2,0.4s-0.1,0.3-0.2,0.4s-0.3,0.1-0.5,0.1h-0.6v11.9h1.1
		c0.2,0,0.4,0,0.5,0.1s0.2,0.2,0.2,0.4c0,0.1-0.1,0.3-0.2,0.4c-0.1,0.1-0.3,0.1-0.5,0.1h-3.5c-0.2,0-0.4,0-0.5-0.1
		c-0.1-0.1-0.2-0.2-0.2-0.4c0-0.1,0-0.3,0.1-0.4c0.1-0.1,0.3-0.1,0.5-0.1h1.3V68.8z"/>
	<path d="M147,62.7v11.9h2.6c0.2,0,0.4,0,0.5,0.1s0.2,0.2,0.2,0.4c0,0.1-0.1,0.3-0.2,0.4c-0.1,0.1-0.3,0.1-0.5,0.1h-6.2
		c-0.2,0-0.4,0-0.5-0.1c-0.1-0.1-0.2-0.2-0.2-0.4c0-0.1,0.1-0.3,0.2-0.4s0.3-0.1,0.5-0.1h2.6V62.7h-4.1v3.4c0,0.2,0,0.4-0.1,0.5
		s-0.2,0.2-0.4,0.2c-0.1,0-0.3-0.1-0.4-0.2s-0.1-0.3-0.1-0.5v-4.4h11.3v4.4c0,0.2,0,0.4-0.1,0.5s-0.2,0.2-0.4,0.2s-0.3-0.1-0.4-0.2
		c-0.1-0.1-0.1-0.3-0.1-0.5v-3.4H147z"/>
	<path d="M161.9,71.4h-1.1l-3.9-8.7h-0.2v11.9h1.9c0.2,0,0.4,0,0.5,0.1s0.2,0.2,0.2,0.4c0,0.1-0.1,0.3-0.2,0.4
		c-0.1,0.1-0.3,0.1-0.5,0.1h-3.7c-0.2,0-0.4,0-0.5-0.1c-0.1-0.1-0.2-0.2-0.2-0.4c0-0.1,0.1-0.3,0.2-0.4s0.3-0.1,0.5-0.1h0.8V62.7
		H155c-0.2,0-0.4,0-0.5-0.1c-0.1-0.1-0.2-0.2-0.2-0.4s0.1-0.3,0.2-0.4c0.1-0.1,0.3-0.1,0.5-0.1h2.5l3.8,8.6l3.7-8.6h2.5
		c0.2,0,0.4,0,0.5,0.1c0.1,0.1,0.2,0.2,0.2,0.4s-0.1,0.3-0.2,0.4s-0.3,0.1-0.5,0.1h-0.6v11.9h0.8c0.2,0,0.4,0,0.5,0.1
		s0.2,0.2,0.2,0.4c0,0.1-0.1,0.3-0.2,0.4c-0.1,0.1-0.3,0.1-0.5,0.1H164c-0.2,0-0.4,0-0.5-0.1c-0.1-0.1-0.2-0.2-0.2-0.4
		c0-0.1,0.1-0.3,0.2-0.4c0.1-0.1,0.3-0.1,0.5-0.1h1.9V62.7h-0.2L161.9,71.4z"/>
	<path d="M174.2,62.7v11.9h6.7v-4c0-0.2,0-0.4,0.1-0.5c0.1-0.1,0.2-0.2,0.4-0.2c0.1,0,0.3,0,0.4,0.1c0.1,0.1,0.1,0.3,0.1,0.5v4.9
		h-11.1c-0.2,0-0.4,0-0.5-0.1c-0.1-0.1-0.2-0.2-0.2-0.4c0-0.1,0.1-0.3,0.2-0.4s0.3-0.1,0.5-0.1h2.4V62.7h-2.4c-0.2,0-0.4,0-0.5-0.1
		s-0.2-0.2-0.2-0.4s0.1-0.3,0.2-0.4c0.1-0.1,0.3-0.1,0.5-0.1h5.8c0.2,0,0.4,0,0.5,0.1c0.1,0.1,0.2,0.2,0.2,0.4s-0.1,0.3-0.2,0.4
		s-0.3,0.1-0.5,0.1H174.2z"/>
	<path d="M133.3,95.3h-6c-0.2,0-0.4,0-0.5-0.1c-0.1-0.1-0.2-0.2-0.2-0.4c0-0.1,0-0.3,0.1-0.4c0.1-0.1,0.3-0.1,0.5-0.1h7v10.9
		c0,0.8-0.2,1.5-0.5,2.1c-0.4,0.6-0.9,1-1.6,1.4c-0.5,0.2-1.1,0.4-1.7,0.4h-3.2c-0.2,0-0.4,0-0.5-0.1c-0.1-0.1-0.2-0.2-0.2-0.4
		s0.1-0.3,0.2-0.4s0.3-0.1,0.5-0.1l3.2,0c0.9,0,1.5-0.3,2.1-0.8c0.5-0.6,0.8-1.2,0.8-2V95.3z M133.3,89.2v2.6h-1.5v-2.6H133.3z"/>
	<path d="M149.4,104.6v-1.4c-1.5,1.2-3,1.8-4.7,1.8c-1.2,0-2.1-0.3-2.8-0.9c-0.7-0.6-1-1.3-1-2.2c0-1,0.4-1.8,1.3-2.5
		c0.9-0.7,2.2-1.1,3.9-1.1c0.5,0,1,0,1.5,0.1s1.1,0.2,1.8,0.3V97c0-0.5-0.3-1-0.8-1.4c-0.5-0.4-1.3-0.6-2.3-0.6
		c-0.8,0-1.9,0.2-3.3,0.7c-0.3,0.1-0.4,0.1-0.5,0.1c-0.1,0-0.2,0-0.3-0.1c-0.1-0.1-0.1-0.2-0.1-0.4c0-0.1,0-0.2,0.1-0.3
		c0.1-0.1,0.6-0.3,1.4-0.5c1.2-0.3,2.2-0.5,2.8-0.5c1.3,0,2.3,0.3,3,0.9s1.1,1.3,1.1,2.1v6.6h1.3c0.2,0,0.4,0,0.5,0.1
		s0.2,0.2,0.2,0.4c0,0.1-0.1,0.3-0.2,0.4c-0.1,0.1-0.3,0.1-0.5,0.1H149.4z M149.4,99.6c-0.5-0.1-1-0.2-1.5-0.3
		c-0.5-0.1-1.1-0.1-1.7-0.1c-1.5,0-2.6,0.3-3.4,0.9c-0.6,0.5-0.9,1-0.9,1.7c0,0.6,0.2,1.1,0.7,1.5s1.2,0.6,2.1,0.6
		c0.9,0,1.7-0.2,2.4-0.5c0.7-0.3,1.5-0.9,2.3-1.6V99.6z"/>
	<path d="M162.1,104.6h-1.7l-4.1-9.2h-1c-0.2,0-0.4,0-0.5-0.1s-0.2-0.2-0.2-0.4c0-0.1,0.1-0.3,0.2-0.4c0.1-0.1,0.3-0.1,0.5-0.1h3.8
		c0.2,0,0.4,0,0.5,0.1c0.1,0.1,0.2,0.2,0.2,0.4c0,0.1-0.1,0.3-0.2,0.4c-0.1,0.1-0.3,0.1-0.5,0.1h-1.7l3.7,8.2h0.4l3.6-8.2h-1.7
		c-0.2,0-0.4,0-0.5-0.1s-0.2-0.2-0.2-0.4c0-0.1,0.1-0.3,0.2-0.4c0.1-0.1,0.3-0.1,0.5-0.1h3.8c0.2,0,0.4,0,0.5,0.1
		c0.1,0.1,0.1,0.2,0.1,0.4c0,0.1,0,0.3-0.1,0.4s-0.3,0.1-0.5,0.1h-1L162.1,104.6z"/>
	<path d="M178.8,104.6v-1.4c-1.5,1.2-3,1.8-4.7,1.8c-1.2,0-2.1-0.3-2.8-0.9c-0.7-0.6-1-1.3-1-2.2c0-1,0.4-1.8,1.3-2.5
		c0.9-0.7,2.2-1.1,3.9-1.1c0.5,0,1,0,1.5,0.1s1.1,0.2,1.8,0.3V97c0-0.5-0.3-1-0.8-1.4c-0.5-0.4-1.3-0.6-2.3-0.6
		c-0.8,0-1.9,0.2-3.3,0.7c-0.3,0.1-0.4,0.1-0.5,0.1c-0.1,0-0.2,0-0.3-0.1c-0.1-0.1-0.1-0.2-0.1-0.4c0-0.1,0-0.2,0.1-0.3
		c0.1-0.1,0.6-0.3,1.4-0.5c1.2-0.3,2.2-0.5,2.8-0.5c1.3,0,2.3,0.3,3,0.9c0.7,0.6,1.1,1.3,1.1,2.1v6.6h1.3c0.2,0,0.4,0,0.5,0.1
		c0.1,0.1,0.2,0.2,0.2,0.4c0,0.1-0.1,0.3-0.2,0.4c-0.1,0.1-0.3,0.1-0.5,0.1H178.8z M178.8,99.6c-0.5-0.1-1-0.2-1.5-0.3
		c-0.5-0.1-1.1-0.1-1.7-0.1c-1.5,0-2.6,0.3-3.4,0.9c-0.6,0.5-0.9,1-0.9,1.7c0,0.6,0.2,1.1,0.7,1.5s1.2,0.6,2.1,0.6
		c0.9,0,1.7-0.2,2.4-0.5c0.7-0.3,1.5-0.9,2.3-1.6V99.6z"/>
	<path d="M54.6,123.4v1.8c0.6-0.7,1.2-1.3,1.9-1.6c0.7-0.4,1.5-0.5,2.4-0.5c1,0,1.9,0.2,2.7,0.7c0.8,0.5,1.5,1.1,1.9,1.9
		c0.5,0.8,0.7,1.7,0.7,2.6c0,1.4-0.5,2.6-1.5,3.7c-1,1-2.3,1.5-3.8,1.5c-1.8,0-3.2-0.7-4.4-2.2v6H57c0.2,0,0.4,0,0.5,0.1
		s0.2,0.2,0.2,0.4c0,0.1-0.1,0.3-0.2,0.4s-0.3,0.1-0.5,0.1h-4.8c-0.2,0-0.4,0-0.5-0.1c-0.1-0.1-0.2-0.2-0.2-0.4s0.1-0.3,0.2-0.4
		s0.3-0.1,0.5-0.1h1.4v-12.8h-1.4c-0.2,0-0.4,0-0.5-0.1s-0.2-0.2-0.2-0.4c0-0.1,0.1-0.3,0.2-0.4c0.1-0.1,0.3-0.1,0.5-0.1H54.6z
		 M63.3,128.2c0-1.1-0.4-2.1-1.3-2.9c-0.8-0.8-1.9-1.2-3.1-1.2c-1.2,0-2.3,0.4-3.1,1.2c-0.8,0.8-1.3,1.8-1.3,2.9
		c0,1.1,0.4,2.1,1.3,2.9s1.9,1.2,3.1,1.2c1.2,0,2.2-0.4,3.1-1.2C62.8,130.4,63.3,129.4,63.3,128.2z"/>
	<path d="M69.7,118.8v6.1c0.6-0.7,1.2-1.2,1.8-1.4s1.2-0.4,2-0.4c0.8,0,1.4,0.1,2,0.4s1,0.7,1.4,1.3c0.4,0.6,0.6,1.2,0.6,1.8v6.2
		h1.1c0.2,0,0.4,0,0.5,0.1c0.1,0.1,0.1,0.2,0.1,0.4c0,0.1,0,0.3-0.1,0.4c-0.1,0.1-0.3,0.1-0.5,0.1h-3.3c-0.2,0-0.4,0-0.5-0.1
		c-0.1-0.1-0.2-0.2-0.2-0.4c0-0.1,0.1-0.3,0.2-0.4c0.1-0.1,0.3-0.1,0.5-0.1h1.1v-6.1c0-0.7-0.3-1.3-0.8-1.8s-1.2-0.7-2.2-0.7
		c-0.7,0-1.4,0.2-1.9,0.5c-0.4,0.3-1,0.8-1.9,1.8v6.3h1.1c0.2,0,0.4,0,0.5,0.1s0.2,0.2,0.2,0.4c0,0.1-0.1,0.3-0.2,0.4
		c-0.1,0.1-0.3,0.1-0.5,0.1h-3.3c-0.2,0-0.4,0-0.5-0.1c-0.1-0.1-0.2-0.2-0.2-0.4c0-0.1,0.1-0.3,0.2-0.4c0.1-0.1,0.3-0.1,0.5-0.1h1.1
		v-12.8h-1.4c-0.2,0-0.4,0-0.5-0.1c-0.1-0.1-0.2-0.2-0.2-0.4c0-0.1,0.1-0.3,0.2-0.4c0.1-0.1,0.3-0.1,0.5-0.1H69.7z"/>
	<path d="M93.3,128.6c0,1.5-0.5,2.8-1.6,3.9c-1.1,1.1-2.4,1.6-4,1.6c-1.6,0-2.9-0.5-4-1.6c-1.1-1.1-1.6-2.4-1.6-3.9
		c0-1.5,0.5-2.8,1.6-3.9c1.1-1.1,2.4-1.6,4-1.6c1.5,0,2.9,0.5,4,1.6C92.8,125.7,93.3,127,93.3,128.6z M92.3,128.6
		c0-1.2-0.4-2.3-1.3-3.2c-0.9-0.9-2-1.3-3.3-1.3c-1.3,0-2.4,0.4-3.3,1.3c-0.9,0.9-1.3,1.9-1.3,3.2c0,1.2,0.4,2.3,1.3,3.2
		c0.9,0.9,2,1.3,3.3,1.3c1.3,0,2.4-0.4,3.3-1.3C91.9,130.9,92.3,129.8,92.3,128.6z"/>
	<path d="M100.4,123.4h5.5c0.2,0,0.4,0,0.5,0.1c0.1,0.1,0.2,0.2,0.2,0.4c0,0.1-0.1,0.3-0.2,0.4s-0.3,0.1-0.5,0.1h-5.5v6.6
		c0,0.6,0.2,1.1,0.7,1.4c0.5,0.4,1.1,0.6,2.1,0.6c0.7,0,1.4-0.1,2.2-0.3c0.8-0.2,1.4-0.4,1.8-0.7c0.2-0.1,0.3-0.2,0.4-0.2
		c0.1,0,0.2,0,0.3,0.1c0.1,0.1,0.1,0.2,0.1,0.3c0,0.1-0.1,0.2-0.2,0.3c-0.3,0.3-0.9,0.5-1.9,0.8c-1,0.3-1.9,0.5-2.8,0.5
		c-1.2,0-2.1-0.3-2.8-0.8c-0.7-0.5-1-1.3-1-2.2v-6.6h-1.9c-0.2,0-0.4,0-0.5-0.1c-0.1-0.1-0.2-0.2-0.2-0.4c0-0.1,0.1-0.3,0.2-0.4
		c0.1-0.1,0.3-0.1,0.5-0.1h1.9v-2.9c0-0.2,0-0.4,0.1-0.5c0.1-0.1,0.2-0.2,0.4-0.2c0.2,0,0.3,0.1,0.4,0.2c0.1,0.1,0.1,0.3,0.1,0.5
		V123.4z"/>
	<path d="M122.7,128.6c0,1.5-0.5,2.8-1.6,3.9c-1.1,1.1-2.4,1.6-4,1.6c-1.6,0-2.9-0.5-4-1.6c-1.1-1.1-1.6-2.4-1.6-3.9
		c0-1.5,0.5-2.8,1.6-3.9c1.1-1.1,2.4-1.6,4-1.6c1.5,0,2.9,0.5,4,1.6C122.2,125.7,122.7,127,122.7,128.6z M121.7,128.6
		c0-1.2-0.4-2.3-1.3-3.2c-0.9-0.9-2-1.3-3.3-1.3c-1.3,0-2.4,0.4-3.3,1.3c-0.9,0.9-1.3,1.9-1.3,3.2c0,1.2,0.4,2.3,1.3,3.2
		c0.9,0.9,2,1.3,3.3,1.3c1.3,0,2.4-0.4,3.3-1.3C121.3,130.9,121.7,129.8,121.7,128.6z"/>
	<path d="M135.1,124.1c0-0.2,0-0.4,0.1-0.5s0.2-0.2,0.4-0.2c0.2,0,0.3,0.1,0.4,0.2s0.1,0.3,0.1,0.5v1.7c0,0.2,0,0.4-0.1,0.5
		c-0.1,0.1-0.2,0.2-0.4,0.2c-0.1,0-0.2,0-0.3-0.1c-0.1-0.1-0.1-0.2-0.2-0.4c0-0.5-0.3-0.9-0.7-1.2c-0.7-0.4-1.5-0.7-2.6-0.7
		c-1.1,0-2,0.2-2.6,0.7c-0.5,0.3-0.7,0.7-0.7,1.1c0,0.5,0.3,0.9,0.8,1.2c0.4,0.2,1.1,0.4,2.2,0.5c1.4,0.1,2.4,0.3,2.9,0.5
		c0.8,0.3,1.3,0.7,1.7,1.1c0.4,0.5,0.6,1,0.6,1.6c0,0.8-0.4,1.6-1.2,2.3c-0.8,0.7-2,1-3.6,1s-2.9-0.4-3.9-1.2c0,0.3,0,0.4,0,0.5
		c0,0.1-0.1,0.1-0.2,0.2c-0.1,0.1-0.2,0.1-0.3,0.1c-0.1,0-0.3-0.1-0.4-0.2s-0.1-0.3-0.1-0.5v-2c0-0.2,0-0.4,0.1-0.5
		c0.1-0.1,0.2-0.2,0.4-0.2c0.1,0,0.3,0,0.4,0.1s0.1,0.2,0.1,0.4c0,0.4,0.1,0.7,0.3,0.9c0.3,0.4,0.7,0.7,1.3,0.9
		c0.6,0.2,1.4,0.4,2.2,0.4c1.3,0,2.3-0.2,2.9-0.7c0.6-0.5,1-1,1-1.5c0-0.6-0.3-1.1-1-1.5c-0.7-0.4-1.6-0.6-2.9-0.7s-2.1-0.3-2.7-0.5
		c-0.5-0.2-1-0.5-1.3-0.9c-0.3-0.4-0.5-0.9-0.5-1.3c0-0.9,0.4-1.5,1.3-2c0.8-0.5,1.9-0.8,3-0.8C133.1,123.1,134.3,123.4,135.1,124.1
		z"/>
	<path d="M143.2,118.8v6.1c0.6-0.7,1.2-1.2,1.8-1.4s1.2-0.4,2-0.4c0.8,0,1.4,0.1,2,0.4s1,0.7,1.4,1.3c0.4,0.6,0.6,1.2,0.6,1.8v6.2
		h1.1c0.2,0,0.4,0,0.5,0.1c0.1,0.1,0.1,0.2,0.1,0.4c0,0.1,0,0.3-0.1,0.4c-0.1,0.1-0.3,0.1-0.5,0.1h-3.3c-0.2,0-0.4,0-0.5-0.1
		c-0.1-0.1-0.2-0.2-0.2-0.4c0-0.1,0.1-0.3,0.2-0.4c0.1-0.1,0.3-0.1,0.5-0.1h1.1v-6.1c0-0.7-0.3-1.3-0.8-1.8s-1.2-0.7-2.2-0.7
		c-0.7,0-1.4,0.2-1.9,0.5c-0.4,0.3-1,0.8-1.9,1.8v6.3h1.1c0.2,0,0.4,0,0.5,0.1s0.2,0.2,0.2,0.4c0,0.1-0.1,0.3-0.2,0.4
		c-0.1,0.1-0.3,0.1-0.5,0.1h-3.3c-0.2,0-0.4,0-0.5-0.1c-0.1-0.1-0.2-0.2-0.2-0.4c0-0.1,0.1-0.3,0.2-0.4c0.1-0.1,0.3-0.1,0.5-0.1h1.1
		v-12.8h-1.4c-0.2,0-0.4,0-0.5-0.1c-0.1-0.1-0.2-0.2-0.2-0.4c0-0.1,0.1-0.3,0.2-0.4c0.1-0.1,0.3-0.1,0.5-0.1H143.2z"/>
	<path d="M166.8,128.6c0,1.5-0.5,2.8-1.6,3.9s-2.4,1.6-4,1.6c-1.6,0-2.9-0.5-4-1.6c-1.1-1.1-1.6-2.4-1.6-3.9c0-1.5,0.5-2.8,1.6-3.9
		c1.1-1.1,2.4-1.6,4-1.6c1.5,0,2.9,0.5,4,1.6C166.3,125.7,166.8,127,166.8,128.6z M165.8,128.6c0-1.2-0.4-2.3-1.3-3.2
		s-2-1.3-3.3-1.3c-1.3,0-2.4,0.4-3.3,1.3c-0.9,0.9-1.3,1.9-1.3,3.2c0,1.2,0.4,2.3,1.3,3.2c0.9,0.9,2,1.3,3.3,1.3
		c1.3,0,2.4-0.4,3.3-1.3C165.4,130.9,165.8,129.8,165.8,128.6z"/>
	<path d="M172.1,123.4v1.8c0.6-0.7,1.2-1.3,1.9-1.6c0.7-0.4,1.5-0.5,2.4-0.5c1,0,1.9,0.2,2.7,0.7c0.8,0.5,1.5,1.1,1.9,1.9
		c0.5,0.8,0.7,1.7,0.7,2.6c0,1.4-0.5,2.6-1.5,3.7c-1,1-2.3,1.5-3.8,1.5c-1.8,0-3.2-0.7-4.4-2.2v6h2.4c0.2,0,0.4,0,0.5,0.1
		s0.2,0.2,0.2,0.4c0,0.1-0.1,0.3-0.2,0.4s-0.3,0.1-0.5,0.1h-4.8c-0.2,0-0.4,0-0.5-0.1c-0.1-0.1-0.2-0.2-0.2-0.4s0.1-0.3,0.2-0.4
		s0.3-0.1,0.5-0.1h1.4v-12.8h-1.4c-0.2,0-0.4,0-0.5-0.1s-0.2-0.2-0.2-0.4c0-0.1,0.1-0.3,0.2-0.4c0.1-0.1,0.3-0.1,0.5-0.1H172.1z
		 M180.8,128.2c0-1.1-0.4-2.1-1.3-2.9c-0.8-0.8-1.9-1.2-3.1-1.2c-1.2,0-2.3,0.4-3.1,1.2c-0.8,0.8-1.3,1.8-1.3,2.9
		c0,1.1,0.4,2.1,1.3,2.9c0.8,0.8,1.9,1.2,3.1,1.2c1.2,0,2.2-0.4,3.1-1.2C180.4,130.4,180.8,129.4,180.8,128.2z"/>
	<path d="M17.9,149.9v-0.3c0-0.2,0-0.4,0.1-0.5c0.1-0.1,0.2-0.2,0.4-0.2s0.3,0.1,0.4,0.2c0.1,0.1,0.1,0.3,0.1,0.5v2.5
		c0,0.2,0,0.4-0.1,0.5c-0.1,0.1-0.2,0.2-0.4,0.2c-0.1,0-0.3,0-0.4-0.1c-0.1-0.1-0.1-0.2-0.1-0.5c0-0.7-0.4-1.3-1-1.8
		c-0.6-0.5-1.5-0.8-2.6-0.8c-1.1,0-2,0.3-2.6,0.8c-0.7,0.6-1,1.2-1,2c0,0.4,0.1,0.8,0.3,1.1c0.2,0.3,0.4,0.6,0.7,0.8
		c0.3,0.2,0.6,0.4,1,0.5c0.4,0.1,1,0.3,1.8,0.4c1.4,0.2,2.3,0.4,2.8,0.7c0.7,0.3,1.2,0.7,1.6,1.3c0.4,0.5,0.5,1.2,0.5,1.9
		c0,1.1-0.5,2.1-1.4,2.9s-2.2,1.2-3.7,1.2c-1.7,0-3.1-0.5-4.2-1.6v0.6c0,0.2,0,0.4-0.1,0.5c-0.1,0.1-0.2,0.2-0.4,0.2
		c-0.1,0-0.3-0.1-0.4-0.2s-0.1-0.3-0.1-0.5v-2.7c0-0.2,0-0.4,0.1-0.5c0.1-0.1,0.2-0.2,0.4-0.2c0.1,0,0.3,0,0.4,0.1
		c0.1,0.1,0.1,0.2,0.1,0.5c0,0.7,0.4,1.4,1.2,2c0.7,0.6,1.7,0.9,3,0.9c1.3,0,2.3-0.3,3-0.9s1.1-1.4,1.1-2.2c0-0.5-0.1-1-0.4-1.4
		c-0.3-0.4-0.7-0.7-1.2-1c-0.4-0.2-1.2-0.4-2.4-0.6c-1.7-0.3-2.9-0.7-3.6-1.3c-0.7-0.6-1.1-1.4-1.1-2.4c0-1,0.4-1.9,1.3-2.7
		c0.8-0.7,2-1.1,3.3-1.1C15.6,148.6,16.8,149,17.9,149.9z"/>
	<path d="M32.5,149.9v-0.3c0-0.2,0-0.4,0.1-0.5c0.1-0.1,0.2-0.2,0.4-0.2s0.3,0.1,0.4,0.2c0.1,0.1,0.1,0.3,0.1,0.5v2.5
		c0,0.2,0,0.4-0.1,0.5c-0.1,0.1-0.2,0.2-0.4,0.2c-0.1,0-0.3,0-0.4-0.1c-0.1-0.1-0.1-0.2-0.1-0.5c0-0.7-0.4-1.3-1-1.8
		c-0.6-0.5-1.5-0.8-2.6-0.8c-1.1,0-2,0.3-2.6,0.8c-0.7,0.6-1,1.2-1,2c0,0.4,0.1,0.8,0.3,1.1c0.2,0.3,0.4,0.6,0.7,0.8
		c0.3,0.2,0.6,0.4,1,0.5c0.4,0.1,1,0.3,1.8,0.4c1.4,0.2,2.3,0.4,2.8,0.7c0.7,0.3,1.2,0.7,1.6,1.3c0.4,0.5,0.5,1.2,0.5,1.9
		c0,1.1-0.5,2.1-1.4,2.9s-2.2,1.2-3.7,1.2c-1.7,0-3.1-0.5-4.2-1.6v0.6c0,0.2,0,0.4-0.1,0.5c-0.1,0.1-0.2,0.2-0.4,0.2
		c-0.1,0-0.3-0.1-0.4-0.2s-0.1-0.3-0.1-0.5v-2.7c0-0.2,0-0.4,0.1-0.5c0.1-0.1,0.2-0.2,0.4-0.2c0.1,0,0.3,0,0.4,0.1
		c0.1,0.1,0.1,0.2,0.1,0.5c0,0.7,0.4,1.4,1.2,2c0.7,0.6,1.7,0.9,3,0.9c1.3,0,2.3-0.3,3-0.9s1.1-1.4,1.1-2.2c0-0.5-0.1-1-0.4-1.4
		c-0.3-0.4-0.7-0.7-1.2-1c-0.4-0.2-1.2-0.4-2.4-0.6c-1.7-0.3-2.9-0.7-3.6-1.3c-0.7-0.6-1.1-1.4-1.1-2.4c0-1,0.4-1.9,1.3-2.7
		c0.8-0.7,2-1.1,3.3-1.1C30.3,148.6,31.5,149,32.5,149.9z"/>
	<path d="M47.1,156h-6.7v5.7h1.4c0.2,0,0.4,0,0.5,0.1s0.2,0.2,0.2,0.4c0,0.1-0.1,0.3-0.2,0.4c-0.1,0.1-0.3,0.1-0.5,0.1h-3.5
		c-0.2,0-0.4,0-0.5-0.1c-0.1-0.1-0.2-0.2-0.2-0.4c0-0.1,0.1-0.3,0.2-0.4c0.1-0.1,0.3-0.1,0.5-0.1h1.1v-11.9h-0.6
		c-0.2,0-0.4,0-0.5-0.1s-0.2-0.2-0.2-0.4s0.1-0.3,0.2-0.4c0.1-0.1,0.3-0.1,0.5-0.1h3c0.2,0,0.4,0,0.5,0.1c0.1,0.1,0.2,0.2,0.2,0.4
		s-0.1,0.3-0.2,0.4s-0.3,0.1-0.5,0.1h-1.4v5.2h6.7v-5.2h-1.3c-0.2,0-0.4,0-0.5-0.1s-0.2-0.2-0.2-0.4s0-0.3,0.1-0.4
		c0.1-0.1,0.3-0.1,0.5-0.1h3c0.2,0,0.4,0,0.5,0.1c0.1,0.1,0.2,0.2,0.2,0.4s-0.1,0.3-0.2,0.4s-0.3,0.1-0.5,0.1h-0.6v11.9h1.1
		c0.2,0,0.4,0,0.5,0.1s0.2,0.2,0.2,0.4c0,0.1-0.1,0.3-0.2,0.4c-0.1,0.1-0.3,0.1-0.5,0.1h-3.5c-0.2,0-0.4,0-0.5-0.1
		c-0.1-0.1-0.2-0.2-0.2-0.4c0-0.1,0-0.3,0.1-0.4c0.1-0.1,0.3-0.1,0.5-0.1h1.3V156z"/>
	<path d="M77.5,150.2v-0.7c0-0.2,0-0.4,0.1-0.5c0.1-0.1,0.2-0.2,0.4-0.2c0.2,0,0.3,0.1,0.4,0.2c0.1,0.1,0.1,0.3,0.1,0.5v2.8
		c0,0.2,0,0.4-0.1,0.5c-0.1,0.1-0.2,0.2-0.4,0.2c-0.1,0-0.2,0-0.3-0.1c-0.1-0.1-0.1-0.2-0.2-0.5c0-0.7-0.4-1.2-1.1-1.8
		c-0.9-0.7-2-1.1-3.2-1.1c-0.8,0-1.5,0.2-2.2,0.5c-0.5,0.2-0.9,0.5-1.2,0.9c-0.5,0.6-0.9,1.3-1.3,2c-0.2,0.6-0.3,1.2-0.3,1.9v1.7
		c0,1.5,0.5,2.8,1.6,3.9c1.1,1.1,2.3,1.6,3.8,1.6c0.9,0,1.6-0.2,2.3-0.6s1.3-0.9,2-1.7c0.1-0.2,0.3-0.2,0.5-0.2c0.1,0,0.3,0,0.3,0.1
		c0.1,0.1,0.1,0.2,0.1,0.3c0,0.2-0.2,0.5-0.5,0.8c-0.7,0.7-1.4,1.3-2.2,1.6c-0.8,0.4-1.6,0.5-2.5,0.5c-0.7,0-1.5-0.1-2.2-0.4
		c-0.6-0.2-1-0.5-1.4-0.7c-0.4-0.3-0.8-0.8-1.4-1.4c-0.5-0.7-0.9-1.3-1.1-1.9s-0.3-1.2-0.3-1.9v-2c0-1,0.3-2,0.8-3
		c0.5-1,1.3-1.8,2.2-2.4c0.9-0.5,1.9-0.8,3-0.8C74.8,148.6,76.3,149.1,77.5,150.2z"/>
	<path d="M93.3,157.6c0,1.5-0.5,2.8-1.6,3.9c-1.1,1.1-2.4,1.6-4,1.6c-1.6,0-2.9-0.5-4-1.6c-1.1-1.1-1.6-2.4-1.6-3.9
		c0-1.5,0.5-2.8,1.6-3.9c1.1-1.1,2.4-1.6,4-1.6c1.5,0,2.9,0.5,4,1.6C92.8,154.8,93.3,156.1,93.3,157.6z M92.3,157.6
		c0-1.2-0.4-2.3-1.3-3.2c-0.9-0.9-2-1.3-3.3-1.3c-1.3,0-2.4,0.4-3.3,1.3c-0.9,0.9-1.3,1.9-1.3,3.2c0,1.2,0.4,2.3,1.3,3.2
		c0.9,0.9,2,1.3,3.3,1.3c1.3,0,2.4-0.4,3.3-1.3C91.9,159.9,92.3,158.9,92.3,157.6z"/>
	<path d="M97.9,152.5v1c0.9-0.9,1.7-1.4,2.6-1.4c0.5,0,1,0.1,1.4,0.4c0.4,0.3,0.7,0.7,1,1.2c0.4-0.6,0.9-1,1.4-1.2s0.9-0.4,1.4-0.4
		c0.7,0,1.3,0.2,1.7,0.7c0.6,0.6,0.8,1.3,0.8,2v6.9h0.8c0.2,0,0.4,0,0.5,0.1c0.1,0.1,0.2,0.2,0.2,0.4c0,0.1-0.1,0.3-0.2,0.4
		c-0.1,0.1-0.3,0.1-0.5,0.1h-1.9v-7.8c0-0.5-0.2-0.9-0.5-1.3c-0.3-0.3-0.7-0.5-1.1-0.5c-0.4,0-0.8,0.1-1.2,0.4
		c-0.4,0.3-0.9,0.8-1.4,1.6v6.6h0.8c0.2,0,0.4,0,0.5,0.1s0.2,0.2,0.2,0.4c0,0.1-0.1,0.3-0.2,0.4c-0.1,0.1-0.3,0.1-0.5,0.1H102V155
		c0-0.5-0.2-1-0.5-1.3c-0.3-0.3-0.7-0.5-1.1-0.5c-0.4,0-0.7,0.1-1.1,0.3c-0.5,0.3-1,0.9-1.5,1.7v6.6h0.8c0.2,0,0.4,0,0.5,0.1
		c0.1,0.1,0.2,0.2,0.2,0.4c0,0.1-0.1,0.3-0.2,0.4c-0.1,0.1-0.3,0.1-0.5,0.1H96c-0.2,0-0.4,0-0.5-0.1c-0.1-0.1-0.2-0.2-0.2-0.4
		c0-0.1,0.1-0.3,0.2-0.4c0.1-0.1,0.3-0.1,0.5-0.1h0.8v-8.2H96c-0.2,0-0.4,0-0.5-0.1c-0.1-0.1-0.2-0.2-0.2-0.4c0-0.1,0.1-0.3,0.2-0.4
		c0.1-0.1,0.3-0.1,0.5-0.1H97.9z"/>
	<path d="M112.6,152.5v1c0.9-0.9,1.7-1.4,2.6-1.4c0.5,0,1,0.1,1.4,0.4c0.4,0.3,0.7,0.7,1,1.2c0.4-0.6,0.9-1,1.4-1.2s0.9-0.4,1.4-0.4
		c0.7,0,1.3,0.2,1.7,0.7c0.6,0.6,0.8,1.3,0.8,2v6.9h0.8c0.2,0,0.4,0,0.5,0.1c0.1,0.1,0.2,0.2,0.2,0.4c0,0.1-0.1,0.3-0.2,0.4
		c-0.1,0.1-0.3,0.1-0.5,0.1h-1.9v-7.8c0-0.5-0.2-0.9-0.5-1.3c-0.3-0.3-0.7-0.5-1.1-0.5c-0.4,0-0.8,0.1-1.2,0.4
		c-0.4,0.3-0.9,0.8-1.4,1.6v6.6h0.8c0.2,0,0.4,0,0.5,0.1s0.2,0.2,0.2,0.4c0,0.1-0.1,0.3-0.2,0.4c-0.1,0.1-0.3,0.1-0.5,0.1h-1.9V155
		c0-0.5-0.2-1-0.5-1.3c-0.3-0.3-0.7-0.5-1.1-0.5c-0.4,0-0.7,0.1-1.1,0.3c-0.5,0.3-1,0.9-1.5,1.7v6.6h0.8c0.2,0,0.4,0,0.5,0.1
		c0.1,0.1,0.2,0.2,0.2,0.4c0,0.1-0.1,0.3-0.2,0.4c-0.1,0.1-0.3,0.1-0.5,0.1h-2.7c-0.2,0-0.4,0-0.5-0.1c-0.1-0.1-0.2-0.2-0.2-0.4
		c0-0.1,0.1-0.3,0.2-0.4c0.1-0.1,0.3-0.1,0.5-0.1h0.8v-8.2h-0.8c-0.2,0-0.4,0-0.5-0.1c-0.1-0.1-0.2-0.2-0.2-0.4
		c0-0.1,0.1-0.3,0.2-0.4c0.1-0.1,0.3-0.1,0.5-0.1H112.6z"/>
	<path d="M134.7,162.7v-1.4c-1.5,1.2-3,1.8-4.7,1.8c-1.2,0-2.1-0.3-2.8-0.9c-0.7-0.6-1-1.3-1-2.2c0-1,0.4-1.8,1.3-2.5
		c0.9-0.7,2.2-1.1,3.9-1.1c0.5,0,1,0,1.5,0.1s1.1,0.2,1.8,0.3v-1.6c0-0.5-0.3-1-0.8-1.4c-0.5-0.4-1.3-0.6-2.3-0.6
		c-0.8,0-1.9,0.2-3.3,0.7c-0.3,0.1-0.4,0.1-0.5,0.1c-0.1,0-0.2,0-0.3-0.1c-0.1-0.1-0.1-0.2-0.1-0.4c0-0.1,0-0.2,0.1-0.3
		c0.1-0.1,0.6-0.3,1.4-0.5c1.2-0.3,2.2-0.5,2.8-0.5c1.3,0,2.3,0.3,3,0.9s1.1,1.3,1.1,2.1v6.6h1.3c0.2,0,0.4,0,0.5,0.1
		s0.2,0.2,0.2,0.4c0,0.1-0.1,0.3-0.2,0.4c-0.1,0.1-0.3,0.1-0.5,0.1H134.7z M134.7,157.8c-0.5-0.1-1-0.2-1.5-0.3
		c-0.5-0.1-1.1-0.1-1.7-0.1c-1.5,0-2.6,0.3-3.4,0.9c-0.6,0.5-0.9,1-0.9,1.7c0,0.6,0.2,1.1,0.7,1.5s1.2,0.6,2.1,0.6
		c0.9,0,1.7-0.2,2.4-0.5c0.7-0.3,1.5-0.9,2.3-1.6V157.8z"/>
	<path d="M143.3,152.5v1.5c0.7-0.7,1.3-1.2,1.9-1.5s1.2-0.4,1.9-0.4c0.8,0,1.5,0.2,2.1,0.5c0.4,0.2,0.9,0.6,1.2,1.2
		c0.4,0.5,0.5,1.1,0.5,1.7v6.3h0.8c0.2,0,0.4,0,0.5,0.1c0.1,0.1,0.2,0.2,0.2,0.4c0,0.1-0.1,0.3-0.2,0.4c-0.1,0.1-0.3,0.1-0.5,0.1
		h-2.7c-0.2,0-0.4,0-0.5-0.1c-0.1-0.1-0.2-0.2-0.2-0.4c0-0.1,0.1-0.3,0.2-0.4c0.1-0.1,0.3-0.1,0.5-0.1h0.8v-6.1
		c0-0.7-0.3-1.3-0.8-1.8s-1.2-0.7-2.1-0.7c-0.7,0-1.2,0.1-1.7,0.4s-1.2,0.9-2.1,2v6.2h1.1c0.2,0,0.4,0,0.5,0.1
		c0.1,0.1,0.2,0.2,0.2,0.4c0,0.1-0.1,0.3-0.2,0.4c-0.1,0.1-0.3,0.1-0.5,0.1h-3.3c-0.2,0-0.4,0-0.5-0.1c-0.1-0.1-0.2-0.2-0.2-0.4
		c0-0.1,0.1-0.3,0.2-0.4s0.3-0.1,0.5-0.1h1.1v-8.2h-0.8c-0.2,0-0.4,0-0.5-0.1c-0.1-0.1-0.2-0.2-0.2-0.4c0-0.1,0.1-0.3,0.2-0.4
		c0.1-0.1,0.3-0.1,0.5-0.1H143.3z"/>
	<path d="M166.1,147.9v13.9h1.3c0.2,0,0.4,0,0.5,0.1s0.2,0.2,0.2,0.4c0,0.1-0.1,0.3-0.2,0.4c-0.1,0.1-0.3,0.1-0.5,0.1h-2.4v-2
		c-1.2,1.6-2.6,2.4-4.4,2.4c-0.9,0-1.8-0.2-2.6-0.7c-0.8-0.5-1.5-1.2-2-2c-0.5-0.9-0.7-1.8-0.7-2.7c0-0.9,0.2-1.9,0.7-2.7
		c0.5-0.9,1.1-1.6,2-2c0.8-0.5,1.7-0.7,2.6-0.7c1.8,0,3.2,0.8,4.4,2.4v-5.6h-1.3c-0.2,0-0.4,0-0.5-0.1c-0.1-0.1-0.2-0.2-0.2-0.4
		c0-0.1,0.1-0.3,0.2-0.4c0.1-0.1,0.3-0.1,0.5-0.1H166.1z M165.1,157.6c0-1.3-0.4-2.3-1.3-3.2c-0.9-0.9-1.9-1.3-3.1-1.3
		c-1.2,0-2.2,0.4-3.1,1.3c-0.9,0.9-1.3,1.9-1.3,3.2c0,1.3,0.4,2.3,1.3,3.2c0.9,0.9,1.9,1.3,3.1,1.3c1.2,0,2.2-0.4,3.1-1.3
		C164.7,159.9,165.1,158.9,165.1,157.6z"/>
	<path d="M179.2,153.1c0-0.2,0-0.4,0.1-0.5s0.2-0.2,0.4-0.2c0.2,0,0.3,0.1,0.4,0.2s0.1,0.3,0.1,0.5v1.7c0,0.2,0,0.4-0.1,0.5
		c-0.1,0.1-0.2,0.2-0.4,0.2c-0.1,0-0.2,0-0.3-0.1s-0.1-0.2-0.2-0.4c0-0.5-0.3-0.9-0.7-1.2c-0.7-0.4-1.5-0.7-2.6-0.7
		c-1.1,0-2,0.2-2.6,0.7c-0.5,0.3-0.7,0.7-0.7,1.1c0,0.5,0.3,0.9,0.8,1.2c0.4,0.2,1.1,0.4,2.2,0.5c1.4,0.1,2.4,0.3,2.9,0.5
		c0.8,0.3,1.3,0.7,1.7,1.1c0.4,0.5,0.6,1,0.6,1.6c0,0.8-0.4,1.6-1.2,2.3c-0.8,0.7-2,1-3.6,1c-1.6,0-2.9-0.4-3.9-1.2
		c0,0.3,0,0.4,0,0.5c0,0.1-0.1,0.1-0.2,0.2c-0.1,0.1-0.2,0.1-0.3,0.1c-0.1,0-0.3-0.1-0.4-0.2s-0.1-0.3-0.1-0.5v-2
		c0-0.2,0-0.4,0.1-0.5s0.2-0.2,0.4-0.2c0.1,0,0.3,0,0.4,0.1s0.1,0.2,0.1,0.4c0,0.4,0.1,0.7,0.3,0.9c0.3,0.4,0.7,0.7,1.3,0.9
		c0.6,0.2,1.4,0.4,2.2,0.4c1.3,0,2.3-0.2,2.9-0.7s1-1,1-1.5c0-0.6-0.3-1.1-1-1.5c-0.7-0.4-1.6-0.6-2.9-0.7c-1.2-0.1-2.1-0.3-2.7-0.5
		c-0.5-0.2-1-0.5-1.3-0.9s-0.5-0.9-0.5-1.3c0-0.9,0.4-1.5,1.3-2c0.8-0.5,1.9-0.8,3-0.8C177.2,152.1,178.4,152.5,179.2,153.1z"/>
	<path d="M29.5,181.5v9.2h3.9c0.2,0,0.4,0,0.5,0.1s0.2,0.2,0.2,0.4c0,0.1-0.1,0.3-0.2,0.4s-0.3,0.1-0.5,0.1h-8.9
		c-0.2,0-0.4,0-0.5-0.1c-0.1-0.1-0.2-0.2-0.2-0.4c0-0.1,0.1-0.3,0.2-0.4c0.1-0.1,0.3-0.1,0.5-0.1h3.9v-8.2h-2.9
		c-0.2,0-0.4,0-0.5-0.1c-0.1-0.1-0.2-0.2-0.2-0.4c0-0.2,0.1-0.3,0.2-0.4c0.1-0.1,0.3-0.1,0.5-0.1H29.5z M29.5,176.5v2.6H28v-2.6
		H29.5z"/>
	<path d="M44.2,176.9v13.9h3.9c0.2,0,0.4,0,0.5,0.1s0.2,0.2,0.2,0.4c0,0.1-0.1,0.3-0.2,0.4s-0.3,0.1-0.5,0.1h-8.9
		c-0.2,0-0.4,0-0.5-0.1c-0.1-0.1-0.2-0.2-0.2-0.4c0-0.1,0.1-0.3,0.2-0.4c0.1-0.1,0.3-0.1,0.5-0.1h3.9V178h-2.9c-0.2,0-0.4,0-0.5-0.1
		c-0.1-0.1-0.2-0.2-0.2-0.4c0-0.1,0.1-0.3,0.2-0.4c0.1-0.1,0.3-0.1,0.5-0.1H44.2z"/>
	<path d="M58.9,176.9v13.9h3.9c0.2,0,0.4,0,0.5,0.1s0.2,0.2,0.2,0.4c0,0.1-0.1,0.3-0.2,0.4s-0.3,0.1-0.5,0.1h-8.9
		c-0.2,0-0.4,0-0.5-0.1c-0.1-0.1-0.2-0.2-0.2-0.4c0-0.1,0.1-0.3,0.2-0.4c0.1-0.1,0.3-0.1,0.5-0.1h3.9V178H55c-0.2,0-0.4,0-0.5-0.1
		c-0.1-0.1-0.2-0.2-0.2-0.4c0-0.1,0.1-0.3,0.2-0.4c0.1-0.1,0.3-0.1,0.5-0.1H58.9z"/>
	<path d="M76.5,191.8v-1.5c-1.4,1.2-2.9,1.8-4.4,1.8c-1,0-1.7-0.3-2.2-0.8c-0.7-0.7-1-1.5-1-2.4v-6.4h-1.4c-0.2,0-0.4,0-0.5-0.1
		c-0.1-0.1-0.2-0.2-0.2-0.4c0-0.1,0.1-0.3,0.2-0.4c0.1-0.1,0.3-0.1,0.5-0.1h2.4v7.4c0,0.6,0.2,1.2,0.6,1.6s0.9,0.6,1.6,0.6
		c1.6,0,3.1-0.7,4.5-2.2v-6.4h-1.9c-0.2,0-0.4,0-0.5-0.1c-0.1-0.1-0.2-0.2-0.2-0.4c0-0.1,0.1-0.3,0.2-0.4c0.1-0.1,0.3-0.1,0.5-0.1
		h2.9v9.2h0.8c0.2,0,0.4,0,0.5,0.1c0.1,0.1,0.2,0.2,0.2,0.4c0,0.1-0.1,0.3-0.2,0.4c-0.1,0.1-0.3,0.1-0.5,0.1H76.5z"/>
	<path d="M91.1,182.2c0-0.2,0-0.4,0.1-0.5s0.2-0.2,0.4-0.2c0.2,0,0.3,0.1,0.4,0.2s0.1,0.3,0.1,0.5v1.7c0,0.2,0,0.4-0.1,0.5
		s-0.2,0.2-0.4,0.2c-0.1,0-0.2,0-0.3-0.1c-0.1-0.1-0.1-0.2-0.2-0.4c0-0.5-0.3-0.9-0.7-1.2c-0.7-0.4-1.5-0.7-2.6-0.7
		c-1.1,0-2,0.2-2.6,0.7c-0.5,0.3-0.7,0.7-0.7,1.1c0,0.5,0.3,0.9,0.8,1.2c0.4,0.2,1.1,0.4,2.2,0.5c1.4,0.2,2.4,0.3,2.9,0.5
		c0.8,0.3,1.3,0.7,1.7,1.1c0.4,0.5,0.6,1,0.6,1.6c0,0.8-0.4,1.6-1.2,2.3c-0.8,0.7-2,1-3.6,1s-2.9-0.4-3.9-1.2c0,0.3,0,0.4,0,0.5
		c0,0.1-0.1,0.1-0.2,0.2c-0.1,0.1-0.2,0.1-0.3,0.1c-0.1,0-0.3-0.1-0.4-0.2s-0.1-0.3-0.1-0.5v-2c0-0.2,0-0.4,0.1-0.5
		c0.1-0.1,0.2-0.2,0.4-0.2c0.1,0,0.3,0,0.4,0.1c0.1,0.1,0.1,0.2,0.1,0.4c0,0.4,0.1,0.7,0.3,0.9c0.3,0.4,0.7,0.7,1.3,0.9
		c0.6,0.2,1.4,0.4,2.2,0.4c1.3,0,2.3-0.2,2.9-0.7c0.6-0.5,1-1,1-1.5c0-0.6-0.3-1.1-1-1.5c-0.7-0.4-1.6-0.6-2.9-0.7s-2.1-0.3-2.7-0.5
		s-1-0.5-1.3-0.9c-0.3-0.4-0.5-0.9-0.5-1.3c0-0.9,0.4-1.5,1.3-2c0.8-0.5,1.9-0.8,3-0.8C89.1,181.2,90.2,181.5,91.1,182.2z"/>
	<path d="M100.4,181.5h5.5c0.2,0,0.4,0,0.5,0.1s0.2,0.2,0.2,0.4c0,0.1-0.1,0.3-0.2,0.4s-0.3,0.1-0.5,0.1h-5.5v6.6
		c0,0.6,0.2,1.1,0.7,1.4s1.1,0.6,2.1,0.6c0.7,0,1.4-0.1,2.2-0.3c0.8-0.2,1.4-0.4,1.8-0.7c0.2-0.1,0.3-0.2,0.4-0.2
		c0.1,0,0.2,0,0.3,0.1c0.1,0.1,0.1,0.2,0.1,0.3c0,0.1-0.1,0.2-0.2,0.3c-0.3,0.3-0.9,0.5-1.9,0.8c-1,0.3-1.9,0.5-2.8,0.5
		c-1.2,0-2.1-0.3-2.8-0.8c-0.7-0.5-1-1.3-1-2.2v-6.6h-1.9c-0.2,0-0.4,0-0.5-0.1c-0.1-0.1-0.2-0.2-0.2-0.4c0-0.1,0.1-0.3,0.2-0.4
		c0.1-0.1,0.3-0.1,0.5-0.1h1.9v-2.9c0-0.2,0-0.4,0.1-0.5s0.2-0.2,0.4-0.2c0.2,0,0.3,0.1,0.4,0.2s0.1,0.3,0.1,0.5V181.5z"/>
	<path d="M115.9,181.5v2.5c1.3-1.2,2.3-1.9,2.9-2.3c0.6-0.3,1.2-0.5,1.8-0.5c0.6,0,1.2,0.2,1.7,0.6c0.5,0.4,0.8,0.7,0.8,0.9
		c0,0.1-0.1,0.3-0.1,0.4s-0.2,0.1-0.4,0.1c-0.1,0-0.1,0-0.2,0c-0.1,0-0.2-0.1-0.3-0.3c-0.3-0.3-0.5-0.5-0.7-0.6
		c-0.2-0.1-0.4-0.2-0.6-0.2c-0.4,0-1,0.2-1.6,0.5c-0.6,0.3-1.7,1.2-3.2,2.5v5.4h4.4c0.2,0,0.4,0,0.5,0.1c0.1,0.1,0.2,0.2,0.2,0.4
		c0,0.1-0.1,0.3-0.2,0.4c-0.1,0.1-0.3,0.1-0.5,0.1h-7.9c-0.2,0-0.4,0-0.5-0.1c-0.1-0.1-0.2-0.2-0.2-0.3c0-0.1,0-0.2,0.1-0.3
		c0.1-0.1,0.3-0.1,0.5-0.1h2.4v-8.3h-1.9c-0.2,0-0.4,0-0.5-0.1s-0.2-0.2-0.2-0.4c0-0.1,0-0.3,0.1-0.4s0.3-0.1,0.5-0.1H115.9z"/>
	<path d="M134.7,191.8v-1.4c-1.5,1.2-3,1.8-4.7,1.8c-1.2,0-2.1-0.3-2.8-0.9c-0.7-0.6-1-1.3-1-2.2c0-1,0.4-1.8,1.3-2.5
		c0.9-0.7,2.2-1.1,3.9-1.1c0.5,0,1,0,1.5,0.1c0.5,0.1,1.1,0.2,1.8,0.3v-1.6c0-0.5-0.3-1-0.8-1.4c-0.5-0.4-1.3-0.6-2.3-0.6
		c-0.8,0-1.9,0.2-3.3,0.7c-0.3,0.1-0.4,0.1-0.5,0.1c-0.1,0-0.2,0-0.3-0.1s-0.1-0.2-0.1-0.4c0-0.1,0-0.2,0.1-0.3
		c0.1-0.1,0.6-0.3,1.4-0.5c1.2-0.3,2.2-0.5,2.8-0.5c1.3,0,2.3,0.3,3,0.9s1.1,1.3,1.1,2.1v6.6h1.3c0.2,0,0.4,0,0.5,0.1
		s0.2,0.2,0.2,0.4c0,0.1-0.1,0.3-0.2,0.4s-0.3,0.1-0.5,0.1H134.7z M134.7,186.8c-0.5-0.1-1-0.2-1.5-0.3c-0.5-0.1-1.1-0.1-1.7-0.1
		c-1.5,0-2.6,0.3-3.4,0.9c-0.6,0.5-0.9,1-0.9,1.7c0,0.6,0.2,1.1,0.7,1.5c0.5,0.4,1.2,0.6,2.1,0.6c0.9,0,1.7-0.2,2.4-0.5
		c0.7-0.3,1.5-0.9,2.3-1.6V186.8z"/>
	<path d="M144.5,181.5h5.5c0.2,0,0.4,0,0.5,0.1s0.2,0.2,0.2,0.4c0,0.1-0.1,0.3-0.2,0.4s-0.3,0.1-0.5,0.1h-5.5v6.6
		c0,0.6,0.2,1.1,0.7,1.4s1.1,0.6,2.1,0.6c0.7,0,1.4-0.1,2.2-0.3c0.8-0.2,1.4-0.4,1.8-0.7c0.2-0.1,0.3-0.2,0.4-0.2
		c0.1,0,0.2,0,0.3,0.1c0.1,0.1,0.1,0.2,0.1,0.3c0,0.1-0.1,0.2-0.2,0.3c-0.3,0.3-0.9,0.5-1.9,0.8c-1,0.3-1.9,0.5-2.8,0.5
		c-1.2,0-2.1-0.3-2.8-0.8c-0.7-0.5-1-1.3-1-2.2v-6.6h-1.9c-0.2,0-0.4,0-0.5-0.1c-0.1-0.1-0.2-0.2-0.2-0.4c0-0.1,0.1-0.3,0.2-0.4
		c0.1-0.1,0.3-0.1,0.5-0.1h1.9v-2.9c0-0.2,0-0.4,0.1-0.5s0.2-0.2,0.4-0.2c0.2,0,0.3,0.1,0.4,0.2s0.1,0.3,0.1,0.5V181.5z"/>
	<path d="M166.8,186.7c0,1.5-0.5,2.8-1.6,3.9c-1.1,1.1-2.4,1.6-4,1.6c-1.6,0-2.9-0.5-4-1.6c-1.1-1.1-1.6-2.4-1.6-3.9
		c0-1.5,0.5-2.8,1.6-3.9c1.1-1.1,2.4-1.6,4-1.6c1.5,0,2.9,0.5,4,1.6S166.8,185.2,166.8,186.7z M165.8,186.7c0-1.2-0.4-2.3-1.3-3.2
		c-0.9-0.9-2-1.3-3.3-1.3c-1.3,0-2.4,0.4-3.3,1.3c-0.9,0.9-1.3,1.9-1.3,3.2c0,1.2,0.4,2.3,1.3,3.2c0.9,0.9,2,1.3,3.3,1.3
		c1.3,0,2.4-0.4,3.3-1.3C165.4,189,165.8,187.9,165.8,186.7z"/>
	<path d="M174.7,181.5v2.5c1.3-1.2,2.3-1.9,2.9-2.3c0.6-0.3,1.2-0.5,1.8-0.5c0.6,0,1.2,0.2,1.7,0.6c0.5,0.4,0.8,0.7,0.8,0.9
		c0,0.1,0,0.3-0.1,0.4s-0.2,0.1-0.4,0.1c-0.1,0-0.1,0-0.2,0c-0.1,0-0.2-0.1-0.3-0.3c-0.3-0.3-0.5-0.5-0.7-0.6
		c-0.2-0.1-0.4-0.2-0.6-0.2c-0.4,0-1,0.2-1.6,0.5c-0.6,0.3-1.7,1.2-3.2,2.5v5.4h4.4c0.2,0,0.4,0,0.5,0.1s0.2,0.2,0.2,0.4
		c0,0.1-0.1,0.3-0.2,0.4s-0.3,0.1-0.5,0.1h-7.9c-0.2,0-0.4,0-0.5-0.1s-0.2-0.2-0.2-0.3c0-0.1,0-0.2,0.1-0.3s0.3-0.1,0.5-0.1h2.4
		v-8.3h-1.9c-0.2,0-0.4,0-0.5-0.1c-0.1-0.1-0.2-0.2-0.2-0.4c0-0.1,0-0.3,0.1-0.4s0.3-0.1,0.5-0.1H174.7z"/>
	<path d="M98.6,210.6v1.8c0.6-0.7,1.2-1.3,1.9-1.6c0.7-0.4,1.5-0.5,2.4-0.5c1,0,1.9,0.2,2.7,0.7s1.5,1.1,1.9,1.9s0.7,1.7,0.7,2.6
		c0,1.4-0.5,2.6-1.5,3.7c-1,1-2.3,1.5-3.8,1.5c-1.8,0-3.2-0.7-4.4-2.2v6h2.4c0.2,0,0.4,0,0.5,0.1s0.2,0.2,0.2,0.4
		c0,0.1-0.1,0.3-0.2,0.4s-0.3,0.1-0.5,0.1h-4.8c-0.2,0-0.4,0-0.5-0.1s-0.2-0.2-0.2-0.4c0-0.2,0.1-0.3,0.2-0.4s0.3-0.1,0.5-0.1h1.4
		v-12.8h-1.4c-0.2,0-0.4,0-0.5-0.1s-0.2-0.2-0.2-0.4c0-0.1,0.1-0.3,0.2-0.4s0.3-0.1,0.5-0.1H98.6z M107.4,215.4
		c0-1.1-0.4-2.1-1.3-2.9c-0.8-0.8-1.9-1.2-3.1-1.2c-1.2,0-2.3,0.4-3.1,1.2s-1.3,1.8-1.3,2.9c0,1.1,0.4,2.1,1.3,2.9
		c0.8,0.8,1.9,1.2,3.1,1.2c1.2,0,2.2-0.4,3.1-1.2C106.9,217.6,107.4,216.6,107.4,215.4z"/>
	<path d="M117.2,220.9l-4.7-9.2h-0.3c-0.2,0-0.4,0-0.5-0.1s-0.2-0.2-0.2-0.4c0-0.1,0-0.2,0.1-0.3s0.1-0.1,0.2-0.2
		c0.1,0,0.2-0.1,0.4-0.1h2.8c0.2,0,0.4,0,0.5,0.1s0.2,0.2,0.2,0.4c0,0.1-0.1,0.3-0.2,0.4s-0.3,0.1-0.5,0.1h-1.4l4.1,8.2l4-8.2h-1.4
		c-0.2,0-0.4,0-0.5-0.1s-0.2-0.2-0.2-0.4c0-0.1,0.1-0.3,0.2-0.4s0.3-0.1,0.5-0.1h2.7c0.2,0,0.4,0,0.5,0.1s0.2,0.2,0.2,0.4
		c0,0.1,0,0.2-0.1,0.3c-0.1,0.1-0.1,0.1-0.2,0.2s-0.3,0-0.7,0l-6.4,12.8h1.6c0.2,0,0.4,0,0.5,0.1s0.2,0.2,0.2,0.4
		c0,0.1-0.1,0.3-0.2,0.4s-0.3,0.1-0.5,0.1h-5.8c-0.2,0-0.4,0-0.5-0.1s-0.2-0.2-0.2-0.4c0-0.2,0.1-0.3,0.2-0.4s0.3-0.1,0.5-0.1h3.1
		L117.2,220.9z"/>
	<path d="M129.8,210.6h5.5c0.2,0,0.4,0,0.5,0.1s0.2,0.2,0.2,0.4c0,0.1-0.1,0.3-0.2,0.4s-0.3,0.1-0.5,0.1h-5.5v6.6
		c0,0.6,0.2,1.1,0.7,1.4s1.1,0.6,2.1,0.6c0.7,0,1.4-0.1,2.2-0.3c0.8-0.2,1.4-0.4,1.8-0.7c0.2-0.1,0.3-0.2,0.4-0.2
		c0.1,0,0.2,0,0.3,0.1c0.1,0.1,0.1,0.2,0.1,0.3c0,0.1-0.1,0.2-0.2,0.3c-0.3,0.3-0.9,0.5-1.9,0.8c-1,0.3-1.9,0.5-2.8,0.5
		c-1.2,0-2.1-0.3-2.8-0.8c-0.7-0.5-1-1.3-1-2.2v-6.6h-1.9c-0.2,0-0.4,0-0.5-0.1c-0.1-0.1-0.2-0.2-0.2-0.4c0-0.1,0.1-0.3,0.2-0.4
		c0.1-0.1,0.3-0.1,0.5-0.1h1.9v-2.9c0-0.2,0-0.4,0.1-0.5s0.2-0.2,0.4-0.2c0.2,0,0.3,0.1,0.4,0.2s0.1,0.3,0.1,0.5V210.6z"/>
	<path d="M143.2,206v6.1c0.6-0.7,1.2-1.2,1.8-1.4c0.6-0.3,1.2-0.4,2-0.4c0.8,0,1.4,0.1,2,0.4c0.5,0.3,1,0.7,1.4,1.3
		c0.4,0.6,0.6,1.2,0.6,1.8v6.2h1.1c0.2,0,0.4,0,0.5,0.1c0.1,0.1,0.1,0.2,0.1,0.4c0,0.1,0,0.3-0.1,0.4c-0.1,0.1-0.3,0.1-0.5,0.1h-3.3
		c-0.2,0-0.4,0-0.5-0.1c-0.1-0.1-0.2-0.2-0.2-0.4c0-0.1,0.1-0.3,0.2-0.4c0.1-0.1,0.3-0.1,0.5-0.1h1.1v-6.1c0-0.7-0.3-1.3-0.8-1.8
		c-0.5-0.5-1.2-0.7-2.2-0.7c-0.7,0-1.4,0.2-1.9,0.5c-0.4,0.3-1,0.8-1.9,1.8v6.3h1.1c0.2,0,0.4,0,0.5,0.1s0.2,0.2,0.2,0.4
		c0,0.1-0.1,0.3-0.2,0.4s-0.3,0.1-0.5,0.1h-3.3c-0.2,0-0.4,0-0.5-0.1c-0.1-0.1-0.2-0.2-0.2-0.4c0-0.1,0.1-0.3,0.2-0.4
		c0.1-0.1,0.3-0.1,0.5-0.1h1.1V207h-1.4c-0.2,0-0.4,0-0.5-0.1c-0.1-0.1-0.2-0.2-0.2-0.4c0-0.1,0.1-0.3,0.2-0.4
		c0.1-0.1,0.3-0.1,0.5-0.1H143.2z"/>
	<path d="M166.8,215.8c0,1.5-0.5,2.8-1.6,3.9c-1.1,1.1-2.4,1.6-4,1.6c-1.6,0-2.9-0.5-4-1.6c-1.1-1.1-1.6-2.4-1.6-3.9
		c0-1.5,0.5-2.8,1.6-3.9c1.1-1.1,2.4-1.6,4-1.6c1.5,0,2.9,0.5,4,1.6S166.8,214.2,166.8,215.8z M165.8,215.8c0-1.2-0.4-2.3-1.3-3.2
		c-0.9-0.9-2-1.3-3.3-1.3c-1.3,0-2.4,0.4-3.3,1.3c-0.9,0.9-1.3,1.9-1.3,3.2c0,1.2,0.4,2.3,1.3,3.2c0.9,0.9,2,1.3,3.3,1.3
		c1.3,0,2.4-0.4,3.3-1.3C165.4,218.1,165.8,217,165.8,215.8z"/>
	<path d="M172.7,210.6v1.5c0.7-0.7,1.3-1.2,1.9-1.5c0.6-0.3,1.2-0.4,1.9-0.4c0.8,0,1.5,0.2,2.1,0.5c0.4,0.2,0.9,0.6,1.2,1.2
		c0.4,0.5,0.5,1.1,0.5,1.7v6.3h0.8c0.2,0,0.4,0,0.5,0.1s0.2,0.2,0.2,0.4c0,0.1-0.1,0.3-0.2,0.4s-0.3,0.1-0.5,0.1h-2.7
		c-0.2,0-0.4,0-0.5-0.1s-0.2-0.2-0.2-0.4c0-0.1,0.1-0.3,0.2-0.4s0.3-0.1,0.5-0.1h0.8v-6.1c0-0.7-0.3-1.3-0.8-1.8
		c-0.5-0.5-1.2-0.7-2.1-0.7c-0.7,0-1.2,0.1-1.7,0.4c-0.5,0.3-1.2,0.9-2.1,2v6.2h1.1c0.2,0,0.4,0,0.5,0.1s0.2,0.2,0.2,0.4
		c0,0.1-0.1,0.3-0.2,0.4s-0.3,0.1-0.5,0.1h-3.3c-0.2,0-0.4,0-0.5-0.1c-0.1-0.1-0.2-0.2-0.2-0.4c0-0.1,0.1-0.3,0.2-0.4
		c0.1-0.1,0.3-0.1,0.5-0.1h1.1v-8.2h-0.8c-0.2,0-0.4,0-0.5-0.1s-0.2-0.2-0.2-0.4c0-0.1,0.1-0.3,0.2-0.4s0.3-0.1,0.5-0.1H172.7z"/>
	<path d="M150.9,237.5v-0.7c0-0.2,0-0.4,0.1-0.5c0.1-0.1,0.2-0.2,0.4-0.2c0.2,0,0.3,0.1,0.4,0.2c0.1,0.1,0.1,0.3,0.1,0.5v2.8
		c0,0.2,0,0.4-0.1,0.5c-0.1,0.1-0.2,0.2-0.4,0.2c-0.1,0-0.2,0-0.3-0.1c-0.1-0.1-0.1-0.2-0.2-0.5c0-0.7-0.4-1.2-1.1-1.8
		c-0.9-0.7-2-1.1-3.2-1.1c-0.8,0-1.5,0.2-2.2,0.5c-0.5,0.2-0.9,0.5-1.2,0.9c-0.5,0.6-0.9,1.3-1.3,2c-0.2,0.6-0.3,1.2-0.3,1.9v1.7
		c0,1.5,0.5,2.8,1.6,3.9c1.1,1.1,2.3,1.6,3.8,1.6c0.9,0,1.6-0.2,2.3-0.6c0.7-0.4,1.3-0.9,2-1.7c0.1-0.2,0.3-0.2,0.5-0.2
		c0.1,0,0.3,0,0.3,0.1c0.1,0.1,0.1,0.2,0.1,0.3c0,0.2-0.2,0.5-0.5,0.8c-0.7,0.7-1.4,1.3-2.2,1.6c-0.8,0.4-1.6,0.6-2.5,0.6
		c-0.7,0-1.5-0.1-2.2-0.4c-0.6-0.2-1-0.5-1.4-0.7c-0.4-0.3-0.8-0.8-1.4-1.4c-0.5-0.7-0.9-1.3-1.1-1.9c-0.2-0.6-0.3-1.2-0.3-1.9v-2
		c0-1,0.3-2,0.8-3c0.5-1,1.3-1.8,2.2-2.4c0.9-0.5,1.9-0.8,3-0.8C148.3,235.8,149.7,236.3,150.9,237.5z"/>
	<path d="M164.8,237.1v-0.3c0-0.2,0-0.4,0.1-0.5s0.2-0.2,0.4-0.2c0.2,0,0.3,0.1,0.4,0.2s0.1,0.3,0.1,0.5v2.5c0,0.2,0,0.4-0.1,0.5
		s-0.2,0.2-0.4,0.2c-0.1,0-0.3,0-0.4-0.1s-0.1-0.2-0.2-0.5c0-0.7-0.4-1.3-1-1.8c-0.7-0.5-1.5-0.8-2.6-0.8c-1.1,0-2,0.3-2.6,0.8
		c-0.7,0.6-1,1.2-1,2c0,0.4,0.1,0.8,0.3,1.1c0.2,0.3,0.4,0.6,0.7,0.8s0.6,0.4,1,0.5c0.4,0.1,1,0.3,1.8,0.4c1.4,0.2,2.3,0.4,2.8,0.7
		c0.7,0.3,1.2,0.7,1.6,1.3c0.4,0.5,0.5,1.2,0.5,1.9c0,1.1-0.5,2.1-1.4,2.9c-0.9,0.8-2.2,1.2-3.7,1.2c-1.7,0-3.1-0.5-4.2-1.6v0.6
		c0,0.2,0,0.4-0.1,0.5c-0.1,0.1-0.2,0.2-0.4,0.2c-0.1,0-0.3-0.1-0.4-0.2s-0.1-0.3-0.1-0.5v-2.7c0-0.2,0-0.4,0.1-0.5
		c0.1-0.1,0.2-0.2,0.4-0.2c0.1,0,0.3,0,0.4,0.1s0.1,0.2,0.1,0.5c0,0.7,0.4,1.4,1.2,2c0.7,0.6,1.7,0.9,3,0.9c1.3,0,2.3-0.3,3-0.9
		c0.7-0.6,1.1-1.4,1.1-2.2c0-0.5-0.1-1-0.4-1.4c-0.3-0.4-0.7-0.7-1.2-1c-0.4-0.2-1.2-0.4-2.4-0.6c-1.7-0.3-2.9-0.7-3.6-1.3
		c-0.7-0.6-1.1-1.4-1.1-2.4c0-1,0.4-1.9,1.3-2.7c0.8-0.7,2-1.1,3.3-1.1C162.6,235.8,163.8,236.2,164.8,237.1z"/>
	<path d="M179.5,237.1v-0.3c0-0.2,0-0.4,0.1-0.5s0.2-0.2,0.4-0.2s0.3,0.1,0.4,0.2s0.1,0.3,0.1,0.5v2.5c0,0.2,0,0.4-0.1,0.5
		s-0.2,0.2-0.4,0.2c-0.1,0-0.3,0-0.4-0.1s-0.1-0.2-0.1-0.5c0-0.7-0.4-1.3-1-1.8s-1.5-0.8-2.6-0.8c-1.1,0-2,0.3-2.6,0.8
		c-0.7,0.6-1,1.2-1,2c0,0.4,0.1,0.8,0.3,1.1c0.2,0.3,0.4,0.6,0.7,0.8c0.3,0.2,0.6,0.4,1,0.5c0.4,0.1,1,0.3,1.8,0.4
		c1.4,0.2,2.3,0.4,2.8,0.7c0.7,0.3,1.2,0.7,1.6,1.3c0.4,0.5,0.5,1.2,0.5,1.9c0,1.1-0.5,2.1-1.4,2.9c-0.9,0.8-2.2,1.2-3.7,1.2
		c-1.7,0-3.1-0.5-4.2-1.6v0.6c0,0.2,0,0.4-0.1,0.5s-0.2,0.2-0.4,0.2c-0.1,0-0.3-0.1-0.4-0.2s-0.1-0.3-0.1-0.5v-2.7
		c0-0.2,0-0.4,0.1-0.5s0.2-0.2,0.4-0.2c0.1,0,0.3,0,0.4,0.1c0.1,0.1,0.1,0.2,0.1,0.5c0,0.7,0.4,1.4,1.2,2c0.7,0.6,1.7,0.9,3,0.9
		s2.3-0.3,3-0.9c0.7-0.6,1.1-1.4,1.1-2.2c0-0.5-0.1-1-0.4-1.4c-0.3-0.4-0.7-0.7-1.2-1c-0.4-0.2-1.2-0.4-2.4-0.6
		c-1.7-0.3-2.9-0.7-3.6-1.3c-0.7-0.6-1.1-1.4-1.1-2.4c0-1,0.4-1.9,1.3-2.7c0.8-0.7,2-1.1,3.3-1.1
		C177.3,235.8,178.5,236.2,179.5,237.1z"/>
	<path d="M149.9,270.6v-1.8h2.4c0.2,0,0.4,0,0.5,0.1c0.1,0.1,0.2,0.2,0.2,0.4c0,0.1-0.1,0.3-0.2,0.4c-0.1,0.1-0.3,0.1-0.5,0.1h-1.4
		v9.9c0,0.7-0.1,1.3-0.4,1.8c-0.2,0.3-0.5,0.7-1,1.1c-0.4,0.4-0.9,0.6-1.2,0.8c-0.4,0.2-0.9,0.2-1.5,0.2H144c-0.2,0-0.4,0-0.5-0.1
		s-0.2-0.2-0.2-0.4c0-0.2,0.1-0.3,0.2-0.4s0.3-0.1,0.5-0.1l2.9,0c0.6,0,1.1-0.2,1.6-0.4c0.5-0.3,0.9-0.7,1.2-1.3
		c0.2-0.3,0.3-0.8,0.3-1.3v-3c-1.1,1.5-2.5,2.2-4.2,2.2c-1.4,0-2.6-0.5-3.6-1.5c-1-1-1.5-2.2-1.5-3.7c0-1.4,0.5-2.6,1.5-3.7
		s2.2-1.5,3.6-1.5C147.4,268.4,148.8,269.1,149.9,270.6z M149.9,273.6c0-1.2-0.4-2.2-1.2-3c-0.8-0.8-1.8-1.2-2.9-1.2
		s-2.1,0.4-2.9,1.2c-0.8,0.8-1.2,1.8-1.2,3c0,1.2,0.4,2.2,1.2,3c0.8,0.8,1.8,1.2,2.9,1.2s2.1-0.4,2.9-1.2
		C149.5,275.7,149.9,274.7,149.9,273.6z"/>
	<path d="M161.7,268.8v9.2h3.9c0.2,0,0.4,0,0.5,0.1s0.2,0.2,0.2,0.4c0,0.1-0.1,0.3-0.2,0.4s-0.3,0.1-0.5,0.1h-8.9
		c-0.2,0-0.4,0-0.5-0.1c-0.1-0.1-0.2-0.2-0.2-0.4c0-0.1,0.1-0.3,0.2-0.4c0.1-0.1,0.3-0.1,0.5-0.1h3.9v-8.2h-2.9
		c-0.2,0-0.4,0-0.5-0.1c-0.1-0.1-0.2-0.2-0.2-0.4c0-0.2,0.1-0.3,0.2-0.4c0.1-0.1,0.3-0.1,0.5-0.1H161.7z M161.7,263.7v2.6h-1.5v-2.6
		H161.7z"/>
	<path d="M173.8,268.8h5.5c0.2,0,0.4,0,0.5,0.1c0.1,0.1,0.2,0.2,0.2,0.4c0,0.1-0.1,0.3-0.2,0.4c-0.1,0.1-0.3,0.1-0.5,0.1h-5.5v6.6
		c0,0.6,0.2,1.1,0.7,1.4c0.5,0.4,1.1,0.6,2.1,0.6c0.7,0,1.4-0.1,2.2-0.3c0.8-0.2,1.4-0.4,1.8-0.7c0.2-0.1,0.3-0.2,0.4-0.2
		c0.1,0,0.2,0,0.3,0.1s0.1,0.2,0.1,0.3c0,0.1-0.1,0.2-0.2,0.3c-0.3,0.3-0.9,0.5-1.9,0.8c-1,0.3-1.9,0.5-2.8,0.5
		c-1.2,0-2.1-0.3-2.8-0.8s-1-1.3-1-2.2v-6.6H171c-0.2,0-0.4,0-0.5-0.1s-0.2-0.2-0.2-0.4c0-0.1,0.1-0.3,0.2-0.4s0.3-0.1,0.5-0.1h1.9
		v-2.9c0-0.2,0-0.4,0.1-0.5s0.2-0.2,0.4-0.2c0.2,0,0.3,0.1,0.4,0.2s0.1,0.3,0.1,0.5V268.8z"/>
</g>
<g>
</g>
<g>
</g>
<g>
</g>
<g>
</g>
<g>
</g>
</svg>
