<?xml version="1.0" encoding="utf-8"?>
<!-- Generator: Adobe Illustrator 21.1.0, SVG Export Plug-In . SVG Version: 6.00 Build 0)  -->
<svg version="1.1" id="Layer_1" xmlns="http://www.w3.org/2000/svg" xmlns:xlink="http://www.w3.org/1999/xlink" x="0px" y="0px"
	 viewBox="0 0 1200 660" style="enable-background:new 0 0 1200 660;" xml:space="preserve">
<style type="text/css">
	.st0{fill:#E6E6E6;stroke:#B3B3B3;stroke-linecap:round;stroke-miterlimit:10;}
	.st1{font-family:'CourierNewPSMT';}
	.st2{font-size:42.4144px;}
</style>
<path class="st0" d="M783.3,521.3H651c-3.9,0-7.1-3.2-7.1-7.1v-11.3c0-3.9,3.2-7.1,7.1-7.1h132.4c3.9,0,7.1,3.2,7.1,7.1v11.3
	C790.4,518.1,787.2,521.3,783.3,521.3z"/>
<path class="st0" d="M854.9,164.2h-204c-3.9,0-7.1-3.2-7.1-7.1v-11.3c0-3.9,3.2-7.1,7.1-7.1h204c3.9,0,7.1,3.2,7.1,7.1v11.3
	C862,161,858.8,164.2,854.9,164.2z"/>
<path class="st0" d="M794.2,216.2H650.9c-3.9,0-7.1-3.2-7.1-7.1v-11.3c0-3.9,3.2-7.1,7.1-7.1h143.3c3.9,0,7.1,3.2,7.1,7.1v11.3
	C801.3,213,798.1,216.2,794.2,216.2z"/>
<path class="st0" d="M783.4,266.5H650.9c-3.9,0-7.1-3.2-7.1-7.1V248c0-3.9,3.2-7.1,7.1-7.1h132.4c3.9,0,7.1,3.2,7.1,7.1v11.4
	C790.4,263.3,787.3,266.5,783.4,266.5z"/>
<path class="st0" d="M880,367.8H651c-3.9,0-7.1-3.2-7.1-7.1v-11.3c0-3.9,3.2-7.1,7.1-7.1h229c3.9,0,7.1,3.2,7.1,7.1v11.3
	C887.1,364.6,883.9,367.8,880,367.8z"/>
<path class="st0" d="M783.4,418.2H650.9c-3.9,0-7.1-3.2-7.1-7.1v-11.4c0-3.9,3.2-7.1,7.1-7.1h132.4c3.9,0,7.1,3.2,7.1,7.1v11.4
	C790.4,415,787.3,418.2,783.4,418.2z"/>
<path class="st0" d="M819.9,470.2H651c-3.9,0-7.1-3.2-7.1-7.1v-14c0-3.9,3.2-7.1,7.1-7.1h169c3.9,0,7.1,3.2,7.1,7.1v14
	C827,467,823.9,470.2,819.9,470.2z"/>
<path class="st0" d="M751.5,318.9H650.9c-3.9,0-7.1-3.2-7.1-7.1v-11.3c0-3.9,3.2-7.1,7.1-7.1h100.6c3.9,0,7.1,3.2,7.1,7.1v11.3
	C758.6,315.7,755.4,318.9,751.5,318.9z"/>
<text transform="matrix(1.0109 0 0 1 518.1812 163.3313)"><tspan x="0" y="0" class="st1 st2">HTML</tspan><tspan x="0" y="50.9" class="st1 st2">java</tspan><tspan x="-127.3" y="101.8" class="st1 st2">photoshop</tspan><tspan x="-203.6" y="152.7" class="st1 st2">SSH Commands</tspan><tspan x="-178.2" y="203.6" class="st1 st2">illustrator</tspan><tspan x="-50.9" y="254.5" class="st1 st2">python</tspan><tspan x="25.5" y="305.4" class="st1 st2">CSS</tspan><tspan x="25.5" y="356.3" class="st1 st2">git</tspan></text>
</svg>
